<?xml version="1.0" encoding="utf-8"?>
<!-- Generator: Adobe Illustrator 22.1.0, SVG Export Plug-In . SVG Version: 6.00 Build 0)  -->
<svg version="1.1" id="Layer_1" xmlns="http://www.w3.org/2000/svg" xmlns:xlink="http://www.w3.org/1999/xlink" x="0px" y="0px"
	 viewBox="0 0 20.1 20.1" style="enable-background:new 0 0 20.1 20.1;" xml:space="preserve">
<style type="text/css">
	.st0{fill:#5D5D5D;}
</style>
<g>
	<g>
		<g>
			<polygon class="st0" points="13.9,11.2 12.9,12.2 10,9.4 7.2,12.2 6.2,11.2 10,7.3 			"/>
		</g>
		<g>
			<path class="st0" d="M20.1,10c0,5.5-4.5,10-10,10c-5.5,0-10-4.5-10-10C0,4.5,4.5,0,10,0C15.6,0,20.1,4.5,20.1,10z M1.4,10
				c0,4.7,3.9,8.6,8.6,8.6c4.7,0,8.6-3.9,8.6-8.6S14.8,1.4,10,1.4C5.3,1.4,1.4,5.3,1.4,10z"/>
		</g>
	</g>
</g>
</svg>
