<?xml version="1.0" encoding="utf-8"?>
<!-- Generator: Adobe Illustrator 22.1.0, SVG Export Plug-In . SVG Version: 6.00 Build 0)  -->
<svg version="1.1" id="Layer_1" xmlns="http://www.w3.org/2000/svg" xmlns:xlink="http://www.w3.org/1999/xlink" x="0px" y="0px"
	 viewBox="0 0 20.1 20.1" style="enable-background:new 0 0 20.1 20.1;" xml:space="preserve">
<style type="text/css">
	.st0{opacity:0.4;}
	.st1{fill:#5D5D5D;}
</style>
<g class="st0">
	<g>
		<g>
			<polygon class="st1" points="13.9,11.3 12.9,12.3 10,9.5 7.2,12.3 6.2,11.3 10,7.4 			"/>
		</g>
		<g>
			<path class="st1" d="M20.1,10.1c0,5.5-4.5,10-10,10c-5.5,0-10-4.5-10-10c0-5.5,4.5-10,10-10C15.6,0.1,20.1,4.6,20.1,10.1z
				 M1.4,10.1c0,4.7,3.9,8.6,8.6,8.6c4.7,0,8.6-3.9,8.6-8.6S14.8,1.5,10,1.5C5.3,1.5,1.4,5.4,1.4,10.1z"/>
		</g>
	</g>
</g>
</svg>
