<?xml version="1.0" encoding="utf-8"?>
<!-- Generator: Adobe Illustrator 22.1.0, SVG Export Plug-In . SVG Version: 6.00 Build 0)  -->
<svg version="1.1" id="Layer_1" xmlns="http://www.w3.org/2000/svg" xmlns:xlink="http://www.w3.org/1999/xlink" x="0px" y="0px"
	 viewBox="0 0 20.1 20.1" style="enable-background:new 0 0 20.1 20.1;" xml:space="preserve">
<style type="text/css">
	.st0{fill:#5D5D5D;}
</style>
<g>
	<g>
		<g>
			<polygon class="st0" points="6.2,8.9 7.2,7.8 10,10.7 12.9,7.8 13.9,8.9 10,12.7 			"/>
		</g>
		<g>
			<path class="st0" d="M0,10C0,4.5,4.5,0,10,0c5.5,0,10,4.5,10,10c0,5.5-4.5,10-10,10C4.5,20.1,0,15.6,0,10z M18.6,10
				c0-4.7-3.9-8.6-8.6-8.6c-4.7,0-8.6,3.9-8.6,8.6s3.9,8.6,8.6,8.6C14.8,18.6,18.6,14.8,18.6,10z"/>
		</g>
	</g>
</g>
</svg>
