<?xml version="1.0" encoding="utf-8"?>
<!-- Generator: Adobe Illustrator 22.1.0, SVG Export Plug-In . SVG Version: 6.00 Build 0)  -->
<svg version="1.1" id="Layer_1" xmlns="http://www.w3.org/2000/svg" xmlns:xlink="http://www.w3.org/1999/xlink" x="0px" y="0px"
	 viewBox="0 0 15.1 15.1" style="enable-background:new 0 0 15.1 15.1;" xml:space="preserve">
<style type="text/css">
	.st0{fill:#128885;}
</style>
<g>
	<path class="st0" d="M14.8,0.5c0.4,0.4,0.4,1.2-0.2,1.7L2.2,14.7c-0.5,0.5-1.3,0.6-1.7,0.2l-0.2-0.2c-0.4-0.4-0.4-1.2,0.2-1.7
		L12.9,0.4c0.5-0.5,1.3-0.6,1.7-0.2L14.8,0.5z"/>
	<path class="st0" d="M14.6,14.8c-0.4,0.4-1.2,0.4-1.7-0.2L0.4,2.2c-0.5-0.5-0.6-1.3-0.2-1.7l0.2-0.2c0.4-0.4,1.2-0.4,1.7,0.2
		l12.4,12.4c0.5,0.5,0.6,1.3,0.2,1.7L14.6,14.8z"/>
</g>
</svg>
