<?xml version="1.0" encoding="utf-8"?>
<!-- Generator: Adobe Illustrator 22.1.0, SVG Export Plug-In . SVG Version: 6.00 Build 0)  -->
<svg version="1.1" id="Layer_1" xmlns="http://www.w3.org/2000/svg" xmlns:xlink="http://www.w3.org/1999/xlink" x="0px" y="0px"
	 viewBox="0 0 20 20" style="enable-background:new 0 0 20 20;" xml:space="preserve">
<style type="text/css">
	.st0{opacity:0.5;}
	.st1{fill:none;stroke:#231F20;stroke-miterlimit:10;}
	.st2{fill:#231F20;}
</style>
<g class="st0">
	<path class="st1" d="M16.1,14.8c0,0.8-0.6,1.5-1.4,1.5H5.2c-0.8,0-1.4-0.7-1.4-1.5V5.2c0-0.8,0.6-1.5,1.4-1.5h9.5
		c0.8,0,1.4,0.7,1.4,1.5V14.8z"/>
	<path class="st2" d="M3.9,4.1v4.7h3.6C8,7.8,8.9,7.2,10,7.2s2.1,0.6,2.6,1.6h3.6V4.1H3.9z M15.1,6.4c0,0.2-0.1,0.3-0.3,0.3h-1.5
		c-0.1,0-0.3-0.1-0.3-0.3V5c0-0.2,0.1-0.3,0.3-0.3h1.5c0.1,0,0.3,0.1,0.3,0.3V6.4z"/>
	<path class="st1" d="M13.1,10.5c0,1.8-1.4,3.3-3.1,3.3c-1.7,0-3.1-1.5-3.1-3.3c0-1.8,1.4-3.3,3.1-3.3C11.7,7.2,13.1,8.6,13.1,10.5z
		"/>
</g>
</svg>
