<?xml version="1.0" encoding="utf-8"?>
<!-- Generator: Adobe Illustrator 22.1.0, SVG Export Plug-In . SVG Version: 6.00 Build 0)  -->
<svg version="1.1" id="Layer_1" xmlns="http://www.w3.org/2000/svg" xmlns:xlink="http://www.w3.org/1999/xlink" x="0px" y="0px"
	 viewBox="0 0 20 20" style="enable-background:new 0 0 20 20;" xml:space="preserve">
<style type="text/css">
	.st0{opacity:0.5;}
	.st1{fill:#FFFFFF;}
</style>
<g class="st0">
	<g>
		<path class="st1" d="M14.7,16.8H5.2c-1,0-1.9-0.9-1.9-2V5.2c0-1.1,0.9-2,1.9-2h9.5c1,0,1.9,0.9,1.9,2v9.6
			C16.6,15.9,15.7,16.8,14.7,16.8z M5.2,4.2c-0.5,0-0.9,0.4-0.9,1v9.6c0,0.6,0.4,1,0.9,1h9.5c0.5,0,0.9-0.4,0.9-1V5.2
			c0-0.6-0.4-1-0.9-1H5.2z"/>
	</g>
	<g>
		<path class="st1" d="M3.9,4.1v4.7h3.6C8,7.8,8.9,7.2,10,7.2s2.1,0.6,2.6,1.6h3.6V4.1H3.9z M15.1,6.4c0,0.2-0.1,0.3-0.3,0.3h-1.5
			c-0.1,0-0.3-0.1-0.3-0.3V5c0-0.2,0.1-0.3,0.3-0.3h1.5c0.1,0,0.3,0.1,0.3,0.3V6.4z"/>
	</g>
	<g>
		<path class="st1" d="M10,14.3c-2,0-3.6-1.7-3.6-3.8C6.4,8.4,8,6.7,10,6.7c2,0,3.6,1.7,3.6,3.8C13.6,12.6,12,14.3,10,14.3z M10,7.7
			c-1.4,0-2.6,1.3-2.6,2.8s1.2,2.8,2.6,2.8s2.6-1.3,2.6-2.8C12.6,8.9,11.5,7.7,10,7.7z"/>
	</g>
</g>
</svg>
