<?xml version="1.0" encoding="utf-8"?>
<!-- Generator: Adobe Illustrator 23.0.2, SVG Export Plug-In . SVG Version: 6.00 Build 0)  -->
<svg version="1.1" id="Layer_1" xmlns="http://www.w3.org/2000/svg" xmlns:xlink="http://www.w3.org/1999/xlink" x="0px" y="0px"
	 viewBox="0 0 20 20" style="enable-background:new 0 0 20 20;" xml:space="preserve">
<style type="text/css">
	.st0{opacity:0.5;}
	.st1{fill:#FFFFFF;}
</style>
<g class="st0">
	<path class="st1" d="M10.1,13.25c-1.73,0-3.14-1.46-3.14-3.25s1.41-3.25,3.14-3.25s3.14,1.46,3.14,3.25S11.83,13.25,10.1,13.25z
		 M10.1,8.19C9.17,8.19,8.41,9,8.41,10s0.76,1.81,1.69,1.81S11.79,11,11.79,10S11.03,8.19,10.1,8.19z"/>
	<circle class="st1" cx="13.34" cy="6.44" r="0.62"/>
	<path class="st1" d="M12.58,16.8H7.62c-2.38,0-4.32-1.94-4.32-4.32V7.52c0-2.38,1.94-4.32,4.32-4.32h4.95
		c2.38,0,4.32,1.94,4.32,4.32v4.95C16.9,14.86,14.96,16.8,12.58,16.8z M7.62,4.64c-1.59,0-2.88,1.29-2.88,2.88v4.95
		c0,1.59,1.29,2.88,2.88,2.88h4.95c1.59,0,2.88-1.29,2.88-2.88V7.52c0-1.59-1.29-2.88-2.88-2.88H7.62z"/>
</g>
</svg>
