<?xml version="1.0" encoding="utf-8"?>
<!-- Generator: Adobe Illustrator 23.0.1, SVG Export Plug-In . SVG Version: 6.00 Build 0)  -->
<svg version="1.1" id="Layer_1" xmlns="http://www.w3.org/2000/svg" xmlns:xlink="http://www.w3.org/1999/xlink" x="0px" y="0px"
	 viewBox="0 0 15.47 18.52" style="enable-background:new 0 0 15.47 18.52;" xml:space="preserve">
<style type="text/css">
	.st0{fill:#C99649;}
</style>
<path class="st0" d="M4.51,18.52c1.18-1.64,1.41-3.62,1.95-5.5c0.02,0,0.05,0,0.06,0.02c0.81,1.07,1.94,1.42,3.22,1.31
	c2.24-0.2,3.76-1.44,4.75-3.4c0.83-1.64,1.13-3.39,0.91-5.2c-0.25-2.03-1.34-3.54-3.05-4.62C10.9,0.22,9.29-0.08,7.59,0.02
	C6.18,0.11,4.83,0.43,3.61,1.16C1.73,2.29,0.52,3.91,0.11,6.07C-0.13,7.39,0.01,8.68,0.63,9.9c0.37,0.69,0.89,1.21,1.6,1.54
	c0.41,0.19,0.61,0.1,0.72-0.33c0.08-0.28,0.15-0.56,0.22-0.84c0.05-0.17,0.06-0.34-0.07-0.48C2.12,8.67,2.09,7.37,2.42,6.03
	c0.54-2.19,2.35-3.75,4.59-4.02c1.18-0.14,2.35-0.06,3.42,0.5c1.37,0.69,2.09,1.85,2.2,3.35c0.12,1.63-0.15,3.21-0.93,4.67
	c-0.27,0.5-0.62,0.97-1.08,1.31c-0.65,0.5-1.38,0.71-2.19,0.47c-0.92-0.27-1.42-1.13-1.21-2.06c0.22-0.98,0.57-1.92,0.82-2.88
	c0.12-0.45,0.21-0.91,0.19-1.38C8.15,4.73,7.03,4.06,5.9,4.63C5.13,5.01,4.76,5.7,4.57,6.51C4.38,7.35,4.46,8.18,4.76,8.99
	c0.06,0.15,0.07,0.28,0.03,0.43c-0.49,2.08-0.99,4.16-1.47,6.24c-0.16,0.69-0.18,1.39-0.17,2.1c0.01,0.08,0,0.16,0,0.25"/>
</svg>
