<?xml version="1.0" encoding="utf-8"?>
<!-- Generator: Adobe Illustrator 22.1.0, SVG Export Plug-In . SVG Version: 6.00 Build 0)  -->
<svg version="1.1" id="Layer_1" xmlns="http://www.w3.org/2000/svg" xmlns:xlink="http://www.w3.org/1999/xlink" x="0px" y="0px"
	 viewBox="0 0 20 20" style="enable-background:new 0 0 20 20;" xml:space="preserve">
<style type="text/css">
	.st0{opacity:0.5;fill:#231F20;}
</style>
<path class="st0" d="M7.4,17.4C8.4,16.1,8.5,14.5,9,13c0,0,0,0,0,0c0.7,0.9,1.6,1.1,2.6,1.1c1.8-0.2,3-1.2,3.8-2.7
	c0.7-1.3,0.9-2.7,0.7-4.2c-0.2-1.6-1.1-2.8-2.4-3.7c-1.2-0.7-2.5-1-3.8-0.9C8.8,2.7,7.7,2.9,6.7,3.5C5.2,4.4,4.2,5.7,3.9,7.4
	c-0.2,1.1-0.1,2.1,0.4,3.1c0.3,0.6,0.7,1,1.3,1.2c0.3,0.2,0.5,0.1,0.6-0.3c0.1-0.2,0.1-0.5,0.2-0.7c0-0.1,0-0.3-0.1-0.4
	c-0.8-0.9-0.8-1.9-0.5-3c0.4-1.8,1.9-3,3.7-3.2c0.9-0.1,1.9,0,2.7,0.4c1.1,0.6,1.7,1.5,1.8,2.7c0.1,1.3-0.1,2.6-0.7,3.7
	c-0.2,0.4-0.5,0.8-0.9,1.1c-0.5,0.4-1.1,0.6-1.8,0.4c-0.7-0.2-1.1-0.9-1-1.7C9.8,10,10,9.3,10.2,8.5c0.1-0.4,0.2-0.7,0.2-1.1
	c-0.1-1-1-1.5-1.9-1.1C7.9,6.6,7.6,7.2,7.5,7.8c-0.2,0.7-0.1,1.3,0.2,2c0,0.1,0.1,0.2,0,0.3c-0.4,1.7-0.8,3.3-1.2,5
	c-0.1,0.6-0.1,1.1-0.1,1.7c0,0.1,0,0.1,0,0.2"/>
</svg>
