<?xml version="1.0" encoding="utf-8"?>
<!-- Generator: Adobe Illustrator 22.1.0, SVG Export Plug-In . SVG Version: 6.00 Build 0)  -->
<svg version="1.1" id="Layer_1" xmlns="http://www.w3.org/2000/svg" xmlns:xlink="http://www.w3.org/1999/xlink" x="0px" y="0px"
	 viewBox="0 0 16 16" style="enable-background:new 0 0 16 16;" xml:space="preserve">
<style type="text/css">
	.st0{fill:#A19990;}
</style>
<g>
	<g>
		<polygon class="st0" points="7.1,11.1 6.3,10.3 8.5,8 6.3,5.7 7.1,4.9 10.2,8 		"/>
	</g>
	<g>
		<path class="st0" d="M8,16c-4.4,0-8-3.6-8-8c0-4.4,3.6-8,8-8c4.4,0,8,3.6,8,8C16,12.4,12.4,16,8,16z M8,1.1C4.2,1.1,1.1,4.2,1.1,8
			c0,3.8,3.1,6.9,6.9,6.9c3.8,0,6.9-3.1,6.9-6.9C14.9,4.2,11.8,1.1,8,1.1z"/>
	</g>
</g>
</svg>
