<?xml version="1.0" encoding="utf-8"?>
<!-- Generator: Adobe Illustrator 23.0.1, SVG Export Plug-In . SVG Version: 6.00 Build 0)  -->
<svg version="1.1" id="Layer_1" xmlns="http://www.w3.org/2000/svg" xmlns:xlink="http://www.w3.org/1999/xlink" x="0px" y="0px"
	 viewBox="0 0 17.79 17.79" style="enable-background:new 0 0 17.79 17.79;" xml:space="preserve">
<style type="text/css">
	.st0{fill:#C99649;}
</style>
<g>
	<path class="st0" d="M8.9,13.15c-2.26,0-4.1-1.91-4.1-4.26s1.84-4.26,4.1-4.26S13,6.55,13,8.9S11.16,13.15,8.9,13.15z M8.9,6.52
		c-1.22,0-2.22,1.06-2.22,2.37s0.99,2.37,2.22,2.37s2.22-1.06,2.22-2.37S10.12,6.52,8.9,6.52z"/>
	<circle class="st0" cx="13.13" cy="4.24" r="0.81"/>
	<path class="st0" d="M12.14,17.79H5.65C2.54,17.79,0,15.26,0,12.14V5.65C0,2.54,2.54,0,5.65,0h6.48c3.12,0,5.65,2.54,5.65,5.65
		v6.48C17.79,15.26,15.26,17.79,12.14,17.79z M5.65,1.88c-2.08,0-3.77,1.69-3.77,3.77v6.48c0,2.08,1.69,3.77,3.77,3.77h6.48
		c2.08,0,3.77-1.69,3.77-3.77V5.65c0-2.08-1.69-3.77-3.77-3.77H5.65z"/>
</g>
</svg>
