<?xml version="1.0" encoding="utf-8"?>
<!-- Generator: Adobe Illustrator 22.1.0, SVG Export Plug-In . SVG Version: 6.00 Build 0)  -->
<svg version="1.1" id="Layer_1" xmlns="http://www.w3.org/2000/svg" xmlns:xlink="http://www.w3.org/1999/xlink" x="0px" y="0px"
	 viewBox="0 0 211.8 61.8" style="enable-background:new 0 0 211.8 61.8;" xml:space="preserve">
<style type="text/css">
	.st0{fill:#231F20;}
</style>
<g id="XMLID_2_">
	<g id="XMLID_121_">
		<g id="XMLID_142_">
			<path id="XMLID_154_" class="st0" d="M111.6,56.8l0.9-0.1c0.1,0.5,0.4,0.9,0.7,1.2c0.4,0.2,0.8,0.4,1.4,0.4c0.4,0,0.7-0.1,1-0.2
				c0.3-0.1,0.5-0.3,0.7-0.5c0.2-0.2,0.2-0.4,0.2-0.7c0-0.3-0.1-0.5-0.3-0.7c-0.2-0.2-0.4-0.3-0.7-0.4c-0.3-0.1-0.7-0.2-1.2-0.3
				c-1.6-0.3-2.5-1-2.5-2c0-0.6,0.2-1.1,0.7-1.5c0.5-0.4,1.1-0.5,1.8-0.5c1.5,0,2.3,0.6,2.7,1.9l-0.8,0.1c-0.2-0.5-0.4-0.9-0.6-1
				c-0.3-0.2-0.7-0.3-1.2-0.3c-0.3,0-0.6,0.1-0.9,0.2c-0.3,0.1-0.5,0.2-0.6,0.4c-0.1,0.2-0.2,0.4-0.2,0.6c0,0.2,0.1,0.4,0.2,0.6
				c0.1,0.2,0.4,0.3,0.7,0.4c0.3,0.1,0.8,0.3,1.3,0.4c1,0.2,1.7,0.5,2,0.9c0.3,0.3,0.5,0.7,0.5,1.2c0,0.5-0.1,0.9-0.3,1.2
				c-0.2,0.3-0.5,0.6-1,0.8c-0.4,0.2-0.9,0.3-1.5,0.3c-0.4,0-0.7,0-1-0.1c-0.3-0.1-0.6-0.2-0.8-0.3c-0.2-0.1-0.5-0.3-0.7-0.6
				C111.9,57.6,111.7,57.3,111.6,56.8z"/>
			<path id="XMLID_151_" class="st0" d="M120,57.6v3.8h-0.8v-10h0.8v1.2c0.7-0.9,1.6-1.3,2.7-1.3c0.5,0,0.9,0.1,1.3,0.2
				c0.4,0.2,0.7,0.4,1,0.7c0.3,0.3,0.5,0.7,0.7,1.2c0.2,0.5,0.2,1,0.2,1.6c0,1.2-0.3,2.1-0.9,2.8c-0.6,0.7-1.4,1.1-2.4,1.1
				C121.6,58.9,120.7,58.5,120,57.6z M125,55.1c0-0.6-0.1-1.2-0.3-1.6c-0.2-0.5-0.5-0.8-0.8-1.1c-0.4-0.2-0.8-0.4-1.3-0.4
				c-0.4,0-0.8,0.1-1.1,0.2c-0.3,0.1-0.6,0.3-0.8,0.6c-0.2,0.3-0.4,0.6-0.5,1c-0.1,0.4-0.2,0.8-0.2,1.3c0,0.9,0.2,1.6,0.7,2.2
				c0.5,0.5,1.1,0.8,1.9,0.8c0.4,0,0.7-0.1,1-0.2c0.3-0.1,0.6-0.4,0.8-0.7c0.2-0.3,0.4-0.6,0.5-1C125,56,125,55.6,125,55.1z"/>
			<path id="XMLID_148_" class="st0" d="M133.6,58.7h-0.9c-0.1-0.3-0.2-0.7-0.3-1.1c-0.8,0.8-1.8,1.3-2.9,1.3
				c-0.4,0-0.8-0.1-1.2-0.2c-0.3-0.1-0.6-0.4-0.8-0.7c-0.2-0.3-0.3-0.7-0.3-1.1c0-0.3,0-0.6,0.1-0.8c0.1-0.2,0.2-0.4,0.4-0.6
				c0.2-0.2,0.5-0.3,0.8-0.5c0.3-0.1,0.9-0.2,1.8-0.4c0.9-0.1,1.6-0.3,2-0.4c0-0.4,0-0.7,0-0.9c0-0.2-0.1-0.4-0.2-0.6
				c-0.1-0.2-0.3-0.3-0.6-0.4c-0.3-0.1-0.6-0.2-1-0.2c-1.2,0-2,0.5-2.2,1.6l-0.9-0.1c0.3-1.4,1.3-2.1,3.1-2.1c0.6,0,1,0.1,1.4,0.2
				c0.4,0.1,0.7,0.3,0.9,0.6c0.2,0.2,0.3,0.5,0.4,0.9c0.1,0.3,0.1,0.8,0.1,1.4l0,2c0,0.5,0,1,0.1,1.2
				C133.3,58,133.4,58.3,133.6,58.7z M132.3,55.3v-0.5c-0.5,0.2-1.2,0.4-2.3,0.5c-0.5,0.1-1,0.2-1.2,0.3c-0.3,0.1-0.4,0.2-0.6,0.4
				c-0.1,0.2-0.2,0.4-0.2,0.7c0,0.4,0.1,0.7,0.4,1c0.3,0.2,0.7,0.4,1.1,0.4c0.3,0,0.5,0,0.8-0.1c0.3-0.1,0.5-0.2,0.8-0.3
				c0.3-0.1,0.5-0.3,0.6-0.5c0.2-0.2,0.3-0.5,0.4-0.8C132.3,56.1,132.3,55.8,132.3,55.3z"/>
			<path id="XMLID_146_" class="st0" d="M141.3,56.4c-0.3,0.8-0.7,1.4-1.2,1.9c-0.5,0.4-1.2,0.6-2,0.6c-0.7,0-1.2-0.1-1.7-0.4
				c-0.5-0.3-0.8-0.7-1.1-1.3c-0.3-0.6-0.4-1.3-0.4-2.1c0-0.5,0.1-1,0.2-1.4c0.1-0.4,0.3-0.8,0.4-1c0.2-0.3,0.4-0.5,0.6-0.7
				c0.2-0.2,0.5-0.3,0.8-0.5c0.3-0.1,0.7-0.2,1.3-0.2c1.6,0,2.6,0.7,3.1,2.2l-0.9,0.1c-0.3-1.1-1.1-1.6-2.2-1.6
				c-0.4,0-0.7,0.1-1,0.2c-0.3,0.1-0.5,0.3-0.7,0.6c-0.2,0.3-0.4,0.6-0.5,0.9c-0.1,0.4-0.2,0.8-0.2,1.2c0,1,0.2,1.7,0.6,2.3
				c0.4,0.6,1,0.9,1.8,0.9c1.1,0,1.9-0.6,2.3-1.9L141.3,56.4z"/>
			<path id="XMLID_143_" class="st0" d="M149,55.2h-5.5c0,0.9,0.2,1.7,0.7,2.2c0.4,0.5,1,0.8,1.8,0.8c1,0,1.8-0.6,2.2-1.7l0.8,0.1
				c-0.3,0.8-0.7,1.4-1.2,1.8c-0.5,0.4-1.1,0.5-1.9,0.5c-1,0-1.8-0.3-2.4-1c-0.6-0.7-0.9-1.6-0.9-2.7c0-1.2,0.3-2.1,0.9-2.8
				c0.6-0.7,1.4-1,2.4-1C148,51.4,149,52.7,149,55.2z M148.1,54.5c-0.1-1.7-0.9-2.5-2.3-2.5c-0.6,0-1.1,0.2-1.6,0.6
				c-0.4,0.4-0.7,1-0.8,1.8H148.1z"/>
		</g>
		<path id="XMLID_138_" class="st0" d="M106.3,58.1l-0.6,0.7c-0.5-0.4-1.1-0.9-1.6-1.5c-0.8,1-1.7,1.5-2.7,1.5
			c-0.6,0-1.2-0.1-1.6-0.4c-0.5-0.3-0.8-0.6-1.1-1c-0.3-0.4-0.4-0.9-0.4-1.5c0-0.3,0-0.5,0.1-0.8c0.1-0.2,0.2-0.5,0.3-0.7
			c0.2-0.2,0.4-0.4,0.7-0.7c0.3-0.2,0.7-0.5,1.2-0.8c-0.4-0.5-0.6-0.9-0.8-1.2c-0.2-0.3-0.3-0.7-0.3-1c0-0.6,0.2-1.2,0.7-1.6
			c0.4-0.4,1-0.6,1.6-0.6c0.4,0,0.8,0.1,1.2,0.3c0.3,0.2,0.6,0.4,0.8,0.8c0.2,0.3,0.3,0.7,0.3,1.1c0,0.9-0.7,1.7-2.1,2.5
			c0.6,0.7,1.3,1.6,2.2,2.6c0.1-0.2,0.3-0.5,0.4-0.8l0.4-0.9l0.9,0.2c-0.3,0.9-0.6,1.6-1,2.2l0.8,0.8
			C105.6,57.5,105.9,57.8,106.3,58.1z M103.5,56.6c-0.9-0.9-1.7-1.9-2.5-3c-0.8,0.4-1.3,0.8-1.5,1.1c-0.2,0.3-0.4,0.7-0.4,1
			c0,0.6,0.2,1.1,0.7,1.6c0.4,0.5,0.9,0.7,1.5,0.7C102.2,58,102.9,57.6,103.5,56.6z M103.1,50.7c0-0.4-0.1-0.7-0.4-1
			c-0.3-0.3-0.6-0.4-0.9-0.4c-0.4,0-0.7,0.1-1,0.4c-0.3,0.3-0.4,0.6-0.4,1c0,0.1,0,0.3,0.1,0.4c0,0.2,0.1,0.3,0.2,0.5
			c0.1,0.2,0.3,0.5,0.7,1C102.5,52,103.1,51.3,103.1,50.7z"/>
		<g id="XMLID_122_">
			<path id="XMLID_136_" class="st0" d="M63.6,58.9h-0.8V49h0.8V58.9z"/>
			<path id="XMLID_133_" class="st0" d="M66.6,50.2h-0.8V49h0.8V50.2z M66.6,58.9h-0.8v-7.2h0.8V58.9z"/>
			<path id="XMLID_131_" class="st0" d="M74.5,51.7l-2.9,7.2h-0.8L68,51.7h0.9l2.4,6.2l2.4-6.2H74.5z"/>
			<path id="XMLID_128_" class="st0" d="M76.7,50.2h-0.8V49h0.8V50.2z M76.7,58.9h-0.8v-7.2h0.8V58.9z"/>
			<path id="XMLID_126_" class="st0" d="M84.5,58.9h-0.9v-4.5c0-0.8-0.1-1.3-0.5-1.7c-0.3-0.3-0.7-0.5-1.2-0.5c-0.3,0-0.5,0-0.8,0.1
				c-0.2,0.1-0.5,0.2-0.7,0.4c-0.2,0.2-0.4,0.4-0.5,0.6c-0.1,0.2-0.2,0.5-0.2,0.8c0,0.3-0.1,0.8-0.1,1.5v3.1h-0.8v-7.2h0.8v1.1
				c0.6-0.8,1.4-1.2,2.3-1.2c1.6,0,2.4,0.9,2.4,2.7V58.9z"/>
			<path id="XMLID_123_" class="st0" d="M86.5,59.7l0.8,0.2c0.2,0.9,0.8,1.3,2,1.3c1.8,0,2.8-0.9,2.8-2.6v-0.7
				c-0.4,0.5-0.8,0.8-1.3,1c-0.4,0.2-0.9,0.3-1.4,0.3c-0.5,0-0.9-0.1-1.3-0.3c-0.4-0.2-0.7-0.4-1-0.8c-0.3-0.3-0.5-0.7-0.7-1.2
				c-0.1-0.5-0.2-1-0.2-1.5c0-0.8,0.1-1.4,0.4-2c0.3-0.6,0.7-1,1.1-1.3c0.5-0.3,1-0.4,1.7-0.4c0.6,0,1.1,0.1,1.5,0.3
				c0.4,0.2,0.8,0.6,1.2,1.1v-1.2h0.8v6.6c0,0.8-0.1,1.5-0.4,2c-0.2,0.5-0.6,0.9-1.1,1.1c-0.5,0.2-1.2,0.4-2,0.4
				C87.6,61.8,86.6,61.1,86.5,59.7z M92.1,55.4c0-0.9-0.2-1.7-0.7-2.3c-0.4-0.6-1.1-0.9-1.9-0.9c-0.4,0-0.8,0.1-1.1,0.2
				c-0.3,0.1-0.6,0.4-0.8,0.6c-0.2,0.3-0.4,0.6-0.5,0.9c-0.1,0.4-0.2,0.8-0.2,1.3c0,0.9,0.2,1.6,0.7,2.2c0.4,0.6,1,0.9,1.8,0.9
				c0.5,0,0.9-0.1,1.2-0.3c0.4-0.2,0.7-0.5,0.9-1C92,56.6,92.1,56.1,92.1,55.4z"/>
		</g>
	</g>
	<g id="XMLID_43_">
		<polygon id="XMLID_120_" class="st0" points="38.2,0 38.2,37.1 40.3,37.1 40.3,6.1 64.3,37.1 66,35.8 		"/>
		<path id="XMLID_118_" class="st0" d="M27.5,31.7c-2.8,2.1-6.1,3.3-9.8,3.3C9.1,35,2.1,28.1,2.1,19.7c0-8.4,7-15.2,15.6-15.2
			c3.6,0,7,1.1,9.8,3.2c0.2,0.2,0.4,0.3,0.7,0.3c0.3,0,0.6-0.1,0.9-0.4c0.3-0.4,0.2-1.1-0.3-1.5c-3.1-2.4-7.1-3.8-11.1-3.8
			C7.9,2.4,0,10.2,0,19.7C0,29.2,7.9,37,17.7,37.1h0c3.9,0,7.8-1.3,11.1-3.8c0.3-0.2,0.4-0.5,0.4-0.8c0-0.2-0.1-0.5-0.2-0.6
			C28.6,31.4,28,31.3,27.5,31.7z"/>
		<path id="XMLID_110_" class="st0" d="M200,18c-5.2-1.2-10.1-2.4-10.1-7.2c0-3.5,4-6.4,8.8-6.4c5.6,0,8.7,3.2,9,3.5
			c0.3,0.4,0.8,0.5,1.4,0.1c0.4-0.4,0.4-1,0.1-1.3c0,0-3.5-4.2-10.5-4.2c-6,0-10.8,3.7-10.8,8.4c0,6.5,5.9,7.8,11.6,9.2
			c5.3,1.2,10.3,2.4,10.3,7.4c0,4.5-4.9,8-11.2,8c-6.4,0-11.4-4.4-11.4-4.5c-0.4-0.4-1-0.3-1.4,0c-0.2,0.2-0.3,0.4-0.3,0.6
			c0,0.3,0.1,0.5,0.3,0.7c0,0,5.4,5,12.8,5c7.4,0,13.1-4.3,13.1-9.9C211.8,20.7,205.5,19.2,200,18z"/>
		<polygon id="XMLID_84_" class="st0" points="100.9,2.4 100.9,33.3 75,0 75,37.1 77.1,37.1 77.1,6.2 103,39.5 103,2.4 		"/>
		<polygon id="XMLID_81_" class="st0" points="139.7,39.5 139.7,2.4 137.6,2.4 137.7,33.3 113.6,2.4 112,3.7 		"/>
		<polygon id="XMLID_79_" class="st0" points="148.8,0 148.8,37.1 150.9,37.1 150.9,6.1 174.9,37.1 176.5,35.8 		"/>
	</g>
</g>
</svg>
