<?xml version="1.0" encoding="utf-8"?>
<!-- Generator: Adobe Illustrator 22.1.0, SVG Export Plug-In . SVG Version: 6.00 Build 0)  -->
<svg version="1.1" id="Layer_1" xmlns="http://www.w3.org/2000/svg" xmlns:xlink="http://www.w3.org/1999/xlink" x="0px" y="0px"
	 viewBox="0 0 100.4 70.1" style="enable-background:new 0 0 100.4 70.1;" xml:space="preserve">
<style type="text/css">
	.st0{fill:#231F20;}
</style>
<g>
	<path class="st0" d="M82.3,33.8l9.9-14v14H82.3z M96.1,33.8V9.1h-1.1L74.9,37.7h17.2v8.2h4v-8.2h4.3v-3.8H96.1z"/>
	<path class="st0" d="M5,23c0.4,1.4,1,2.5,1.7,3.3c0.8,0.8,2,1.2,3.6,1.2c1.1,0,2.1-0.3,2.8-0.9c0.7-0.6,1.1-1.5,1.1-2.8
		c0-1.3-0.8-2.3-2.4-3.1c-1.6-0.8-2.9-1.5-4-2.1c-2-1-3.7-2.3-5.2-3.7c-1.4-1.4-2.2-3.2-2.2-5.5V9c0.1-2.5,1.1-4.7,3.1-6.5
		C5.5,0.9,7.7,0,10.3,0h0.3c3.1,0.1,7.9,1.3,9.6,4.2l-2.8,4.9c-2.2-2.3-5.8-4.9-8.9-2.3c-0.6,0.5-1,1.3-1,2.2c0,0.9,0.5,1.7,1.6,2.4
		c1.1,0.8,2.1,1.4,3.1,1.9c2.3,1.3,4.4,2.6,6.3,4.1c1.8,1.5,2.8,3.6,2.8,6.5v0.1c0,2.9-1,5.2-3.1,6.9c-2,1.7-4.5,2.7-7.5,2.9
		c-0.2,0-0.4,0-0.7,0c-2,0-3.9-0.5-5.6-1.6c-2-1.2-3.4-2.9-4.4-5.1L5,23z"/>
	<polygon class="st0" points="38.5,6.7 38.5,33.1 31.7,33.1 31.7,6.7 22.7,6.7 25.4,0.7 45.2,0.7 47.5,6.7 	"/>
	<path class="st0" d="M57.1,0.7v19.5c0,2.4,0.5,4.2,1.5,5.5c1,1.3,2.8,1.9,5.2,1.9c2.4,0,4.2-0.7,5.2-2c1-1.3,1.5-3.1,1.5-5.5V0.7
		h6.8v19.9c0,8.8-4.5,13.2-13.5,13.2c-9,0-13.4-4.4-13.4-13.2V0.7H57.1z"/>
	<path class="st0" d="M6.7,63h3.2c1.2,0,2.2,0,3.1-0.1c0.8-0.1,1.4-0.2,2-0.3c1.1-0.3,1.9-0.7,2.7-1.4v0c1.2-1,2-2.2,2.5-3.7
		c0.5-1.4,0.7-2.9,0.7-4.5c0-1.6-0.2-3-0.7-4.4c-0.5-1.4-1.3-2.6-2.5-3.7c-0.7-0.6-1.5-1-2.3-1.2c-0.8-0.2-1.7-0.4-2.6-0.5
		c-0.9-0.1-1.8-0.1-2.9-0.1c-1.1,0-2.1,0-3.1,0V63z M0,36.9h7.6c2.1,0,4,0.1,5.6,0.2c1.3,0.1,2.4,0.2,3.4,0.4c1,0.2,2,0.5,3.1,1
		c2.1,1,3.9,2.4,5.1,4.3c1.3,1.9,2.2,3.9,2.6,6.2c0.2,1.3,0.3,2.6,0.3,3.9c0,0.6,0,1.3-0.1,2c-0.2,2.1-0.6,4-1.4,5.7
		c-0.5,1.2-1.1,2.2-1.8,3c-1.3,1.7-2.9,3-4.8,3.9c-0.8,0.4-1.7,0.7-2.6,0.9c-0.1,0.1-0.6,0.2-1.5,0.3c-0.9,0.1-1.5,0.2-1.9,0.2
		c-1.5,0.1-3,0.2-4.8,0.2H0V36.9z"/>
	<rect x="31.6" y="36.9" class="st0" width="6.8" height="32.4"/>
	<path class="st0" d="M69.8,53.1c0-1.5-0.3-2.8-0.8-4.1c-1.1-2.7-3-4.6-5.5-5.7c-1.3-0.6-2.7-0.8-4-0.8c-1.3,0-2.6,0.3-3.9,0.8
		c-0.2,0.1-0.5,0.3-0.9,0.5c-0.4,0.2-0.7,0.4-0.9,0.5c-0.5,0.3-1,0.8-1.5,1.3v0c-0.5,0.5-0.9,1-1.3,1.6c-0.4,0.6-0.7,1.2-0.9,1.8
		c-0.5,1.3-0.8,2.6-0.8,4.1c0,0.3,0,0.7,0,1c0.2,1.8,0.7,3.4,1.7,4.9c1.2,1.8,2.7,3.1,4.6,3.9c1.4,0.6,2.7,0.9,4.1,0.9
		c1.9,0,3.8-0.6,5.6-1.9C68.3,59.8,69.8,56.9,69.8,53.1 M76.8,53.1c0,2.3-0.4,4.4-1.3,6.5c-0.4,1-0.9,1.9-1.6,2.9
		c-2,2.9-4.6,4.9-7.8,6.3c-2.1,0.9-4.3,1.3-6.5,1.3c-1.1,0-2.3-0.1-3.5-0.3c-2.3-0.4-4.4-1.3-6.2-2.5c-0.9-0.5-1.7-1.2-2.6-2.1
		c-1.7-1.6-2.9-3.4-3.8-5.5c-0.9-2.1-1.3-4.2-1.3-6.5c0-0.6,0-1.1,0.1-1.7c0.3-2.9,1.2-5.5,2.8-7.8c1.3-1.9,2.9-3.4,4.8-4.7v0
		c2.8-1.9,6-2.8,9.6-2.8c3.5,0,6.7,0.9,9.5,2.8c1.9,1.3,3.5,2.8,4.8,4.7C75.9,46.6,76.8,49.7,76.8,53.1"/>
</g>
</svg>
