<?xml version="1.0" encoding="utf-8"?>
<!-- Generator: Adobe Illustrator 22.1.0, SVG Export Plug-In . SVG Version: 6.00 Build 0)  -->
<svg version="1.1" id="Layer_1" xmlns="http://www.w3.org/2000/svg" xmlns:xlink="http://www.w3.org/1999/xlink" x="0px" y="0px"
	 viewBox="0 0 78.1 80" style="enable-background:new 0 0 78.1 80;" xml:space="preserve">
<style type="text/css">
	.st0{fill:#0F8582;}
</style>
<g>
	<path class="st0" d="M54.9,47.1H41.4c-0.1,0.9-0.1,1.6-0.1,2.1c0,3.4,0.5,6,1.6,7.7c1.1,1.7,2.7,2.6,4.8,2.6c2.9,0,4.9-1.3,6.1-3.9
		h1.1c-0.5,1.6-1.5,2.9-3,3.8c-1.5,0.9-3.1,1.4-4.9,1.4c-1.6,0-3.2-0.4-4.7-1.2c-1.5-0.8-2.7-2-3.6-3.5c-0.9-1.5-1.4-3.4-1.4-5.5
		c0-3.1,0.9-5.6,2.7-7.6s4.1-3,6.8-3c2.5,0,4.5,0.8,5.9,2.3C54.1,43.6,54.8,45.3,54.9,47.1 M50.8,46.2c0-0.4,0.1-0.7,0.1-1
		c0-1.4-0.4-2.5-1.2-3.2c-0.8-0.8-1.8-1.2-3-1.2c-2.9,0-4.6,1.8-5.1,5.4H50.8z"/>
	<path class="st0" d="M30.4,48.3c-0.1-0.5-0.1-1.8-0.1-4v-7.8c0.7-1.4,1.6-2.5,2.6-3.2c1-0.7,2.1-1.1,3.3-1.1c1.1,0,1.9,0.3,2.6,0.8
		c0.7,0.5,1.1,1.1,1.3,1.9c0.2,0.8,0.3,2,0.3,3.6v1.3c1-0.7,2.2-1.3,3.4-1.6c0-1.8-0.2-3.1-0.5-4c-0.3-1-1-1.8-2.1-2.5
		c-1.1-0.7-2.4-1-4-1c-1.4,0-2.7,0.3-3.9,1c-1.2,0.7-2.2,1.7-3.2,3V18.3h-0.5c-1.6,0.7-3.7,1-6.1,1v1.1c1.4,0,2.3,0.3,2.7,0.8
		c0.4,0.5,0.6,1.8,0.6,3.7v19.3c0,2.2,0,3.5-0.1,3.9c-0.1,0.4-0.3,0.8-0.6,1.2c-0.3,0.3-1.1,0.5-2.2,0.5h-0.5v1.1h9.9v-1.1
		c-1.1,0-1.8-0.1-2.3-0.4C30.7,49.2,30.5,48.8,30.4,48.3"/>
	<polygon class="st0" points="77.4,37.8 72.2,40.8 72.9,41.9 78.1,38.9 	"/>
	<rect x="-0.1" y="39.2" transform="matrix(0.8661 -0.4999 0.4999 0.8661 -19.5329 6.7987)" class="st0" width="6" height="1.3"/>
	<g>
		<g>
			<path class="st0" d="M4.7,60.8l-1.4-2.8l0.4-0.2c0.1,0.2,0.2,0.4,0.3,0.5c0.1,0.1,0.2,0.1,0.3,0.1c0.1,0,0.2-0.1,0.4-0.1l1.7-0.8
				l-1.3-2.6l-1.7,0.8c-0.2,0.1-0.4,0.2-0.4,0.4c-0.1,0.1,0,0.4,0.2,0.7l-0.4,0.2l-1.4-2.8l0.4-0.2c0.1,0.2,0.2,0.4,0.3,0.5
				c0.1,0.1,0.2,0.1,0.3,0.1c0.1,0,0.2-0.1,0.4-0.1l3.5-1.7c0.2-0.1,0.3-0.2,0.3-0.2c0.1-0.1,0.1-0.2,0.1-0.3c0-0.1-0.1-0.3-0.2-0.6
				l0.4-0.2l1.4,2.8l-0.4,0.2c-0.2-0.3-0.3-0.5-0.5-0.6c-0.2,0-0.3,0-0.6,0.1l-1.4,0.7L7,57.3l1.4-0.7c0.2-0.1,0.3-0.2,0.3-0.2
				c0.1-0.1,0.1-0.2,0.1-0.3c0-0.1-0.1-0.3-0.2-0.6L9,55.3l1.4,2.8L10,58.3c-0.1-0.2-0.2-0.4-0.3-0.5c-0.1-0.1-0.2-0.1-0.3-0.1
				c-0.1,0-0.2,0.1-0.4,0.1l-3.5,1.7c-0.2,0.1-0.3,0.1-0.3,0.2c-0.1,0.1-0.1,0.2-0.1,0.3s0.1,0.3,0.2,0.6L4.7,60.8z"/>
			<path class="st0" d="M11.6,66.2l-1.6,1.3l-3.6-4.3l0.3-0.3c0.2,0.3,0.4,0.5,0.6,0.5c0.2,0,0.3-0.1,0.5-0.2l3-2.5
				c0.1-0.1,0.2-0.2,0.3-0.3c0.1-0.1,0.1-0.2,0-0.3c0-0.1-0.1-0.3-0.3-0.5l0.3-0.3l3.3,4l-1.2,1.1L13,64c0.2-0.3,0.3-0.6,0.4-0.7
				s0-0.4,0-0.5c-0.1-0.1-0.2-0.3-0.4-0.6l-0.7-0.9l-1.7,1.4l0.4,0.5c0.1,0.2,0.3,0.3,0.4,0.3c0.1,0.1,0.2,0.1,0.3,0
				c0.1,0,0.3-0.1,0.4-0.3l0.3,0.3l-1.6,1.3l-0.3-0.3c0.2-0.2,0.3-0.3,0.3-0.4c0.1-0.1,0.1-0.2,0-0.3c0-0.1-0.1-0.2-0.3-0.4L10.1,63
				L9,63.9c-0.2,0.2-0.3,0.3-0.4,0.4c-0.1,0.1-0.1,0.2-0.2,0.3s0,0.2,0,0.3c0.1,0.1,0.1,0.3,0.3,0.4l0.3,0.4
				c0.1,0.2,0.3,0.3,0.5,0.4c0.2,0.1,0.4,0.2,0.7,0.2s0.6-0.1,1.1-0.4L11.6,66.2z"/>
			<path class="st0" d="M14.3,71.4l-2.4-2.1l0.3-0.3c0.2,0.2,0.4,0.3,0.5,0.3c0.1,0,0.3,0,0.4,0c0.1,0,0.2-0.1,0.3-0.3l2.5-3
				c0.2-0.2,0.3-0.4,0.2-0.5c0-0.2-0.2-0.4-0.5-0.6l0.3-0.3l2.4,2.1L18.1,67c-0.2-0.2-0.4-0.3-0.5-0.3s-0.3,0-0.4,0
				c-0.1,0-0.2,0.1-0.3,0.3l-2.5,3c-0.1,0.1-0.2,0.3-0.2,0.4c0,0.1,0,0.2,0,0.3s0.2,0.3,0.4,0.5L14.3,71.4z"/>
			<path class="st0" d="M23.7,73.7c-0.2,0.4-0.5,0.7-0.8,1s-0.6,0.4-1,0.5c-0.3,0.1-0.6,0.1-1,0.1c-0.6-0.1-1.3-0.3-2.1-0.7
				l-2.5-1.4l0.2-0.4c0.2,0.1,0.4,0.2,0.6,0.2s0.3,0,0.3-0.1c0.1-0.1,0.2-0.2,0.3-0.3l1.9-3.4c0.1-0.2,0.2-0.4,0.1-0.6
				c0-0.2-0.2-0.3-0.6-0.5l0.2-0.4l1.2,0.6c0,0,0.2,0.1,0.5,0.3c0.3,0.2,0.5,0.2,0.5,0.3c0.4,0.3,0.8,0.5,1.1,0.7
				c0.3,0.2,0.5,0.5,0.7,0.7c0.2,0.2,0.3,0.5,0.4,0.8c0.1,0.3,0.2,0.6,0.2,0.9c0,0.3,0,0.6-0.1,0.9S23.8,73.4,23.7,73.7z M22.4,72.9
				c0.3-0.6,0.5-1.1,0.5-1.6c0-0.5-0.1-0.9-0.4-1.3c-0.1-0.2-0.3-0.3-0.4-0.4c-0.2-0.1-0.4-0.3-0.8-0.5L19.1,73
				c-0.1,0.2-0.2,0.4-0.2,0.5c0,0.1,0,0.2,0.1,0.3c0.1,0.1,0.2,0.2,0.4,0.4c0.7,0.4,1.2,0.4,1.8,0.1C21.6,73.9,22.1,73.5,22.4,72.9z
				"/>
			<path class="st0" d="M31,77.1l-0.6,2L25,77.5l0.1-0.4c0.4,0.1,0.6,0.1,0.8,0s0.2-0.2,0.3-0.5l1.1-3.8c0.1-0.2,0.1-0.3,0.1-0.4
				c0-0.1-0.1-0.2-0.2-0.3s-0.3-0.2-0.6-0.3l0.1-0.4l5,1.5l-0.4,1.6l-0.4-0.1c0-0.4,0-0.7-0.1-0.8c-0.1-0.2-0.2-0.3-0.3-0.4
				c-0.1-0.1-0.4-0.2-0.7-0.2l-1.1-0.3l-0.6,2.1l0.6,0.2c0.2,0.1,0.4,0.1,0.5,0.1c0.1,0,0.2-0.1,0.3-0.1c0.1-0.1,0.1-0.2,0.2-0.5
				l0.4,0.1l-0.6,2l-0.4-0.1c0.1-0.2,0.1-0.4,0.1-0.5s-0.1-0.2-0.2-0.3c-0.1-0.1-0.2-0.1-0.5-0.2L28,75.2l-0.4,1.4
				c-0.1,0.2-0.1,0.4-0.1,0.5c0,0.1,0,0.2,0,0.3c0,0.1,0.1,0.2,0.2,0.2c0.1,0.1,0.3,0.1,0.5,0.2l0.5,0.1c0.2,0.1,0.4,0.1,0.6,0.1
				c0.2,0,0.4-0.1,0.7-0.2c0.2-0.2,0.5-0.5,0.7-0.9L31,77.1z"/>
			<path class="st0" d="M43,77.7l0,2.1L37.4,80l0-0.4c0.4,0,0.6-0.1,0.7-0.2c0.1-0.1,0.2-0.3,0.1-0.6l-0.1-3.9c0-0.2,0-0.3-0.1-0.4
				c0-0.1-0.1-0.2-0.3-0.2c-0.1-0.1-0.3-0.1-0.6-0.1l0-0.4l5.2-0.2l0.1,1.6l-0.4,0c-0.1-0.4-0.2-0.6-0.4-0.8
				c-0.1-0.2-0.3-0.2-0.4-0.3s-0.4,0-0.7,0l-1.2,0l0.1,2.2l0.6,0c0.2,0,0.4,0,0.5-0.1s0.2-0.1,0.2-0.2c0-0.1,0.1-0.3,0.1-0.5l0.4,0
				l0.1,2.1l-0.4,0c0-0.2-0.1-0.4-0.1-0.5c-0.1-0.1-0.1-0.2-0.2-0.2c-0.1,0-0.3,0-0.5,0l-0.6,0l0,1.5c0,0.2,0,0.4,0,0.5
				c0,0.1,0.1,0.2,0.1,0.3c0.1,0.1,0.1,0.1,0.3,0.2c0.1,0,0.3,0,0.5,0l0.5,0c0.2,0,0.4,0,0.6-0.1c0.2-0.1,0.4-0.2,0.6-0.4
				c0.2-0.2,0.3-0.6,0.4-1.1L43,77.7z"/>
			<path class="st0" d="M54.4,77l-3,0.9l-0.1-0.4c0.3-0.1,0.4-0.2,0.5-0.2C52,77.2,52,77.1,52,77c0-0.1,0-0.3-0.1-0.4l-1.1-3.8
				L50,78.3l-0.3,0.1L46,74.2l1.1,3.6c0.1,0.2,0.1,0.3,0.1,0.4s0.1,0.2,0.2,0.2c0.1,0.1,0.2,0.1,0.3,0.1c0.1,0,0.3,0,0.5-0.1
				l0.1,0.4l-2.2,0.7L46,79.1c0.2-0.1,0.4-0.1,0.5-0.2c0.1-0.1,0.2-0.1,0.2-0.2s0-0.2,0-0.3s-0.1-0.2-0.1-0.4l-1-3.4
				c-0.1-0.3-0.1-0.4-0.2-0.5s-0.2-0.2-0.3-0.2s-0.3,0-0.6,0.1l-0.1-0.4l2.2-0.6l3.2,3.7l0.8-4.8l2.2-0.6l0.1,0.4
				c-0.4,0.1-0.6,0.2-0.7,0.4s-0.1,0.3,0,0.6l1.1,3.8c0,0.2,0.1,0.3,0.2,0.4s0.2,0.1,0.3,0.2c0.1,0,0.3,0,0.6-0.1L54.4,77z"/>
			<path class="st0" d="M59.6,74.2l-2.8,1.5l-0.2-0.4c0.2-0.1,0.4-0.2,0.5-0.4c0.1-0.1,0.1-0.2,0.1-0.3c0-0.1-0.1-0.2-0.2-0.4
				l-1.9-3.4c-0.1-0.2-0.3-0.4-0.4-0.4c-0.2,0-0.4,0-0.7,0.2l-0.2-0.4l2.8-1.5l0.2,0.4c-0.2,0.1-0.4,0.2-0.5,0.4
				c-0.1,0.1-0.1,0.2-0.1,0.3c0,0.1,0.1,0.2,0.2,0.4l1.9,3.4c0.1,0.2,0.2,0.3,0.3,0.3s0.2,0.1,0.3,0.1c0.1,0,0.3-0.1,0.6-0.2
				L59.6,74.2z"/>
			<path class="st0" d="M65.7,66.4c-0.1,0.1-0.2,0.2-0.3,0.3s-0.1,0.2,0,0.3c0,0.1,0.1,0.2,0.2,0.4l0.9,1.1c-0.3,0.3-0.7,0.6-1,1.1
				c-0.2,0.3-0.4,0.5-0.5,0.7c-0.1,0.1-0.3,0.3-0.5,0.5c-0.5,0.4-1.1,0.7-1.6,0.8c-0.6,0.1-1.1,0-1.6-0.2c-0.5-0.2-0.9-0.5-1.3-0.9
				c-0.4-0.5-0.6-1-0.7-1.5c-0.1-0.6-0.1-1.1,0.1-1.6c0.2-0.5,0.5-1,1-1.4c0.5-0.5,1.2-0.7,2-0.7c0-0.1-0.1-0.3-0.2-0.5l0.3-0.3
				l1.3,1.5L63.6,66c-0.2-0.2-0.5-0.3-0.8-0.4c-0.3-0.1-0.6-0.1-0.9,0c-0.3,0.1-0.6,0.2-0.8,0.4c-0.2,0.2-0.3,0.3-0.5,0.5
				c-0.1,0.2-0.2,0.5-0.2,0.7c0,0.3,0,0.6,0.2,0.9c0.1,0.3,0.4,0.7,0.7,1.1c0.3,0.3,0.6,0.6,0.9,0.9c0.3,0.3,0.7,0.4,1.1,0.4
				s0.8-0.1,1.2-0.4c0.3-0.3,0.5-0.5,0.6-0.7c0.1-0.2,0.1-0.4,0-0.6c-0.1-0.2-0.2-0.4-0.3-0.5c-0.1-0.2-0.3-0.3-0.3-0.3
				c-0.1-0.1-0.2-0.1-0.3,0c-0.1,0-0.3,0.1-0.5,0.3l-0.3-0.3l2.1-1.8L65.7,66.4z"/>
			<path class="st0" d="M73.2,60.9l-1,1.3c-0.1,0-0.2,0-0.4,0c-0.2,0-0.3,0-0.5,0c-0.2,0-0.4,0-0.5,0l-0.8-0.1c-0.4,0-0.6,0-0.8,0
				c-0.2,0-0.3,0.1-0.4,0.1c-0.1,0.1-0.2,0.2-0.4,0.5l-0.1,0.2l1.3,1c0.1,0.1,0.3,0.2,0.4,0.2c0.1,0,0.2,0,0.3-0.1s0.3-0.2,0.4-0.4
				l0.3,0.3l-1.9,2.5l-0.3-0.3c0.2-0.3,0.3-0.5,0.3-0.7c0-0.2-0.1-0.3-0.4-0.5l-3.2-2.4c-0.2-0.2-0.4-0.2-0.6-0.2s-0.3,0.2-0.6,0.5
				l-0.3-0.3l0.8-1.2c0.1-0.1,0.1-0.2,0.2-0.3c0.1-0.1,0.2-0.2,0.2-0.3c0.1-0.1,0.2-0.2,0.3-0.4c0.2-0.2,0.4-0.5,0.6-0.7
				c0.2-0.2,0.3-0.4,0.5-0.5c0.2-0.2,0.4-0.3,0.6-0.4c0.2-0.1,0.5-0.1,0.7-0.1c0.3,0,0.5,0.1,0.7,0.3c0.2,0.1,0.3,0.3,0.4,0.5
				c0.1,0.2,0.2,0.4,0.2,0.7c0,0.3-0.1,0.5-0.2,0.9c0.2-0.1,0.5-0.2,0.7-0.2s0.7,0,1.3,0c0.4,0,0.6,0,0.8,0c0.2,0,0.4,0,0.5-0.1
				c0.1-0.1,0.2-0.1,0.3-0.3L73.2,60.9z M67.9,60.3c-0.4-0.3-0.8-0.4-1.1-0.2c-0.3,0.1-0.6,0.4-0.9,0.8c0,0.1-0.1,0.1-0.1,0.1
				c0,0,0,0.1-0.1,0.1l2,1.5l0.2-0.2c0.3-0.4,0.4-0.7,0.5-1.1S68.4,60.6,67.9,60.3z"/>
			<path class="st0" d="M74.8,52.7l1.9,0.9l-2.2,5.1L74,58.5c0.2-0.4,0.2-0.6,0.1-0.7c-0.1-0.1-0.2-0.3-0.5-0.4l-3.6-1.6
				c-0.2-0.1-0.3-0.1-0.4-0.1c-0.1,0-0.2,0-0.3,0.1c-0.1,0.1-0.2,0.3-0.3,0.5l-0.4-0.2l2.1-4.8l1.5,0.6l-0.2,0.4
				c-0.4-0.1-0.6-0.1-0.8,0c-0.2,0.1-0.3,0.1-0.4,0.3c-0.1,0.1-0.2,0.3-0.3,0.6L70,54.3l2,0.9l0.3-0.6c0.1-0.2,0.1-0.4,0.1-0.5
				c0-0.1,0-0.2-0.1-0.3s-0.2-0.2-0.4-0.3l0.2-0.4L74,54l-0.2,0.4c-0.2-0.1-0.4-0.1-0.5-0.1s-0.2,0-0.3,0.1
				c-0.1,0.1-0.2,0.2-0.2,0.4l-0.3,0.6l1.3,0.6c0.2,0.1,0.4,0.2,0.5,0.2c0.1,0,0.2,0,0.3,0c0.1,0,0.2-0.1,0.3-0.2s0.2-0.2,0.3-0.5
				l0.2-0.5c0.1-0.2,0.1-0.4,0.2-0.6s0-0.4-0.2-0.7c-0.1-0.3-0.4-0.5-0.8-0.8L74.8,52.7z"/>
		</g>
	</g>
	<g>
		<g>
			<path class="st0" d="M9.8,22.5l-1.3,2.8l-0.4-0.2c0.1-0.2,0.2-0.4,0.2-0.6s0-0.2-0.1-0.3S8,24.1,7.8,24l-1.7-0.8l-1.2,2.6
				l1.7,0.8c0.2,0.1,0.4,0.1,0.6,0.1s0.3-0.2,0.5-0.6L8,26.4l-1.3,2.8L6.3,29c0.1-0.2,0.2-0.4,0.2-0.6c0-0.1,0-0.3-0.1-0.3
				S6.2,27.9,6,27.9l-3.6-1.7c-0.2-0.1-0.3-0.1-0.4-0.1c-0.1,0-0.2,0-0.3,0.1c-0.1,0.1-0.2,0.3-0.3,0.5L1,26.5l1.3-2.8l0.4,0.2
				c-0.2,0.3-0.2,0.6-0.2,0.7S2.8,24.9,3,25l1.4,0.7L5.6,23l-1.4-0.7c-0.2-0.1-0.3-0.1-0.4-0.1s-0.2,0-0.3,0.1
				c-0.1,0.1-0.2,0.3-0.3,0.5l-0.4-0.2l1.3-2.8l0.4,0.2c-0.1,0.2-0.2,0.4-0.2,0.6c0,0.1,0,0.2,0.1,0.3c0.1,0.1,0.2,0.1,0.4,0.2
				l3.6,1.7C8.5,22.9,8.6,23,8.7,23c0.1,0,0.2,0,0.3-0.1s0.2-0.3,0.3-0.5L9.8,22.5z"/>
			<path class="st0" d="M12.6,15.6l1.6,1.3l-3.5,4.4L10.4,21c0.2-0.3,0.4-0.5,0.3-0.7c0-0.2-0.1-0.3-0.3-0.5l-3.1-2.5
				c-0.1-0.1-0.3-0.2-0.4-0.2c-0.1,0-0.2,0-0.3,0s-0.3,0.2-0.4,0.4l-0.3-0.3l3.3-4.1l1.3,1l-0.3,0.3c-0.3-0.2-0.6-0.2-0.8-0.2
				c-0.2,0-0.4,0-0.5,0.1c-0.1,0.1-0.3,0.3-0.5,0.5l-0.7,0.9l1.7,1.4l0.4-0.5c0.1-0.2,0.2-0.3,0.3-0.4c0-0.1,0-0.2,0-0.3
				c-0.1-0.1-0.2-0.2-0.3-0.4l0.3-0.3l1.6,1.3L11.2,17c-0.2-0.1-0.3-0.2-0.5-0.2c-0.1,0-0.2,0-0.3,0c-0.1,0.1-0.2,0.2-0.3,0.3
				l-0.4,0.5l1.1,0.9c0.2,0.2,0.3,0.3,0.4,0.3c0.1,0.1,0.2,0.1,0.3,0.1c0.1,0,0.2,0,0.3-0.1c0.1-0.1,0.2-0.2,0.4-0.4l0.3-0.4
				c0.1-0.2,0.2-0.3,0.3-0.5c0.1-0.2,0.1-0.4,0-0.7s-0.3-0.6-0.6-1L12.6,15.6z"/>
			<path class="st0" d="M17.8,13.7l-2.4,2.1l-0.3-0.3c0.2-0.2,0.3-0.3,0.4-0.5c0.1-0.1,0.1-0.2,0-0.3c0-0.1-0.1-0.2-0.2-0.4l-2.6-3
				c-0.2-0.2-0.3-0.3-0.5-0.3c-0.2,0-0.4,0.1-0.7,0.4L11.3,11l2.4-2.1L14,9.3c-0.2,0.2-0.3,0.3-0.4,0.5c-0.1,0.1-0.1,0.2,0,0.3
				c0,0.1,0.1,0.2,0.2,0.4l2.6,3c0.1,0.1,0.2,0.2,0.3,0.3c0.1,0.1,0.2,0.1,0.3,0c0.1,0,0.3-0.2,0.5-0.3L17.8,13.7z"/>
			<path class="st0" d="M23.2,6.6c0.2,0.4,0.4,0.8,0.4,1.2c0,0.4,0,0.8-0.1,1.1c-0.1,0.3-0.2,0.6-0.4,0.9c-0.4,0.5-0.9,1-1.7,1.4
				L19,12.6l-0.2-0.4c0.2-0.1,0.4-0.3,0.5-0.4c0.1-0.1,0.1-0.2,0.1-0.3c0-0.1-0.1-0.2-0.2-0.4l-2-3.4c-0.1-0.2-0.3-0.4-0.4-0.4
				s-0.4,0-0.7,0.2l-0.2-0.4L17,6.5c0,0,0.2-0.1,0.5-0.3C17.7,6,17.9,5.9,18,5.9c0.4-0.3,0.8-0.5,1.2-0.6c0.3-0.1,0.7-0.2,1-0.3
				c0.3,0,0.6,0,0.9,0c0.3,0.1,0.6,0.2,0.8,0.3c0.3,0.1,0.5,0.3,0.7,0.5C22.8,6.1,23,6.3,23.2,6.6z M21.9,7.4
				c-0.3-0.6-0.7-1-1.1-1.2s-0.9-0.3-1.3-0.3c-0.2,0-0.4,0.1-0.6,0.2S18.4,6.3,18,6.5l2.2,3.8c0.1,0.2,0.2,0.4,0.3,0.5
				c0.1,0.1,0.2,0.1,0.3,0.1s0.3-0.1,0.5-0.2c0.6-0.4,1-0.9,1-1.5C22.4,8.5,22.2,7.9,21.9,7.4z"/>
			<path class="st0" d="M31.1,5l0.6,2l-5.3,1.6l-0.1-0.4c0.4-0.1,0.6-0.2,0.7-0.4c0.1-0.1,0.1-0.3,0-0.6l-1.1-3.8
				c-0.1-0.2-0.1-0.3-0.2-0.4C25.5,3,25.4,3,25.2,2.9c-0.1,0-0.3,0-0.6,0.1l-0.1-0.4l5-1.5L30,2.7l-0.4,0.1
				c-0.2-0.3-0.4-0.5-0.5-0.6C28.9,2,28.8,2,28.6,2S28.2,2,27.9,2.1l-1.1,0.3l0.6,2.1L28,4.4c0.2-0.1,0.4-0.1,0.5-0.2
				c0.1-0.1,0.1-0.2,0.2-0.3c0-0.1,0-0.3-0.1-0.5L29,3.3l0.6,2l-0.4,0.1C29.1,5.2,29.1,5,29,4.9s-0.2-0.1-0.3-0.1
				c-0.1,0-0.3,0-0.5,0.1l-0.6,0.2L28,6.5c0.1,0.2,0.1,0.4,0.2,0.5s0.1,0.2,0.2,0.2s0.2,0.1,0.3,0.1s0.3,0,0.5-0.1l0.5-0.1
				c0.2-0.1,0.4-0.1,0.6-0.3c0.2-0.1,0.3-0.3,0.4-0.6s0.1-0.6,0.1-1.1L31.1,5z"/>
			<path class="st0" d="M42.6,4.3l-0.1,2.1L37,6.3l0-0.4c0.4,0,0.6,0,0.7-0.1c0.1-0.1,0.2-0.3,0.2-0.6L38,1.2c0-0.2,0-0.3,0-0.4
				c0-0.1-0.1-0.2-0.2-0.2c-0.1-0.1-0.3-0.1-0.6-0.1l0-0.4l5.2,0.1l0,1.6l-0.4,0c-0.1-0.4-0.2-0.6-0.3-0.8c-0.1-0.2-0.3-0.3-0.4-0.3
				s-0.4-0.1-0.7-0.1l-1.2,0l-0.1,2.2l0.6,0c0.2,0,0.4,0,0.5,0c0.1,0,0.2-0.1,0.2-0.2c0-0.1,0.1-0.3,0.1-0.5l0.4,0l-0.1,2.1l-0.4,0
				c0-0.2,0-0.4-0.1-0.5s-0.1-0.2-0.2-0.2c-0.1,0-0.3-0.1-0.5-0.1l-0.6,0l0,1.5c0,0.2,0,0.4,0,0.5c0,0.1,0,0.2,0.1,0.3
				c0.1,0.1,0.1,0.1,0.3,0.2c0.1,0,0.3,0.1,0.5,0.1l0.5,0c0.2,0,0.4,0,0.6-0.1c0.2,0,0.4-0.2,0.6-0.4s0.3-0.6,0.4-1L42.6,4.3z"/>
			<path class="st0" d="M52.6,8.9l-3-0.9l0.1-0.4c0.3,0.1,0.5,0.1,0.6,0.1c0.1,0,0.2-0.1,0.3-0.2c0.1-0.1,0.1-0.2,0.2-0.4l1.1-3.8
				l-3.7,4.2l-0.3-0.1L47,1.9l-1,3.6c-0.1,0.2-0.1,0.3-0.1,0.4s0,0.2,0,0.3s0.1,0.2,0.2,0.2c0.1,0.1,0.3,0.1,0.5,0.2l-0.1,0.4
				l-2.2-0.6L44.4,6c0.2,0.1,0.4,0.1,0.5,0.1c0.1,0,0.2,0,0.3-0.1c0.1-0.1,0.1-0.1,0.2-0.2c0-0.1,0.1-0.2,0.1-0.4l1-3.4
				c0.1-0.3,0.1-0.4,0.1-0.6s0-0.2-0.1-0.3c-0.1-0.1-0.3-0.2-0.6-0.3L46,0.4l2.2,0.6L49,5.9l3.2-3.7l2.2,0.6l-0.1,0.4
				c-0.4-0.1-0.6-0.1-0.8,0c-0.1,0.1-0.2,0.2-0.3,0.5L52,7.5C52,7.6,52,7.8,52,7.9C52,8,52,8.1,52.2,8.2c0.1,0.1,0.3,0.2,0.6,0.2
				L52.6,8.9z"/>
			<path class="st0" d="M56.7,11.2l-2.8-1.5l0.2-0.4c0.2,0.1,0.4,0.2,0.6,0.2c0.1,0,0.3,0,0.3-0.1c0.1-0.1,0.2-0.2,0.3-0.4l1.9-3.5
				c0.1-0.2,0.2-0.4,0.1-0.6c0-0.2-0.2-0.3-0.6-0.5l0.2-0.4l2.8,1.5l-0.2,0.4C59.2,6,59,5.9,58.9,5.9c-0.1,0-0.3,0-0.3,0.1
				c-0.1,0.1-0.2,0.2-0.3,0.3l-1.9,3.5c-0.1,0.2-0.1,0.3-0.1,0.4s0,0.2,0.1,0.3c0.1,0.1,0.3,0.2,0.5,0.4L56.7,11.2z"/>
			<path class="st0" d="M65,14.6c-0.1-0.1-0.3-0.2-0.4-0.2c-0.1,0-0.2,0-0.3,0c-0.1,0.1-0.2,0.2-0.3,0.3l-0.9,1.1
				c-0.3-0.3-0.8-0.5-1.2-0.8c-0.3-0.2-0.6-0.3-0.8-0.4c-0.2-0.1-0.3-0.2-0.5-0.4c-0.5-0.4-0.9-0.9-1-1.5c-0.2-0.6-0.2-1.1-0.1-1.6
				c0.1-0.5,0.4-1,0.7-1.4c0.4-0.5,0.8-0.8,1.4-1c0.5-0.2,1.1-0.3,1.6-0.2c0.6,0.1,1.1,0.3,1.5,0.7c0.5,0.5,0.9,1.1,1,1.8
				c0.1-0.1,0.3-0.2,0.5-0.3l0.3,0.3l-1.3,1.6L65,12.4c0.1-0.3,0.2-0.6,0.3-0.9s0-0.6-0.1-0.9s-0.3-0.5-0.5-0.7
				c-0.2-0.1-0.4-0.3-0.6-0.3c-0.2-0.1-0.5-0.1-0.8-0.1c-0.3,0-0.6,0.1-0.9,0.3c-0.3,0.2-0.6,0.5-1,0.9c-0.3,0.3-0.5,0.7-0.7,1.1
				c-0.2,0.4-0.3,0.8-0.2,1.2c0,0.4,0.2,0.8,0.6,1.1c0.3,0.3,0.6,0.4,0.8,0.4c0.2,0,0.4,0,0.6-0.1c0.2-0.1,0.3-0.2,0.5-0.4
				c0.1-0.2,0.2-0.3,0.3-0.4c0-0.1,0-0.2,0-0.3s-0.2-0.2-0.4-0.4l0.3-0.3l2.1,1.8L65,14.6z"/>
			<path class="st0" d="M68.4,22.9l-1-1.3c0-0.1,0.1-0.2,0.1-0.4s0.1-0.3,0.2-0.5c0.1-0.2,0.1-0.3,0.2-0.5l0.3-0.8
				c0.1-0.3,0.2-0.6,0.3-0.7c0-0.1,0-0.3,0-0.4c0-0.1-0.2-0.3-0.3-0.5l-0.1-0.2l-1.3,1c-0.1,0.1-0.2,0.2-0.3,0.3
				c-0.1,0.1-0.1,0.2,0,0.4c0,0.1,0.1,0.3,0.3,0.5L66.2,20l-1.9-2.5l0.3-0.3c0.2,0.3,0.4,0.5,0.6,0.5c0.2,0,0.3,0,0.6-0.2l3.2-2.4
				c0.2-0.2,0.3-0.3,0.4-0.5S69.3,14.3,69,14l0.3-0.3l0.9,1.1c0.1,0.1,0.2,0.2,0.2,0.3s0.2,0.2,0.2,0.3c0.1,0.1,0.1,0.2,0.3,0.4
				c0.2,0.3,0.3,0.5,0.5,0.7s0.2,0.4,0.3,0.6c0.1,0.2,0.1,0.5,0.2,0.7c0,0.2,0,0.5-0.1,0.7c-0.1,0.2-0.3,0.4-0.5,0.6
				c-0.2,0.1-0.4,0.2-0.6,0.3c-0.2,0-0.4,0-0.7,0s-0.5-0.2-0.8-0.4c0,0.3,0,0.5-0.1,0.8c-0.1,0.2-0.2,0.7-0.4,1.2
				c-0.1,0.3-0.2,0.6-0.3,0.8c0,0.2-0.1,0.3,0,0.5c0,0.1,0.1,0.2,0.2,0.4L68.4,22.9z M70.5,18.1c0.4-0.3,0.6-0.6,0.5-1
				s-0.2-0.7-0.5-1.1c0-0.1-0.1-0.1-0.1-0.1s-0.1-0.1-0.1-0.1l-2,1.5l0.2,0.2c0.3,0.4,0.6,0.6,0.9,0.8
				C69.7,18.5,70.1,18.4,70.5,18.1z"/>
			<path class="st0" d="M73.1,28.4l-1.9,0.8L69,24.1l0.4-0.2c0.2,0.4,0.3,0.6,0.5,0.6c0.1,0.1,0.3,0,0.6-0.1l3.6-1.6
				c0.2-0.1,0.3-0.1,0.4-0.2c0.1-0.1,0.1-0.2,0.1-0.3c0-0.1-0.1-0.3-0.2-0.6l0.4-0.2l2.1,4.8L75.3,27l-0.2-0.4
				c0.3-0.2,0.5-0.4,0.6-0.6s0.1-0.3,0.1-0.5c0-0.2-0.1-0.4-0.2-0.7l-0.5-1.1l-2,0.9l0.3,0.6c0.1,0.2,0.2,0.3,0.2,0.4
				c0.1,0.1,0.2,0.1,0.3,0.1c0.1,0,0.3,0,0.5-0.1l0.2,0.4l-1.9,0.8l-0.2-0.4c0.2-0.1,0.4-0.2,0.4-0.3c0.1-0.1,0.1-0.2,0.1-0.3
				s-0.1-0.3-0.1-0.5l-0.3-0.6l-1.4,0.6c-0.2,0.1-0.4,0.2-0.5,0.2s-0.2,0.1-0.2,0.2c0,0.1-0.1,0.2,0,0.3c0,0.1,0.1,0.3,0.2,0.5
				l0.2,0.5c0.1,0.2,0.2,0.4,0.3,0.5c0.1,0.2,0.3,0.3,0.6,0.4c0.3,0.1,0.7,0.1,1.1-0.1L73.1,28.4z"/>
		</g>
	</g>
</g>
</svg>
