<?xml version="1.0" encoding="utf-8"?>
<!-- Generator: Adobe Illustrator 22.1.0, SVG Export Plug-In . SVG Version: 6.00 Build 0)  -->
<svg version="1.1" id="Layer_1" xmlns="http://www.w3.org/2000/svg" xmlns:xlink="http://www.w3.org/1999/xlink" x="0px" y="0px"
	 viewBox="0 0 67.7 20.2" style="enable-background:new 0 0 67.7 20.2;" xml:space="preserve">
<style type="text/css">
	.st0{fill:#A09890;stroke:#9F988F;stroke-width:0.2;stroke-miterlimit:10;}
	.st1{fill:#A09890;stroke:#9F988F;stroke-width:0.25;stroke-miterlimit:10;}
</style>
<g>
	<g>
		<g>
			<path class="st0" d="M36.2,18.4l0.3,0c0,0.2,0.1,0.3,0.2,0.4c0.1,0.1,0.3,0.1,0.4,0.1c0.1,0,0.2,0,0.3-0.1c0.1,0,0.2-0.1,0.2-0.2
				c0-0.1,0.1-0.1,0.1-0.2c0-0.1,0-0.2-0.1-0.2c-0.1-0.1-0.1-0.1-0.2-0.1c-0.1,0-0.2-0.1-0.4-0.1c-0.5-0.1-0.8-0.3-0.8-0.6
				c0-0.2,0.1-0.4,0.2-0.5c0.2-0.1,0.3-0.2,0.6-0.2c0.5,0,0.7,0.2,0.8,0.6l-0.3,0c0-0.2-0.1-0.3-0.2-0.3c-0.1-0.1-0.2-0.1-0.4-0.1
				c-0.1,0-0.2,0-0.3,0c-0.1,0-0.2,0.1-0.2,0.1c0,0.1-0.1,0.1-0.1,0.2c0,0.1,0,0.1,0.1,0.2c0,0.1,0.1,0.1,0.2,0.1
				c0.1,0,0.3,0.1,0.4,0.1c0.3,0.1,0.5,0.2,0.6,0.3c0.1,0.1,0.1,0.2,0.1,0.4c0,0.1,0,0.3-0.1,0.4c-0.1,0.1-0.2,0.2-0.3,0.2
				c-0.1,0.1-0.3,0.1-0.5,0.1c-0.1,0-0.2,0-0.3,0c-0.1,0-0.2-0.1-0.3-0.1c-0.1,0-0.1-0.1-0.2-0.2C36.3,18.7,36.2,18.6,36.2,18.4z"/>
			<path class="st0" d="M38.9,18.7v1.2h-0.3v-3.2h0.3v0.4c0.2-0.3,0.5-0.4,0.9-0.4c0.2,0,0.3,0,0.4,0.1c0.1,0,0.2,0.1,0.3,0.2
				c0.1,0.1,0.2,0.2,0.2,0.4c0.1,0.1,0.1,0.3,0.1,0.5c0,0.4-0.1,0.7-0.3,0.9c-0.2,0.2-0.4,0.3-0.8,0.3C39.4,19.1,39.1,19,38.9,18.7z
				 M40.5,17.9c0-0.2,0-0.4-0.1-0.5c-0.1-0.1-0.2-0.3-0.3-0.3C40,17,39.9,17,39.7,17c-0.1,0-0.2,0-0.3,0.1c-0.1,0-0.2,0.1-0.3,0.2
				c-0.1,0.1-0.1,0.2-0.2,0.3c0,0.1-0.1,0.3-0.1,0.4c0,0.3,0.1,0.5,0.2,0.7c0.1,0.2,0.3,0.3,0.6,0.3c0.1,0,0.2,0,0.3-0.1
				c0.1,0,0.2-0.1,0.2-0.2c0.1-0.1,0.1-0.2,0.2-0.3C40.4,18.2,40.5,18.1,40.5,17.9z"/>
			<path class="st0" d="M43.2,19.1h-0.3c0-0.1-0.1-0.2-0.1-0.4c-0.2,0.3-0.6,0.4-0.9,0.4c-0.1,0-0.3,0-0.4-0.1
				c-0.1,0-0.2-0.1-0.3-0.2c-0.1-0.1-0.1-0.2-0.1-0.3c0-0.1,0-0.2,0-0.3c0-0.1,0.1-0.1,0.1-0.2c0.1-0.1,0.1-0.1,0.2-0.1
				c0.1,0,0.3-0.1,0.6-0.1c0.3,0,0.5-0.1,0.6-0.1c0-0.1,0-0.2,0-0.3c0-0.1,0-0.1-0.1-0.2c0-0.1-0.1-0.1-0.2-0.1c-0.1,0-0.2,0-0.3,0
				c-0.4,0-0.6,0.2-0.7,0.5l-0.3,0c0.1-0.5,0.4-0.7,1-0.7c0.2,0,0.3,0,0.5,0.1c0.1,0,0.2,0.1,0.3,0.2C43,17,43,17.1,43,17.2
				c0,0.1,0,0.3,0,0.5l0,0.6c0,0.2,0,0.3,0,0.4C43.1,18.8,43.1,18.9,43.2,19.1z M42.8,18v-0.1c-0.2,0.1-0.4,0.1-0.7,0.2
				c-0.2,0-0.3,0.1-0.4,0.1c-0.1,0-0.1,0.1-0.2,0.1c0,0.1-0.1,0.1-0.1,0.2c0,0.1,0,0.2,0.1,0.3c0.1,0.1,0.2,0.1,0.4,0.1
				c0.1,0,0.2,0,0.3,0c0.1,0,0.2-0.1,0.2-0.1c0.1,0,0.1-0.1,0.2-0.2c0.1-0.1,0.1-0.1,0.1-0.2C42.8,18.2,42.8,18.1,42.8,18z"/>
			<path class="st0" d="M45.7,18.3c-0.1,0.3-0.2,0.5-0.4,0.6c-0.2,0.1-0.4,0.2-0.6,0.2c-0.2,0-0.4,0-0.5-0.1
				c-0.1-0.1-0.3-0.2-0.4-0.4c-0.1-0.2-0.1-0.4-0.1-0.7c0-0.2,0-0.3,0.1-0.5c0-0.1,0.1-0.2,0.1-0.3c0.1-0.1,0.1-0.2,0.2-0.2
				c0.1-0.1,0.2-0.1,0.3-0.1c0.1,0,0.2-0.1,0.4-0.1c0.5,0,0.8,0.2,1,0.7l-0.3,0C45.2,17.1,45,17,44.6,17c-0.1,0-0.2,0-0.3,0.1
				c-0.1,0-0.2,0.1-0.2,0.2c-0.1,0.1-0.1,0.2-0.1,0.3c0,0.1,0,0.2,0,0.4c0,0.3,0.1,0.5,0.2,0.7c0.1,0.2,0.3,0.3,0.6,0.3
				c0.3,0,0.6-0.2,0.7-0.6L45.7,18.3z"/>
			<path class="st0" d="M48.1,18h-1.8c0,0.3,0.1,0.5,0.2,0.7c0.1,0.2,0.3,0.2,0.6,0.2c0.3,0,0.6-0.2,0.7-0.6l0.3,0
				c-0.1,0.3-0.2,0.4-0.4,0.6c-0.2,0.1-0.4,0.2-0.6,0.2c-0.3,0-0.6-0.1-0.8-0.3c-0.2-0.2-0.3-0.5-0.3-0.9c0-0.4,0.1-0.7,0.3-0.9
				c0.2-0.2,0.4-0.3,0.8-0.3C47.8,16.7,48.1,17.1,48.1,18z M47.8,17.7c0-0.5-0.3-0.8-0.7-0.8c-0.2,0-0.4,0.1-0.5,0.2
				c-0.1,0.1-0.2,0.3-0.2,0.6H47.8z"/>
		</g>
		<path class="st0" d="M34.5,18.9l-0.2,0.2c-0.2-0.1-0.3-0.3-0.5-0.5c-0.2,0.3-0.5,0.5-0.9,0.5c-0.2,0-0.4,0-0.5-0.1
			c-0.2-0.1-0.3-0.2-0.4-0.3c-0.1-0.1-0.1-0.3-0.1-0.5c0-0.1,0-0.2,0-0.2c0-0.1,0.1-0.2,0.1-0.2c0-0.1,0.1-0.1,0.2-0.2
			c0.1-0.1,0.2-0.2,0.4-0.2c-0.1-0.2-0.2-0.3-0.3-0.4c-0.1-0.1-0.1-0.2-0.1-0.3c0-0.2,0.1-0.4,0.2-0.5c0.1-0.1,0.3-0.2,0.5-0.2
			c0.1,0,0.3,0,0.4,0.1c0.1,0.1,0.2,0.1,0.2,0.2c0.1,0.1,0.1,0.2,0.1,0.4c0,0.3-0.2,0.6-0.7,0.8c0.2,0.2,0.4,0.5,0.7,0.8
			c0-0.1,0.1-0.2,0.1-0.3l0.1-0.3l0.3,0.1c-0.1,0.3-0.2,0.5-0.3,0.7l0.3,0.3C34.3,18.7,34.4,18.8,34.5,18.9z M33.6,18.4
			c-0.3-0.3-0.5-0.6-0.8-1c-0.2,0.1-0.4,0.3-0.5,0.4c-0.1,0.1-0.1,0.2-0.1,0.3c0,0.2,0.1,0.4,0.2,0.5c0.1,0.1,0.3,0.2,0.5,0.2
			C33.2,18.8,33.4,18.7,33.6,18.4z M33.5,16.5c0-0.1,0-0.2-0.1-0.3c-0.1-0.1-0.2-0.1-0.3-0.1c-0.1,0-0.2,0-0.3,0.1
			c-0.1,0.1-0.1,0.2-0.1,0.3c0,0,0,0.1,0,0.1c0,0,0,0.1,0.1,0.2c0,0.1,0.1,0.2,0.2,0.3C33.3,16.9,33.5,16.7,33.5,16.5z"/>
		<g>
			<path class="st0" d="M20.9,19.1h-0.3V16h0.3V19.1z"/>
			<path class="st0" d="M21.9,16.4h-0.3V16h0.3V16.4z M21.9,19.1h-0.3v-2.3h0.3V19.1z"/>
			<path class="st0" d="M24.4,16.8l-0.9,2.3h-0.2l-0.9-2.3h0.3l0.8,2l0.8-2H24.4z"/>
			<path class="st0" d="M25.1,16.4h-0.3V16h0.3V16.4z M25.1,19.1h-0.3v-2.3h0.3V19.1z"/>
			<path class="st0" d="M27.6,19.1h-0.3v-1.4c0-0.2,0-0.4-0.1-0.5C27,17.1,26.9,17,26.7,17c-0.1,0-0.2,0-0.2,0
				c-0.1,0-0.1,0.1-0.2,0.1c-0.1,0.1-0.1,0.1-0.2,0.2c0,0.1-0.1,0.2-0.1,0.3c0,0.1,0,0.3,0,0.5v1h-0.3v-2.3H26v0.3
				c0.2-0.3,0.5-0.4,0.7-0.4c0.5,0,0.8,0.3,0.8,0.8V19.1z"/>
			<path class="st0" d="M28.2,19.4l0.3,0c0.1,0.3,0.3,0.4,0.6,0.4c0.6,0,0.9-0.3,0.9-0.8v-0.2c-0.1,0.2-0.3,0.3-0.4,0.3
				c-0.1,0.1-0.3,0.1-0.5,0.1c-0.2,0-0.3,0-0.4-0.1c-0.1-0.1-0.2-0.1-0.3-0.2c-0.1-0.1-0.2-0.2-0.2-0.4c0-0.1-0.1-0.3-0.1-0.5
				c0-0.2,0-0.5,0.1-0.6c0.1-0.2,0.2-0.3,0.4-0.4c0.1-0.1,0.3-0.1,0.5-0.1c0.2,0,0.3,0,0.5,0.1c0.1,0.1,0.3,0.2,0.4,0.3v-0.4h0.3
				v2.1c0,0.3,0,0.5-0.1,0.6c-0.1,0.2-0.2,0.3-0.4,0.4c-0.2,0.1-0.4,0.1-0.6,0.1C28.5,20.1,28.2,19.8,28.2,19.4z M30,18
				c0-0.3-0.1-0.5-0.2-0.7c-0.1-0.2-0.3-0.3-0.6-0.3c-0.1,0-0.2,0-0.3,0.1c-0.1,0-0.2,0.1-0.2,0.2c-0.1,0.1-0.1,0.2-0.2,0.3
				c0,0.1-0.1,0.2-0.1,0.4c0,0.3,0.1,0.5,0.2,0.7c0.1,0.2,0.3,0.3,0.6,0.3c0.1,0,0.3,0,0.4-0.1c0.1-0.1,0.2-0.2,0.3-0.3
				C29.9,18.4,30,18.2,30,18z"/>
		</g>
	</g>
	<g>
		<polygon class="st1" points="12.3,0.4 12.3,12.2 13,12.2 13,2.3 20.6,12.2 21.1,11.8 		"/>
		<path class="st1" d="M8.9,10.5c-0.9,0.7-2,1-3.1,1c-2.7,0-5-2.2-5-4.9c0-2.7,2.2-4.8,5-4.8c1.2,0,2.2,0.4,3.1,1
			C8.9,2.9,9,2.9,9.1,2.9c0.1,0,0.2,0,0.3-0.1c0.1-0.1,0.1-0.3-0.1-0.5C8.3,1.6,7,1.1,5.8,1.1c-3.1,0-5.6,2.5-5.6,5.5
			c0,3,2.5,5.5,5.6,5.5h0c1.3,0,2.5-0.4,3.5-1.2c0.1-0.1,0.1-0.2,0.1-0.3c0-0.1,0-0.2-0.1-0.2C9.2,10.4,9,10.3,8.9,10.5z"/>
		<path class="st1" d="M63.8,6.1c-1.7-0.4-3.2-0.8-3.2-2.3c0-1.1,1.3-2,2.8-2c1.8,0,2.8,1,2.9,1.1c0.1,0.1,0.3,0.2,0.5,0
			c0.1-0.1,0.1-0.3,0-0.4c0,0-1.1-1.3-3.4-1.3c-1.9,0-3.4,1.2-3.4,2.7c0,2.1,1.9,2.5,3.7,2.9c1.7,0.4,3.3,0.8,3.3,2.4
			c0,1.4-1.6,2.5-3.6,2.5c-2,0-3.6-1.4-3.6-1.4c-0.1-0.1-0.3-0.1-0.4,0c-0.1,0.1-0.1,0.1-0.1,0.2c0,0.1,0,0.2,0.1,0.2
			c0,0,1.7,1.6,4.1,1.6c2.3,0,4.2-1.4,4.2-3.2C67.6,6.9,65.6,6.5,63.8,6.1z"/>
		<polygon class="st1" points="32.2,1.1 32.2,11 24,0.4 24,12.2 24.7,12.2 24.7,2.3 32.9,12.9 32.9,1.1 		"/>
		<polygon class="st1" points="44.6,12.9 44.6,1.1 44,1.1 44,11 36.3,1.1 35.8,1.5 		"/>
		<polygon class="st1" points="47.5,0.4 47.5,12.2 48.2,12.2 48.2,2.3 55.8,12.2 56.3,11.8 		"/>
	</g>
</g>
</svg>
