<?xml version="1.0" encoding="utf-8"?>
<!-- Generator: Adobe Illustrator 22.1.0, SVG Export Plug-In . SVG Version: 6.00 Build 0)  -->
<svg version="1.1" id="Layer_1" xmlns="http://www.w3.org/2000/svg" xmlns:xlink="http://www.w3.org/1999/xlink" x="0px" y="0px"
	 viewBox="0 0 29.7 20.2" style="enable-background:new 0 0 29.7 20.2;" xml:space="preserve">
<style type="text/css">
	.st0{fill:#A09890;}
</style>
<g>
	<path class="st0" d="M24.1,9.7L27,5.7v4.1H24.1z M28.2,9.7V2.5h-0.3L22,10.8h5v2.4h1.1v-2.4h1.2V9.7H28.2z"/>
	<path class="st0" d="M1.7,6.6C1.8,7,2,7.3,2.2,7.5c0.2,0.2,0.6,0.4,1,0.4c0.3,0,0.6-0.1,0.8-0.3c0.2-0.2,0.3-0.4,0.3-0.8
		c0-0.4-0.2-0.7-0.7-0.9C3.3,5.7,2.9,5.5,2.6,5.3C2,5,1.5,4.7,1.1,4.2C0.6,3.8,0.4,3.3,0.4,2.6V2.5c0-0.7,0.3-1.4,0.9-1.9
		c0.5-0.5,1.2-0.7,1.9-0.7h0.1c0.9,0,2.3,0.4,2.8,1.2L5.3,2.6C4.7,1.9,3.6,1.1,2.7,1.9C2.5,2.1,2.4,2.3,2.4,2.5
		c0,0.3,0.2,0.5,0.5,0.7c0.3,0.2,0.6,0.4,0.9,0.5C4.5,4.2,5.1,4.5,5.6,5C6.2,5.4,6.4,6,6.4,6.9v0c0,0.8-0.3,1.5-0.9,2
		C5,9.4,4.2,9.7,3.4,9.8c-0.1,0-0.1,0-0.2,0c-0.6,0-1.1-0.2-1.6-0.5C1,9,0.5,8.5,0.3,7.8L1.7,6.6z"/>
	<polygon class="st0" points="11.4,1.9 11.4,9.5 9.5,9.5 9.5,1.9 6.9,1.9 7.6,0.1 13.4,0.1 14,1.9 	"/>
	<path class="st0" d="M16.9,0.1v5.6c0,0.7,0.1,1.2,0.4,1.6c0.3,0.4,0.8,0.6,1.5,0.6c0.7,0,1.2-0.2,1.5-0.6c0.3-0.4,0.4-0.9,0.4-1.6
		V0.1h2v5.8c0,2.6-1.3,3.8-3.9,3.8c-2.6,0-3.9-1.3-3.9-3.8V0.1H16.9z"/>
	<path class="st0" d="M2.2,18.2h0.9c0.3,0,0.6,0,0.9,0c0.2,0,0.4,0,0.6-0.1c0.3-0.1,0.6-0.2,0.8-0.4v0C5.7,17.4,6,17,6.1,16.6
		c0.1-0.4,0.2-0.8,0.2-1.3c0-0.5-0.1-0.9-0.2-1.3c-0.1-0.4-0.4-0.8-0.7-1.1c-0.2-0.2-0.4-0.3-0.7-0.4c-0.2-0.1-0.5-0.1-0.8-0.1
		c-0.3,0-0.5,0-0.8,0c-0.3,0-0.6,0-0.9,0V18.2z M0.3,10.6h2.2c0.6,0,1.1,0,1.6,0.1c0.4,0,0.7,0.1,1,0.1c0.3,0.1,0.6,0.2,0.9,0.3
		c0.6,0.3,1.1,0.7,1.5,1.3c0.4,0.5,0.6,1.1,0.8,1.8c0.1,0.4,0.1,0.7,0.1,1.1c0,0.2,0,0.4,0,0.6c-0.1,0.6-0.2,1.2-0.4,1.7
		c-0.2,0.3-0.3,0.6-0.5,0.9C7,18.9,6.5,19.3,6,19.5c-0.2,0.1-0.5,0.2-0.7,0.3c0,0-0.2,0.1-0.4,0.1c-0.3,0-0.4,0.1-0.6,0.1
		C3.8,20,3.4,20,2.9,20H0.3V10.6z"/>
	<rect x="9.5" y="10.6" class="st0" width="2" height="9.4"/>
	<path class="st0" d="M20.5,15.3c0-0.4-0.1-0.8-0.2-1.2c-0.3-0.8-0.9-1.3-1.6-1.7c-0.4-0.2-0.8-0.2-1.2-0.2c-0.4,0-0.8,0.1-1.1,0.2
		c-0.1,0-0.2,0.1-0.3,0.1c-0.1,0.1-0.2,0.1-0.2,0.1c-0.1,0.1-0.3,0.2-0.4,0.4v0c-0.1,0.1-0.3,0.3-0.4,0.5c-0.1,0.2-0.2,0.3-0.3,0.5
		c-0.2,0.4-0.2,0.8-0.2,1.2c0,0.1,0,0.2,0,0.3c0,0.5,0.2,1,0.5,1.4c0.3,0.5,0.8,0.9,1.3,1.1c0.4,0.2,0.8,0.3,1.2,0.3
		c0.6,0,1.1-0.2,1.6-0.5C20.1,17.3,20.5,16.4,20.5,15.3 M22.6,15.3c0,0.7-0.1,1.3-0.4,1.9c-0.1,0.3-0.3,0.6-0.5,0.8
		c-0.6,0.8-1.3,1.4-2.3,1.8c-0.6,0.3-1.2,0.4-1.9,0.4c-0.3,0-0.7,0-1-0.1c-0.7-0.1-1.3-0.4-1.8-0.7c-0.2-0.2-0.5-0.4-0.8-0.6
		c-0.5-0.5-0.8-1-1.1-1.6c-0.3-0.6-0.4-1.2-0.4-1.9c0-0.2,0-0.3,0-0.5c0.1-0.8,0.4-1.6,0.8-2.3c0.4-0.5,0.8-1,1.4-1.4v0
		c0.8-0.5,1.8-0.8,2.8-0.8c1,0,1.9,0.3,2.8,0.8c0.6,0.4,1,0.8,1.4,1.4C22.3,13.4,22.6,14.3,22.6,15.3"/>
</g>
</svg>
