<?xml version="1.0" encoding="utf-8"?>
<!-- Generator: Adobe Illustrator 22.1.0, SVG Export Plug-In . SVG Version: 6.00 Build 0)  -->
<svg version="1.1" id="Layer_1" xmlns="http://www.w3.org/2000/svg" xmlns:xlink="http://www.w3.org/1999/xlink" x="0px" y="0px"
	 viewBox="0 0 113 60.9" style="enable-background:new 0 0 113 60.9;" xml:space="preserve">
<style type="text/css">
	.st0{fill:#128885;}
	.st1{fill:#128885;stroke:#128885;stroke-width:1.8668;stroke-miterlimit:10;}
</style>
<g>
	<g>
		<g>
			<path class="st0" d="M13.8,11.3h6.7v7.1h3.8v-7.1H31V32h-6.8v-7.7h-3.8V32h-6.7V11.3z"/>
			<path class="st0" d="M35.6,11.3H48v5.5h-5.7V19h5.6v5.2h-5.6v2.4h5.9V32H35.6V11.3z"/>
			<path class="st0" d="M52.5,11.3h7.1V32h-7.1V11.3z"/>
			<path class="st0" d="M64.2,32V11.3H70c2,0,3.7,0.2,5.3,0.7c1.5,0.4,2.8,1.1,3.9,2c1.1,0.9,1.9,2,2.4,3.3c0.6,1.3,0.8,2.8,0.8,4.5
				c0,1.7-0.3,3.2-0.8,4.5c-0.6,1.3-1.4,2.4-2.4,3.3c-1.1,0.9-2.4,1.5-3.9,2C73.7,31.8,72,32,70,32H64.2z M70.9,26.1
				c1.6,0,2.8-0.4,3.7-1.1c0.9-0.7,1.3-1.9,1.3-3.4c0-1.5-0.4-2.6-1.3-3.4c-0.9-0.7-2.1-1.1-3.7-1.1V26.1z"/>
			<path class="st0" d="M86.6,11.3H99v5.5h-5.7V19h5.6v5.2h-5.6v2.4h5.9V32H86.6V11.3z"/>
			<path class="st0" d="M0,39.5h12.4V45H6.7v2.3h5.6v5.2H6.7v2.4h5.9v5.5H0V39.5z"/>
			<path class="st0" d="M16.9,39.5h5.6l5.5,8l5.5-8h5.6v20.8h-6.7v-7.5l-4.3,6.2l-4.3-6.2v7.5h-6.7V39.5z"/>
			<path class="st0" d="M43.5,39.5h7.1v20.8h-7.1V39.5z"/>
			<path class="st0" d="M68.6,46.6c-0.4-0.3-0.9-0.6-1.4-0.8c-0.6-0.2-1.1-0.3-1.7-0.3c-0.6,0-1.2,0.1-1.7,0.3
				c-0.5,0.2-0.9,0.5-1.3,0.9c-0.4,0.4-0.7,0.8-0.9,1.4c-0.2,0.5-0.3,1.1-0.3,1.7c0,0.6,0.1,1.2,0.3,1.7c0.2,0.5,0.5,1,0.9,1.4
				c0.4,0.4,0.9,0.7,1.4,0.9c0.5,0.2,1.1,0.3,1.7,0.3c0.7,0,1.4-0.2,2-0.5c0.6-0.3,1.1-0.7,1.5-1.2h-1.9v-4.4h8.1v6.9
				c-0.5,0.9-1.1,1.6-1.7,2.3c-0.7,0.7-1.4,1.3-2.3,1.8c-0.8,0.5-1.7,0.9-2.7,1.2c-1,0.3-2,0.4-3,0.4c-1.5,0-2.9-0.3-4.3-0.8
				c-1.3-0.6-2.5-1.3-3.5-2.3c-1-1-1.8-2.1-2.4-3.5c-0.6-1.3-0.9-2.8-0.9-4.3c0-1.5,0.3-2.9,0.8-4.2c0.5-1.3,1.3-2.5,2.3-3.5
				c1-1,2.1-1.8,3.4-2.3c1.3-0.6,2.7-0.9,4.2-0.9c1.2,0,2.2,0.1,3.1,0.3c0.9,0.2,1.6,0.5,2.2,0.8c0.7,0.3,1.3,0.7,1.7,1.1L68.6,46.6
				z"/>
			<path class="st0" d="M79.6,39.5h7.3c1.3,0,2.6,0.2,3.7,0.5c1.1,0.4,2.1,0.9,3,1.6c0.8,0.7,1.5,1.5,2,2.5c0.5,1,0.7,2.2,0.7,3.5
				c0,1-0.1,1.9-0.4,2.6c-0.3,0.7-0.6,1.3-1,1.8c-0.4,0.5-0.9,1-1.4,1.4l3.9,6.9h-7.9l-3.2-5.3v5.3h-6.7V39.5z M86.3,49.8h0.3
				c0.8,0,1.5-0.2,2-0.5c0.6-0.4,0.8-0.9,0.8-1.8c0-0.8-0.3-1.4-0.8-1.8s-1.2-0.5-2-0.5h-0.3V49.8z"/>
			<path class="st0" d="M100.3,39.5h12.4V45h-5.7v2.3h5.6v5.2h-5.6v2.4h5.9v5.5h-12.6V39.5z"/>
		</g>
		<path class="st0" d="M60.1,3.8c0,2.1-1.7,3.8-3.8,3.8c-2.1,0-3.8-1.7-3.8-3.8c0-2.1,1.7-3.8,3.8-3.8C58.4,0,60.1,1.7,60.1,3.8z"/>
	</g>
	<polygon class="st1" points="105.6,35.2 104.9,34.7 110.7,26.1 111.4,26.6 	"/>
</g>
</svg>
