<?xml version="1.0" encoding="utf-8"?>
<!-- Generator: Adobe Illustrator 23.0.2, SVG Export Plug-In . SVG Version: 6.00 Build 0)  -->
<svg version="1.1" id="Layer_1" xmlns="http://www.w3.org/2000/svg" xmlns:xlink="http://www.w3.org/1999/xlink" x="0px" y="0px"
	 viewBox="0 0 61.42 61.42" style="enable-background:new 0 0 61.42 61.42;" xml:space="preserve">
<style type="text/css">
	.st0{fill:#168985;}
	.st1{fill:#FFFFFF;}
</style>
<g>
	<rect class="st0" width="61.42" height="61.42"/>
	<g>
		<path class="st1" d="M40.82,30.85c0,0.61-0.6,1.11-1.33,1.11H21.92c-0.73,0-1.33-0.5-1.33-1.11l0-0.28c0-0.61,0.6-1.11,1.33-1.11
			l17.57,0c0.74,0,1.33,0.5,1.33,1.11L40.82,30.85z"/>
		<path class="st1" d="M30.57,40.82c-0.61,0-1.11-0.6-1.11-1.33l0-17.57c0-0.74,0.5-1.33,1.11-1.33l0.29,0
			c0.61,0,1.11,0.6,1.11,1.33l0,17.57c0,0.73-0.5,1.33-1.11,1.33L30.57,40.82z"/>
	</g>
</g>
</svg>
