<?xml version="1.0" encoding="utf-8"?>
<!-- Generator: Adobe Illustrator 23.0.1, SVG Export Plug-In . SVG Version: 6.00 Build 0)  -->
<svg version="1.1" id="Layer_1" xmlns="http://www.w3.org/2000/svg" xmlns:xlink="http://www.w3.org/1999/xlink" x="0px" y="0px"
	 viewBox="0 0 55.04 70.37" style="enable-background:new 0 0 55.04 70.37;" xml:space="preserve">
<style type="text/css">
	.st0{fill:#CA964A;}
	.st1{fill:none;stroke:#606060;stroke-width:3;stroke-miterlimit:10;}
	.st2{fill:#606060;}
</style>
<g>
	<circle class="st0" cx="23.61" cy="46.76" r="23.61"/>
	<path class="st1" d="M3.48,42.85c3.2-3.62,7.51-6.03,11.42-8.87c7.67-5.57,13.68-11.48,17.94-19.94c1.34-2.67,4.14-9.77,0.12-11.96
		c-2.77-1.5-8.45-0.57-11.8,8.57C15,27.44,18.51,44.51,18.57,62.39c1.25-8.27,4.1-16.29,8.35-23.5c1.27-2.15,3.24-4.5,5.7-4.1
		c3.74,0.6,2.71,14.59,5.96,16.52c2.04,1.21,10.83-11.51,15.8-13.99"/>
	
		<ellipse transform="matrix(0.4187 -0.9081 0.9081 0.4187 7.1298 31.1931)" class="st2" cx="27.93" cy="10.03" rx="3.95" ry="2.13"/>
</g>
</svg>
