<?xml version="1.0" encoding="utf-8"?>
<!-- Generator: Adobe Illustrator 23.0.2, SVG Export Plug-In . SVG Version: 6.00 Build 0)  -->
<svg version="1.1" id="Layer_1" xmlns="http://www.w3.org/2000/svg" xmlns:xlink="http://www.w3.org/1999/xlink" x="0px" y="0px"
	 viewBox="0 0 13.37 19.02" style="enable-background:new 0 0 13.37 19.02;" xml:space="preserve">
<style type="text/css">
	.st0{fill:#FFFFFF;}
</style>
<g>
	<path class="st0" d="M6.69,0C3,0,0,3,0,6.69c0,1.25,0.34,2.46,0.99,3.51l5.31,8.55c0.1,0.16,0.28,0.26,0.47,0.26h0.01
		c0.19,0,0.38-0.11,0.48-0.27l5.17-8.63c0.62-1.03,0.95-2.22,0.95-3.43C13.37,3,10.37,0,6.69,0z M6.69,10.03
		c-1.87,0-3.34-1.51-3.34-3.34c0-1.84,1.5-3.34,3.34-3.34c1.84,0,3.34,1.5,3.34,3.34C10.03,8.5,8.58,10.03,6.69,10.03z"/>
</g>
</svg>
