<?xml version="1.0" encoding="utf-8"?>
<!-- Generator: Adobe Illustrator 23.0.2, SVG Export Plug-In . SVG Version: 6.00 Build 0)  -->
<svg version="1.1" id="Layer_1" xmlns="http://www.w3.org/2000/svg" xmlns:xlink="http://www.w3.org/1999/xlink" x="0px" y="0px"
	 viewBox="0 0 41.04 41.04" style="enable-background:new 0 0 41.04 41.04;" xml:space="preserve">
<style type="text/css">
	.st0{fill:#128885;}
	.st1{fill:#FFFFFF;}
</style>
<g>
	<g>
		<g>
			<rect class="st0" width="41.04" height="41.04"/>
		</g>
	</g>
	<g>
		<path class="st1" d="M26.4,21.42c-0.42,0.41-1.15,0.35-1.65-0.15l-8.14-8.14c-0.5-0.5-0.57-1.24-0.15-1.65l0.19-0.19
			c0.42-0.42,1.15-0.35,1.65,0.15l8.14,8.14c0.5,0.5,0.56,1.24,0.15,1.65L26.4,21.42z"/>
	</g>
	<g>
		<path class="st1" d="M26.59,19.82c0.41,0.42,0.35,1.15-0.15,1.65l-8.14,8.14c-0.5,0.5-1.24,0.57-1.65,0.15l-0.19-0.19
			c-0.42-0.42-0.35-1.15,0.15-1.65l8.14-8.14c0.5-0.5,1.24-0.56,1.65-0.15L26.59,19.82z"/>
	</g>
</g>
</svg>
