<?xml version="1.0" encoding="utf-8"?>
<!-- Generator: Adobe Illustrator 22.1.0, SVG Export Plug-In . SVG Version: 6.00 Build 0)  -->
<svg version="1.1" id="Layer_1" xmlns="http://www.w3.org/2000/svg" xmlns:xlink="http://www.w3.org/1999/xlink" x="0px" y="0px"
	 viewBox="0 0 178.8 31.6" style="enable-background:new 0 0 178.8 31.6;" xml:space="preserve">
<style type="text/css">
	.st0{fill:#F16522;}
</style>
<g>
	<g>
		<path class="st0" d="M4.6,21.3H11L7.8,3.2L4.6,21.3z M2.7,31.1H0C2.9,16.9,3.2,14.7,6.1,0.4h3.5l6.1,30.7h-2.7l-1.5-8H4.3
			L2.7,31.1z"/>
	</g>
	<g>
		<polygon class="st0" points="19.1,31.1 19.1,0.4 21.9,0.4 21.9,28.9 30.4,28.9 30.4,31.1 		"/>
	</g>
	<g>
		<path class="st0" d="M45.6,22.8V8.7c0-3.6-1.1-6.6-5.1-6.6c-4,0-5.1,2.9-5.1,6.6v14.1c0,3.6,1.1,6.6,5.1,6.6
			C44.4,29.4,45.6,26.4,45.6,22.8 M32.6,22.2V9.4c0-5.2,1.9-9.4,7.8-9.4c5.9,0,7.8,4.2,7.8,9.4v12.8c0,5.1-1.7,9.4-7.8,9.4
			C34.3,31.6,32.6,27.3,32.6,22.2"/>
	</g>
	<g>
		<polygon class="st0" points="53,31.1 53,0.4 63.7,0.4 63.7,2.6 55.7,2.6 55.7,14.2 61.4,14.2 61.4,16.3 55.7,16.3 55.7,31.1 		"/>
	</g>
	<g>
		<polygon class="st0" points="68.4,31.1 68.4,2.6 62.4,2.6 62.4,0.4 77.1,0.4 77.1,2.6 71.1,2.6 71.1,31.1 		"/>
	</g>
	<g>
		<path class="st0" d="M83.9,23.7l2.4-0.7c0.4,3.2,1.8,6.4,5.5,6.4c2.8,0,4.4-1.6,4.4-4.4c0-2.6-1.9-4.8-4.1-7.2l-4.8-5
			C85.4,10.8,84,8.9,84,6.6C84,2.5,86.9,0,91,0c4,0,6.5,2.4,7.3,6.6l0.1,0.3l-2.3,0.7l0-0.2c-0.4-2.9-2.1-5.2-5-5.2
			c-2.6,0-4.4,1.3-4.4,4.1c0,1.7,1,3.3,2.5,4.9l4.5,4.9c2.4,2.6,5.1,5.2,5.1,8.7c0,4.5-3.1,6.8-7.3,6.8C87,31.6,84.5,27.9,83.9,23.7
			"/>
	</g>
	<g>
		<polygon class="st0" points="105.4,31.1 105.4,2.6 99.4,2.6 99.4,0.4 114.1,0.4 114.1,2.6 108.1,2.6 108.1,31.1 		"/>
	</g>
	<g>
		<path class="st0" d="M115.8,23.5V0.4h2.7v23.7c0,3.4,1.3,5.2,5.2,5.2c3.7,0,4.9-1.9,4.9-5.2V0.4h2.7v23.1c0,4.3-1.6,8-7.6,8
			C117.5,31.6,115.8,27.9,115.8,23.5"/>
	</g>
	<g>
		<path class="st0" d="M139,28.9h4.2c4,0,5.1-2.8,5.1-6.3V9c0-3.5-1.1-6.4-5.1-6.4H139V28.9z M136.3,31.1V0.4h6.9
			c5.9,0,7.8,4.1,7.8,9.1V22c0,4.9-1.7,9-7.8,9H136.3z"/>
	</g>
	<g>
		<rect x="155.7" y="0.4" class="st0" width="2.7" height="30.7"/>
	</g>
	<g>
		<path class="st0" d="M176.1,22.8V8.7c0-3.6-1.1-6.6-5.1-6.6c-4,0-5.1,2.9-5.1,6.6v14.1c0,3.6,1.1,6.6,5.1,6.6
			C175,29.4,176.1,26.4,176.1,22.8 M163.2,22.2V9.4c0-5.2,1.9-9.4,7.8-9.4c5.9,0,7.8,4.2,7.8,9.4v12.8c0,5.1-1.7,9.4-7.8,9.4
			C164.9,31.6,163.2,27.3,163.2,22.2"/>
	</g>
</g>
</svg>
