<?xml version="1.0" encoding="utf-8"?>
<!-- Generator: Adobe Illustrator 22.1.0, SVG Export Plug-In . SVG Version: 6.00 Build 0)  -->
<svg version="1.1" id="Layer_1" xmlns="http://www.w3.org/2000/svg" xmlns:xlink="http://www.w3.org/1999/xlink" x="0px" y="0px"
	 viewBox="0 0 99.3 80.3" style="enable-background:new 0 0 99.3 80.3;" xml:space="preserve">
<style type="text/css">
	.st0{fill:#F16523;}
	.st1{fill:#14120B;}
</style>
<g>
	<g>
		<path class="st0" d="M81.4,33.5l9.8-13.9v13.9H81.4z M95.1,33.5V9h-1L74.1,37.2h17v8.2h3.9v-8.2h4.3v-3.8H95.1z"/>
		<g>
			<path d="M4.9,22.7c0.4,1.4,1,2.5,1.7,3.3c0.8,0.8,2,1.2,3.6,1.2c1.1,0,2-0.3,2.8-0.9c0.7-0.6,1.1-1.5,1.1-2.7
				c0-1.2-0.8-2.3-2.4-3.1c-1.6-0.8-2.9-1.5-3.9-2.1c-1.9-1-3.6-2.2-5.1-3.7c-1.4-1.4-2.1-3.2-2.1-5.5V8.9c0.1-2.5,1.1-4.6,3-6.4
				C5.5,0.8,7.6,0,10.1,0h0.3c3,0.1,7.8,1.3,9.5,4.1c0,0-2.8,4.8-2.8,4.9C15,6.7,11.4,4.2,8.3,6.8C7.7,7.3,7.4,8,7.4,8.9
				c0,0.9,0.5,1.7,1.6,2.4c1.1,0.7,2.1,1.4,3,1.9c2.3,1.2,4.4,2.6,6.2,4.1c1.8,1.4,2.7,3.6,2.7,6.5v0.1c0,2.8-1,5.1-3,6.8
				c-2,1.7-4.5,2.7-7.4,2.9c-0.2,0-0.4,0-0.7,0c-2,0-3.8-0.5-5.6-1.6c-2-1.2-3.4-2.8-4.3-5.1L4.9,22.7z"/>
		</g>
		<polygon points="38.1,6.6 38.1,32.7 31.4,32.7 31.4,6.6 22.4,6.6 25.1,0.7 44.7,0.7 46.9,6.6 		"/>
		<g>
			<path d="M56.5,0.7v19.3c0,2.3,0.5,4.1,1.5,5.4c1,1.3,2.7,1.9,5.1,1.9c2.4,0,4.1-0.6,5.1-1.9c1-1.3,1.5-3.1,1.5-5.4V0.7h6.7v19.7
				c0,8.7-4.4,13.1-13.3,13.1c-8.9,0-13.3-4.4-13.3-13.1V0.7H56.5z"/>
			<path d="M6.7,62.3h3.1c1.2,0,2.2,0,3-0.1c0.8-0.1,1.4-0.2,2-0.3c1-0.3,1.9-0.7,2.6-1.3v0c1.2-1,2-2.2,2.5-3.6
				c0.5-1.4,0.7-2.9,0.7-4.4c0-1.5-0.2-3-0.7-4.4c-0.5-1.4-1.3-2.6-2.5-3.6c-0.7-0.6-1.4-1-2.2-1.2c-0.8-0.2-1.7-0.4-2.6-0.4
				c-0.9-0.1-1.8-0.1-2.9-0.1c-1.1,0-2.1,0-3,0V62.3z M0,36.5h7.5c2.1,0,3.9,0.1,5.6,0.2c1.3,0.1,2.4,0.2,3.4,0.4c1,0.2,2,0.5,3,1
				c2.1,1,3.8,2.4,5.1,4.3c1.3,1.9,2.1,3.9,2.6,6.2c0.2,1.2,0.3,2.5,0.3,3.9c0,0.6,0,1.3-0.1,1.9c-0.2,2.1-0.6,3.9-1.4,5.6
				c-0.5,1.2-1.1,2.2-1.8,3c-1.3,1.7-2.9,3-4.7,3.9c-0.8,0.4-1.6,0.7-2.6,0.9c-0.1,0.1-0.6,0.2-1.5,0.3c-0.9,0.1-1.5,0.2-1.9,0.2
				c-1.4,0.1-3,0.2-4.7,0.2H0V36.5z"/>
		</g>
		<rect x="31.3" y="36.5" width="6.7" height="32"/>
		<g>
			<path d="M69.1,52.5c0-1.4-0.3-2.8-0.8-4c-1.1-2.7-2.9-4.6-5.5-5.6c-1.3-0.6-2.6-0.8-3.9-0.8c-1.3,0-2.6,0.3-3.9,0.8
				c-0.2,0.1-0.5,0.3-0.9,0.5c-0.4,0.2-0.7,0.4-0.8,0.5c-0.5,0.3-1,0.8-1.5,1.3v0c-0.5,0.5-0.9,1-1.3,1.6c-0.4,0.5-0.7,1.1-0.9,1.8
				c-0.5,1.3-0.8,2.6-0.8,4c0,0.3,0,0.7,0,1c0.2,1.8,0.7,3.4,1.7,4.8c1.2,1.8,2.7,3.1,4.6,3.9c1.4,0.6,2.7,0.9,4,0.9
				c1.9,0,3.7-0.6,5.5-1.9C67.6,59.2,69.1,56.3,69.1,52.5 M76,52.5c0,2.2-0.4,4.4-1.3,6.5c-0.4,1-0.9,1.9-1.6,2.9
				c-1.9,2.8-4.5,4.9-7.7,6.2c-2.1,0.9-4.2,1.3-6.4,1.3c-1.1,0-2.3-0.1-3.4-0.3c-2.3-0.4-4.3-1.3-6.1-2.5c-0.9-0.5-1.7-1.2-2.6-2.1
				C45.2,62.8,44,61,43.1,59c-0.9-2-1.3-4.2-1.3-6.4c0-0.6,0-1.1,0.1-1.7c0.3-2.8,1.2-5.4,2.8-7.7c1.3-1.8,2.8-3.4,4.8-4.6v0
				c2.8-1.8,6-2.8,9.5-2.8c3.4,0,6.6,0.9,9.4,2.8c1.9,1.3,3.5,2.8,4.8,4.7C75,46.1,76,49.2,76,52.5"/>
		</g>
	</g>
	<g>
		<path class="st1" d="M1.5,78.9c0,0-0.1,0-0.1,0c-0.2,0-0.5,0-0.8-0.1c-0.3-0.1-0.5-0.2-0.6-0.3l0.4-0.6c0.1,0.1,0.2,0.1,0.5,0.2
			c0.3,0.1,0.5,0.2,0.7,0.2c0,0,0.1,0,0.1,0c0.3,0,0.5-0.1,0.6-0.2c0.2-0.1,0.3-0.3,0.3-0.5c0-0.2-0.1-0.3-0.2-0.4
			c-0.2-0.1-0.4-0.2-0.6-0.2c0,0-0.1,0-0.1,0c0,0-0.1,0-0.1,0c-0.4,0-0.7-0.1-0.9-0.3c-0.3-0.2-0.4-0.5-0.4-0.9c0,0,0,0,0-0.1
			c0-0.3,0.2-0.6,0.6-0.9c0.3-0.2,0.6-0.3,1-0.3c0,0,0,0,0.1,0c0.2,0,0.5,0,0.7,0.1c0.3,0.1,0.5,0.1,0.6,0.2l-0.3,0.6
			c-0.4-0.2-0.8-0.3-1-0.3c0,0,0,0,0,0c-0.2,0-0.4,0.1-0.6,0.2c-0.2,0.1-0.2,0.3-0.2,0.4c0,0.1,0.1,0.3,0.2,0.4
			c0.2,0.1,0.4,0.1,0.7,0.1c0,0,0,0,0.1,0c0,0,0,0,0.1,0c0.4,0,0.8,0.1,1,0.4c0.3,0.2,0.4,0.6,0.4,0.9c0,0.1,0,0.1,0,0.2
			C3.2,78.4,2.6,78.8,1.5,78.9z"/>
		<path class="st1" d="M5.1,78.9c-0.3,0-0.5-0.1-0.6-0.2c-0.2-0.1-0.3-0.3-0.3-0.6v-1.7H3.6v-0.6h0.6v-0.7L4.9,75v0.8h0.7v0.6H4.9
			V78c0,0.1,0,0.2,0,0.2s0,0,0.1,0c0.1,0,0.2-0.1,0.4-0.2l0.3,0.6C5.5,78.8,5.2,78.9,5.1,78.9C5.1,78.9,5.1,78.9,5.1,78.9z"/>
		<path class="st1" d="M8.4,78.9v-0.2c-0.3,0.1-0.5,0.1-0.7,0.1c0,0,0,0,0,0c-0.3,0-0.5-0.1-0.8-0.2c-0.3-0.2-0.4-0.3-0.5-0.6
			c0-0.2,0-0.6,0-1.2c0-0.3,0-0.6,0-1l0.8-0.1l0,1.9c0,0.4,0.2,0.6,0.5,0.6c0.2,0,0.5-0.1,0.7-0.2v-2.3h0.8v3L8.4,78.9z"/>
		<path class="st1" d="M12.1,78.8v-0.1c-0.3,0.1-0.5,0.1-0.7,0.2c0,0-0.1,0-0.1,0c-1-0.1-1.4-0.6-1.4-1.5c0,0,0,0,0-0.1
			c0-0.5,0.1-0.9,0.4-1.1c0.3-0.3,0.6-0.4,1.1-0.4c0.1,0,0.1,0,0.2,0c0.2,0,0.4,0,0.6,0.1v-1.5l0.8,0.1v4.4H12.1z M12.1,76.5
			c-0.2-0.1-0.4-0.1-0.6-0.1c-0.2,0-0.3,0-0.4,0.1c-0.3,0.2-0.4,0.4-0.4,0.8c0,0,0,0,0,0c0,0.2,0,0.4,0.1,0.5
			c0.1,0.1,0.2,0.2,0.3,0.4c0.1,0,0.2,0.1,0.3,0.1c0.2,0,0.5,0,0.8-0.1V76.5z"/>
		<path class="st1" d="M14.1,75.1C14.1,75.1,14.1,75.1,14.1,75.1c-0.1,0-0.2,0-0.3-0.1c-0.1-0.1-0.1-0.2-0.1-0.3c0,0,0,0,0,0
			c0-0.1,0-0.2,0.1-0.3c0.1-0.1,0.2-0.1,0.3-0.1c0,0,0,0,0,0c0.1,0,0.2,0,0.3,0.1c0.1,0.1,0.1,0.2,0.1,0.3c0,0.1,0,0.2-0.1,0.3
			C14.3,75,14.2,75.1,14.1,75.1z M13.7,78.8v-3l0.8-0.1v3H13.7z"/>
		<path class="st1" d="M16.8,78.9c-0.4,0-0.8-0.2-1.1-0.5c-0.3-0.3-0.5-0.7-0.5-1.1c0-0.4,0.2-0.8,0.5-1.1c0.3-0.3,0.7-0.5,1.1-0.5
			c0,0,0,0,0,0c0.4,0,0.8,0.2,1.1,0.4c0.3,0.3,0.4,0.6,0.5,1c0,0,0,0.1,0,0.1c0,0.4-0.1,0.7-0.4,1.1C17.6,78.7,17.2,78.9,16.8,78.9z
			 M16.8,76.4c-0.2,0-0.4,0.1-0.6,0.3c-0.2,0.2-0.2,0.4-0.2,0.7c0,0.3,0.1,0.5,0.2,0.7c0.2,0.2,0.4,0.3,0.6,0.3s0.4-0.1,0.6-0.3
			c0.2-0.2,0.2-0.4,0.2-0.6c0,0,0,0,0,0c0-0.2-0.1-0.5-0.2-0.6C17.2,76.5,17,76.4,16.8,76.4z"/>
		<path class="st1" d="M20.7,77.6v-0.7h1.6v0.7H20.7z"/>
		<path class="st1" d="M27.7,78.8h-2.9v-4.3h2.8l0.1,0.6h-2.1v1.1h1.8v0.6h-1.8v1.3h2.2L27.7,78.8z"/>
		<path class="st1" d="M31.5,80.2c-0.1,0-0.2,0-0.3,0c-0.2,0-0.3-0.1-0.4-0.1c-0.2-0.2-0.3-0.4-0.3-0.6v-0.6
			C30.3,78.9,30,79,29.9,79c0,0-0.1,0-0.1,0c-0.5,0-0.8-0.2-1.1-0.5c-0.3-0.3-0.4-0.7-0.4-1.2c0,0,0,0,0-0.1c0-0.5,0.1-0.8,0.4-1.1
			c0.3-0.2,0.6-0.4,1-0.4c0,0,0,0,0,0c0.2,0,0.4,0.1,0.8,0.2v-0.2l0.8,0.1v3.5c0,0.1,0,0.2,0.1,0.2c0.1,0,0.2,0,0.5,0L31.5,80.2z
			 M30.5,76.6c-0.3-0.1-0.6-0.1-0.8-0.1c-0.5,0-0.7,0.3-0.7,0.8c0,0,0,0,0,0c0,0.2,0,0.3,0.1,0.5c0.1,0.2,0.2,0.3,0.3,0.4
			c0.1,0.1,0.2,0.1,0.4,0.1c0.2,0,0.4,0,0.7-0.1V76.6z"/>
		<path class="st1" d="M34.1,78.9v-0.2c-0.3,0.1-0.5,0.1-0.7,0.1c0,0,0,0,0,0c-0.3,0-0.5-0.1-0.8-0.2c-0.3-0.2-0.4-0.3-0.5-0.6
			c0-0.2,0-0.6,0-1.2c0-0.3,0-0.6,0-1l0.8-0.1l0,1.9c0,0.4,0.2,0.6,0.5,0.6c0.2,0,0.5-0.1,0.7-0.2v-2.3h0.8v3L34.1,78.9z"/>
		<path class="st1" d="M36.2,75.1C36.2,75.1,36.2,75.1,36.2,75.1c-0.1,0-0.2,0-0.3-0.1c-0.1-0.1-0.1-0.2-0.1-0.3c0,0,0,0,0,0
			c0-0.1,0-0.2,0.1-0.3c0.1-0.1,0.2-0.1,0.3-0.1c0,0,0,0,0,0c0.1,0,0.2,0,0.3,0.1c0.1,0.1,0.1,0.2,0.1,0.3c0,0.1,0,0.2-0.1,0.3
			C36.4,75,36.3,75.1,36.2,75.1z M35.8,78.8v-3l0.8-0.1v3H35.8z"/>
		<path class="st1" d="M39,79C39,79,39,79,39,79c-0.3,0-0.5,0-0.7-0.1v1.4l-0.8,0.1v-4.4l0.8-0.1v0.1c0.3-0.1,0.5-0.2,0.7-0.2
			c0,0,0,0,0.1,0c1,0.1,1.4,0.6,1.4,1.5c0,0,0,0,0,0.1c0,0.5-0.1,0.9-0.4,1.2C39.8,78.8,39.5,78.9,39,79z M39.3,76.5
			c-0.1,0-0.1-0.1-0.3-0.1c-0.2,0-0.5,0.1-0.8,0.2v1.6c0.3,0.1,0.5,0.1,0.7,0.1c0.2,0,0.3,0,0.4-0.1c0.1-0.1,0.2-0.2,0.3-0.4
			c0.1-0.2,0.1-0.3,0.1-0.5c0-0.2,0-0.4-0.1-0.5C39.6,76.7,39.5,76.6,39.3,76.5z"/>
		<path class="st1" d="M45.4,78.8V77c0-0.2,0-0.4-0.1-0.4c-0.1-0.1-0.2-0.1-0.5-0.1c0,0,0,0,0,0c-0.2,0-0.4,0.1-0.7,0.3
			c0,0.2,0,0.7,0,1.3c0,0.2,0,0.5,0,0.8h-0.8V77c0-0.4-0.2-0.6-0.6-0.6c0,0,0,0,0,0c-0.2,0-0.4,0.1-0.7,0.2v2.2h-0.8v-3l0.8-0.1V76
			c0.3-0.2,0.5-0.2,0.7-0.2c0,0,0,0,0,0c0.4,0,0.7,0.1,1,0.4c0.4-0.2,0.7-0.4,1.1-0.4c0,0,0,0,0,0c0.3,0,0.6,0.1,0.8,0.2
			c0.3,0.2,0.4,0.3,0.5,0.6c0,0.2,0,0.6,0,1.3c0,0.3,0,0.6,0,1H45.4z"/>
		<path class="st1" d="M49.7,77.6l-2.2,0.1c0.1,0.2,0.2,0.3,0.3,0.4c0.2,0.1,0.3,0.2,0.5,0.2c0.3,0,0.6-0.1,0.8-0.3l0.3,0.6
			c-0.1,0.1-0.3,0.2-0.5,0.2c-0.2,0.1-0.4,0.1-0.6,0.1c-0.4,0-0.8-0.2-1.2-0.5c-0.3-0.3-0.5-0.7-0.5-1.1c0-0.4,0.1-0.8,0.4-1.1
			c0.3-0.3,0.6-0.4,1.1-0.4c0.4,0,0.8,0.1,1.1,0.4c0.3,0.3,0.4,0.6,0.4,1.1C49.7,77.4,49.7,77.5,49.7,77.6z M48.2,76.4
			C48.2,76.4,48.2,76.4,48.2,76.4c-0.2,0-0.4,0.1-0.5,0.2c-0.1,0.1-0.2,0.3-0.2,0.5l1.4,0c0-0.2-0.1-0.3-0.2-0.5
			C48.6,76.5,48.4,76.4,48.2,76.4z"/>
		<path class="st1" d="M52.5,78.8l0-1.9c0-0.4-0.2-0.6-0.6-0.6c0,0,0,0,0,0c-0.2,0-0.4,0.1-0.7,0.2v2.2h-0.8v-3l0.8-0.1V76
			c0.3-0.2,0.5-0.2,0.7-0.2c0,0,0,0,0,0c0.3,0,0.5,0.1,0.8,0.2c0.3,0.2,0.4,0.4,0.5,0.6c0,0.2,0,0.5,0,1.2c0,0.3,0,0.7,0,1.1H52.5z"
			/>
		<path class="st1" d="M55.1,78.9c-0.3,0-0.5-0.1-0.6-0.2c-0.2-0.1-0.3-0.3-0.3-0.6v-1.7h-0.6v-0.6h0.6v-0.7L55,75v0.8h0.7v0.6H55
			V78c0,0.1,0,0.2,0,0.2c0,0,0,0,0.1,0c0.1,0,0.2-0.1,0.4-0.2l0.3,0.6C55.5,78.8,55.3,78.9,55.1,78.9C55.1,78.9,55.1,78.9,55.1,78.9
			z"/>
		<path class="st1" d="M60.7,78.9l-1-1.8c-0.2,0-0.5,0-0.8,0v1.7h-0.8v-4.3c0.4,0,0.8-0.1,1.1-0.1c1.3,0,2,0.4,2,1.3c0,0,0,0,0,0
			c0,0.5-0.3,0.9-0.8,1.1l1.1,1.8L60.7,78.9z M58.9,75.2v1.3c0.3,0,0.5,0,0.5,0c0.7,0,1-0.2,1.1-0.7c0,0,0,0,0,0
			c0-0.2-0.2-0.4-0.5-0.5c-0.2-0.1-0.5-0.1-0.8-0.1C59.1,75.1,59,75.1,58.9,75.2z"/>
		<path class="st1" d="M65,77.6l-2.2,0.1c0.1,0.2,0.2,0.3,0.3,0.4c0.2,0.1,0.3,0.2,0.5,0.2c0.3,0,0.6-0.1,0.8-0.3l0.3,0.6
			c-0.1,0.1-0.3,0.2-0.5,0.2c-0.2,0.1-0.4,0.1-0.6,0.1c-0.4,0-0.8-0.2-1.2-0.5c-0.3-0.3-0.5-0.7-0.5-1.1c0-0.4,0.1-0.8,0.4-1.1
			c0.3-0.3,0.6-0.4,1.1-0.4c0.4,0,0.8,0.1,1.1,0.4c0.3,0.3,0.4,0.6,0.4,1.1C65.1,77.4,65.1,77.5,65,77.6z M63.6,76.4
			C63.6,76.4,63.6,76.4,63.6,76.4c-0.2,0-0.4,0.1-0.5,0.2c-0.1,0.1-0.2,0.3-0.2,0.5l1.4,0c0-0.2-0.1-0.3-0.2-0.5
			C63.9,76.5,63.8,76.4,63.6,76.4z"/>
		<path class="st1" d="M67.8,78.8l0-1.9c0-0.4-0.2-0.6-0.6-0.6c0,0,0,0,0,0c-0.2,0-0.4,0.1-0.7,0.2v2.2h-0.8v-3l0.8-0.1V76
			c0.3-0.2,0.5-0.2,0.7-0.2c0,0,0,0,0,0c0.3,0,0.5,0.1,0.8,0.2c0.3,0.2,0.4,0.4,0.5,0.6c0,0.2,0,0.5,0,1.2c0,0.3,0,0.7,0,1.1H67.8z"
			/>
		<path class="st1" d="M70.5,78.9c-0.3,0-0.5-0.1-0.6-0.2c-0.2-0.1-0.3-0.3-0.3-0.6v-1.7H69v-0.6h0.6v-0.7l0.8-0.1v0.8H71v0.6h-0.7
			V78c0,0.1,0,0.2,0,0.2c0,0,0,0,0.1,0c0.1,0,0.2-0.1,0.4-0.2l0.3,0.6C70.9,78.8,70.6,78.9,70.5,78.9C70.5,78.9,70.5,78.9,70.5,78.9
			z"/>
		<path class="st1" d="M73.5,78.8L73.5,78.8c-0.3,0-0.5,0-0.6,0c-0.3,0-0.6-0.1-0.8-0.2c-0.2-0.2-0.4-0.4-0.4-0.7c0,0,0,0,0-0.1
			c0-0.4,0.2-0.7,0.6-0.9c0.2-0.1,0.5-0.2,0.8-0.2c0.2,0,0.4,0,0.5,0.1c0,0,0-0.1,0-0.1c0-0.2,0-0.3-0.1-0.4c-0.1,0-0.2-0.1-0.5-0.1
			c0,0,0,0,0,0c-0.2,0-0.5,0.1-0.9,0.2L71.7,76c0.5-0.2,0.9-0.3,1.2-0.3c0,0,0,0,0,0c0.2,0,0.4,0,0.5,0.1c0.2,0,0.3,0.1,0.5,0.3
			c0.2,0.2,0.3,0.4,0.3,0.8c0,0,0,0.1,0,0.2c0,0.1,0,0.2,0,0.2v1.6H73.5z M73.5,77.5c-0.2,0-0.3,0-0.5,0c-0.4,0-0.7,0.1-0.7,0.4
			c0,0,0,0,0,0c0,0.2,0.2,0.4,0.5,0.4c0.2,0,0.4,0,0.6-0.1V77.5z"/>
		<path class="st1" d="M75.1,78.8v-4.4l0.8-0.1v4.4H75.1z"/>
	</g>
</g>
</svg>
