<?xml version="1.0" encoding="utf-8"?>
<!-- Generator: Adobe Illustrator 22.1.0, SVG Export Plug-In . SVG Version: 6.00 Build 0)  -->
<svg version="1.1" id="Layer_1" xmlns="http://www.w3.org/2000/svg" xmlns:xlink="http://www.w3.org/1999/xlink" x="0px" y="0px"
	 viewBox="0 0 421.1 287.3" style="enable-background:new 0 0 421.1 287.3;" xml:space="preserve">
<style type="text/css">
	.st0{fill:#EAAF0A;}
</style>
<g>
	<g id="XMLID_1_">
		<path class="st0" d="M190.1,113.6c-4,7.2-8.1,14.8-13.8,20.7c-1,1.1-4.2,4.4-5.7,3.6c-0.7-0.3-0.9-2-1.1-2.8
			c-1.3-7.2,2.4-16.2,4.5-22.9c0.5-1.7-2.6-4.3-3.3-2.3c-4.5,11.7-10.3,22.7-17.6,32.9c-4.5,6.2-12.9,19.7-22.1,18.1
			c-5.1-0.9-2.2-7.4-1-10.7c1.6-4.1,3.5-8.2,5.8-11.9c1.2-1.9,6.4-9.2,9.2-9c3.7,0.2-0.9,8.5-2.1,10.4c-6.2,9.6-15,16.8-24.9,22.2
			c-1.8,1-4.7,2.9-6.8,2.8c-1.2,0,0,1.1-0.4,0c-0.2-0.6,0.4-1.9,0.6-2.6c1-3.3,2.6-6.4,4.1-9.5c2.3-4.7,6.3-10.5,5.5-16
			c-1.1-7.5-9.3-5.2-13.8-2.6c-9.7,5.7-16.6,15.1-22.2,24.7c-7,11.9-13,24.4-18,37.3c1.1,0.6,2.3,1.3,3.4,1.9
			c0.2-0.9,0.4-1.8,0.7-2.6c-1.1-0.6-2.3-1.3-3.4-1.9c-0.2,0.9-0.4,1.8-0.7,2.6c1.1,0.6,2.3,1.3,3.4,1.9
			c10.7-50.2,24.7-99.6,38.4-149.1c3.3-11.9,7-23.7,12.1-34.9c2.5-5.5,6-10.4,12.7-10.5c7.9-0.2,13.4,6.3,14.7,13.6
			c2.1,12.6-6,23.6-11.8,33.9C130.9,61.3,122,70.7,114,79.2c-8.4,8.9-17.6,17-27.6,24c-6.3,4.4-13,8.1-19.5,12.1
			c-14.5,8.9-29,18.3-41.6,29.7c-10.8,9.8-21.2,22-24.4,36.6c-3.6,16.6,5,32.8,17.8,43c12.6,10.1,26.7,7.4,40.2,0.9
			c18.7-9,35.9-20.1,56.4-24.9c1.9-0.4-0.5-3.8-2.3-3.4c-18.7,4.4-34.9,13.8-51.8,22.6c-12.9,6.7-27.5,12.7-40.5,2.8
			c-8.3-6.3-15.2-16-16.8-26.4c-1.4-8.6,0.9-17.1,4.9-24.7c6.9-13,18.2-23.3,29.7-32.2c14.6-11.3,30.6-20.2,46.1-30.1
			c19.5-12.5,35.9-29.5,49.7-47.9c10.3-13.7,27.2-38.6,12.5-54.9c-5.6-6.2-15.3-9-22.6-4c-3.3,2.3-4.9,5.5-6.5,9.1
			c-2.8,6.1-5.2,12.4-7.3,18.8c-4.5,13.6-7.7,27.6-11.8,41.4c-3.9,13.4-8,26.7-11.3,40.3c-6.9,28.1-14.3,56.1-20.4,84.3
			c-0.3,1.5,2.8,3.7,3.4,1.9c0.4-1.4,0.6-2,0.8-3.4c0.3-1.5-2.9-3.8-3.4-1.9c-0.3,1.2-0.6,2.2-0.8,3.4c-0.3,1.5,2.7,3.7,3.4,1.9
			c5.3-13.9,11.8-27.5,19.7-40.1c3.7-6,8-11.7,13.4-16.3c2.6-2.3,15.9-11.6,13.6-2.4c-1.9,7.4-7.2,13.7-9.3,21.1
			c-2.1,7.7,4.1,8.7,10.1,5.8c11.2-5.3,20.8-13.4,27.7-23.7c2.6-3.8,8.2-14.5,1.2-17.1c-8-3-15.6,11.9-18,17.1
			c-2.4,5.2-7.5,14.7-2.2,19.7c8,7.6,19.8-4.6,24.4-10.3c9.6-12.1,17.3-25.6,22.9-40c-1.1-0.8-2.2-1.5-3.3-2.3
			c-2.3,7.5-6,16.9-4.6,24.8c0.4,2.1,1.3,4.4,3.1,5.8c2.8,2,5.7,0.7,8-1.3c7.1-5.8,11.9-15.4,16.2-23.3
			C194.3,114.3,191.1,111.8,190.1,113.6L190.1,113.6z"/>
	</g>
	<g id="XMLID_212_">
		<path class="st0" d="M217.5,90.4c-11.1,4.1-24.7,12.4-27.8,24.5c-1.1,4.1-1.7,10.6,3.3,12c4.4,1.2,8.7-0.9,12-3.6
			c8.1-6.8,12.2-17.1,16.7-26.4c3-6.2,6.2-12.3,9.1-18.6c5.2-11.6,9.9-23.5,12.8-35.8c0.7-3.1,2.9-8.5-1.2-9.9
			c-2-0.7-4.7-0.3-6.5,0.9c-4.6,3-6.9,10.1-9,15c-3.3,7.4-5.8,15.3-7.5,23.2c-2,10-2.8,20.8,0.7,30.5c2.2,6.3,5.9,12.7,13.2,9.2
			c5.6-2.7,9.7-8,13.7-12.5c4.7-5.2,9.6-10.7,11.9-17.5c2.2-6.2,0.3-13.2-7.3-10.5c-7.4,2.6-12,12.6-14,19.5
			c-1.2,4.3-1.1,11.4,2.8,14.4c8.9,6.8,22.3-6.5,27.9-11.8c5.2-5,10.1-10.3,14.8-15.7c0.5-0.6-3.2-1.5-3.9-0.6
			c-6.8,7.8-13.8,15.5-21.9,22c-2.5,2-8.3,7.1-12,6.4c-4.1-0.7-4.2-8-4.1-11.1c0.3-5.2,3.3-10.8,6.1-15c1.5-2.3,3.4-4.7,5.8-6.2
			c0.4-0.3,1.8-1.2,2.4-1.1c-0.1,0,0.5,3.6,0.4,4.9c-0.6,10.3-10.7,20-17.7,27.1c-2.1,2.2-4.4,4.4-7,6c-1.8,1.1-1.8,1.2-3.2,0
			c-1.6-1.4-2.6-4.4-3.4-6.4c-3.2-8.2-3.1-17.3-1.9-25.9c1.5-10.9,5.1-21.4,9.7-31.4c1.5-3.3,3-6.6,5.2-9.5c1-1.3,2.2-3.4,3.1-1.6
			c0.9,1.6-1,6.5-1.4,8c-2.4,9.7-5.8,19.1-9.6,28.2c-3.1,7.4-6.5,14.8-10.2,21.9c-2.9,5.7-5.3,11.6-8.6,17.2
			c-2.8,4.8-8.5,14.6-14.9,15.5c-4.6,0.6-2.6-9.5-1.6-12.3c4-10.8,16.3-18.2,26.6-22C222.1,91,218.4,90.1,217.5,90.4L217.5,90.4z"/>
	</g>
	<g id="XMLID_210_">
		<path class="st0" d="M202.8,153c-8.2,2.3-15.9,7.5-22.2,13c-6.4,5.6-11.7,12.4-15.6,19.9c-4.6,8.7-8.8,20.2-8.6,30.2
			c0.1,8.3,5.7,18.7,14.9,18.9c6.9,0.1,13.9-4,18.5-8.8c4.6-4.8,10.9-11,12.2-17.7c0.6-3.3-1.1-8.4-5.1-8.2c-3.7,0.2-7.7,2.9-10.5,5
			c-7.4,5.6-13,13.6-17.6,21.5c-3.6,6.2-7,12.4-8.3,19.5c-2.8,15,1.1,31.5,15.3,39.3c3.7,2,7.7,2.3,11.7,1.1
			c10.7-3.2,17.8-14.1,22.6-23.4c9.9-19,14.4-40.1,19-60.9c0.7-3.2,1.4-6.5,2.1-9.7c0.5-2.4,0.9-9.6,2.9-11.1
			c-0.4-0.2-0.8-0.3-1.2-0.5c-1.1-1-0.3-0.5-0.2,0.7c0,0.9,0.2,1.9,0.3,2.8c0.3,2.6,0.5,5.3,0.5,7.9c0.1,5.7-0.3,11.3-1.7,16.8
			c0.8,1,1.7,1.9,2.5,2.9c2-10.9,5-23.4,11.5-32.6c1.2-1.7,4.3-5.8,6.8-5.5c2.2,0.3,2.1,3.7,2.2,5.7c0.2,2.7-1.5,8.5,1.4,10.5
			c2.9,2.1,3.5-3.3,4.3-5.3c1.9-4.5,4.1-9.4,7.8-12.8c1-0.9,3.5-2.9,4.9-2.6c0.1,0,0.3,0,0.3,0c-0.5-0.3,0.1,1,0.2,1.9
			c0.5,4.4-0.4,9.2-1.2,13.5c-0.7,4-1.7,6.3,0.7,9.5c1,1.4,2.4,2.8,4.3,2.7c3.2-0.2,5.5-4.5,6.8-6.8c2-3.6,3.5-7.5,4.9-11.3
			c0.9-2.4,5.8-20.3,6.7-20.2c-0.6-0.6-1.2-1.2-1.8-1.9c0.4,0.9-0.3,4.3-0.2,5.4c0,1.6,0.1,3.2,0.2,4.7c0.2,2.7,0.7,5.8,2.3,8.1
			c5,7.1,11.2-6.5,13-9.8c0.6-1.1-1.9-4.3-2.5-3.2c-1.8,3.4-3.8,8.1-7,10.5c-2.8,2.1-2.9-0.3-3.1-2.9c-0.3-2.6-0.3-5.3-0.2-7.9
			c0.1-1.9,0.5-4.2-1-5.7c-1.9-1.9-2.5-0.5-3.1,1.6c-1.5,5.3-3,10.5-4.8,15.7c-1.9,5.4-3.8,11-7,15.8c-1.2,1.8-2.8,4.3-5.2,4.3
			c-1.1,0-1.3-1-1.3-0.9c-0.3-1.8,1-4.6,1.3-6.6c0.6-3.6,1.1-7.2,1-10.9c-0.1-2.7-0.5-6.2-2.6-8.1c-1.3-1.2-2.4-1.2-4-0.7
			c-3.4,1.2-5.8,4.5-7.6,7.4c-0.8,1.3-6,13.5-6.6,13.4c0.6,0.6,1.2,1.2,1.8,1.9c-0.7-1.5,0.3-5.6,0.1-7.4c-0.1-1.8-0.4-3.5-1-5.2
			c-0.6-1.8-1.5-3.9-3-5c-3.6-2.8-7.8,2-9.9,4.8c-6.8,9.4-9.8,22.3-11.9,33.5c-0.2,1,2.3,3.9,2.5,2.9c1.8-6.8,2.1-13.7,1.7-20.7
			c-0.2-3.9,0.3-10.4-2.9-13.2c-0.2-0.2-0.8-0.8-1.2-0.5c-1.7,1.3-1.6,4.1-2,6.1c-0.6,2.8-1.3,5.7-1.9,8.5
			c-1.2,5.4-2.3,10.7-3.5,16.1c-1.9,8.8-4,17.5-6.8,26.2c-4.6,14.5-10.5,30.8-21.7,41.6c-4.3,4.2-10.1,7.8-16.3,7.3
			c-9-0.7-15.4-10.2-17-18.2c-2.6-13.4,2.2-24.9,8.8-36.3c4.3-7.4,9.5-14.7,16.3-20c2.5-1.9,6.8-5.3,10.1-5.2c1.7,0,1.7,0.1,1.2,2.2
			c-0.7,3.2-3.1,6.4-5,8.9c-3,4-6.6,8.6-10.9,11.3c-5.6,3.6-15.5,8.1-21,1.9c-2.2-2.5-3.3-6.6-3.5-9.9c-0.3-9,4.1-20.9,8.5-29.3
			c4.1-7.8,9.6-14.7,16.3-20.4c6.1-5.1,13.5-9.9,21.2-12.2C205.9,156.2,204.2,152.6,202.8,153L202.8,153z"/>
	</g>
	<g id="XMLID_208_">
		<path class="st0" d="M334.6,140.4c-3.9-5-10.8-4.7-15.6-1.3c-6,4.2-10.8,12.6-12.3,19.7c-1.7,8.7,5.1,14.8,13.1,9.8
			c3.3-2.1,5.7-5.2,7.7-8.5c0.7-1.3,1.4-2.5,2.2-3.8c0.4-0.7,2.3-2.6,2.2-3.2c0-0.1-1.4-1.2-2-0.6c-0.1,0.1,0.2,0.7,0.1,0.8
			c-0.3,0.6-0.1,2.1-0.1,2.8c-0.3,3.5-1,6.9-1.7,10.3c-1.1,6-2.3,12-3.7,17.9c-3,12.4-7.2,26.6-16.9,35.6c-5,4.6-7.1-0.6-5.3-5.3
			c1.4-3.7,4.2-6.8,6.6-9.8c5.2-6.3,10.2-12.8,15-19.4c8.6-11.7,16.7-23.7,24.4-35.9c2.8-4.4,12.8-19.7,3.8-23.2
			c-8.6-3.3-15.6,8.9-13.6,15.9c1.3,4.7,5.8,6.3,10.1,5.1c4.1-1.2,7.7-4.2,10.8-7.1c1.4-1.3,5.3-7,7.1-6.5c3.1,0.8,0.2,4.6-0.8,6.2
			c-2.4,3.8-9.9,14.6-4.3,18.6c3.7,2.6,9.2,0,12.5-2c8.6-5.2,16.7-15.9,19.2-25.6c2.3-9.1-9.6-9.8-13.4-3.1
			c-2.5,4.4-4.2,12.3-0.9,16.6c3.7,4.9,12,4.4,16.9,1.8c6.7-3.5,12-9.5,16.1-15.8c3.9-6,6.8-12.5,9.1-19.3c0.7-2-3.3-2.9-3.9-1.1
			c-3.5,10.2-8.4,20.4-16.3,28c-3.8,3.7-8.4,7.4-14,6.9c-7.7-0.7-5.9-10-3.6-15c0.9-1.9,3.6-5.4,5.6-3.1c1.8,2-0.7,5.7-1.6,7.7
			c-2.5,5.4-5.8,10.6-10,14.9c-2.2,2.2-4.6,4.1-7.4,5.5c-0.8,0.4-1.7,0.8-2.6,1.1c-0.3,0.1-1.6,0.4-0.8,0.3
			c-4.7,0.6-2.3-4.8-1.1-7.5c1.4-3.2,3.3-6,5-9c3.4-5.5,0.3-10.7-6.2-8.8c-4.2,1.2-6.9,6.5-10.2,9.3c-2.2,1.8-5.5,4.6-8.6,4.5
			c-0.5,0-0.4-0.1-0.8-0.2c-0.7-0.2-2.3-3.1-2.2-5.1c0-2.1,0.8-4.1,1.7-6c1.1-2.2,5.6-7.5,7.3-2.8c1.2,3.1-1.5,8.1-2.9,10.9
			c-3.1,6.4-7.6,12.3-11.5,18.2c-9.8,14.9-20.2,29.5-31.6,43.2c-3.6,4.3-9.2,10.2-8,16.3c1.1,5.8,7.4,7.1,11.7,3.9
			c8-6,12.5-16.3,15.7-25.5c3.4-9.9,5.3-20.2,7.3-30.4c0.5-2.6,5.3-18.2-1.5-17.3c-4,0.6-6.2,7.8-8.2,10.7
			c-2.3,3.5-10.3,11.1-11.9,3c-0.9-4.6,1.8-9.8,4-13.7c2.8-4.9,10.9-15.5,16.3-8.5C332.1,143.1,336,142.3,334.6,140.4L334.6,140.4z"
			/>
	</g>
	<g id="XMLID_207_">
		<path class="st0" d="M173.7,101.2C173.7,101.5,173.8,100.9,173.7,101.2c0,0.1,0.2-0.3,0.2-0.3c0.1-0.1,0.1-0.1,0,0
			c0.1-0.1,0.1-0.1,0.2-0.2c0.1-0.1,0.4-0.1,0.1,0c0.1,0,0.3-0.1,0.4,0c0.2,0,0.2,0,0.1,0c-0.1,0-0.1,0,0.1,0c0.1,0,0.2,0.1,0.3,0.2
			c-0.2-0.2,0,0,0.1,0.1c0,0.1,0.1,0.2,0.1,0.2c0-0.2-0.1-0.2,0,0c0,0.1-0.1,0.5,0,0.3c0-0.1,0-0.1,0,0.1c0,0.1-0.1,0.2-0.2,0.3
			c0.2-0.2,0,0-0.1,0.1c-0.1,0-0.2,0.1-0.2,0.1c0.2,0,0.2-0.1,0,0c-0.1,0-0.5-0.1-0.3,0c0.2,0.1-0.3-0.2-0.4-0.2
			c0.2,0.2,0,0-0.1-0.1c-0.2-0.4-0.1-0.2,0,0c0.2,1.1,1.5,1.8,2.5,1.4c1.1-0.4,1.6-1.4,1.4-2.5c-0.3-1.8-2.3-3-4-2.6
			c-1.7,0.3-2.9,2-2.6,3.8c0.2,1.7,1.8,3.1,3.5,2.9c1.8-0.1,3.4-1.7,3.2-3.6c-0.1-1.1-0.9-2.1-2.1-2.1
			C174.7,99.1,173.6,100,173.7,101.2z"/>
	</g>
	<g id="XMLID_206_">
		<path class="st0" d="M296.6,143.8c0.1,0.9-0.3,1.7-1.1,2.2c-0.4,0.2-0.9,0.4-1.3,0.3c-0.1,0-0.5-0.2-0.6-0.2
			c0.4,0.4,0.7,0.9,1.1,1.3c0-0.1-0.1-0.2-0.1-0.3c0.1-0.9,0.3-1.7,1.2-2.1c0.4-0.2,0.9-0.3,1.3-0.2c0.1,0,0.4,0.2,0.5,0.1
			c-0.3,0.1-1.2-2.2-1-0.9c0.1,0.8,1.1,1.7,1.7,2.3c0.3,0.3,1.2,0.9,1,0.1c-0.2-1.2-1-2.2-1.8-3.1c-0.7-0.8-1.6-1.6-2.7-1.8
			c-1.8-0.3-3.3,1.2-3,2.9c0.3,1.9,2.3,4.4,4.2,4.9c1.8,0.5,3.4-0.9,3.3-2.8c-0.1-0.8-0.8-1.6-1.3-2.2
			C297.9,144.3,296.6,143.2,296.6,143.8z"/>
	</g>
	<g>
		<path class="st0" d="M385.7,112.5c2.4-5.3,6.3-9.5,9.5-14.3c0.7-1-3.2-1.9-3.9-0.9c-3.2,4.8-7.1,9-9.5,14.3
			C381.2,112.9,385.2,113.6,385.7,112.5L385.7,112.5z"/>
	</g>
</g>
</svg>
