<?xml version="1.0" encoding="utf-8"?>
<!-- Generator: Adobe Illustrator 22.1.0, SVG Export Plug-In . SVG Version: 6.00 Build 0)  -->
<svg version="1.1" id="Layer_1" xmlns="http://www.w3.org/2000/svg" xmlns:xlink="http://www.w3.org/1999/xlink" x="0px" y="0px"
	 viewBox="0 0 12.6 12.6" style="enable-background:new 0 0 12.6 12.6;" xml:space="preserve">
<style type="text/css">
	.st0{fill:#606060;}
</style>
<g>
	<g>
		<polygon class="st0" points="5.6,8.7 4.9,8.1 6.7,6.3 4.9,4.5 5.6,3.9 8,6.3 		"/>
	</g>
	<g>
		<path class="st0" d="M6.3,12.6C2.8,12.6,0,9.8,0,6.3C0,2.8,2.8,0,6.3,0c3.5,0,6.3,2.8,6.3,6.3C12.6,9.8,9.8,12.6,6.3,12.6z
			 M6.3,0.9c-3,0-5.4,2.4-5.4,5.4c0,3,2.4,5.4,5.4,5.4c3,0,5.4-2.4,5.4-5.4C11.7,3.3,9.3,0.9,6.3,0.9z"/>
	</g>
</g>
</svg>
