<?xml version="1.0" encoding="utf-8"?>
<!-- Generator: Adobe Illustrator 22.1.0, SVG Export Plug-In . SVG Version: 6.00 Build 0)  -->
<svg version="1.1" id="Layer_1" xmlns="http://www.w3.org/2000/svg" xmlns:xlink="http://www.w3.org/1999/xlink" x="0px" y="0px"
	 viewBox="0 0 231.3 40.8" style="enable-background:new 0 0 231.3 40.8;" xml:space="preserve">
<style type="text/css">
	.st0{fill:#231F20;}
</style>
<g id="XMLID_156_">
	<path id="XMLID_173_" class="st0" d="M6,27.6h8.3L10.1,4.2L6,27.6z M3.5,40.2H0C3.7,21.8,4.1,19,7.8,0.5h4.6l7.8,39.7h-3.5l-2-10.3
		H5.6L3.5,40.2z"/>
	<polygon id="XMLID_172_" class="st0" points="24.8,40.2 24.8,0.5 28.3,0.5 28.3,37.4 39.3,37.4 39.3,40.2 	"/>
	<path id="XMLID_169_" class="st0" d="M58.9,29.5V11.3c0-4.7-1.5-8.5-6.6-8.5c-5.2,0-6.6,3.8-6.6,8.5v18.2c0,4.7,1.4,8.5,6.6,8.5
		C57.5,38,58.9,34.2,58.9,29.5 M42.2,28.7V12.1C42.2,5.4,44.6,0,52.3,0C60,0,62.4,5.4,62.4,12.1v16.6c0,6.7-2.2,12.1-10.1,12.1
		C44.4,40.8,42.2,35.4,42.2,28.7"/>
	<polygon id="XMLID_168_" class="st0" points="68.5,40.2 68.5,0.5 82.3,0.5 82.3,3.4 72,3.4 72,18.4 79.4,18.4 79.4,21 72,21 
		72,40.2 	"/>
	<polygon id="XMLID_167_" class="st0" points="88.5,40.2 88.5,3.4 80.7,3.4 80.7,0.5 99.8,0.5 99.8,3.4 92,3.4 92,40.2 	"/>
	<path id="XMLID_166_" class="st0" d="M108.5,30.6l3.1-0.9c0.5,4.2,2.4,8.3,7.1,8.3c3.6,0,5.6-2.1,5.6-5.7c0-3.4-2.4-6.2-5.3-9.3
		l-6.2-6.5c-2.3-2.5-4.2-5-4.2-7.9c0-5.3,3.8-8.5,9.1-8.5c5.2,0,8.4,3,9.4,8.6l0.1,0.4l-3,0.9l0-0.3c-0.6-3.7-2.7-6.7-6.5-6.7
		c-3.4,0-5.7,1.7-5.7,5.3c0,2.2,1.3,4.2,3.2,6.3l5.8,6.3c3.1,3.4,6.6,6.7,6.6,11.2c0,5.8-4.1,8.8-9.4,8.8
		C112.5,40.8,109.3,36.1,108.5,30.6"/>
	<polygon id="XMLID_165_" class="st0" points="136.3,40.2 136.3,3.4 128.6,3.4 128.6,0.5 147.6,0.5 147.6,3.4 139.8,3.4 139.8,40.2 
			"/>
	<path id="XMLID_164_" class="st0" d="M149.8,30.5V0.5h3.5v30.7c0,4.4,1.7,6.7,6.8,6.7c4.8,0,6.4-2.4,6.4-6.7V0.5h3.5v29.9
		c0,5.6-2.1,10.4-9.9,10.4C151.9,40.8,149.8,36,149.8,30.5"/>
	<path id="XMLID_161_" class="st0" d="M179.8,37.4h5.4c5.2,0,6.6-3.7,6.6-8.1V11.6c0-4.6-1.5-8.2-6.6-8.2h-5.4V37.4z M176.3,40.2
		V0.5h8.9c7.7,0,10.1,5.3,10.1,11.8v16.1c0,6.4-2.2,11.7-10.1,11.7H176.3z"/>
	<rect id="XMLID_160_" x="201.4" y="0.5" class="st0" width="3.5" height="39.6"/>
	<path id="XMLID_157_" class="st0" d="M227.8,29.5V11.3c0-4.7-1.5-8.5-6.6-8.5c-5.2,0-6.6,3.8-6.6,8.5v18.2c0,4.7,1.4,8.5,6.6,8.5
		C226.3,38,227.8,34.2,227.8,29.5 M211,28.7V12.1C211,5.4,213.5,0,221.2,0c7.7,0,10.1,5.4,10.1,12.1v16.6c0,6.7-2.2,12.1-10.1,12.1
		C213.3,40.8,211,35.4,211,28.7"/>
</g>
</svg>
