<?xml version="1.0" encoding="utf-8"?>
<!-- Generator: Adobe Illustrator 22.1.0, SVG Export Plug-In . SVG Version: 6.00 Build 0)  -->
<svg version="1.1" id="Layer_1" xmlns="http://www.w3.org/2000/svg" xmlns:xlink="http://www.w3.org/1999/xlink" x="0px" y="0px"
	 viewBox="0 0 77.7 20.2" style="enable-background:new 0 0 77.7 20.2;" xml:space="preserve">
<style type="text/css">
	.st0{fill:#A09890;}
</style>
<g>
	<g>
		<path class="st0" d="M2.7,12.4h2.7L4.1,4.7L2.7,12.4z M1.9,16.6H0.8c1.2-6.1,1.4-7,2.6-13.1h1.5l2.6,13.1H6.2l-0.7-3.4h-3
			L1.9,16.6z"/>
	</g>
	<g>
		<polygon class="st0" points="8.9,16.6 8.9,3.5 10.1,3.5 10.1,15.7 13.7,15.7 13.7,16.6 		"/>
	</g>
	<g>
		<path class="st0" d="M20.2,13.1v-6c0-1.5-0.5-2.8-2.2-2.8c-1.7,0-2.2,1.3-2.2,2.8v6c0,1.5,0.5,2.8,2.2,2.8
			C19.7,15.9,20.2,14.6,20.2,13.1 M14.7,12.8V7.3c0-2.2,0.8-4,3.3-4c2.5,0,3.3,1.8,3.3,4v5.5c0,2.2-0.7,4-3.3,4
			C15.4,16.8,14.7,15,14.7,12.8"/>
	</g>
	<g>
		<polygon class="st0" points="23.3,16.6 23.3,3.5 27.9,3.5 27.9,4.5 24.5,4.5 24.5,9.4 26.9,9.4 26.9,10.3 24.5,10.3 24.5,16.6 		
			"/>
	</g>
	<g>
		<polygon class="st0" points="29.9,16.6 29.9,4.5 27.4,4.5 27.4,3.5 33.6,3.5 33.6,4.5 31.1,4.5 31.1,16.6 		"/>
	</g>
	<g>
		<path class="st0" d="M36.5,13.4l1-0.3c0.2,1.4,0.8,2.7,2.3,2.7c1.2,0,1.9-0.7,1.9-1.9c0-1.1-0.8-2.1-1.8-3.1l-2-2.1
			c-0.8-0.8-1.4-1.6-1.4-2.6c0-1.7,1.3-2.8,3-2.8c1.7,0,2.8,1,3.1,2.8l0,0.1l-1,0.3l0-0.1c-0.2-1.2-0.9-2.2-2.1-2.2
			c-1.1,0-1.9,0.6-1.9,1.7c0,0.7,0.4,1.4,1.1,2.1l1.9,2.1c1,1.1,2.2,2.2,2.2,3.7c0,1.9-1.3,2.9-3.1,2.9
			C37.8,16.8,36.8,15.2,36.5,13.4"/>
	</g>
	<g>
		<polygon class="st0" points="45.6,16.6 45.6,4.5 43.1,4.5 43.1,3.5 49.4,3.5 49.4,4.5 46.8,4.5 46.8,16.6 		"/>
	</g>
	<g>
		<path class="st0" d="M50.1,13.4V3.5h1.2v10.1c0,1.4,0.6,2.2,2.2,2.2c1.6,0,2.1-0.8,2.1-2.2V3.5h1.1v9.9c0,1.8-0.7,3.4-3.3,3.4
			C50.8,16.8,50.1,15.2,50.1,13.4"/>
	</g>
	<g>
		<path class="st0" d="M60,15.7h1.8c1.7,0,2.2-1.2,2.2-2.7V7.2c0-1.5-0.5-2.7-2.2-2.7H60V15.7z M58.8,16.6V3.5h2.9
			c2.5,0,3.3,1.7,3.3,3.9v5.3c0,2.1-0.7,3.9-3.3,3.9H58.8z"/>
	</g>
	<g>
		<rect x="67.1" y="3.5" class="st0" width="1.2" height="13.1"/>
	</g>
	<g>
		<path class="st0" d="M75.8,13.1v-6c0-1.5-0.5-2.8-2.2-2.8c-1.7,0-2.2,1.3-2.2,2.8v6c0,1.5,0.5,2.8,2.2,2.8
			C75.3,15.9,75.8,14.6,75.8,13.1 M70.3,12.8V7.3c0-2.2,0.8-4,3.3-4c2.5,0,3.3,1.8,3.3,4v5.5c0,2.2-0.7,4-3.3,4
			C71,16.8,70.3,15,70.3,12.8"/>
	</g>
</g>
</svg>
