<?xml version="1.0" encoding="utf-8"?>
<!-- Generator: Adobe Illustrator 22.1.0, SVG Export Plug-In . SVG Version: 6.00 Build 0)  -->
<svg version="1.1" id="Layer_1" xmlns="http://www.w3.org/2000/svg" xmlns:xlink="http://www.w3.org/1999/xlink" x="0px" y="0px"
	 viewBox="0 0 61.3 62.7" style="enable-background:new 0 0 61.3 62.7;" xml:space="preserve">
<style type="text/css">
	.st0{fill:#FFFFFF;}
</style>
<g>
	<path class="st0" d="M43.1,37H32.5c0,0.7-0.1,1.3-0.1,1.6c0,2.7,0.4,4.7,1.3,6c0.8,1.3,2.1,2,3.7,2c2.3,0,3.9-1,4.8-3h0.9
		c-0.4,1.3-1.2,2.3-2.4,3c-1.2,0.7-2.5,1.1-3.8,1.1c-1.3,0-2.5-0.3-3.7-1c-1.1-0.7-2.1-1.6-2.8-2.8c-0.7-1.2-1.1-2.6-1.1-4.3
		c0-2.4,0.7-4.4,2.1-6c1.4-1.6,3.2-2.4,5.3-2.4c2,0,3.5,0.6,4.6,1.8C42.4,34.2,43,35.5,43.1,37 M39.8,36.2c0-0.3,0.1-0.5,0.1-0.8
		c0-1.1-0.3-1.9-1-2.5c-0.6-0.6-1.4-0.9-2.4-0.9c-2.3,0-3.6,1.4-4,4.2H39.8z"/>
	<path class="st0" d="M23.9,37.9c-0.1-0.4-0.1-1.5-0.1-3.2v-6.1c0.6-1.1,1.3-2,2-2.5c0.8-0.6,1.6-0.8,2.6-0.8c0.8,0,1.5,0.2,2.1,0.6
		c0.6,0.4,0.9,0.9,1,1.5c0.1,0.6,0.2,1.5,0.2,2.8v1c0.8-0.6,1.7-1,2.6-1.3c0-1.4-0.1-2.4-0.4-3.1c-0.2-0.8-0.8-1.4-1.6-1.9
		c-0.8-0.5-1.9-0.8-3.1-0.8c-1.1,0-2.1,0.3-3,0.8c-0.9,0.5-1.8,1.3-2.5,2.3V14.4h-0.4c-1.3,0.5-2.9,0.8-4.8,0.8V16
		c1.1,0,1.8,0.2,2.1,0.6c0.3,0.4,0.4,1.4,0.4,2.9v15.2c0,1.7,0,2.7-0.1,3.1c0,0.4-0.2,0.7-0.5,0.9c-0.3,0.3-0.8,0.4-1.7,0.4h-0.4
		v0.9h7.7v-0.9c-0.9,0-1.4-0.1-1.8-0.3C24.1,38.6,23.9,38.3,23.9,37.9"/>
	<polygon class="st0" points="60.8,29.6 56.7,32 57.2,32.9 61.3,30.5 	"/>
	<rect x="-0.1" y="30.8" transform="matrix(0.8661 -0.4998 0.4998 0.8661 -15.3233 5.3328)" class="st0" width="4.7" height="1"/>
	<g>
		<g>
			<path class="st0" d="M3.7,47.7l-1.1-2.2l0.3-0.1c0.1,0.2,0.2,0.3,0.3,0.4c0.1,0.1,0.2,0.1,0.3,0.1c0.1,0,0.2,0,0.3-0.1l1.3-0.7
				l-1-2l-1.3,0.7c-0.2,0.1-0.3,0.2-0.3,0.3c0,0.1,0,0.3,0.1,0.6l-0.3,0.1l-1.1-2.2l0.3-0.1c0.1,0.2,0.2,0.3,0.3,0.4
				c0.1,0.1,0.2,0.1,0.3,0.1c0.1,0,0.2,0,0.3-0.1l2.8-1.4c0.1-0.1,0.2-0.1,0.3-0.2s0.1-0.1,0.1-0.3s0-0.3-0.1-0.4l0.3-0.1l1.1,2.2
				l-0.3,0.1c-0.1-0.3-0.3-0.4-0.4-0.5s-0.3,0-0.5,0.1l-1.1,0.5l1,2l1.1-0.5c0.1-0.1,0.2-0.1,0.3-0.2c0.1-0.1,0.1-0.1,0.1-0.3
				c0-0.1,0-0.3-0.1-0.4L7,43.4l1.1,2.2l-0.3,0.1c-0.1-0.2-0.2-0.3-0.3-0.4s-0.2-0.1-0.3-0.1c-0.1,0-0.2,0-0.3,0.1l-2.8,1.4
				c-0.1,0.1-0.2,0.1-0.3,0.2c-0.1,0.1-0.1,0.1-0.1,0.3c0,0.1,0,0.3,0.1,0.4L3.7,47.7z"/>
			<path class="st0" d="M9,51.9l-1.3,1L5,49.5l0.3-0.2c0.2,0.2,0.3,0.4,0.5,0.4s0.3-0.1,0.4-0.2l2.4-2c0.1-0.1,0.2-0.2,0.2-0.2
				c0-0.1,0-0.2,0-0.3c0-0.1-0.1-0.2-0.3-0.4l0.3-0.2l2.6,3.1l-0.9,0.9l-0.2-0.3c0.2-0.2,0.3-0.4,0.3-0.6c0-0.2,0-0.3,0-0.4
				c-0.1-0.1-0.2-0.3-0.3-0.4L9.6,48l-1.3,1.1l0.3,0.4c0.1,0.1,0.2,0.2,0.3,0.3c0.1,0,0.2,0.1,0.2,0c0.1,0,0.2-0.1,0.4-0.2l0.2,0.3
				l-1.3,1l-0.2-0.3c0.1-0.1,0.2-0.2,0.3-0.3c0-0.1,0-0.2,0-0.2c0-0.1-0.1-0.2-0.2-0.3l-0.3-0.4L7,50.1c-0.1,0.1-0.3,0.2-0.3,0.3
				s-0.1,0.1-0.1,0.2c0,0.1,0,0.2,0,0.2c0,0.1,0.1,0.2,0.2,0.3l0.3,0.3c0.1,0.1,0.2,0.2,0.4,0.3s0.3,0.1,0.5,0.1s0.5-0.1,0.8-0.3
				L9,51.9z"/>
			<path class="st0" d="M11.2,56l-1.9-1.6l0.2-0.3c0.2,0.1,0.3,0.2,0.4,0.3c0.1,0,0.2,0,0.3,0c0.1,0,0.2-0.1,0.3-0.2l2-2.3
				c0.1-0.2,0.2-0.3,0.2-0.4s-0.1-0.3-0.4-0.5l0.2-0.3l1.9,1.6l-0.2,0.3c-0.2-0.1-0.3-0.2-0.4-0.3c-0.1,0-0.2,0-0.3,0
				s-0.2,0.1-0.3,0.2l-2,2.3c-0.1,0.1-0.2,0.2-0.2,0.3c0,0.1,0,0.2,0,0.3c0,0.1,0.2,0.2,0.3,0.4L11.2,56z"/>
			<path class="st0" d="M18.5,57.7c-0.2,0.3-0.4,0.6-0.6,0.7c-0.2,0.2-0.5,0.3-0.8,0.4c-0.3,0.1-0.5,0.1-0.7,0.1
				c-0.5-0.1-1-0.2-1.6-0.6l-2-1.1l0.2-0.3c0.2,0.1,0.3,0.2,0.4,0.2c0.1,0,0.2,0,0.3-0.1s0.1-0.1,0.2-0.3l1.5-2.7
				c0.1-0.2,0.1-0.3,0.1-0.5c0-0.1-0.2-0.3-0.5-0.4l0.2-0.3l0.9,0.5c0,0,0.2,0.1,0.4,0.2c0.2,0.1,0.4,0.2,0.4,0.2
				c0.4,0.2,0.6,0.4,0.9,0.6c0.2,0.2,0.4,0.4,0.6,0.6c0.1,0.2,0.3,0.4,0.3,0.6c0.1,0.2,0.1,0.5,0.1,0.7c0,0.2,0,0.5-0.1,0.7
				C18.7,57.3,18.6,57.5,18.5,57.7z M17.5,57.1c0.3-0.4,0.4-0.9,0.4-1.3c0-0.4-0.1-0.7-0.3-1c-0.1-0.1-0.2-0.2-0.3-0.3
				c-0.1-0.1-0.3-0.2-0.6-0.4l-1.7,3c-0.1,0.2-0.2,0.3-0.2,0.4c0,0.1,0,0.2,0,0.3s0.2,0.2,0.3,0.3c0.5,0.3,1,0.3,1.4,0.1
				S17.2,57.6,17.5,57.1z"/>
			<path class="st0" d="M24.2,60.4L23.7,62l-4.2-1.2l0.1-0.3c0.3,0.1,0.5,0.1,0.6,0c0.1-0.1,0.2-0.2,0.3-0.4l0.9-3
				c0-0.1,0.1-0.2,0.1-0.3c0-0.1,0-0.2-0.1-0.2c-0.1-0.1-0.2-0.1-0.4-0.2l0.1-0.3l3.9,1.2l-0.3,1.2l-0.3-0.1c0-0.3,0-0.5-0.1-0.7
				s-0.1-0.2-0.3-0.3c-0.1-0.1-0.3-0.1-0.5-0.2l-0.9-0.3l-0.5,1.7l0.5,0.1c0.2,0,0.3,0.1,0.4,0.1c0.1,0,0.2,0,0.2-0.1
				c0.1-0.1,0.1-0.2,0.2-0.4l0.3,0.1L23.1,60l-0.3-0.1c0-0.2,0.1-0.3,0-0.4c0-0.1-0.1-0.2-0.1-0.2c-0.1-0.1-0.2-0.1-0.4-0.2L21.8,59
				l-0.3,1.1c-0.1,0.2-0.1,0.3-0.1,0.4c0,0.1,0,0.2,0,0.2c0,0.1,0.1,0.1,0.2,0.2s0.2,0.1,0.4,0.2l0.4,0.1c0.2,0,0.3,0.1,0.5,0.1
				c0.2,0,0.3-0.1,0.5-0.2c0.2-0.1,0.4-0.4,0.5-0.7L24.2,60.4z"/>
			<path class="st0" d="M33.5,61l0,1.6l-4.4,0.1l0-0.3c0.3,0,0.5-0.1,0.6-0.1c0.1-0.1,0.1-0.2,0.1-0.5l-0.1-3.1c0-0.1,0-0.2,0-0.3
				s-0.1-0.1-0.2-0.2c-0.1,0-0.3-0.1-0.5-0.1l0-0.3l4.1-0.1l0.1,1.3l-0.3,0c-0.1-0.3-0.2-0.5-0.3-0.6s-0.2-0.2-0.3-0.2
				c-0.1,0-0.3,0-0.6,0l-0.9,0l0,1.7l0.5,0c0.2,0,0.3,0,0.4-0.1c0.1,0,0.1-0.1,0.2-0.2s0.1-0.2,0.1-0.4l0.3,0l0,1.6l-0.3,0
				c0-0.2,0-0.3-0.1-0.4c0-0.1-0.1-0.1-0.2-0.2c-0.1,0-0.2,0-0.4,0l-0.5,0l0,1.2c0,0.2,0,0.3,0,0.4c0,0.1,0,0.2,0.1,0.2
				c0,0.1,0.1,0.1,0.2,0.1s0.2,0,0.4,0l0.4,0c0.2,0,0.3,0,0.5-0.1c0.2,0,0.3-0.2,0.4-0.3c0.1-0.2,0.2-0.5,0.3-0.8L33.5,61z"/>
			<path class="st0" d="M42.5,60.5l-2.4,0.7L40,60.9c0.2-0.1,0.3-0.1,0.4-0.2c0.1-0.1,0.1-0.1,0.1-0.2c0-0.1,0-0.2,0-0.3l-0.8-3
				L39,61.5l-0.2,0.1l-2.9-3.3l0.8,2.8c0,0.1,0.1,0.3,0.1,0.3c0,0.1,0.1,0.1,0.1,0.2c0.1,0,0.1,0.1,0.2,0.1c0.1,0,0.2,0,0.4-0.1
				l0.1,0.3l-1.8,0.5l-0.1-0.3c0.2,0,0.3-0.1,0.4-0.2c0.1-0.1,0.1-0.1,0.2-0.2c0-0.1,0-0.1,0-0.2c0-0.1,0-0.2-0.1-0.3l-0.8-2.7
				c-0.1-0.2-0.1-0.3-0.2-0.4c0-0.1-0.1-0.1-0.2-0.2c-0.1,0-0.3,0-0.5,0.1l-0.1-0.3l1.7-0.5l2.5,2.9l0.6-3.8l1.7-0.5l0.1,0.3
				c-0.3,0.1-0.5,0.2-0.5,0.3c-0.1,0.1-0.1,0.3,0,0.5l0.8,3c0,0.1,0.1,0.2,0.1,0.3c0.1,0.1,0.1,0.1,0.2,0.1c0.1,0,0.3,0,0.5-0.1
				L42.5,60.5z"/>
			<path class="st0" d="M46.6,58.3l-2.2,1.2l-0.2-0.3c0.2-0.1,0.3-0.2,0.4-0.3c0.1-0.1,0.1-0.2,0.1-0.3s0-0.2-0.1-0.3l-1.5-2.7
				c-0.1-0.2-0.2-0.3-0.3-0.3c-0.1,0-0.3,0-0.6,0.2L42,55.2l2.2-1.2l0.2,0.3c-0.2,0.1-0.3,0.2-0.4,0.3c-0.1,0.1-0.1,0.2-0.1,0.3
				c0,0.1,0,0.2,0.1,0.3l1.5,2.7c0.1,0.1,0.1,0.2,0.2,0.3s0.2,0.1,0.3,0.1c0.1,0,0.3-0.1,0.5-0.2L46.6,58.3z"/>
			<path class="st0" d="M51.4,52.3c-0.1,0.1-0.2,0.2-0.2,0.3c0,0.1,0,0.1,0,0.2c0,0.1,0.1,0.2,0.2,0.3l0.7,0.9
				c-0.3,0.2-0.5,0.5-0.8,0.8c-0.2,0.2-0.3,0.4-0.4,0.5c-0.1,0.1-0.2,0.2-0.4,0.4c-0.4,0.3-0.8,0.5-1.3,0.6c-0.5,0-0.9,0-1.3-0.2
				c-0.4-0.2-0.7-0.4-1-0.8c-0.3-0.4-0.5-0.8-0.6-1.2c-0.1-0.4,0-0.9,0.1-1.3s0.4-0.8,0.8-1.1c0.4-0.4,0.9-0.5,1.5-0.5
				c0-0.1-0.1-0.3-0.2-0.4l0.3-0.2l1,1.2L49.7,52c-0.2-0.2-0.4-0.3-0.6-0.3c-0.2-0.1-0.5-0.1-0.7,0c-0.2,0-0.5,0.1-0.6,0.3
				c-0.1,0.1-0.3,0.3-0.4,0.4s-0.2,0.4-0.2,0.6c0,0.2,0,0.5,0.1,0.7c0.1,0.3,0.3,0.6,0.5,0.9c0.2,0.3,0.5,0.5,0.7,0.7
				s0.5,0.3,0.9,0.4c0.3,0,0.6-0.1,0.9-0.3c0.2-0.2,0.4-0.4,0.5-0.6c0.1-0.2,0.1-0.3,0-0.5c-0.1-0.1-0.1-0.3-0.2-0.4
				c-0.1-0.1-0.2-0.2-0.3-0.3s-0.2,0-0.2,0s-0.2,0.1-0.4,0.2l-0.2-0.3l1.7-1.4L51.4,52.3z"/>
			<path class="st0" d="M57.2,48.1l-0.8,1c-0.1,0-0.2,0-0.3,0s-0.3,0-0.4,0c-0.2,0-0.3,0-0.4,0L54.7,49c-0.3,0-0.5,0-0.6,0
				s-0.2,0-0.3,0.1c-0.1,0.1-0.2,0.2-0.3,0.4l-0.1,0.1l1,0.8c0.1,0.1,0.2,0.1,0.3,0.2c0.1,0,0.2,0,0.3,0c0.1-0.1,0.2-0.2,0.3-0.3
				l0.3,0.2l-1.5,2l-0.3-0.2c0.2-0.2,0.3-0.4,0.2-0.5c0-0.1-0.1-0.2-0.3-0.4l-2.5-1.9c-0.2-0.1-0.3-0.2-0.4-0.2
				c-0.1,0-0.3,0.1-0.5,0.4l-0.3-0.2l0.7-0.9c0-0.1,0.1-0.2,0.2-0.2c0.1-0.1,0.1-0.2,0.2-0.3c0-0.1,0.1-0.2,0.2-0.3
				c0.2-0.2,0.3-0.4,0.4-0.5c0.1-0.2,0.3-0.3,0.4-0.4c0.1-0.1,0.3-0.2,0.5-0.3c0.2-0.1,0.4-0.1,0.6-0.1c0.2,0,0.4,0.1,0.6,0.2
				c0.1,0.1,0.2,0.2,0.3,0.4s0.1,0.3,0.1,0.5s0,0.4-0.2,0.7c0.2-0.1,0.4-0.1,0.6-0.1c0.2,0,0.5,0,1,0.1c0.3,0,0.5,0,0.7,0
				c0.2,0,0.3,0,0.4-0.1c0.1,0,0.2-0.1,0.3-0.2L57.2,48.1z M53.1,47.5c-0.3-0.2-0.6-0.3-0.8-0.2c-0.2,0.1-0.5,0.3-0.7,0.6
				c0,0-0.1,0.1-0.1,0.1c0,0,0,0.1-0.1,0.1l1.6,1.2l0.1-0.2c0.2-0.3,0.4-0.6,0.4-0.8C53.6,48.1,53.4,47.8,53.1,47.5z"/>
			<path class="st0" d="M58.5,41.6l1.5,0.7l-1.8,4l-0.3-0.1c0.1-0.3,0.2-0.5,0.1-0.6c0-0.1-0.2-0.2-0.4-0.3L54.8,44
				c-0.1-0.1-0.2-0.1-0.3-0.1c-0.1,0-0.2,0-0.2,0.1c-0.1,0.1-0.2,0.2-0.3,0.4l-0.3-0.1l1.7-3.7l1.2,0.5l-0.1,0.3
				c-0.3,0-0.5-0.1-0.7,0s-0.3,0.1-0.3,0.2c-0.1,0.1-0.2,0.3-0.3,0.5l-0.4,0.8l1.6,0.7l0.2-0.5c0.1-0.2,0.1-0.3,0.1-0.4
				s0-0.2-0.1-0.2c-0.1-0.1-0.2-0.1-0.3-0.2l0.1-0.3l1.5,0.7L57.8,43c-0.2-0.1-0.3-0.1-0.4-0.1c-0.1,0-0.2,0-0.2,0.1
				C57.1,43,57,43.1,57,43.3l-0.2,0.5l1.1,0.5c0.2,0.1,0.3,0.1,0.4,0.2c0.1,0,0.2,0,0.2,0c0.1,0,0.1-0.1,0.2-0.1
				c0.1-0.1,0.1-0.2,0.2-0.4l0.2-0.4c0.1-0.2,0.1-0.3,0.1-0.5c0-0.2,0-0.3-0.1-0.5s-0.3-0.4-0.6-0.6L58.5,41.6z"/>
		</g>
	</g>
	<g>
		<g>
			<path class="st0" d="M7.7,17.7l-1,2.2l-0.3-0.1c0.1-0.2,0.1-0.3,0.1-0.4c0-0.1,0-0.2-0.1-0.3c-0.1-0.1-0.2-0.1-0.3-0.2l-1.3-0.6
				l-1,2.1l1.3,0.6C5.3,21,5.5,21,5.6,21s0.2-0.2,0.4-0.5l0.3,0.1l-1,2.2l-0.3-0.1c0.1-0.2,0.1-0.3,0.1-0.4c0-0.1,0-0.2-0.1-0.3
				c-0.1-0.1-0.2-0.1-0.3-0.2l-2.8-1.3c-0.1-0.1-0.2-0.1-0.3-0.1c-0.1,0-0.2,0-0.3,0.1c-0.1,0.1-0.2,0.2-0.3,0.4l-0.3-0.1l1-2.2
				l0.3,0.1C2,19,2,19.2,2,19.3c0,0.1,0.2,0.2,0.3,0.3l1.1,0.5l1-2.1l-1.1-0.5c-0.1-0.1-0.2-0.1-0.3-0.1c-0.1,0-0.2,0-0.2,0.1
				c-0.1,0.1-0.2,0.2-0.3,0.4l-0.3-0.1l1-2.2l0.3,0.1c-0.1,0.2-0.1,0.3-0.1,0.4c0,0.1,0,0.2,0.1,0.3c0.1,0.1,0.2,0.1,0.3,0.2
				l2.8,1.3C6.7,18,6.8,18,6.9,18c0.1,0,0.2,0,0.3-0.1s0.2-0.2,0.3-0.4L7.7,17.7z"/>
			<path class="st0" d="M9.9,12.2l1.2,1l-2.7,3.4l-0.3-0.2c0.2-0.2,0.3-0.4,0.3-0.5c0-0.1-0.1-0.2-0.3-0.4l-2.4-1.9
				c-0.1-0.1-0.2-0.1-0.3-0.2c-0.1,0-0.2,0-0.3,0s-0.2,0.2-0.4,0.3l-0.3-0.2l2.6-3.2l1,0.7l-0.2,0.3c-0.3-0.1-0.5-0.2-0.6-0.2
				c-0.2,0-0.3,0-0.4,0.1c-0.1,0.1-0.2,0.2-0.4,0.4L6,12.5l1.4,1.1l0.3-0.4c0.1-0.1,0.2-0.2,0.2-0.3s0-0.2,0-0.2
				c0-0.1-0.1-0.2-0.3-0.3l0.2-0.3l1.3,1l-0.2,0.3c-0.1-0.1-0.3-0.2-0.4-0.2c-0.1,0-0.2,0-0.2,0c-0.1,0-0.2,0.1-0.3,0.3l-0.3,0.4
				l0.9,0.7c0.2,0.1,0.3,0.2,0.3,0.3s0.1,0.1,0.2,0.1c0.1,0,0.1,0,0.2-0.1c0.1-0.1,0.2-0.2,0.3-0.3l0.2-0.3c0.1-0.1,0.2-0.3,0.2-0.4
				c0.1-0.1,0.1-0.3,0-0.6c0-0.2-0.2-0.5-0.5-0.8L9.9,12.2z"/>
			<path class="st0" d="M14,10.7l-1.9,1.6l-0.2-0.3c0.2-0.1,0.3-0.3,0.3-0.4c0.1-0.1,0.1-0.2,0-0.3s-0.1-0.2-0.2-0.3l-2-2.3
				C9.9,8.7,9.8,8.6,9.6,8.6c-0.1,0-0.3,0.1-0.5,0.3L8.9,8.6L10.8,7L11,7.3c-0.2,0.1-0.3,0.3-0.3,0.4s-0.1,0.2,0,0.3
				c0,0.1,0.1,0.2,0.2,0.3l2,2.3c0.1,0.1,0.2,0.2,0.3,0.2s0.2,0,0.3,0c0.1,0,0.2-0.1,0.4-0.3L14,10.7z"/>
			<path class="st0" d="M18.2,5.2c0.2,0.3,0.3,0.6,0.3,0.9c0,0.3,0,0.6,0,0.9c-0.1,0.3-0.2,0.5-0.3,0.7c-0.3,0.4-0.7,0.8-1.3,1.1
				l-1.9,1.1l-0.2-0.3c0.2-0.1,0.3-0.2,0.4-0.3c0.1-0.1,0.1-0.2,0.1-0.3s-0.1-0.2-0.1-0.3L13.5,6c-0.1-0.2-0.2-0.3-0.3-0.3
				c-0.1,0-0.3,0-0.6,0.2l-0.2-0.3l0.9-0.5c0,0,0.2-0.1,0.4-0.2c0.2-0.1,0.4-0.2,0.4-0.2c0.3-0.2,0.7-0.4,0.9-0.5
				C15.3,4,15.6,4,15.8,3.9c0.2,0,0.5,0,0.7,0c0.2,0,0.5,0.1,0.7,0.2c0.2,0.1,0.4,0.2,0.6,0.4C17.9,4.8,18.1,5,18.2,5.2z M17.2,5.8
				c-0.3-0.4-0.6-0.8-0.9-1c-0.3-0.2-0.7-0.3-1-0.2c-0.2,0-0.3,0.1-0.5,0.1c-0.1,0.1-0.4,0.2-0.6,0.3l1.7,3c0.1,0.2,0.2,0.3,0.2,0.4
				c0.1,0.1,0.1,0.1,0.3,0.1c0.1,0,0.2-0.1,0.4-0.2c0.5-0.3,0.8-0.7,0.8-1.2C17.6,6.7,17.5,6.2,17.2,5.8z"/>
			<path class="st0" d="M24.5,3.9l0.4,1.6l-4.2,1.3l-0.1-0.3c0.3-0.1,0.5-0.2,0.5-0.3c0.1-0.1,0.1-0.3,0-0.5l-0.9-3
				c0-0.1-0.1-0.2-0.1-0.3c0-0.1-0.1-0.1-0.2-0.1s-0.3,0-0.5,0.1l-0.1-0.3l3.9-1.2l0.4,1.2l-0.3,0.1c-0.2-0.2-0.3-0.4-0.4-0.5
				s-0.3-0.1-0.4-0.1s-0.3,0-0.5,0.1l-0.9,0.3l0.5,1.7L22,3.4c0.2,0,0.3-0.1,0.4-0.2c0.1-0.1,0.1-0.1,0.1-0.2c0-0.1,0-0.2,0-0.4
				l0.3-0.1l0.5,1.6L23,4.2c-0.1-0.2-0.1-0.3-0.2-0.4c-0.1-0.1-0.1-0.1-0.2-0.1c-0.1,0-0.2,0-0.4,0.1L21.7,4L22,5.1
				c0.1,0.2,0.1,0.3,0.1,0.4c0,0.1,0.1,0.1,0.1,0.2s0.1,0.1,0.2,0.1c0.1,0,0.2,0,0.4-0.1l0.4-0.1c0.2,0,0.3-0.1,0.4-0.2
				c0.1-0.1,0.2-0.2,0.3-0.4c0.1-0.2,0.1-0.5,0.1-0.9L24.5,3.9z"/>
			<path class="st0" d="M33.5,3.4L33.4,5l-4.4-0.1l0-0.3c0.3,0,0.5,0,0.6-0.1c0.1-0.1,0.1-0.2,0.1-0.4l0.1-3.1c0-0.1,0-0.2,0-0.3
				c0-0.1-0.1-0.1-0.2-0.2s-0.3-0.1-0.5-0.1l0-0.3l4.1,0.1l0,1.3l-0.3,0c-0.1-0.3-0.1-0.5-0.2-0.6s-0.2-0.2-0.3-0.2
				c-0.1,0-0.3,0-0.5-0.1l-0.9,0l0,1.7l0.5,0c0.2,0,0.3,0,0.4,0S31.9,2.1,32,2S32,1.8,32,1.6l0.3,0l0,1.6l-0.3,0
				c0-0.2,0-0.3-0.1-0.4c0-0.1-0.1-0.1-0.2-0.2s-0.2,0-0.4-0.1l-0.5,0l0,1.2c0,0.2,0,0.3,0,0.4c0,0.1,0,0.2,0.1,0.2
				c0,0.1,0.1,0.1,0.2,0.1s0.2,0,0.4,0.1l0.4,0c0.2,0,0.3,0,0.5-0.1c0.2,0,0.3-0.1,0.5-0.3s0.3-0.4,0.3-0.8L33.5,3.4z"/>
			<path class="st0" d="M41.3,7L39,6.3L39.1,6C39.3,6,39.4,6.1,39.5,6c0.1,0,0.2-0.1,0.2-0.1s0.1-0.2,0.1-0.3l0.9-3L37.9,6l-0.2-0.1
				L37,1.5l-0.8,2.8c0,0.1-0.1,0.3-0.1,0.3s0,0.2,0,0.2c0,0.1,0.1,0.1,0.2,0.2c0.1,0.1,0.2,0.1,0.4,0.2l-0.1,0.3l-1.7-0.5l0.1-0.3
				c0.2,0,0.3,0.1,0.4,0.1c0.1,0,0.2,0,0.2-0.1c0.1,0,0.1-0.1,0.1-0.2c0-0.1,0.1-0.2,0.1-0.3l0.8-2.7c0.1-0.2,0.1-0.3,0.1-0.4
				c0-0.1,0-0.2-0.1-0.3c-0.1-0.1-0.2-0.1-0.5-0.2l0.1-0.3l1.7,0.5l0.6,3.8L41,1.8l1.7,0.5l-0.1,0.3c-0.3-0.1-0.5-0.1-0.6,0
				s-0.2,0.2-0.3,0.4l-0.9,3c0,0.1-0.1,0.2,0,0.3s0.1,0.2,0.1,0.2s0.2,0.1,0.4,0.2L41.3,7z"/>
			<path class="st0" d="M44.5,8.9l-2.2-1.2l0.2-0.3c0.2,0.1,0.3,0.2,0.4,0.2c0.1,0,0.2,0,0.3-0.1c0.1-0.1,0.1-0.1,0.2-0.3l1.5-2.7
				C45,4.3,45,4.2,45,4c0-0.1-0.2-0.3-0.5-0.4l0.2-0.3l2.2,1.2l-0.2,0.3c-0.2-0.1-0.3-0.2-0.4-0.2s-0.2,0-0.3,0.1
				c-0.1,0.1-0.1,0.1-0.2,0.3l-1.5,2.7c-0.1,0.1-0.1,0.2-0.1,0.3c0,0.1,0,0.2,0.1,0.3c0.1,0.1,0.2,0.2,0.4,0.3L44.5,8.9z"/>
			<path class="st0" d="M51.1,11.5c-0.1-0.1-0.2-0.1-0.3-0.2c-0.1,0-0.1,0-0.2,0c-0.1,0-0.2,0.1-0.3,0.2l-0.7,0.9
				c-0.3-0.2-0.6-0.4-1-0.6c-0.3-0.1-0.5-0.2-0.6-0.3s-0.3-0.2-0.4-0.3c-0.4-0.3-0.7-0.7-0.8-1.2c-0.1-0.4-0.1-0.9,0-1.3
				c0.1-0.4,0.3-0.8,0.6-1.1c0.3-0.4,0.7-0.6,1.1-0.8c0.4-0.2,0.9-0.2,1.3-0.1c0.4,0.1,0.8,0.3,1.2,0.6c0.4,0.4,0.7,0.8,0.8,1.4
				c0.1,0,0.2-0.1,0.4-0.2l0.3,0.2l-1,1.3l-0.3-0.2c0.1-0.2,0.2-0.5,0.2-0.7c0-0.2,0-0.5-0.1-0.7C51.1,8.2,51,8,50.8,7.8
				c-0.1-0.1-0.3-0.2-0.5-0.3c-0.2-0.1-0.4-0.1-0.6-0.1S49.3,7.6,49,7.7c-0.2,0.1-0.5,0.4-0.8,0.7c-0.2,0.3-0.4,0.5-0.6,0.8
				s-0.2,0.6-0.2,0.9c0,0.3,0.2,0.6,0.5,0.9c0.2,0.2,0.5,0.3,0.7,0.4c0.2,0,0.4,0,0.5-0.1c0.1-0.1,0.3-0.2,0.4-0.3
				c0.1-0.1,0.2-0.2,0.2-0.3c0-0.1,0-0.2,0-0.2c0-0.1-0.1-0.2-0.3-0.3l0.2-0.3l1.7,1.4L51.1,11.5z"/>
			<path class="st0" d="M53.7,18L52.9,17c0-0.1,0-0.2,0.1-0.3c0-0.1,0.1-0.3,0.1-0.4c0.1-0.1,0.1-0.3,0.1-0.4l0.2-0.6
				c0.1-0.3,0.2-0.5,0.2-0.6c0-0.1,0-0.2,0-0.3s-0.1-0.2-0.3-0.4l-0.1-0.1l-1,0.8c-0.1,0.1-0.2,0.2-0.2,0.2S52,15,52,15.1
				s0.1,0.3,0.2,0.4L52,15.8l-1.5-2l0.3-0.2c0.2,0.2,0.3,0.4,0.4,0.4s0.3,0,0.4-0.2l2.5-1.8c0.2-0.1,0.3-0.2,0.3-0.4
				s-0.1-0.3-0.2-0.5l0.3-0.2l0.7,0.9c0.1,0.1,0.1,0.1,0.2,0.2c0.1,0.1,0.1,0.2,0.2,0.3c0,0.1,0.1,0.2,0.2,0.3
				c0.1,0.2,0.3,0.4,0.4,0.6s0.2,0.3,0.2,0.5c0.1,0.2,0.1,0.4,0.1,0.6c0,0.2,0,0.4-0.1,0.6c-0.1,0.2-0.2,0.3-0.4,0.5
				c-0.1,0.1-0.3,0.2-0.4,0.2s-0.3,0-0.5,0c-0.2-0.1-0.4-0.2-0.6-0.3c0,0.2,0,0.4,0,0.6c-0.1,0.2-0.2,0.5-0.3,1
				c-0.1,0.3-0.2,0.5-0.2,0.6c0,0.2,0,0.3,0,0.4s0.1,0.2,0.1,0.3L53.7,18z M55.4,14.3c0.3-0.2,0.5-0.5,0.4-0.7s-0.2-0.6-0.4-0.9
				c0,0-0.1-0.1-0.1-0.1c0,0,0-0.1-0.1-0.1l-1.6,1.2l0.1,0.2c0.2,0.3,0.4,0.5,0.7,0.6S55,14.5,55.4,14.3z"/>
			<path class="st0" d="M57.4,22.4L55.9,23l-1.7-4l0.3-0.1c0.1,0.3,0.2,0.4,0.4,0.5s0.3,0,0.5-0.1l2.8-1.2c0.1-0.1,0.2-0.1,0.3-0.2
				c0.1-0.1,0.1-0.1,0.1-0.3c0-0.1,0-0.3-0.1-0.5l0.3-0.1l1.6,3.7l-1.1,0.6L59,21c0.2-0.2,0.4-0.3,0.5-0.5c0.1-0.1,0.1-0.3,0.1-0.4
				c0-0.1-0.1-0.3-0.2-0.5L59,18.8l-1.6,0.7l0.2,0.5c0.1,0.2,0.1,0.3,0.2,0.3c0.1,0.1,0.1,0.1,0.2,0.1c0.1,0,0.2,0,0.4-0.1l0.1,0.3
				l-1.5,0.6l-0.1-0.3c0.2-0.1,0.3-0.2,0.3-0.2c0.1-0.1,0.1-0.1,0.1-0.2c0-0.1,0-0.2-0.1-0.4L57,19.6L56,20.1
				c-0.2,0.1-0.3,0.1-0.4,0.2c-0.1,0-0.1,0.1-0.2,0.2c0,0.1-0.1,0.1,0,0.2s0.1,0.2,0.1,0.4l0.2,0.4c0.1,0.2,0.1,0.3,0.2,0.4
				s0.3,0.2,0.5,0.3c0.2,0.1,0.5,0,0.9,0L57.4,22.4z"/>
		</g>
	</g>
</g>
</svg>
