<?xml version="1.0" encoding="utf-8"?>
<!-- Generator: Adobe Illustrator 22.1.0, SVG Export Plug-In . SVG Version: 6.00 Build 0)  -->
<svg version="1.1" id="Layer_1" xmlns="http://www.w3.org/2000/svg" xmlns:xlink="http://www.w3.org/1999/xlink" x="0px" y="0px"
	 viewBox="0 0 25.3 25.3" style="enable-background:new 0 0 25.3 25.3;" xml:space="preserve">
<style type="text/css">
	.st0{fill:#FFFFFF;}
</style>
<g>
	<g>
		<path class="st0" d="M14.8,17.8c-0.2,0-0.5-0.1-0.6-0.3l-4.2-4.2c-0.4-0.4-0.4-0.9,0-1.3l4.2-4.2c0.4-0.4,0.9-0.4,1.3,0
			c0.4,0.4,0.4,0.9,0,1.3l-3.6,3.6l3.6,3.6c0.4,0.4,0.4,0.9,0,1.3C15.2,17.7,15,17.8,14.8,17.8z"/>
	</g>
	<g>
		<path class="st0" d="M12.6,25.3C5.7,25.3,0,19.6,0,12.6C0,5.7,5.7,0,12.6,0c7,0,12.6,5.7,12.6,12.6C25.3,19.6,19.6,25.3,12.6,25.3
			z M12.6,1.8c-6,0-10.8,4.9-10.8,10.8c0,6,4.9,10.8,10.8,10.8c6,0,10.8-4.9,10.8-10.8C23.5,6.7,18.6,1.8,12.6,1.8z"/>
	</g>
</g>
</svg>
