<?xml version="1.0" encoding="utf-8"?>
<!-- Generator: Adobe Illustrator 23.0.1, SVG Export Plug-In . SVG Version: 6.00 Build 0)  -->
<svg version="1.1" id="Layer_1" xmlns="http://www.w3.org/2000/svg" xmlns:xlink="http://www.w3.org/1999/xlink" x="0px" y="0px"
	 viewBox="0 0 13.86 16.59" style="enable-background:new 0 0 13.86 16.59;" xml:space="preserve">
<style type="text/css">
	.st0{fill:#D4CDCA;}
</style>
<g>
	<path class="st0" d="M6.93,11.51c-1.71,0-3.1-1.44-3.1-3.22s1.39-3.22,3.1-3.22c1.71,0,3.1,1.44,3.1,3.22S8.64,11.51,6.93,11.51z
		 M6.93,6.5c-0.92,0-1.67,0.8-1.67,1.79s0.75,1.79,1.67,1.79c0.92,0,1.67-0.8,1.67-1.79S7.85,6.5,6.93,6.5z"/>
	<circle class="st0" cx="10.13" cy="4.78" r="0.61"/>
	<path class="st0" d="M9.38,15.02h-4.9c-2.36,0-4.27-1.92-4.27-4.27v-4.9c0-2.36,1.92-4.27,4.27-4.27h4.9
		c2.36,0,4.27,1.92,4.27,4.27v4.9C13.65,13.1,11.74,15.02,9.38,15.02z M4.48,3C2.91,3,1.64,4.28,1.64,5.85v4.9
		c0,1.57,1.28,2.85,2.85,2.85h4.9c1.57,0,2.85-1.28,2.85-2.85v-4.9C12.23,4.28,10.95,3,9.38,3H4.48z"/>
</g>
</svg>
