<?xml version="1.0" encoding="utf-8"?>
<!-- Generator: Adobe Illustrator 23.0.1, SVG Export Plug-In . SVG Version: 6.00 Build 0)  -->
<svg version="1.1" id="Layer_1" xmlns="http://www.w3.org/2000/svg" xmlns:xlink="http://www.w3.org/1999/xlink" x="0px" y="0px"
	 viewBox="0 0 13.86 16.59" style="enable-background:new 0 0 13.86 16.59;" xml:space="preserve">
<style type="text/css">
	.st0{fill:#D4CDCA;}
</style>
<path class="st0" d="M4.04,16.59c1.06-1.47,1.26-3.25,1.75-4.93c0.02,0,0.04,0,0.05,0.02c0.73,0.96,1.73,1.27,2.88,1.18
	c2.01-0.18,3.37-1.29,4.26-3.04C13.73,8.35,14,6.78,13.8,5.16c-0.22-1.82-1.2-3.18-2.73-4.14c-1.3-0.81-2.74-1.09-4.26-1
	C5.53,0.1,4.33,0.39,3.23,1.04C1.55,2.05,0.47,3.5,0.1,5.44c-0.22,1.19-0.1,2.34,0.46,3.43C0.89,9.49,1.36,9.96,2,10.25
	c0.37,0.17,0.55,0.09,0.65-0.29c0.07-0.25,0.13-0.5,0.19-0.75C2.88,9.06,2.89,8.9,2.77,8.77C1.9,7.77,1.87,6.61,2.16,5.4
	c0.49-1.96,2.11-3.36,4.11-3.6c1.06-0.12,2.11-0.05,3.07,0.44c1.23,0.62,1.88,1.65,1.97,3c0.1,1.46-0.13,2.87-0.83,4.19
	c-0.24,0.45-0.56,0.87-0.97,1.18c-0.58,0.44-1.24,0.64-1.97,0.43c-0.82-0.24-1.27-1.02-1.09-1.85C6.66,8.31,6.98,7.46,7.2,6.6
	c0.11-0.41,0.19-0.81,0.17-1.24C7.31,4.24,6.3,3.63,5.29,4.15C4.6,4.49,4.26,5.11,4.09,5.83C3.92,6.59,4,7.33,4.26,8.06
	c0.05,0.13,0.06,0.25,0.03,0.39c-0.44,1.86-0.88,3.73-1.32,5.59c-0.14,0.62-0.16,1.25-0.15,1.89c0.01,0.07,0,0.14,0,0.22"/>
</svg>
