<?xml version="1.0" standalone="no"?>
<!DOCTYPE svg PUBLIC "-//W3C//DTD SVG 1.1//EN" "http://www.w3.org/Graphics/SVG/1.1/DTD/svg11.dtd" >
<svg xmlns="http://www.w3.org/2000/svg" xmlns:xlink="http://www.w3.org/1999/xlink" version="1.1">
<metadata></metadata>
<defs>
<font id="texgyrepagellabold" horiz-adv-x="681" >
<font-face units-per-em="2048" ascent="1520" descent="-528" />
<missing-glyph horiz-adv-x="512" />
<glyph unicode="IJ" horiz-adv-x="1636" d="M94 -6v82l76 6q21 2 32 3t23.5 5.5t17.5 8t11.5 16t8 22t3.5 34t2 45v60.5v836v60.5t-2 45t-3.5 34.5t-7.5 22.5t-11.5 15.5t-18 8t-23.5 6t-32 3l-76 6v82q159 -6 318 -6q160 0 319 6v-82l-76 -6q-21 -2 -32 -3t-23.5 -6t-18 -8t-11.5 -15.5t-7.5 -22.5t-3.5 -34.5 t-2 -45v-60.5v-836v-60.5t2 -45t3.5 -34t8 -22t11.5 -16t17.5 -8t23.5 -5.5t32 -3l76 -6v-82q-159 6 -319 6q-159 0 -318 -6zM803 -244l22 13q1 -1 8.5 -6t14.5 -11q71 -55 119 -55q62 0 87 60t25 206v1149v60.5t-2 45t-3.5 34.5t-7.5 22.5t-11.5 15.5t-18 8t-23.5 6t-32 3 l-76 6v82q159 -6 318 -6q160 0 319 6v-82l-76 -6q-21 -2 -32 -3t-23.5 -6t-18 -8t-11.5 -15.5t-7.5 -22.5t-3.5 -34.5t-2 -45v-60.5v-831q0 -161 -11.5 -240.5t-45.5 -153.5q-65 -137 -194 -230t-253 -93q-27 0 -61 10v182z" />
<glyph unicode="ij" horiz-adv-x="1265" d="M94 -6v76l72 4q48 3 61 26t13 105v448q0 91 -9.5 116t-44.5 28l-92 6v74l31 4q107 15 201 39q25 6 61 17.5t59 19.5l23 8l20 -13v-747q0 -82 13 -105t61 -26l72 -4v-76q-138 6 -277 6q-132 0 -264 -6zM227 1229q0 56 41 95.5t99 39.5q55 0 95 -40.5t40 -96.5 q0 -57 -40 -97t-97 -40t-97.5 40.5t-40.5 98.5zM713 -469l8 12h47q83 0 118.5 88t35.5 291v731q0 91 -9.5 116t-44.5 28l-92 6v74l37 4q100 10 195 39l143 45l20 -13v-751q0 -237 -23.5 -361t-84.5 -215q-55 -82 -124.5 -126t-141.5 -44q-36 0 -64 4zM909 1229q0 56 41 95.5 t99 39.5q55 0 95 -40.5t40 -96.5q0 -57 -40 -97t-97 -40t-97.5 40.5t-40.5 98.5z" />
<glyph unicode="fk" horiz-adv-x="1865" d="M29 -6v76l84 4q57 3 71.5 25t14.5 106v557l-162 -10v49q99 48 162 92v88q0 123 19 171t93 110l152 127q58 49 99 67.5t91 18.5q29 0 86 -13v-65q93 10 166 33l148 45l16 -13v-952q157 133 217 199l219 231h267v-78h-64q-49 0 -98 -37q-57 -42 -129 -101.5t-115 -98.5 l-43 -39l401 -451q54 -59 113 -65v-70h-352q-34 46 -71.5 92.5t-84 100t-75.5 87t-86.5 97.5t-77.5 86h-21v-258q0 -82 13 -105t61 -26l71 -4v-76q-138 6 -276 6q-132 0 -264 -6v76l71 4q48 3 61 26t13 105v958q0 90 -9.5 115.5t-43.5 28.5l-27 2v-45l-32 -15 q-46 29 -75.5 39t-62.5 10q-70 0 -95 -39.5t-25 -148.5v-221q148 0 268 8l8 -16l-23 -119h-253v-557q0 -74 5 -89q11 -31 64 -39q14 -2 33 -3l72 -4v-76q-159 6 -318 6q-138 0 -276 -6z" />
<glyph unicode="ff" horiz-adv-x="1452" d="M70 -6v76l84 4q57 3 71.5 25t14.5 106v557l-162 -10v49q99 48 162 92v88q0 123 19 171t93 110l152 127q58 49 99 67.5t91 18.5q29 0 86 -13v-198l-32 -15q-46 29 -75.5 39t-62.5 10q-70 0 -95.5 -39.5t-25.5 -148.5v-221h406v92q0 122 19.5 170.5t93.5 110.5l151 127 q58 49 99.5 67.5t91.5 18.5q29 0 86 -13v-198l-33 -15q-46 29 -75 39t-62 10q-70 0 -95.5 -39.5t-25.5 -148.5v-221l268 8l8 -16l-22 -119h-254v-557v-19q-1 -66 14.5 -87.5t87.5 -24.5l92 -4v-76q-163 6 -327 6q-143 0 -287 -6v76l84 4q57 3 71.5 25t14.5 106v557h-406 v-557q0 -74 6 -90q11 -31 67 -38q13 -2 30 -3l72 -4v-76q-159 6 -318 6q-138 0 -276 -6z" />
<glyph unicode="fi" horiz-adv-x="1251" d="M20 -6v76l84 4q57 3 71.5 25t14.5 106v557l-161 -10v49q96 47 161 92v88q0 122 19.5 170.5t93.5 110.5l152 127q58 49 99 67.5t91 18.5q29 0 86 -13v-198l-33 -15q-46 29 -75 39t-62 10q-70 0 -95.5 -39.5t-25.5 -148.5v-221h228q136 0 241 31l148 45h16v-760 q0 -82 13 -105t61 -26l72 -4v-76q-138 6 -277 6q-132 0 -264 -6v76l72 4q48 3 60.5 25.5t12.5 105.5v463q0 70 -18.5 101.5t-59.5 31.5h-63l-14 -39h-228v-557q0 -85 13.5 -106.5t68.5 -24.5l72 -4v-76q-141 6 -281 6q-146 0 -293 -6zM829 1229q0 56 41 95.5t99 39.5 q55 0 95 -40.5t40 -96.5q0 -57 -40 -97t-97 -40t-97.5 40.5t-40.5 98.5z" />
<glyph unicode="fl" horiz-adv-x="1251" d="M35 -6v76l84 4q57 3 71.5 25t14.5 106v557l-162 -10v49q99 48 162 92v88q0 123 19 171t93 110l152 127q57 48 97.5 67t84.5 19l60 -7v-75q157 22 217 41l125 41l16 -13v-1257q0 -82 13 -105t61 -26l71 -4v-76q-138 6 -276 6q-132 0 -264 -6v76l71 4q48 3 61 26t13 105 v958q0 91 -9 115.5t-44 28.5l-55 6v-68l-31 -8q-52 61 -119 61q-55 0 -80.5 -45t-25.5 -143v-221q138 0 247 8l9 -16l-23 -119h-233v-557v-20q-1 -66 14.5 -86t87.5 -25l51 -4v-76q-141 6 -280 6q-146 0 -293 -6z" />
<glyph unicode="&#xfb00;i" horiz-adv-x="1988" d="M70 -6v76l84 4q57 3 71.5 25t14.5 106v557l-162 -10v49q99 48 162 92v88q0 123 19 171t93 110l152 127q58 49 99 67.5t91 18.5q29 0 86 -13v-198l-32 -15q-46 29 -75.5 39t-62.5 10q-70 0 -95.5 -39.5t-25.5 -148.5v-221h404v92q0 122 19.5 170.5t93.5 110.5l151 127 q58 49 99.5 67.5t91.5 18.5q29 0 86 -13v-198l-33 -15q-46 29 -75 39t-62 10q-70 0 -95.5 -39.5t-25.5 -148.5v-221h227q137 0 242 31l147 45h17v-760q0 -83 12.5 -105.5t60.5 -25.5l72 -4v-76q-138 6 -276 6q-133 0 -265 -6v76l72 4q48 3 61 26t13 105v463 q0 70 -18.5 101.5t-59.5 31.5h-64l-14 -39h-227v-557q0 -85 13.5 -106.5t68.5 -24.5l71 -4v-76q-141 6 -280 6q-146 0 -293 -6v76l84 4q57 3 71.5 25t14.5 106v557h-404v-557q0 -74 6 -90q11 -31 67 -38q13 -2 30 -3l76 -4v-76q-159 6 -320 6q-140 0 -278 -6zM1532 1229 q0 56 40.5 95.5t98.5 39.5q55 0 95 -40.5t40 -96.5q0 -57 -40 -97t-97 -40t-97 40.5t-40 98.5z" />
<glyph unicode="ffl" horiz-adv-x="1953" d="M70 -6v76l84 4q57 3 71.5 25t14.5 106v557l-162 -10v49q99 48 162 92v88q0 123 19 171t93 110l152 127q58 49 99 67.5t91 18.5q29 0 86 -13v-198l-32 -15q-46 29 -75.5 39t-62.5 10q-70 0 -95.5 -39.5t-25.5 -148.5v-221h418v92q0 122 19.5 170.5t93.5 110.5l151 127 q57 47 98 66.5t85 19.5l59 -7v-75q157 22 217 41l125 41l17 -13v-1257q0 -83 12.5 -105.5t60.5 -25.5l72 -4v-76q-138 6 -277 6q-132 0 -264 -6v76l72 4q48 3 61 26t13 105v958q0 63 -4 91t-14.5 39t-35.5 14l-55 6v-68l-31 -8q-52 61 -118 61q-56 0 -81.5 -45t-25.5 -143 v-221l248 8l8 -16l-22 -119h-234v-557v-18q0 -37 1.5 -52t11 -31t30.5 -21.5t60 -8.5l51 -4v-76q-141 6 -281 6q-146 0 -293 -6v76l84 4q57 3 71.5 25t14.5 106v557h-418v-557q0 -74 6 -90q11 -31 67 -38q13 -2 30 -3l72 -4v-76q-156 6 -316 6q-140 0 -278 -6z" />
<glyph unicode=" "  horiz-adv-x="512" />
<glyph unicode="&#x09;" horiz-adv-x="512" />
<glyph unicode="&#xa0;" horiz-adv-x="512" />
<glyph unicode="!" horiz-adv-x="569" d="M129 133q0 65 48.5 113.5t113.5 48.5q61 0 109.5 -49.5t48.5 -112.5t-48.5 -110.5t-113.5 -47.5q-63 0 -110.5 47t-47.5 111zM139 1319l205 90h105q0 -77 -15 -197l-102 -761l-78 -43l-10 16l-97 733q-6 52 -8 162z" />
<glyph unicode="&#x22;" horiz-adv-x="823" d="M45 1278q0 55 43 100t96 45q54 0 97 -44.5t43 -100.5q0 -12 -2 -18l-91 -490h-94l-90 490q-2 8 -2 18zM500 1278q0 55 43 100t96 45q54 0 96.5 -44.5t42.5 -100.5q0 -12 -2 -18l-90 -490h-94l-90 490q-2 8 -2 18z" />
<glyph unicode="#" horiz-adv-x="1024" d="M8 440v154h236l32 217h-210v154h233l61 413h154l-61 -413h219l59 413h154l-60 -413h191v-154h-213l-33 -217h193v-154h-215l-66 -440h-154l66 440h-221l-66 -440h-153l65 440h-211zM397 594h219l33 217h-219z" />
<glyph unicode="$" horiz-adv-x="1024" d="M57 946q0 193 123 301q53 46 111 72t162 49l-4 109h102l-4 -109q187 -3 338 -68l4 -14q-29 -104 -29 -287h-80q0 91 -6.5 133t-23.5 54q-39 31 -93.5 50.5t-109.5 20.5v-434q140 -27 212.5 -55.5t119.5 -77.5q88 -91 88 -252q0 -127 -56.5 -231.5t-156.5 -167.5 q-46 -28 -89.5 -41.5t-117.5 -24.5l4 -206h-105l7 198q-228 8 -385 82l-7 19q14 131 19 305h84v-82q0 -90 59 -135q99 -69 230 -78v491q-125 17 -192.5 42t-113.5 71q-90 87 -90 266zM266 1034q0 -168 187 -198v421q-80 -6 -133.5 -70t-53.5 -153zM547 82q98 29 149.5 92.5 t51.5 155.5q0 182 -201 217v-465z" />
<glyph unicode="%" horiz-adv-x="1820" d="M125 1096q0 149 94.5 243.5t243.5 94.5q141 0 235.5 -96t94.5 -240q0 -143 -96 -239.5t-238 -96.5q-141 0 -237.5 96.5t-96.5 237.5zM330 1104q0 -142 31.5 -209.5t97.5 -67.5t97.5 66.5t31.5 204.5q0 270 -127 270q-131 0 -131 -264zM479 -18l750 1480h100l-749 -1480 h-101zM1028 334q0 149 94.5 243.5t243.5 94.5q141 0 235.5 -96t94.5 -240q0 -143 -96 -239.5t-238 -96.5q-141 0 -237.5 96.5t-96.5 237.5zM1233 342q0 -142 31.5 -209t97.5 -67t97.5 66t31.5 204q0 270 -127 270q-131 0 -131 -264z" />
<glyph unicode="&#x26;" horiz-adv-x="1705" d="M106 360q0 132 71.5 222.5t246.5 181.5q-38 94 -53 153t-15 113q0 58 22.5 104t82.5 111l71 78q34 36 90.5 57t118.5 21q107 0 171.5 -58t64.5 -155q0 -107 -70.5 -194.5t-253.5 -205.5q94 -139 193.5 -248.5t228.5 -215.5q37 57 51.5 99t14.5 89q0 73 -41 160h-185 q51 94 60 135l342 -10q107 0 297 12l6 -18q-30 -68 -41 -144q-153 15 -289 15q6 -50 6 -76q0 -73 -31 -146.5t-102 -167.5q160 -100 310 -100q11 0 21.5 1t21 5t17 6t18.5 9.5l16 10t18 12t17 11.5l34 23l29 -66q-132 -113 -190 -202l-136 -7q-98 0 -180 31.5t-170 102.5 q-105 -77 -200 -110.5t-211 -33.5q-207 0 -339.5 111t-132.5 284zM350 477q0 -148 109.5 -258t257.5 -110q99 0 186 61q-149 129 -250 246t-198 272q-60 -57 -82.5 -102t-22.5 -109zM543 1114q0 -51 14.5 -101.5t54.5 -140.5q85 57 136 121t51 148q0 60 -33.5 96.5 t-87.5 36.5q-65 0 -100 -42t-35 -118z" />
<glyph unicode="'" horiz-adv-x="464" d="M92 1278q0 55 43 100t96 45q54 0 97 -44.5t43 -100.5q0 -12 -2 -18l-90 -490h-95l-90 490q-2 8 -2 18z" />
<glyph unicode="(" d="M133 629q0 229 80 418q54 129 129 220t229 214l54 -45q-68 -84 -101 -142.5t-61 -142.5q-57 -180 -57 -520q0 -314 43 -470.5t176 -324.5l-50 -49q-153 117 -228.5 206t-131.5 218q-82 186 -82 418z" />
<glyph unicode=")" d="M57 -164q134 170 176.5 325t42.5 470q0 353 -63 536q-28 78 -59.5 132.5t-96.5 136.5l54 45q153 -122 228.5 -214t129.5 -220q80 -189 80 -418q0 -232 -82 -418q-55 -129 -131 -218t-230 -206z" />
<glyph unicode="*" horiz-adv-x="909" d="M90 936l8 14q138 36 281 109q-103 69 -283 121l-6 14q55 87 90 158h33q94 -111 209 -234q27 140 27 291l16 14q84 -31 188 -45l11 -28q-81 -81 -168 -260q30 6 91.5 17t110.5 21.5t86 24.5l13 -6q-2 -18 -2 -41q0 -54 22 -137l-18 -23q-131 53 -316 70q92 -160 164 -242 l-4 -24q-72 -13 -174 -70l-31 14q0 157 -22 297q-50 -36 -106.5 -94.5t-100.5 -120.5l-39 17q-29 85 -80 143z" />
<glyph unicode="+" horiz-adv-x="1241" d="M94 424v176h438v438h177v-438h438v-176h-438v-438h-177v438h-438z" />
<glyph unicode="," horiz-adv-x="512" d="M-12 -313q67 135 111.5 274.5t56.5 249.5q170 44 274 78l35 -33q-55 -120 -118 -231.5t-183 -303.5l-146 -61z" />
<glyph unicode="-" d="M33 416q49 138 69 209h529l18 -21q-48 -107 -65 -205h-535z" />
<glyph unicode="." horiz-adv-x="512" d="M96 133q0 65 49 113.5t113 48.5q61 0 109.5 -49.5t48.5 -112.5t-48.5 -110.5t-113.5 -47.5q-63 0 -110.5 47t-47.5 111z" />
<glyph unicode="/" horiz-adv-x="606" d="M-18 -35l458 1510h185l-459 -1510h-184z" />
<glyph unicode="0" horiz-adv-x="1024" d="M68 618q0 189 23 315t75 216q116 203 379 203q229 0 329 -178q84 -148 84 -461q0 -387 -111.5 -567.5t-350.5 -180.5q-224 0 -326 155t-102 498zM313 762q0 -206 17.5 -364t48.5 -224q50 -106 143 -106q92 0 141.5 115t49.5 333q0 206 -19.5 383.5t-50.5 243.5 q-50 106 -141 106q-87 0 -133 -82q-31 -57 -43.5 -147t-12.5 -258z" />
<glyph unicode="1" horiz-adv-x="1024" d="M72 1165q201 46 612 207l25 -20q-21 -301 -21 -521v-659q0 -90 117 -96l127 -6v-76q-182 6 -363 6q-207 0 -415 -6v76l147 6q117 6 117 96v907v17v19t-0.5 16.5t-2.5 13.5t-5.5 9.5t-9 3.5t-13.5 -3l-287 -133q-28 74 -28 143z" />
<glyph unicode="2" horiz-adv-x="1024" d="M51 -6v104l342 340q240 240 240 469q0 105 -60 167.5t-161 62.5q-68 0 -127.5 -33.5t-71.5 -79.5l-37 -139l-76 6l37 338q88 66 164 94.5t166 28.5q191 0 313.5 -100t122.5 -255q0 -98 -55 -205.5t-156 -207.5l-356 -351l4 -16l618 23l9 -11q-6 -83 -6 -127q0 -59 4 -108 q-237 6 -471 6q-222 0 -443 -6z" />
<glyph unicode="3" horiz-adv-x="1024" d="M45 319l70 19q33 -74 59 -113.5t62 -72.5q85 -72 194 -72q112 0 183 76t71 196q0 115 -70.5 184.5t-187.5 69.5q-70 0 -125 -16l-14 10l39 152h71q105 0 168.5 58.5t63.5 156.5q0 85 -56 134.5t-153 49.5q-94 0 -152.5 -50.5t-87.5 -156.5h-71l63 316q89 51 158.5 71.5 t154.5 20.5q161 0 266 -81.5t105 -207.5q0 -94 -55 -165.5t-174 -133.5q70 -8 109 -19.5t77 -35.5q125 -84 125 -248q0 -135 -78.5 -249t-214 -180.5t-295.5 -66.5q-140 0 -254 49q-46 280 -51 305z" />
<glyph unicode="4" horiz-adv-x="1024" d="M25 418q88 220 205 431t296 472l250 55l15 -24l-13 -590v-256h180l3 -6v-162h-183v-111q0 -142 117 -151l74 -6v-76q-156 6 -316 6q-181 0 -362 -6v76l131 6q57 3 87 41.5t30 109.5v111h-500zM168 506h371v680q-29 -47 -51.5 -79.5t-41.5 -63.5t-61 -109l-127 -238 q-17 -31 -90 -190z" />
<glyph unicode="5" horiz-adv-x="1024" d="M86 285l61 37q108 -238 318 -238q119 0 189.5 75.5t70.5 202.5q0 129 -74 206t-198 77q-132 0 -230 -82l-39 23q13 211 13 254v209q0 87 -13 278l15 16q213 -12 348 -12q63 0 153.5 3t149.5 6l59 3l9 -16q-15 -67 -15 -115q0 -53 2 -86l-12 -22q-178 6 -293 6l-295 -6 l-8 -318q89 40 145 55t121 15q186 0 295 -100.5t109 -270.5q0 -142 -78 -262t-213 -189t-295 -69q-127 0 -231 45q-11 60 -64 275z" />
<glyph unicode="6" horiz-adv-x="1024" d="M76 541q0 432 305 667q101 77 195 109t235 35l80 -56l-31 -32q-18 2 -43 2q-111 0 -207 -50.5t-157 -142.5q-48 -71 -72.5 -162t-36.5 -243q73 94 140.5 132t158.5 38q146 0 232 -104t86 -281q0 -218 -123.5 -353t-321.5 -135q-222 0 -334 158q-50 71 -78 181.5 t-28 236.5zM338 406q0 -155 54.5 -246.5t146.5 -91.5q86 0 133 74t47 208q0 140 -55 226t-144 86q-182 0 -182 -256z" />
<glyph unicode="7" horiz-adv-x="1024" d="M94 1327l21 16l202 -4q110 -2 183 -4t91 -2.5t36.5 -1t31 -0.5h62.5l289 6v-92q-79 -125 -191 -352l-225 -459q-41 -83 -96.5 -223.5t-79.5 -216.5q-56 6 -113 6t-112 -6l-13 22l615 1061l-9 13h-460q-73 0 -97.5 -20t-31.5 -87l-17 -131h-80l2 184z" />
<glyph unicode="8" horiz-adv-x="1024" d="M70 317q0 217 239 338q-111 65 -158 138.5t-47 181.5q0 170 117.5 273.5t310.5 103.5q166 0 264.5 -79.5t98.5 -213.5q0 -86 -43.5 -151.5t-149.5 -137.5q63 -26 97.5 -49.5t68.5 -61.5q88 -101 88 -243q0 -193 -136.5 -322t-340.5 -129q-181 0 -295 98.5t-114 253.5z M252 350q0 -120 73 -199t183 -79q95 0 159 67t64 168q0 87 -49 146t-164 110l-125 55q-80 -71 -110.5 -129t-30.5 -139zM315 1063q0 -73 45 -123t152 -96l90 -39q66 57 93.5 107t27.5 114q0 98 -59 158.5t-154 60.5q-88 0 -141.5 -49.5t-53.5 -132.5z" />
<glyph unicode="9" horiz-adv-x="1024" d="M63 874q0 221 119.5 349.5t325.5 128.5q215 0 327.5 -142t112.5 -411q0 -270 -119.5 -477t-330.5 -299q-67 -30 -124 -41.5t-159 -16.5l-78 60l19 36q44 -6 63 -6q42 0 104 17t105 41q71 38 124.5 111t82.5 171q27 84 43 250l-129 -113q-57 -49 -150 -49 q-161 0 -248.5 101.5t-87.5 289.5zM305 975q0 -146 55 -229.5t152 -83.5q91 0 133.5 60t42.5 187q0 162 -50 249t-144 87q-89 0 -139 -71.5t-50 -198.5z" />
<glyph unicode=":" horiz-adv-x="512" d="M96 133q0 65 49 113.5t113 48.5q61 0 109.5 -49.5t48.5 -112.5t-48.5 -110.5t-113.5 -47.5q-63 0 -110.5 47t-47.5 111zM96 768q0 64 49 113t113 49q61 0 109.5 -49.5t48.5 -112.5t-48.5 -110.5t-113.5 -47.5q-63 0 -110.5 47t-47.5 111z" />
<glyph unicode=";" horiz-adv-x="512" d="M-12 -313q67 135 111.5 274.5t56.5 249.5q170 44 274 78l35 -33q-55 -120 -118 -231.5t-183 -303.5l-146 -61zM143 768q0 64 48.5 113t113.5 49q61 0 109.5 -49.5t48.5 -112.5t-48.5 -110.5t-113.5 -47.5q-63 0 -110.5 47t-47.5 111z" />
<glyph unicode="&#x3c;" horiz-adv-x="1241" d="M150 432v160l903 436v-197l-662 -319l662 -319v-197z" />
<glyph unicode="=" horiz-adv-x="1241" d="M94 250v176h1053v-176h-1053zM94 598v176h1053v-176h-1053z" />
<glyph unicode="&#x3e;" horiz-adv-x="1241" d="M150 -4v197l661 319l-661 319v197l903 -436v-160z" />
<glyph unicode="?" horiz-adv-x="909" d="M88 1036q58 176 66 273q81 55 149 76.5t158 21.5q174 0 277.5 -87.5t103.5 -234.5q0 -86 -32 -146t-114 -128l-157 -131q-127 -106 -127 -186q0 -36 18 -76l2 -4l-70 -29q-53 67 -53 152q0 54 29 110.5t100 143.5q72 87 100.5 141t28.5 108q0 72 -56 121t-140 49 q-54 0 -96.5 -13.5t-51.5 -33.5l-63 -145zM238 131q0 65 48.5 114.5t112.5 49.5q61 0 109.5 -49.5t48.5 -112.5t-48.5 -110.5t-111.5 -47.5q-64 0 -111.5 46.5t-47.5 109.5z" />
<glyph unicode="@" horiz-adv-x="1529" d="M86 674q0 200 94.5 365.5t258.5 260.5t362 95q177 0 324.5 -76t232 -209t84.5 -293q0 -107 -39.5 -207t-110.5 -174q-69 -69 -153.5 -112t-153.5 -43q-60 0 -96 43t-45 125q-67 -92 -117.5 -124t-124.5 -32q-114 0 -184 76.5t-70 199.5q0 118 58.5 224t156.5 169.5 t207 63.5q136 0 166 -147l33 131h192l-151 -561q-26 -101 30 -101q71 0 164 113q63 75 98 171t35 193q0 126 -69 230.5t-190 164.5t-267 60q-173 0 -312.5 -77t-218.5 -213t-79 -304q0 -170 80.5 -306t223 -213t320.5 -77q120 0 219 45q80 35 133.5 81t122.5 138h132 q-44 -76 -76 -117t-80 -83q-203 -179 -473 -179q-149 0 -282 54.5t-228 147.5t-151 222.5t-56 274.5zM543 496q0 -63 28 -103.5t72 -40.5q86 0 164 140q40 69 65 162.5t25 170.5q0 60 -25.5 98.5t-68.5 41.5q-58 4 -119 -67t-101 -182.5t-40 -219.5z" />
<glyph unicode="A" horiz-adv-x="1593" d="M49 -6v76l62 6q66 6 114 123l371 897l117 309h145l531 -1239q20 -44 44.5 -64t67.5 -26l49 -6v-76q-164 6 -323 6q-156 0 -312 -6v76l109 6q19 1 29 14t10.5 31.5t-2.5 35t-8 31.5l-92 234h-515l-86 -229q-7 -24 -8.5 -49.5t14 -45.5t44.5 -22l102 -6v-76q-117 6 -231 6 q-115 0 -232 -6zM496 537h417l-213 520z" />
<glyph unicode="B" horiz-adv-x="1366" d="M80 1319v76q173 -6 344 -6q65 0 196.5 3t196.5 3q387 0 387 -277q0 -124 -78 -196q-47 -44 -106 -74t-189 -76q122 -7 187 -24t121 -56q54 -38 83 -103t29 -147q0 -96 -49.5 -181t-128.5 -142.5t-178 -91t-199 -33.5q-144 6 -290 6q-130 0 -259 -6v47l66 37q23 12 32 38 t9 79v917q0 50 -0.5 77t-4.5 52.5t-9 36t-18 19.5t-26.5 11.5t-39.5 4.5zM543 115q53 -9 88 -9q163 0 238 74t75 234q0 157 -81 228t-259 71h-61v-598zM543 819h61q155 0 226 60.5t71 193.5q0 114 -57.5 166.5t-181.5 52.5q-54 0 -119 -8v-465z" />
<glyph unicode="C" horiz-adv-x="1478" d="M90 711q0 329 227 520.5t615 191.5q135 0 238 -20.5t241 -75.5l12 -22q-21 -91 -47 -314h-80l-10 176q-84 77 -166 109.5t-198 32.5q-244 0 -384.5 -153t-140.5 -417q0 -290 163 -465.5t433 -175.5q201 0 400 105l24 -25l-45 -100q-114 -63 -216.5 -88t-244.5 -25 q-379 0 -600 201t-221 545z" />
<glyph unicode="D" horiz-adv-x="1705" d="M72 1319v76q166 -6 331 -6q82 0 245 3t245 3q206 0 337.5 -40t221.5 -130q158 -155 158 -455q0 -332 -213 -539q-115 -114 -276.5 -175.5t-344.5 -61.5q-53 0 -159.5 3t-159.5 3q-159 0 -318 -6v47l66 37q23 12 32 38.5t9 78.5v917q0 60 -2 90t-6 55t-17 34.5t-28 14 t-46 7.5zM535 117q70 -11 139 -11q172 0 287 35.5t192 110.5q150 150 150 461q0 299 -136 432q-150 147 -503 147q-64 0 -129 -8v-1167z" />
<glyph unicode="E" horiz-adv-x="1251" d="M80 1319v76q193 -6 389 -6q81 0 241.5 3t241.5 3t195 -6l12 -15l-29 -291h-73l-17 154q-1 17 -58 28t-142 11l-297 -6v-492q41 -4 137 -4h135q64 0 89 9t28 34l12 117h82q-6 -111 -6 -219q0 -110 6 -221h-82l-12 102q-5 40 -32 58t-85 18h-135q-52 0 -137 -6v-547l305 -6 q70 0 137 11t70 23l47 193h80l-23 -324l-10 -16q-117 -6 -287 -6q-77 0 -231.5 3t-231.5 3q-126 0 -252 -6v47l66 37q23 12 32 38t9 79v917q0 50 -0.5 77t-4.5 52.5t-9 36t-18 19.5t-26.5 11.5t-39.5 4.5z" />
<glyph unicode="F" horiz-adv-x="1138" d="M57 -6v82l76 6q21 2 32 3t23.5 5.5t17.5 8t11.5 16t8 22t3.5 34t2 45v60.5v836q0 50 -0.5 77t-4.5 52.5t-9 36t-18 19.5t-26.5 11.5t-39.5 4.5l-76 6v76q182 -6 365 -6q79 0 237.5 3t237.5 3q117 0 195 -6l12 -15l-29 -291h-74l-16 154q-3 39 -227 39l-238 -6v-498 q41 -4 137 -4h105q64 0 89 9t28 34l12 109h82q-6 -105 -6 -211q0 -111 6 -222h-82l-12 103q-5 40 -32 58t-85 18h-105q-37 0 -137 -7v-383q0 -51 0.5 -77t4.5 -51.5t8.5 -34.5t17.5 -17.5t26.5 -10t40.5 -3.5l97 -6v-82q-169 6 -340 6q-159 0 -318 -6z" />
<glyph unicode="G" horiz-adv-x="1705" d="M96 709q0 331 227.5 522.5t620.5 191.5q151 0 273.5 -22t261.5 -74l12 -22q-21 -91 -47 -314h-80l-10 176q-149 142 -420 142q-250 0 -390.5 -153t-140.5 -423q0 -292 152 -472.5t399 -180.5q124 0 260 51v270q0 40 -25.5 56.5t-90.5 19.5l-109 4v84q147 -6 293 -6 q154 0 307 6v-69q-56 -12 -70 -24.5t-14 -49.5v-334q-184 -69 -318 -96t-290 -27q-364 0 -582.5 203t-218.5 541z" />
<glyph unicode="H" horiz-adv-x="1705" d="M74 -6v82l76 6q21 2 32 3t23.5 5.5t17.5 8t11.5 16t8 22t3.5 34t2 45v60.5v836v60.5t-2 45t-3.5 34.5t-7.5 22.5t-11.5 15.5t-18 8t-23.5 6t-32 3l-76 6v82q159 -6 317 -6q161 0 320 6v-82l-76 -6q-21 -2 -32 -3t-23.5 -6t-18 -8t-11.5 -15.5t-7.5 -22.5t-3.5 -34.5 t-2 -45v-60.5v-324q47 -4 165 -4h299q117 0 166 4v324v60.5t-2 45t-3.5 34.5t-7.5 22.5t-11.5 15.5t-18 8t-23.5 6t-32 3l-76 6v82q159 -6 318 -6q160 0 319 6v-82l-76 -6q-21 -2 -32 -3t-23.5 -6t-18 -8t-11.5 -15.5t-7.5 -22.5t-3.5 -34.5t-2 -45v-60.5v-836v-60.5t2 -45 t3.5 -34t8 -22t11.5 -16t17.5 -8t23.5 -5.5t32 -3l76 -6v-82q-159 6 -319 6q-159 0 -318 -6v82l76 6q21 2 32 3t23.5 5.5t17.5 8t11.5 16t8 22t3.5 34t2 45v60.5v390l-166 4h-299l-165 -4v-390v-60.5t2 -45t3.5 -34t8 -22t11.5 -16t17.5 -8t23.5 -5.5t32 -3l76 -6v-82 q-159 6 -320 6q-158 0 -317 -6z" />
<glyph unicode="I" horiz-adv-x="796" d="M80 -6v82l76 6q21 2 32 3t23.5 5.5t17.5 8t11.5 16t8 22t3.5 34t2 45v60.5v836v60.5t-2 45t-3.5 34.5t-7.5 22.5t-11.5 15.5t-18 8t-23.5 6t-32 3l-76 6v82q159 -6 317 -6q161 0 320 6v-82l-76 -6q-21 -2 -32 -3t-23.5 -6t-18 -8t-11.5 -15.5t-7.5 -22.5t-3.5 -34.5 t-2 -45v-60.5v-836v-60.5t2 -45t3.5 -34t8 -22t11.5 -16t17.5 -8t23.5 -5.5t32 -3l76 -6v-82q-159 6 -320 6q-158 0 -317 -6z" />
<glyph unicode="J" horiz-adv-x="796" d="M-23 -244l23 13q1 -1 8.5 -6t14.5 -11q71 -55 118 -55q62 0 87.5 60t25.5 206v1149v60.5t-2 45t-3.5 34.5t-7.5 22.5t-11.5 15.5t-18 8t-23.5 6t-32 3l-76 6v82q159 -6 317 -6q161 0 320 6v-82l-76 -6q-21 -2 -32 -3t-23.5 -6t-18 -8t-11.5 -15.5t-7.5 -22.5t-3.5 -34.5 t-2 -45v-60.5v-831q0 -160 -12 -240t-46 -154q-65 -137 -193.5 -230t-252.5 -93q-28 0 -62 10v182z" />
<glyph unicode="K" horiz-adv-x="1593" d="M80 -6v82l76 6q21 2 32 3t23.5 5.5t17.5 8t11.5 16t8 22t3.5 34t2 45v60.5v836v60.5t-2 45t-3.5 34.5t-7.5 22.5t-11.5 15.5t-18 8t-23.5 6t-32 3l-76 6v82q159 -6 317 -6q161 0 320 6v-82l-76 -6q-21 -2 -32 -3t-23.5 -6t-18 -8t-11.5 -15.5t-7.5 -22.5t-3.5 -34.5 t-2 -45v-60.5v-410l403 396q193 193 193 245v52q92 -6 186 -6q95 0 186 6v-80q-96 -7 -142 -21.5t-83 -48.5l-455 -424l545 -641q47 -55 88.5 -77.5t98.5 -24.5v-84q-105 6 -207 6q-104 0 -209 -6l-426 510q-82 100 -109 125.5t-69 50.5v-404v-60.5t2 -45t3.5 -34t8 -22 t11.5 -16t17.5 -8t23.5 -5.5t32 -3l76 -6v-82q-159 6 -320 6q-158 0 -317 -6z" />
<glyph unicode="L" horiz-adv-x="1251" d="M80 1313v82q159 -6 317 -6q161 0 320 6v-82l-76 -6q-21 -2 -32 -3t-23.5 -6t-18 -8t-11.5 -15.5t-7.5 -22.5t-3.5 -34.5t-2 -45v-60.5v-993l313 -6q66 0 131 11t68 23l47 209h80l-23 -340l-10 -16q-117 -6 -287 -6q-77 0 -231.5 3t-231.5 3q-126 0 -252 -6v47l66 37 q23 12 32 38t9 79v917v60.5t-2 45t-3.5 34.5t-7.5 22.5t-11.5 15.5t-18 8t-23.5 6t-32 3z" />
<glyph unicode="M" horiz-adv-x="2048" d="M66 -6v76l75 6q26 2 39.5 4.5t26.5 11.5t18 19t9.5 35t5 52.5t0.5 77.5v836q0 60 -2 90t-6 55t-17 34.5t-28 14t-46 7.5l-75 6v76q123 -6 245 -6q123 0 246 6l154 -330l323 -676l375 774l100 232q117 -6 236 -6q117 0 237 6v-76l-75 -6q-31 -3 -46 -7.5t-28 -14 t-17 -34.5t-6 -55t-2 -90v-836v-78t4.5 -51t8.5 -34t18 -17t27 -10.5t41 -3.5l75 -6v-82q-159 6 -319 6q-158 0 -317 -6v82l75 6q28 2 41 3.5t27 10.5t18 17t8.5 34t4.5 51v78v852l-422 -878q-74 -152 -123 -270h-70q-28 68 -74 170l-471 980v-854q0 -50 0.5 -78t5 -53 t9.5 -35t18 -18.5t26.5 -11t39.5 -4.5l76 -6v-76q-117 6 -234 6q-118 0 -235 -6z" />
<glyph unicode="N" horiz-adv-x="1705" d="M72 -6v76l75 6q26 2 39.5 4.5t26.5 11.5t18 19t9.5 35t5 52.5t0.5 77.5v836q0 60 -2 90t-6 55t-17 34.5t-28 14t-46 7.5l-75 6v76q123 -6 245 -6q86 0 172 6q173 -229 211 -273l639 -745v735q0 50 -0.5 77t-4.5 52.5t-9 36t-18 19.5t-26.5 11.5t-39.5 4.5l-76 6v76 q117 -6 236 -6q116 0 233 6v-76l-75 -6q-31 -3 -46 -7.5t-28 -14t-17 -34.5t-6 -55t-2 -90v-930l6 -207l-14 -8l-168 27l-250 285l-667 802v-805q0 -51 0.5 -78t4.5 -52.5t9 -35.5t18 -18.5t26.5 -11t39.5 -4.5l76 -6v-76q-117 6 -234 6q-118 0 -235 -6z" />
<glyph unicode="O" horiz-adv-x="1705" d="M96 680q0 352 206.5 547.5t578.5 195.5q347 0 539 -188t192 -526q0 -350 -205.5 -547t-572.5 -197q-352 0 -545 187t-193 528zM403 727q0 -177 46 -318t129 -223q106 -106 270 -106q224 0 340.5 149t116.5 437q0 174 -46 314.5t-131 223.5q-108 105 -266 105 q-195 0 -315 -117q-69 -69 -106.5 -189t-37.5 -276z" />
<glyph unicode="P" horiz-adv-x="1251" d="M80 -6v82l76 6q21 2 32 3t23.5 5.5t17.5 8t11.5 16t8 22t3.5 34t2 45v60.5v836q0 50 -0.5 77t-4.5 52.5t-9 36t-18 19.5t-26.5 11.5t-39.5 4.5l-76 6v76q178 -6 354 -6q66 0 198 3t197 3q67 0 134.5 -20t124.5 -56.5t93 -97t36 -134.5q0 -186 -131.5 -310t-329.5 -124 q-22 0 -119 15v80h37h37q97 0 154 73.5t57 196.5q0 274 -256 274q-76 0 -123 -18v-998q0 -51 0.5 -77t4.5 -51.5t8.5 -34.5t17.5 -17.5t26.5 -10t40.5 -3.5l96 -6v-82q-169 6 -338 6q-160 0 -319 -6z" />
<glyph unicode="Q" horiz-adv-x="1705" d="M96 678q0 352 205.5 548.5t572.5 196.5q352 0 545 -186.5t193 -527.5q0 -399 -271 -598q-190 -142 -532 -142q-16 -2 -43 -2q133 -28 205 -53l246 -86q127 -45 219 -45q7 0 14 1t13 1.5t15.5 3t15 4.5t18 6t18.5 6t22.5 8t24.5 9l22 8v-76l-210 -131q-69 0 -148 21 l-407 110q-91 25 -128 32t-75 7q-37 0 -81.5 -20.5t-117.5 -71.5l-22 63q114 91 181 133t148 72q-136 17 -214 41.5t-152 73.5q-135 89 -206 240.5t-71 353.5zM403 727q0 -177 46 -318t129 -223q106 -106 270 -106q224 0 340.5 149t116.5 437q0 174 -46 314.5t-131 223.5 q-108 105 -266 105q-195 0 -315 -117q-69 -69 -106.5 -189t-37.5 -276z" />
<glyph unicode="R" horiz-adv-x="1478" d="M80 -6v82l76 6q21 2 32 3t23.5 5.5t17.5 8t11.5 16t8 22t3.5 34t2 45v60.5v836q0 50 -0.5 77t-4.5 52.5t-9 36t-18 19.5t-26.5 11.5t-39.5 4.5l-76 6v76q182 -6 364 -6q68 0 204 3t204 3q389 0 389 -301q0 -124 -88 -226q-43 -46 -88 -75.5t-129 -63.5l371 -561 q32 -49 58.5 -65t84.5 -27v-82q-99 6 -199 6q-93 0 -184 -6l-430 700v47q114 0 178 39q63 37 99 103t36 147q0 125 -75 193.5t-211 68.5q-78 0 -121 -18v-998v-60.5t2 -45t3.5 -34t8 -22t11.5 -16t17.5 -8t23.5 -5.5t32 -3l76 -6v-82q-159 6 -320 6q-158 0 -317 -6z" />
<glyph unicode="S" horiz-adv-x="1251" d="M117 59q30 153 30 355h82l15 -181q49 -72 140.5 -114.5t195.5 -42.5q132 0 219.5 75t87.5 189q0 145 -170 197l-287 86q-145 43 -222 136t-77 224q0 207 143.5 323.5t399.5 116.5q194 0 379 -69l10 -25q-29 -95 -29 -291h-84l-12 168q-116 113 -279 113 q-123 0 -198.5 -66.5t-75.5 -173.5q0 -78 51.5 -127t165.5 -80l234 -61q309 -81 309 -360q0 -223 -163.5 -354.5t-438.5 -131.5q-117 0 -214.5 21.5t-211.5 72.5z" />
<glyph unicode="T" horiz-adv-x="1366" d="M35 1384l12 11q320 -6 637 -6q318 0 635 6l12 -11q-21 -128 -26 -325h-82l-11 141q-6 16 -11.5 26.5t-10 18.5t-12 12.5l-12.5 7.5t-17.5 3.5t-20.5 0.5t-27.5 -0.5t-33.5 -0.5h-240v-992v-78t4.5 -51t8.5 -34t18 -17t27 -10.5t41 -3.5l75 -6v-82q-159 6 -319 6 q-158 0 -317 -6v82l75 6q28 2 41 3.5t27 10.5t18 17t8.5 34t4.5 51v78v992h-240q-6 0 -31.5 0.5t-34 0t-27.5 -4t-27 -10.5t-16 -20.5t-9 -33.5l-11 -141h-82q-8 217 -26 325z" />
<glyph unicode="U" horiz-adv-x="1593" d="M53 1319v76q159 -6 318 -6q160 0 319 6v-76l-76 -6q-26 -2 -39.5 -4.5t-26.5 -11.5t-18 -19.5t-9 -36t-4.5 -52.5t-0.5 -77v-508q0 -160 16.5 -242.5t57.5 -132.5q80 -96 287 -96q203 0 288 88q53 54 75 144.5t22 252.5v494q0 60 -2 90t-6 55t-17 34.5t-28 14t-46 7.5 l-76 6v76q117 -6 236 -6q116 0 233 6v-76l-75 -6q-31 -3 -46 -7.5t-28 -14t-17 -34.5t-6 -55t-2 -90v-598q0 -278 -143 -413.5t-438 -135.5q-264 0 -419 107t-155 290v750q0 50 -0.5 77t-4.5 52.5t-9 36t-18 19.5t-26.5 11.5t-39.5 4.5z" />
<glyph unicode="V" horiz-adv-x="1593" d="M41 1319v76q163 -6 324 -6q165 0 331 6v-76l-102 -6q-21 -1 -37 -13t-16 -26q0 -30 6 -52t37 -96l321 -792l291 723q64 162 64 203q0 47 -76 53l-94 6v76q117 -6 235 -6t238 6v-76l-66 -6q-32 -3 -54 -24.5t-42 -71.5l-426 -1020q-17 -38 -43 -109.5t-35 -93.5h-156 l-489 1171q-32 79 -60.5 112t-66.5 36z" />
<glyph unicode="W" horiz-adv-x="2048" d="M35 1319v76q159 -6 319 -6q137 0 275 6v-76l-86 -6q-25 -1 -43.5 -16.5t-18.5 -34.5q0 -27 6 -54l168 -784l308 727q32 76 45.5 109t26 64.5t32.5 80.5h92q62 -178 101 -272l280 -703l199 774q8 31 8 62q0 44 -72 47l-94 6v76q108 -6 217 -6q111 0 225 6v-76l-67 -6 q-26 -3 -47 -37t-41 -105l-250 -884l-68 -293h-149q-10 26 -36 100t-42 115l-305 768l-318 -727l-96 -256h-143l-285 1233q-17 80 -76 86z" />
<glyph unicode="X" horiz-adv-x="1366" d="M35 0v70l63 6q18 1 37.5 12t30.5 25l407 534l-192 340q-38 68 -89.5 141t-86.5 111q-37 37 -84 37q-26 0 -66 -12l-10 84l375 75q44 -34 75 -72.5t74 -113.5l195 -346l338 498h227v-70l-57 -6q-30 -3 -47.5 -16.5t-50.5 -57.5l-349 -459q179 -310 300 -519l30 -51l-2 1 q44 -76 69 -103.5t58 -31.5l51 -6v-76q-99 6 -194 6q-98 0 -197 -6l-305 545l-287 -412q-25 -38 -74 -127h-239z" />
<glyph unicode="Y" horiz-adv-x="1366" d="M31 1274v76l325 73q71 -42 122 -102t112 -176l219 -416l385 660h158v-39l-361 -535q-50 -75 -108 -205v-334v-60.5t2 -45t3.5 -34t8 -22t11.5 -16t17.5 -8t23.5 -5.5t32 -3l76 -6v-82q-159 6 -320 6q-158 0 -317 -6v82l76 6q21 2 32 3t23.5 5.5t17.5 8t11.5 16t8 22 t3.5 34t2 45v60.5v285q-49 109 -90 174l-207 334q-80 130 -132 167.5t-134 37.5z" />
<glyph unicode="Z" horiz-adv-x="1366" d="M49 -6v78q133 169 213 284l627 914h-455q-109 0 -139 -15.5t-39 -78.5l-16 -113h-76v332q279 -6 557 -6q279 0 555 6v-72q-102 -124 -170 -225l-666 -981h566q78 0 117.5 19.5t47.5 60.5l31 159h82q-30 -170 -33 -362q-292 6 -581 6q-310 0 -621 -6z" />
<glyph unicode="[" d="M150 -213q12 237 12 598v449q0 172 -3 332t-6 234l-3 75q86 -5 141 -5l305 5v-78h-100q-77 0 -115 -45q-9 -12 -11.5 -49t-2.5 -154v-1051q0 -120 1.5 -145t8.5 -37q12 -22 46.5 -36.5t72.5 -14.5h100v-78q-186 4 -305 4z" />
<glyph unicode="\" horiz-adv-x="1241" d="M147 1475h185l762 -1475h-185z" />
<glyph unicode="]" d="M86 -135h100q38 0 72.5 14.5t46.5 36.5q7 12 8.5 37t1.5 145v1051q0 117 -2.5 154t-11.5 49q-38 45 -115 45h-100v78q186 -5 305 -5l141 5q-12 -255 -12 -641v-449q0 -161 3 -310.5t6 -218.5l3 -69q-86 4 -141 4l-305 -4v78z" />
<glyph unicode="^" horiz-adv-x="1241" d="M106 563l422 826h185l422 -826h-195l-319 602l-320 -602h-195z" />
<glyph unicode="_" horiz-adv-x="1024" d="M0 -154h1024v-102h-1024v102z" />
<glyph unicode="`" d="M35 1325q0 41 25 65.5t65 24.5q66 0 133 -76l264 -303h-114l-285 176q-50 31 -69 55.5t-19 57.5z" />
<glyph unicode="a" horiz-adv-x="1024" d="M82 219q0 130 78 198.5t272 108.5l180 37q-4 126 -55 184t-154 58q-41 0 -77 -9t-41 -20l-45 -102l-62 14v141l109 66q116 70 245 70q155 0 241.5 -77t86.5 -212v-475q0 -72 11.5 -97t46.5 -28l61 -6v-76q-88 6 -180 6q-95 0 -187 -6l-10 16l10 127l-190 -147 q-31 -25 -100 -25q-117 0 -178.5 65t-61.5 189zM332 272q0 -60 27.5 -94.5t76.5 -34.5q45 0 95 26.5t81 66.5v241l-92 -24q-109 -29 -148.5 -67.5t-39.5 -113.5z" />
<glyph unicode="b" horiz-adv-x="1251" d="M20 1313v73q155 16 248 44l148 45l16 -13v-678l125 101q54 43 102.5 61.5t108.5 18.5q163 0 267 -110t104 -280q0 -118 -46.5 -227t-123.5 -172q-89 -73 -234 -160q-86 -51 -178 -51q-128 0 -268 76l-80 -66l-45 17q18 163 18 340v831q0 91 -9.5 116.5t-43.5 27.5z M432 217q80 -113 207 -113q112 0 177 94.5t65 254.5q0 154 -67 240.5t-185 86.5q-129 0 -197 -102v-461z" />
<glyph unicode="c" horiz-adv-x="909" d="M76 469q0 133 55.5 220t192.5 169l106 64q73 43 184 43q56 0 98.5 -8t112.5 -33l15 -27q-27 -134 -41 -289h-74l-14 123q-5 36 -58 62t-123 26q-98 0 -149 -72t-51 -212q0 -197 86.5 -310.5t238.5 -113.5q80 0 174 39l19 -21l-43 -94q-132 -70 -275 -70 q-221 0 -337.5 129.5t-116.5 374.5z" />
<glyph unicode="d" horiz-adv-x="1251" d="M86 444q0 259 172 371l148 96q85 54 180 54q77 0 164 -35l41 -17v250q0 90 -10 116t-44 28l-108 6v73q155 16 248 44l147 45l16 -13v-1257q0 -82 13 -105t61 -26l68 -4v-76q-105 6 -207 6q-93 0 -184 -6l-11 16l11 154l-213 -174q-31 -25 -101 -25q-180 0 -285.5 129.5 t-105.5 349.5zM344 522q0 -166 64.5 -264t173.5 -98q85 0 147 49.5t62 118.5v377q-100 129 -230 129q-217 0 -217 -312z" />
<glyph unicode="e" horiz-adv-x="1024" d="M86 463q0 147 46.5 242t148.5 155l96 58q78 47 178 47q178 0 283.5 -98t105.5 -263v-106q-165 -41 -323 -41h-269q3 -74 14 -118t37 -87q38 -64 107.5 -102.5t146.5 -38.5q63 0 116.5 15.5t125.5 55.5l25 -30l-45 -99q-100 -51 -167.5 -69.5t-156.5 -18.5 q-230 0 -349.5 127t-119.5 371zM340 565l66 -2q32 -1 52 -2t24.5 -1.5t8 -0.5h6h15.5l172 6q0 151 -40.5 218t-129.5 67q-90 0 -132 -67t-42 -218z" />
<glyph unicode="f" horiz-adv-x="796" d="M70 -6v76l84 4q57 3 71.5 25t14.5 106v557l-162 -10v49q99 48 162 92v88q0 123 19 171t93 110l152 127q58 49 99 67.5t91 18.5q29 0 86 -13v-198l-32 -15q-46 29 -75.5 39t-62.5 10q-70 0 -95.5 -39.5t-25.5 -148.5v-221q149 0 269 8l8 -16l-23 -119h-254v-557 q0 -63 7 -94q5 -15 31 -25.5t65 -11.5l92 -4v-76q-164 6 -328 6q-142 0 -286 -6z" />
<glyph unicode="g" horiz-adv-x="1138" d="M53 -254q0 41 15 77.5t38 49.5l166 98q-76 20 -107.5 51t-31.5 87q0 31 10 59.5t25 38.5l145 110q-54 19 -83 36t-58 48q-76 82 -76 197q0 161 124.5 264t320.5 103q190 0 311 -88q49 -3 74 -3q52 0 168 11l-11 -131l-157 8q10 -49 10 -96q0 -148 -90 -238 q-63 -63 -157 -97t-200 -34q-7 0 -81 4q-60 -37 -60 -80q0 -61 88 -61h8l299 8h50q155 0 229 -62.5t74 -191.5q0 -204 -166 -331.5t-434 -127.5q-203 0 -323 79t-120 212zM246 -229q0 -95 83.5 -154t219.5 -59q137 0 228 70.5t91 176.5q0 67 -26.5 101.5t-91.5 48.5t-193 14 q-162 0 -207 -22q-46 -22 -75 -70.5t-29 -105.5zM348 637q0 -115 46 -180.5t126 -65.5q164 0 164 221q0 122 -43 186t-125 64q-168 0 -168 -225z" />
<glyph unicode="h" horiz-adv-x="1251" d="M49 -6v76l72 4q48 3 61 26t13 105v958q0 91 -9.5 116t-44.5 28l-92 6v73q148 19 232 44l147 45l16 -13v-663l164 127q48 39 144 39q154 0 237 -86q40 -43 56 -108.5t16 -184.5v-381q0 -82 13 -105t61 -26l67 -4v-76q-105 6 -207 6q-93 0 -184 -6v557q0 124 -46 180.5 t-147 56.5q-68 0 -121 -42.5t-53 -96.5v-444q0 -82 13 -105t61 -26l72 -4v-76q-138 6 -277 6q-132 0 -264 -6z" />
<glyph unicode="i" d="M70 -6v76l71 4q48 3 61 26t13 105v448q0 91 -9 116t-44 28l-92 6v74l30 4q107 15 201 39q25 6 61 17.5t59 19.5l23 8l21 -13v-747q0 -82 13 -105t61 -26l71 -4v-76q-138 6 -276 6q-132 0 -264 -6zM203 1229q0 56 40.5 95.5t98.5 39.5q55 0 95 -40.5t40 -96.5 q0 -57 -40 -97t-97 -40t-97 40.5t-40 98.5z" />
<glyph unicode="j" d="M6 -469l8 12h47q83 0 118.5 88t35.5 291v731q0 91 -9 116t-44 28l-92 6v74l36 4q100 10 195 39l143 45l21 -13v-751q0 -236 -23.5 -360.5t-85.5 -215.5q-55 -82 -124.5 -126t-141.5 -44q-35 0 -63 4zM203 1229q0 56 40.5 95.5t98.5 39.5q55 0 95 -40.5t40 -96.5 q0 -57 -40 -97t-97 -40t-97 40.5t-40 98.5z" />
<glyph unicode="k" horiz-adv-x="1251" d="M43 1313v73q155 16 248 44l147 45l17 -13v-952q143 122 217 199l219 231h266v-78h-63q-50 0 -99 -37q-57 -42 -128.5 -101.5t-114.5 -98.5l-43 -39l401 -451q54 -59 113 -65v-70h-353q-21 26 -55 67.5t-43 52t-31.5 38.5t-26.5 32.5t-23.5 27.5t-26 30t-30 34t-40 45.5 t-51.5 58t-68 77.5h-20v-258q0 -83 12.5 -105.5t60.5 -25.5l72 -4v-76q-138 6 -276 6q-133 0 -265 -6v76l72 4q48 3 61 26t13 105v958q0 91 -9.5 116.5t-43.5 27.5z" />
<glyph unicode="l" d="M49 1313v73q155 16 248 44l147 45l17 -13v-1257q0 -82 13 -105t61 -26l71 -4v-76q-138 6 -276 6q-132 0 -264 -6v76l71 4q48 3 61 26t13 105v958q0 91 -9.5 116.5t-43.5 27.5z" />
<glyph unicode="m" horiz-adv-x="1820" d="M49 -6v76l72 4q48 3 61 26t13 105v448q0 91 -9.5 116t-44.5 28l-92 6v74q86 5 156 20.5t227 67.5l12 -13v-153l164 127q51 39 146 39q106 0 170.5 -39.5t99.5 -126.5l164 127q51 39 147 39q164 0 228.5 -83.5t64.5 -295.5v-381q0 -82 13 -105t61 -26l67 -4v-76 q-102 6 -200 6q-97 0 -191 -6v557q0 237 -176 237q-61 0 -113.5 -44t-52.5 -95v-444q0 -82 13 -105t61 -26l72 -4v-76q-135 6 -269 6q-132 0 -264 -6v76l64 4q49 3 61 25t12 106v346q0 237 -176 237q-61 0 -113.5 -44t-52.5 -95v-444q0 -84 12.5 -106t61.5 -25l55 -4v-76 q-129 6 -260 6q-132 0 -264 -6z" />
<glyph unicode="n" horiz-adv-x="1251" d="M49 -6v76l72 4q48 3 61 26t13 105v448q0 91 -9.5 116t-44.5 28l-92 6v74q86 5 156 20.5t227 67.5l12 -13v-153l164 127q48 39 144 39q154 0 237 -86q40 -43 56 -108.5t16 -184.5v-381q0 -82 13 -105t61 -26l67 -4v-76q-105 6 -207 6q-93 0 -184 -6v559q0 123 -46 179 t-147 56q-68 0 -121 -42.5t-53 -96.5v-444q0 -82 13 -105t61 -26l72 -4v-76q-138 6 -277 6q-132 0 -264 -6z" />
<glyph unicode="o" horiz-adv-x="1138" d="M82 459q0 245 131 375.5t375 130.5q227 0 349 -124.5t122 -357.5q0 -249 -133 -383.5t-379 -134.5q-223 0 -344 129t-121 365zM360 508q0 -445 224 -445q104 0 150 84.5t46 272.5q0 226 -53.5 336t-163.5 110q-106 0 -154.5 -86t-48.5 -272z" />
<glyph unicode="p" horiz-adv-x="1251" d="M59 -453l72 4q48 3 61 26t13 106v970q0 91 -9 116t-44 28l-93 6v74l23 2q119 11 209 41l143 45l21 -13v-168l125 101q54 43 102.5 61.5t108.5 18.5q160 0 265 -108t105 -271q0 -139 -54 -255t-155 -192q-25 -20 -34 -26q-104 -83 -166 -115.5t-115 -32.5q-61 0 -182 35 v-317q0 -83 13 -107t60 -25l93 -4v-75q-147 6 -297 6q-133 0 -265 -6v75zM455 217q80 -113 207 -113q112 0 176.5 94t64.5 255q0 154 -67 240.5t-185 86.5q-129 0 -196 -102v-461z" />
<glyph unicode="q" horiz-adv-x="1251" d="M106 434q0 152 53 242.5t187 165.5q123 69 192.5 96t123.5 27q94 0 237 -70l45 -23l107 86l43 -28q-33 -160 -33 -266v-981q0 -83 13 -106t61 -26l71 -4v-75q-138 6 -276 6q-132 0 -264 -6v75l71 4q48 3 61 26t13 106v471l-197 -158q-39 -31 -122 -31q-178 0 -282 126 t-104 343zM365 522q0 -166 64 -264t173 -98q85 0 147 49.5t62 118.5v377q-100 129 -229 129q-217 0 -217 -312z" />
<glyph unicode="r" horiz-adv-x="796" d="M61 -6v76l72 4q48 3 61 26t13 105v448q0 91 -9 116t-44 28l-93 6v74q153 19 232 43l143 45l21 -13v-194l90 98q59 63 95 86t79 23t76 -13l-11 -264l-49 -20q-43 73 -116 73q-60 0 -112 -42t-52 -89v-405q0 -86 16 -107t82 -24l80 -4v-76q-153 6 -309 6q-133 0 -265 -6z " />
<glyph unicode="s" horiz-adv-x="909" d="M80 23l14 288h80l10 -141q89 -107 230 -107q87 0 137.5 43t50.5 115q0 54 -29 83t-100 46l-176 43q-217 53 -217 256q0 154 109.5 235t316.5 81q81 0 136.5 -10.5t115.5 -36.5l-17 -250h-73l-21 118q-4 31 -59.5 55.5t-118.5 24.5q-84 0 -132 -35.5t-48 -97.5 q0 -49 26 -75t86 -40l168 -36q138 -31 199 -93t61 -172q0 -158 -119 -255t-313 -97q-149 0 -317 58z" />
<glyph unicode="t" d="M45 748v45l135 88v123q0 43 -8 188q168 63 250 102l29 -20q-25 -142 -25 -279v-118q116 0 233 12l-16 -133h-217v-488q0 -75 27.5 -104t99.5 -29q36 0 94 27l17 -39l-101 -121q-29 -37 -133 -37q-133 0 -193.5 61.5t-60.5 198.5v531z" />
<glyph unicode="u" horiz-adv-x="1251" d="M51 803v74q148 18 232 43l143 45l20 -13v-534q0 -148 36 -208t124 -60q82 0 139.5 54t57.5 130v319q0 91 -9 116t-44 28l-93 6v74q150 19 232 43l143 45l21 -13v-747q0 -84 12 -106t61 -25l68 -4v-76q-105 6 -207 6q-95 0 -194 -6l10 170l-156 -152q-47 -47 -141 -47 q-149 0 -229 83.5t-80 238.5v366q0 91 -9.5 116t-44.5 28z" />
<glyph unicode="v" horiz-adv-x="1138" d="M23 862v78q132 -6 266 -6q132 0 264 6v-78l-84 -4q-47 -3 -47 -35q0 -30 29 -104l180 -453l71 164l125 309q19 49 19 84q0 14 -13 24t-34 11l-78 4v78q99 -6 199 -6q97 0 196 6v-78l-61 -10q-26 -4 -42.5 -20t-31.5 -50l-262 -589q-31 -69 -78 -199h-176l-293 737 q-26 66 -49 96t-49 31z" />
<glyph unicode="w" horiz-adv-x="1705" d="M27 862v78q138 -6 278 -6q139 0 277 6v-78l-97 -4q-17 0 -28 -12.5t-11 -32.5q0 -19 5 -39l120 -465l117 256l178 400h103l282 -650q51 136 80 230l74 231q6 24 6 39q0 18 -16 29.5t-43 13.5l-86 4v78q105 -6 207 -6q101 0 206 6v-78l-69 -4q-22 -1 -38.5 -23t-35.5 -73 l-188 -533q-25 -73 -43 -131.5t-23 -81.5l-6 -22h-166l-270 629q-118 -233 -161.5 -330t-119.5 -299h-162l-219 786q-12 42 -30.5 59.5t-53.5 18.5z" />
<glyph unicode="x" horiz-adv-x="1024" d="M41 899q133 25 299 66q62 -50 127 -158l106 -174l222 307h194v-76q-57 -1 -85 -16.5t-75 -71.5l-198 -233l182 -312q52 -88 90 -122t86 -39v-76q-80 6 -158 6q-79 0 -159 -6l-205 346l-131 -180l-107 -160h-186v70q48 3 80 19t61 54l226 287l-164 279q-40 68 -73.5 93 t-84.5 25q-21 0 -31 -2z" />
<glyph unicode="y" horiz-adv-x="1138" d="M20 862v78q135 -6 273 -6q135 0 270 6v-78l-71 -4q-24 -2 -39 -14.5t-15 -32.5q0 -16 5.5 -34t16 -42.5t13.5 -32.5l172 -446l207 516q8 20 8 45q0 17 -15 28t-40 13l-68 4v78q95 -6 191 -6q95 0 190 6v-78l-53 -10q-45 -9 -84 -96l-408 -949q-78 -181 -165.5 -266.5 t-194.5 -85.5q-73 0 -150 35l37 195l23 8q67 -76 143 -76q53 0 103.5 49.5t85.5 136.5l47 115l-324 827q-23 59 -43 85.5t-43 27.5z" />
<glyph unicode="z" horiz-adv-x="1024" d="M33 -6v67l213 279l348 487h-242q-86 0 -116 -23t-39 -97l-7 -52h-77l6 275q1 1 2 1.5t5 3t5 2.5t2 -1q243 -6 483 -6q158 0 314 6v-1v-1v-1v-1v-1v-1v-1v-1v-1v-1v-1v-1v-1v-1v-2v-1v-1v-1v-1v-2v-1v-1v-2v-1v-1v-2v-1v-2v-1v-2v-1v-2v-1v-2v-2v-1v-2v-1v-2v-2v-2v-1v-2 v-2v-9l-549 -755h334q74 0 102 27t41 114l10 63h82q-24 -168 -24 -313l-11 -10q-279 6 -559 6q-160 0 -323 -6z" />
<glyph unicode="{" horiz-adv-x="634" d="M10 616v5q117 31 152 73.5t35 153.5v364q0 165 98 226q43 26 106.5 36.5t188.5 10.5v-4q-117 -32 -156 -80.5t-39 -159.5v-362q0 -125 -42.5 -178.5t-166.5 -82.5q124 -28 166.5 -83t42.5 -189v-342q0 -111 39 -159.5t156 -80.5v-4q-125 0 -188.5 10.5t-106.5 36.5 q-98 61 -98 226v356q0 111 -35 153.5t-152 73.5z" />
<glyph unicode="|" horiz-adv-x="1241" d="M532 -213v1688h177v-1688h-177z" />
<glyph unicode="}" horiz-adv-x="634" d="M45 -236q117 32 156 80.5t39 159.5v342q0 135 42 189.5t167 82.5q-124 29 -166.5 82.5t-42.5 178.5v362q0 111 -39 159.5t-156 80.5v4q136 0 205.5 -14.5t111.5 -49.5q76 -64 76 -209v-364q0 -111 35 -153.5t152 -73.5v-5q-117 -31 -152 -73.5t-35 -153.5v-356 q0 -165 -98 -226q-43 -26 -106.5 -36.5t-188.5 -10.5v4z" />
<glyph unicode="~" horiz-adv-x="1241" d="M104 442q72 123 140 177.5t151 54.5q42 0 84 -13t139 -55q104 -45 148 -59.5t76 -14.5q49 0 86.5 30t83.5 106l125 -80q-72 -123 -140 -177.5t-151 -54.5q-42 0 -84 13t-139 55q-104 45 -148 59.5t-76 14.5q-49 0 -86.5 -30t-83.5 -106z" />
<glyph unicode="&#xa0;" />
<glyph unicode="&#xa1;" horiz-adv-x="569" d="M121 -479q0 84 14 196l103 762l77 43l11 -16l96 -733q6 -52 8 -162l-205 -90h-104zM121 797q0 63 48.5 110t113.5 47q63 0 110 -46.5t47 -110.5q0 -65 -48.5 -113.5t-112.5 -48.5q-61 0 -109.5 49.5t-48.5 112.5z" />
<glyph unicode="&#xa2;" horiz-adv-x="1024" d="M150 438q0 158 59 264q18 31 46 57t85 62l106 68q134 83 242 86l53 160h84l-51 -166q80 -19 129 -41l10 -19q-26 -120 -36 -303h-78l-13 123q-2 20 -21 41t-42 27l-186 -619q43 -35 88 -50t108 -15q51 0 87.5 9t82.5 32l19 -23l-43 -96l-9 -8q-136 -62 -258 -62 q-10 0 -120 10l-21 2l-65 -194h-87l74 217q-128 65 -185.5 168.5t-57.5 269.5zM401 539q0 -82 15.5 -144.5t54.5 -140.5l170 565q-16 2 -43 2q-197 0 -197 -282z" />
<glyph unicode="&#xa3;" horiz-adv-x="1024" d="M-4 82l131 106q40 32 56.5 75.5t23.5 123.5t10 268h-184v88h184v88q0 167 113 295q92 106 238.5 182t258.5 76q88 0 156 -55l-20 -278h-64l-6 71q-4 58 -49.5 92.5t-116.5 34.5q-110 0 -162 -68.5t-65 -232.5l-17 -205h344v-88h-354q-29 -150 -83.5 -258.5t-149.5 -206.5 q128 39 213 39q51 0 198 -22q129 -19 180 -19q41 0 69 17t34 45l22 115h70l-20 -367q-91 -31 -170 -31q-140 0 -332 53q-165 46 -273 46q-41 0 -104 -52q-46 -41 -90 -53z" />
<glyph unicode="&#xa4;" horiz-adv-x="1024" d="M66 289l100 100q-46 59 -66 117t-20 135q0 80 20 139t66 111l-100 100l96 96l98 -98q112 84 254 84q137 0 246 -82l98 101l100 -101l-94 -98q80 -105 80 -250q0 -141 -82 -256l94 -98l-92 -92l-96 100q-58 -46 -117.5 -67t-138.5 -21q-149 0 -256 86l-98 -98zM238 639 q0 -113 81 -193.5t195 -80.5q113 0 192.5 81.5t79.5 196.5q0 114 -80 193t-196 79q-110 0 -191 -82t-81 -194z" />
<glyph unicode="&#xa5;" horiz-adv-x="1024" d="M35 1274v76l235 73q49 -40 85 -99t83 -179l164 -416l272 660h115v-39l-276 -568h241v-82h-274q-31 -66 -31 -118v-78h305v-82h-305v-146q0 -138 9 -163t63 -31l53 -6v-82q-111 6 -223 6q-119 0 -236 -6v82l54 6q52 6 61.5 31.5t9.5 162.5v146h-305v82h305v82q0 33 -39 98 q-8 11 -10 16h-256v82h221l-129 287q-55 124 -95.5 165.5t-96.5 39.5z" />
<glyph unicode="&#xa6;" horiz-adv-x="1241" d="M532 -213v676h177v-676h-177zM532 799v676h177v-676h-177z" />
<glyph unicode="&#xa7;" horiz-adv-x="1024" d="M61 477q0 74 27 129t94 119l39 37q-96 83 -96 201q0 85 44 181.5t110 158.5q60 55 147.5 87.5t175.5 32.5q126 0 266 -67q-21 -106 -34 -301h-78q0 99 -15 164q-28 29 -83 46t-123 17q-116 0 -191.5 -54.5t-75.5 -137.5q0 -74 54.5 -117.5t203.5 -87.5l138 -41l8 -2 q157 -40 225 -111.5t68 -195.5q0 -89 -30.5 -150.5t-115.5 -148.5q61 -46 87 -95t26 -118q0 -122 -70 -230t-187 -172.5t-249 -64.5q-102 0 -172.5 20t-153.5 72l29 317h80q-2 -18 -2 -41q0 -64 18 -131q103 -112 269 -112q108 0 191 67t83 154q0 67 -57 118 q-56 48 -219 101l-125 41q-168 56 -237 126.5t-69 188.5zM213 573q0 -55 63.5 -103t204.5 -101l273 -101q59 78 59 142q0 75 -54.5 125.5t-180.5 93.5l-293 98q-72 -87 -72 -154z" />
<glyph unicode="&#xa8;" d="M-16 1227q0 57 40.5 97t98.5 40q55 0 95 -40.5t40 -96.5q0 -57 -40 -97t-97 -40t-97 40t-40 97zM424 1229q0 56 40.5 95.5t98.5 39.5q55 0 95 -40.5t40 -96.5q0 -57 -40 -97t-97 -40t-97 40.5t-40 98.5z" />
<glyph unicode="&#xa9;" horiz-adv-x="1529" d="M43 690q0 196 97 363t263.5 264.5t362.5 97.5t363 -97.5t264.5 -264.5t97.5 -363t-97.5 -362.5t-264.5 -263.5t-363 -97t-362.5 97t-263.5 263.5t-97 362.5zM141 690q0 -127 49.5 -243t133 -199.5t199 -132.5t243.5 -49q102 0 197.5 31.5t173 89t135.5 134t89.5 172 t31.5 197.5q0 170 -84 314.5t-228.5 228.5t-314.5 84t-314 -84t-227.5 -228.5t-83.5 -314.5zM369 698q0 177 135 279t366 102q78 0 139 -11t144 -40l10 -16q-11 -43 -28 -174h-62l-6 96q-46 38 -91.5 54t-109.5 16q-134 0 -210 -78.5t-76 -212.5q0 -147 88.5 -237.5 t238.5 -90.5q118 0 232 57l22 -20l-31 -62q-66 -34 -126.5 -47.5t-143.5 -13.5q-227 0 -359 107t-132 292z" />
<glyph unicode="&#xaa;" horiz-adv-x="897" d="M158 590v98h581v-98h-581zM158 905q0 59 25 94t85 58q57 22 117 33l117 20q-3 55 -21 88q-13 25 -45.5 43t-60.5 16q-7 0 -13 -2l-73 -16l-29 -61l-45 8v80l158 75q26 11 67 11q107 0 165.5 -47.5t58.5 -133.5v-303q0 -25 8 -36.5t28 -12.5l39 -4v-45q-19 0 -56 1t-60 1 q-24 0 -62.5 -1t-58.5 -1l-6 8l6 78l-123 -90q-21 -14 -64 -14q-77 0 -117 39t-40 114zM319 936q0 -35 18.5 -56.5t49.5 -21.5q63 0 115 55v146l-60 -15q-69 -17 -96 -40.5t-27 -67.5z" />
<glyph unicode="&#xab;" horiz-adv-x="1024" d="M74 473v51q277 243 405 373l56 -45l-226 -354l226 -367l-56 -41q-250 255 -405 383zM487 473v51q284 249 406 373l55 -45l-225 -354l225 -367l-55 -41q-245 251 -406 383z" />
<glyph unicode="&#xac;" horiz-adv-x="1241" d="M94 598v176h1053v-436h-176v260h-877z" />
<glyph unicode="&#xad;" d="M33 416q49 138 69 209h529l18 -21q-48 -107 -65 -205h-535z" />
<glyph unicode="&#xae;" horiz-adv-x="1529" d="M43 690q0 196 97 363t263.5 264.5t362.5 97.5t363 -97.5t264.5 -264.5t97.5 -363t-97.5 -362.5t-264.5 -263.5t-363 -97t-362.5 97t-263.5 263.5t-97 362.5zM141 690q0 -127 49.5 -243t133 -199.5t199 -132.5t243.5 -49q102 0 197.5 31.5t173 89t135.5 134t89.5 172 t31.5 197.5q0 170 -84 314.5t-228.5 228.5t-314.5 84t-314 -84t-227.5 -228.5t-83.5 -314.5zM367 313v60l49 4q41 2 41 94v438q0 95 -41 97l-49 4v57q108 -6 215 -6q39 0 117.5 3t117.5 3q97 0 168.5 -45t71.5 -123q0 -67 -51 -121q-41 -41 -121 -73l209 -289q29 -37 71 -43 v-60q-78 4 -118 4q-39 0 -117 -4l-244 371v39q63 0 98 16q34 19 54 53t20 74q0 54 -44.5 91.5t-104.5 37.5q-38 0 -54 -6v-518q0 -20 1 -33t4.5 -28.5t12.5 -23.5t23 -9l47 -4v-60q-126 4 -188 4t-188 -4z" />
<glyph unicode="&#xaf;" d="M2 1155v145h678v-145h-678z" />
<glyph unicode="&#xb0;" horiz-adv-x="819" d="M102 1044q0 129 90.5 218.5t221.5 89.5q123 0 213 -91.5t90 -216.5q0 -127 -90.5 -217t-216.5 -90q-128 0 -218 90t-90 217zM227 1047q0 -76 54 -130.5t129 -54.5t128.5 53.5t53.5 128.5q0 74 -54.5 128.5t-127.5 54.5q-76 0 -129.5 -52.5t-53.5 -127.5z" />
<glyph unicode="&#xb1;" horiz-adv-x="1241" d="M94 0v176h1053v-176h-1053zM94 600v176h438v438h177v-438h438v-176h-438v-266h-177v266h-438z" />
<glyph unicode="&#xb2;" horiz-adv-x="614" d="M25 530v72l206 203q142 139 142 272q0 58 -34 92.5t-91 34.5q-38 0 -72 -18t-41 -43l-24 -86l-58 4l23 209q57 41 103.5 58.5t101.5 17.5q117 0 192.5 -61t75.5 -155q0 -123 -129 -249l-211 -203l371 12l8 -12q-4 -41 -4 -76q0 -40 2 -55l2 -17q-112 1 -173.5 3t-113.5 2 h-54.5t-26.5 -0.5t-60 -2t-135 -2.5z" />
<glyph unicode="&#xb3;" horiz-adv-x="614" d="M18 735l54 13q38 -83 80.5 -117.5t105.5 -34.5q64 0 104.5 43t40.5 111q0 66 -39.5 104.5t-107.5 38.5q-38 0 -78 -12l-14 12l24 98h50q60 0 96.5 32.5t36.5 86.5q0 47 -32 74.5t-87 27.5q-56 0 -88 -28t-51 -92h-58l41 196q60 33 101 45.5t94 12.5q100 0 164.5 -50 t64.5 -127q0 -107 -123 -174q83 -10 127.5 -57.5t44.5 -124.5q0 -124 -105 -211.5t-253 -87.5q-86 0 -160 31z" />
<glyph unicode="&#xb4;" d="M160 1036l264 303q67 76 133 76q40 0 65 -24.5t25 -65.5q0 -33 -19 -57.5t-69 -55.5l-285 -176h-114z" />
<glyph unicode="&#xb5;" horiz-adv-x="1251" d="M51 803v74q147 18 232 43l143 45l20 -13v-534q0 -148 36 -208t124 -60q81 0 139 54.5t58 129.5v319q0 91 -9 116t-44 28l-93 6v74q148 18 232 43l143 45l21 -13v-747q0 -83 12.5 -105.5t60.5 -25.5l68 -4v-76q-43 2 -96 2q-57 4 -113 4l-192 -6l10 170l-174 -174 q-25 -25 -107 -25q-103 0 -174 47q33 -205 33 -309q0 -66 -51 -112t-133 -52v1114q0 91 -9.5 116t-44.5 28z" />
<glyph unicode="&#xb6;" horiz-adv-x="1312" d="M39 1083q0 141 120 231.5t308 84.5l115 -4l311 -6q6 0 33.5 1t46.5 1l254 4v-84h-97q-43 0 -60 -35t-17 -123v-1264q0 -83 13 -106.5t60 -24.5l101 -4v-84l-414 6l-414 -6v84l101 4q47 1 60 24.5t13 106.5v775q-123 9 -206.5 38t-167.5 91q-160 120 -160 290zM307 1051 q0 -111 69.5 -187t196.5 -104v538q-12 2 -30 2q-101 0 -168.5 -71t-67.5 -178zM754 -227h118v1525h-118v-1525z" />
<glyph unicode="&#xb7;" horiz-adv-x="512" d="M96 512q0 66 47 113t113 47t113 -47t47 -113t-47 -113t-113 -47t-113 47t-47 113z" />
<glyph unicode="&#xb8;" d="M150 -424l32 76q95 -19 137 -19q103 0 103 76q0 34 -20.5 53t-57.5 19q-9 0 -74 -8l-20 16l88 225h84l-57 -159q47 12 92 12q72 0 114.5 -40.5t42.5 -109.5q0 -82 -73.5 -130t-198.5 -48q-82 0 -192 37z" />
<glyph unicode="&#xb9;" horiz-adv-x="614" d="M37 1223v2v10q115 26 375 123l20 -17q-12 -197 -12 -309v-389q0 -48 63 -51l84 -2v-60q-21 0 -97.5 2.5t-125.5 2.5q-43 0 -93 -2t-165 -3v60l94 2q64 0 64 51v535q0 30 -2 36l-4 5l-2 -2l-179 -82q-20 49 -20 88z" />
<glyph unicode="&#xba;" horiz-adv-x="999" d="M182 590v98h635v-98h-635zM182 1053q0 144 85.5 221.5t244.5 77.5q148 0 226.5 -76t78.5 -217q0 -146 -88 -226.5t-246 -80.5q-146 0 -223.5 77.5t-77.5 223.5zM362 1081q0 -270 146 -270q68 0 98.5 50.5t30.5 162.5q0 268 -143 268q-68 0 -100 -51t-32 -160z" />
<glyph unicode="&#xbb;" horiz-adv-x="1024" d="M76 131l225 367l-225 354l55 45q127 -130 406 -373v-51q-158 -130 -406 -383zM489 131l226 367l-226 354l56 45q133 -136 405 -373v-51q-153 -126 -405 -383z" />
<glyph unicode="&#xbc;" horiz-adv-x="1536" d="M39 1237q154 41 405 125l17 -10l-8 -88q-7 -89 -7 -97v-475q0 -43 19.5 -67t56.5 -25l76 -4v-61q-146 4 -238 4q-50 0 -108 -1.5t-160 -2.5v61l86 4q37 1 57.5 26t20.5 66v482q0 47 -12 47l-13 -4l-174 -78q-18 63 -18 98zM385 0l825 1352h142l-826 -1352h-141zM893 250 q25 74 63 139l160 264q41 67 103 140l155 32l17 -14v-500h110v-108h-110v-49q0 -84 75 -93l39 -4v-61q-122 4 -200 4l-240 -4v61l78 4q36 1 56 26t20 67v49h-318zM1001 311h218v367z" />
<glyph unicode="&#xbd;" horiz-adv-x="1536" d="M18 1237q159 42 406 125l16 -10l-8 -88q-6 -77 -6 -97v-475q0 -42 20 -66.5t56 -25.5l76 -4v-61q-146 4 -238 4q-50 0 -108 -1.5t-160 -2.5v61l86 4q37 1 57.5 26t20.5 66v482q0 47 -13 47l-8 -2l-178 -80q-19 67 -19 98zM317 0l826 1352h141l-825 -1352h-142zM932 -4v76 l221 207q143 134 143 262q0 61 -38 97t-103 36q-49 0 -75 -19t-40 -65l-20 -68l-57 8l24 207q58 41 107 58.5t106 17.5q124 0 204.5 -60.5t80.5 -154.5q0 -132 -137 -260l-197 -184v-17l365 19l10 -11q-4 -37 -4 -79q0 -39 4 -70q-272 4 -295 4q-57 0 -299 -4z" />
<glyph unicode="&#xbe;" horiz-adv-x="1536" d="M31 748l45 10q38 -78 84 -113t112 -35q72 0 122 46.5t50 113.5q0 66 -45.5 108t-117.5 42q-36 0 -84 -11l-11 6l27 91h45q69 0 110.5 35t41.5 94q0 51 -35.5 78.5t-98.5 27.5q-115 0 -151 -119h-53l41 189q58 31 103 43t101 12q104 0 172 -49.5t68 -124.5 q0 -107 -151 -180q104 -9 154 -54t50 -129q0 -123 -111.5 -208.5t-271.5 -85.5q-90 0 -164 28zM328 0l825 1352h141l-825 -1352h-141zM893 250q25 74 63 139l160 264q41 67 103 140l155 32l17 -14v-500h110v-108h-110v-49q0 -84 75 -93l39 -4v-61q-122 4 -200 4l-240 -4v61 l78 4q36 1 56 26t20 67v49h-318zM1001 311h218v367z" />
<glyph unicode="&#xbf;" horiz-adv-x="909" d="M68 -156q0 87 32 147.5t113 127.5l158 131q127 106 127 186q0 33 -19 76l-2 4l70 29q53 -67 53 -152q0 -54 -29 -110.5t-100 -143.5q-72 -87 -100.5 -141.5t-28.5 -108.5q0 -72 56.5 -121t140.5 -49q54 0 96 14t51 34l64 145l71 -18q-57 -172 -65 -273 q-81 -55 -149 -76.5t-158 -21.5q-174 0 -277.5 87t-103.5 234zM352 797q0 63 48.5 110t111.5 47q65 0 112.5 -46t47.5 -109q0 -65 -49 -114.5t-113 -49.5q-61 0 -109.5 49.5t-48.5 112.5z" />
<glyph unicode="&#xc0;" horiz-adv-x="1593" d="M49 -6v76l62 6q66 6 114 123l371 897l117 309h145l531 -1239q20 -44 44.5 -64t67.5 -26l49 -6v-76q-164 6 -323 6q-156 0 -312 -6v76l109 6q19 1 29 14t10.5 31.5t-2.5 35t-8 31.5l-92 234h-515l-86 -229q-7 -24 -8.5 -49.5t14 -45.5t44.5 -22l102 -6v-76q-117 6 -231 6 q-115 0 -232 -6zM489 1737q0 33 27 53t70 20q73 0 145 -61l285 -248h-123l-307 146q-55 25 -76 44t-21 46zM496 537h417l-213 520z" />
<glyph unicode="&#xc1;" horiz-adv-x="1593" d="M49 -6v76l62 6q66 6 114 123l371 897l117 309h145l531 -1239q20 -44 44.5 -64t67.5 -26l49 -6v-76q-164 6 -323 6q-156 0 -312 -6v76l109 6q19 1 29 14t10.5 31.5t-2.5 35t-8 31.5l-92 234h-515l-86 -229q-7 -24 -8.5 -49.5t14 -45.5t44.5 -22l102 -6v-76q-117 6 -231 6 q-115 0 -232 -6zM496 537h417l-213 520zM557 1501l285 248q72 61 145 61q43 0 69.5 -20t26.5 -53q0 -27 -20.5 -46t-75.5 -44l-307 -146h-123z" />
<glyph unicode="&#xc2;" horiz-adv-x="1593" d="M49 -6v76l62 6q66 6 114 123l371 897l117 309h145l531 -1239q20 -44 44.5 -64t67.5 -26l49 -6v-76q-164 6 -323 6q-156 0 -312 -6v76l109 6q19 1 29 14t10.5 31.5t-2.5 35t-8 31.5l-92 234h-515l-86 -229q-7 -24 -8.5 -49.5t14 -45.5t44.5 -22l102 -6v-76q-117 6 -231 6 q-115 0 -232 -6zM414 1511l268 293h207l270 -293h-127l-248 166l-249 -166h-121zM496 537h417l-213 520z" />
<glyph unicode="&#xc3;" horiz-adv-x="1593" d="M49 -6v76l62 6q66 6 114 123l371 897l117 309h145l531 -1239q20 -44 44.5 -64t67.5 -26l49 -6v-76q-164 6 -323 6q-156 0 -312 -6v76l109 6q19 1 29 14t10.5 31.5t-2.5 35t-8 31.5l-92 234h-515l-86 -229q-7 -24 -8.5 -49.5t14 -45.5t44.5 -22l102 -6v-76q-117 6 -231 6 q-115 0 -232 -6zM414 1530q12 114 78 185t159 71q61 0 164 -49t154 -49q37 0 56.5 19t47.5 79h88q-37 -134 -94.5 -196t-146.5 -62q-65 0 -172 51q-97 47 -158 47q-65 0 -94 -96h-82zM496 537h417l-213 520z" />
<glyph unicode="&#xc4;" horiz-adv-x="1593" d="M49 -6v76l62 6q66 6 114 123l371 897l117 309h145l531 -1239q20 -44 44.5 -64t67.5 -26l49 -6v-76q-164 6 -323 6q-156 0 -312 -6v76l109 6q19 1 29 14t10.5 31.5t-2.5 35t-8 31.5l-92 234h-515l-86 -229q-7 -24 -8.5 -49.5t14 -45.5t44.5 -22l102 -6v-76q-117 6 -231 6 q-115 0 -232 -6zM430 1657q0 57 40.5 97t98.5 40q55 0 95.5 -40.5t40.5 -96.5q0 -57 -40.5 -97t-97.5 -40t-97 40t-40 97zM496 537h417l-213 520zM870 1659q0 56 41 95.5t99 39.5q55 0 95 -40.5t40 -96.5q0 -57 -40 -97t-97 -40t-97.5 40.5t-40.5 98.5z" />
<glyph unicode="&#xc5;" horiz-adv-x="1593" d="M49 -6v76l62 6q66 6 114 123l371 897l117 309h145l531 -1239q20 -44 44.5 -64t67.5 -26l49 -6v-76q-164 6 -323 6q-156 0 -312 -6v76l109 6q19 1 29 14t10.5 31.5t-2.5 35t-8 31.5l-92 234h-515l-86 -229q-7 -24 -8.5 -49.5t14 -45.5t44.5 -22l102 -6v-76q-117 6 -231 6 q-115 0 -232 -6zM496 537h417l-213 520zM584 1694q0 85 60.5 143.5t148.5 58.5q82 0 141 -60.5t59 -143.5q0 -85 -60 -145t-145 -60t-144.5 60.5t-59.5 146.5zM686 1692q0 -43 29.5 -73t72.5 -30t73 30t30 73q0 41 -29.5 71.5t-70.5 30.5q-44 0 -74.5 -29.5t-30.5 -72.5z " />
<glyph unicode="&#xc6;" horiz-adv-x="2048" d="M25 -6v76l77 6q24 2 49.5 28.5t61.5 88.5l594 1003q35 57 35 82q0 12 -25.5 23t-62.5 12l-107 6v76l537 -6l291 4q165 4 170 4h79q91 0 195 -8l12 -15l-28 -291h-74l-17 154q-2 17 -59.5 29t-140.5 12q-144 0 -297 -8v-492q41 -4 137 -4h135q64 0 89 9t28 34l12 117h82 q-6 -111 -6 -219q0 -110 6 -221h-82l-12 102q-5 40 -32 58t-85 18h-135q-52 0 -137 -6v-547l268 -6q142 -2 238 28l6 6l47 193h80l-23 -324l-10 -16q-194 -10 -289 -8l-329 6l-134 2l-249 -6v47l65 37q23 12 32 38.5t9 78.5v243h-532l-127 -219q-23 -40 -31 -62.5t-8 -50.5 q20 -30 49 -30l110 -6v-76l-241 6zM555 547h471v694l-14 35h-15z" />
<glyph unicode="&#xc7;" horiz-adv-x="1478" d="M90 711q0 329 227 520.5t615 191.5q135 0 238 -20.5t241 -75.5l12 -22q-21 -91 -47 -314h-80l-10 176q-84 77 -166 109.5t-198 32.5q-244 0 -384.5 -153t-140.5 -417q0 -290 163 -465.5t433 -175.5q201 0 400 105l24 -25l-45 -100q-113 -63 -216 -88t-243 -25 q-59 0 -100 4l-49 -114q49 12 94 12q71 0 113.5 -40.5t42.5 -109.5q0 -82 -73.5 -130t-199.5 -48q-85 0 -192 37l33 76q95 -19 137 -19q102 0 102 76q0 34 -20.5 53t-57.5 19q-18 0 -73 -8l-21 16l84 191q-186 33 -303 98q-163 94 -251.5 259t-88.5 374z" />
<glyph unicode="&#xc8;" horiz-adv-x="1251" d="M80 1319v76q193 -6 389 -6q81 0 241.5 3t241.5 3t195 -6l12 -15l-29 -291h-73l-17 154q-1 17 -58 28t-142 11l-297 -6v-492q41 -4 137 -4h135q64 0 89 9t28 34l12 117h82q-6 -111 -6 -219q0 -110 6 -221h-82l-12 102q-5 40 -32 58t-85 18h-135q-52 0 -137 -6v-547l305 -6 q70 0 137 11t70 23l47 193h80l-23 -324l-10 -16q-117 -6 -287 -6q-77 0 -231.5 3t-231.5 3q-126 0 -252 -6v47l66 37q23 12 32 38t9 79v917q0 50 -0.5 77t-4.5 52.5t-9 36t-18 19.5t-26.5 11.5t-39.5 4.5zM352 1737q0 33 27 53t70 20q73 0 145 -61l285 -248h-123l-307 146 q-55 25 -76 44t-21 46z" />
<glyph unicode="&#xc9;" horiz-adv-x="1251" d="M80 1319v76q193 -6 389 -6q81 0 241.5 3t241.5 3t195 -6l12 -15l-29 -291h-73l-17 154q-1 17 -58 28t-142 11l-297 -6v-492q41 -4 137 -4h135q64 0 89 9t28 34l12 117h82q-6 -111 -6 -219q0 -110 6 -221h-82l-12 102q-5 40 -32 58t-85 18h-135q-52 0 -137 -6v-547l305 -6 q70 0 137 11t70 23l47 193h80l-23 -324l-10 -16q-117 -6 -287 -6q-77 0 -231.5 3t-231.5 3q-126 0 -252 -6v47l66 37q23 12 32 38t9 79v917q0 50 -0.5 77t-4.5 52.5t-9 36t-18 19.5t-26.5 11.5t-39.5 4.5zM420 1501l285 248q72 61 145 61q43 0 69.5 -20t26.5 -53 q0 -27 -20.5 -46t-75.5 -44l-307 -146h-123z" />
<glyph unicode="&#xca;" horiz-adv-x="1251" d="M80 1319v76q193 -6 389 -6q81 0 241.5 3t241.5 3t195 -6l12 -15l-29 -291h-73l-17 154q-1 17 -58 28t-142 11l-297 -6v-492q41 -4 137 -4h135q64 0 89 9t28 34l12 117h82q-6 -111 -6 -219q0 -110 6 -221h-82l-12 102q-5 40 -32 58t-85 18h-135q-52 0 -137 -6v-547l305 -6 q70 0 137 11t70 23l47 193h80l-23 -324l-10 -16q-117 -6 -287 -6q-77 0 -231.5 3t-231.5 3q-126 0 -252 -6v47l66 37q23 12 32 38t9 79v917q0 50 -0.5 77t-4.5 52.5t-9 36t-18 19.5t-26.5 11.5t-39.5 4.5zM276 1511l269 293h207l270 -293h-127l-248 166l-250 -166h-121z" />
<glyph unicode="&#xcb;" horiz-adv-x="1251" d="M80 1319v76q193 -6 389 -6q81 0 241.5 3t241.5 3t195 -6l12 -15l-29 -291h-73l-17 154q-1 17 -58 28t-142 11l-297 -6v-492q41 -4 137 -4h135q64 0 89 9t28 34l12 117h82q-6 -111 -6 -219q0 -110 6 -221h-82l-12 102q-5 40 -32 58t-85 18h-135q-52 0 -137 -6v-547l305 -6 q70 0 137 11t70 23l47 193h80l-23 -324l-10 -16q-117 -6 -287 -6q-77 0 -231.5 3t-231.5 3q-126 0 -252 -6v47l66 37q23 12 32 38t9 79v917q0 50 -0.5 77t-4.5 52.5t-9 36t-18 19.5t-26.5 11.5t-39.5 4.5zM293 1657q0 57 40.5 97t98.5 40q55 0 95 -40.5t40 -96.5 q0 -57 -40 -97t-97 -40t-97 40t-40 97zM733 1659q0 56 40.5 95.5t98.5 39.5q55 0 95.5 -40.5t40.5 -96.5q0 -57 -40.5 -97t-97.5 -40t-97 40.5t-40 98.5z" />
<glyph unicode="&#xcc;" horiz-adv-x="796" d="M80 -6v82l76 6q21 2 32 3t23.5 5.5t17.5 8t11.5 16t8 22t3.5 34t2 45v60.5v836v60.5t-2 45t-3.5 34.5t-7.5 22.5t-11.5 15.5t-18 8t-23.5 6t-32 3l-76 6v82q159 -6 317 -6q161 0 320 6v-82l-76 -6q-21 -2 -32 -3t-23.5 -6t-18 -8t-11.5 -15.5t-7.5 -22.5t-3.5 -34.5 t-2 -45v-60.5v-836v-60.5t2 -45t3.5 -34t8 -22t11.5 -16t17.5 -8t23.5 -5.5t32 -3l76 -6v-82q-159 6 -320 6q-158 0 -317 -6zM102 1737q0 33 27 53t70 20q73 0 145 -61l285 -248h-123l-307 146q-55 25 -76 44t-21 46z" />
<glyph unicode="&#xcd;" horiz-adv-x="796" d="M80 -6v82l76 6q21 2 32 3t23.5 5.5t17.5 8t11.5 16t8 22t3.5 34t2 45v60.5v836v60.5t-2 45t-3.5 34.5t-7.5 22.5t-11.5 15.5t-18 8t-23.5 6t-32 3l-76 6v82q159 -6 317 -6q161 0 320 6v-82l-76 -6q-21 -2 -32 -3t-23.5 -6t-18 -8t-11.5 -15.5t-7.5 -22.5t-3.5 -34.5 t-2 -45v-60.5v-836v-60.5t2 -45t3.5 -34t8 -22t11.5 -16t17.5 -8t23.5 -5.5t32 -3l76 -6v-82q-159 6 -320 6q-158 0 -317 -6zM170 1501l285 248q72 61 145 61q43 0 69.5 -20t26.5 -53q0 -27 -20.5 -46t-75.5 -44l-307 -146h-123z" />
<glyph unicode="&#xce;" horiz-adv-x="796" d="M27 1511l268 293h207l270 -293h-127l-248 166l-250 -166h-120zM80 -6v82l76 6q21 2 32 3t23.5 5.5t17.5 8t11.5 16t8 22t3.5 34t2 45v60.5v836v60.5t-2 45t-3.5 34.5t-7.5 22.5t-11.5 15.5t-18 8t-23.5 6t-32 3l-76 6v82q159 -6 317 -6q161 0 320 6v-82l-76 -6 q-21 -2 -32 -3t-23.5 -6t-18 -8t-11.5 -15.5t-7.5 -22.5t-3.5 -34.5t-2 -45v-60.5v-836v-60.5t2 -45t3.5 -34t8 -22t11.5 -16t17.5 -8t23.5 -5.5t32 -3l76 -6v-82q-159 6 -320 6q-158 0 -317 -6z" />
<glyph unicode="&#xcf;" horiz-adv-x="796" d="M43 1657q0 57 40.5 97t98.5 40q55 0 95 -40.5t40 -96.5q0 -57 -40 -97t-97 -40t-97 40t-40 97zM80 -6v82l76 6q21 2 32 3t23.5 5.5t17.5 8t11.5 16t8 22t3.5 34t2 45v60.5v836v60.5t-2 45t-3.5 34.5t-7.5 22.5t-11.5 15.5t-18 8t-23.5 6t-32 3l-76 6v82q159 -6 317 -6 q161 0 320 6v-82l-76 -6q-21 -2 -32 -3t-23.5 -6t-18 -8t-11.5 -15.5t-7.5 -22.5t-3.5 -34.5t-2 -45v-60.5v-836v-60.5t2 -45t3.5 -34t8 -22t11.5 -16t17.5 -8t23.5 -5.5t32 -3l76 -6v-82q-159 6 -320 6q-158 0 -317 -6zM483 1659q0 56 41 95.5t99 39.5q55 0 95 -40.5 t40 -96.5q0 -57 -40 -97t-97 -40t-97.5 40.5t-40.5 98.5z" />
<glyph unicode="&#xd0;" horiz-adv-x="1705" d="M20 692v86h226v334q0 60 -2 90t-6 55t-17 34.5t-28 14t-46 7.5l-75 6v76q166 -6 331 -6q82 0 245 3t245 3q206 0 337.5 -40t221.5 -130q158 -155 158 -455q0 -332 -213 -539q-115 -114 -276.5 -175.5t-344.5 -61.5q-53 0 -159.5 3t-159.5 3q-159 0 -318 -6v47l66 37 q23 12 32 38.5t9 78.5v497h-226zM535 117q70 -11 139 -11q172 0 287 35.5t192 110.5q150 150 150 461q0 299 -136 432q-150 147 -503 147q-64 0 -129 -8v-506h309v-86h-309v-575z" />
<glyph unicode="&#xd1;" horiz-adv-x="1705" d="M72 -6v76l75 6q26 2 39.5 4.5t26.5 11.5t18 19t9.5 35t5 52.5t0.5 77.5v836q0 60 -2 90t-6 55t-17 34.5t-28 14t-46 7.5l-75 6v76q123 -6 245 -6q86 0 172 6q173 -229 211 -273l639 -745v735q0 50 -0.5 77t-4.5 52.5t-9 36t-18 19.5t-26.5 11.5t-39.5 4.5l-76 6v76 q117 -6 236 -6q116 0 233 6v-76l-75 -6q-31 -3 -46 -7.5t-28 -14t-17 -34.5t-6 -55t-2 -90v-930l6 -207l-14 -8l-168 27l-250 285l-667 802v-805q0 -51 0.5 -78t4.5 -52.5t9 -35.5t18 -18.5t26.5 -11t39.5 -4.5l76 -6v-76q-117 6 -234 6q-118 0 -235 -6zM481 1530 q12 114 78.5 185t159.5 71q61 0 164 -49t153 -49q37 0 57 19t48 79h88q-37 -134 -95 -196t-147 -62q-65 0 -172 51q-97 47 -158 47q-65 0 -94 -96h-82z" />
<glyph unicode="&#xd2;" horiz-adv-x="1705" d="M96 680q0 352 206.5 547.5t578.5 195.5q347 0 539 -188t192 -526q0 -350 -205.5 -547t-572.5 -197q-352 0 -545 187t-193 528zM403 727q0 -177 46 -318t129 -223q106 -106 270 -106q224 0 340.5 149t116.5 437q0 174 -46 314.5t-131 223.5q-108 105 -266 105 q-195 0 -315 -117q-69 -69 -106.5 -189t-37.5 -276zM561 1737q0 33 26.5 53t69.5 20q74 0 146 -61l284 -248h-122l-308 146q-55 25 -75.5 44t-20.5 46z" />
<glyph unicode="&#xd3;" horiz-adv-x="1705" d="M96 680q0 352 206.5 547.5t578.5 195.5q347 0 539 -188t192 -526q0 -350 -205.5 -547t-572.5 -197q-352 0 -545 187t-193 528zM403 727q0 -177 46 -318t129 -223q106 -106 270 -106q224 0 340.5 149t116.5 437q0 174 -46 314.5t-131 223.5q-108 105 -266 105 q-195 0 -315 -117q-69 -69 -106.5 -189t-37.5 -276zM629 1501l284 248q72 61 146 61q43 0 69.5 -20t26.5 -53q0 -27 -20.5 -46t-75.5 -44l-307 -146h-123z" />
<glyph unicode="&#xd4;" horiz-adv-x="1705" d="M96 680q0 352 206.5 547.5t578.5 195.5q347 0 539 -188t192 -526q0 -350 -205.5 -547t-572.5 -197q-352 0 -545 187t-193 528zM403 727q0 -177 46 -318t129 -223q106 -106 270 -106q224 0 340.5 149t116.5 437q0 174 -46 314.5t-131 223.5q-108 105 -266 105 q-195 0 -315 -117q-69 -69 -106.5 -189t-37.5 -276zM485 1511l269 293h207l270 -293h-127l-248 166l-250 -166h-121z" />
<glyph unicode="&#xd5;" horiz-adv-x="1705" d="M96 680q0 352 206.5 547.5t578.5 195.5q347 0 539 -188t192 -526q0 -350 -205.5 -547t-572.5 -197q-352 0 -545 187t-193 528zM403 727q0 -177 46 -318t129 -223q106 -106 270 -106q224 0 340.5 149t116.5 437q0 174 -46 314.5t-131 223.5q-108 105 -266 105 q-195 0 -315 -117q-69 -69 -106.5 -189t-37.5 -276zM485 1530q12 114 78.5 185t159.5 71q61 0 164 -49t153 -49q37 0 57 19t48 79h88q-37 -134 -95 -196t-147 -62q-65 0 -172 51q-97 47 -157 47q-66 0 -95 -96h-82z" />
<glyph unicode="&#xd6;" horiz-adv-x="1705" d="M96 680q0 352 206.5 547.5t578.5 195.5q347 0 539 -188t192 -526q0 -350 -205.5 -547t-572.5 -197q-352 0 -545 187t-193 528zM403 727q0 -177 46 -318t129 -223q106 -106 270 -106q224 0 340.5 149t116.5 437q0 174 -46 314.5t-131 223.5q-108 105 -266 105 q-195 0 -315 -117q-69 -69 -106.5 -189t-37.5 -276zM502 1657q0 57 40.5 97t98.5 40q55 0 95 -40.5t40 -96.5q0 -57 -40 -97t-97 -40t-97 40t-40 97zM942 1659q0 56 40.5 95.5t98.5 39.5q55 0 95.5 -40.5t40.5 -96.5q0 -57 -40.5 -97t-97.5 -40t-97 40.5t-40 98.5z" />
<glyph unicode="&#xd7;" horiz-adv-x="1241" d="M186 203l310 309l-310 309l125 125l310 -309l309 309l125 -125l-310 -309l310 -309l-125 -125l-309 309l-310 -309z" />
<glyph unicode="&#xd8;" horiz-adv-x="1705" d="M66 41l186 170q-86 101 -121 203.5t-35 253.5q0 360 204.5 557.5t576.5 197.5q148 0 278 -37q77 -22 126 -46.5t116 -75.5l182 166l76 -80l-182 -168q78 -113 108.5 -213t30.5 -246q0 -362 -204 -560t-579 -198q-160 0 -299 43q-68 21 -107.5 45t-94.5 74l-185 -168z M403 715q0 -197 52 -322l757 701q-67 118 -145 166.5t-199 48.5q-465 0 -465 -594zM496 283q78 -112 154.5 -157.5t189.5 -45.5q235 0 350 149t115 453q0 193 -45 303z" />
<glyph unicode="&#xd9;" horiz-adv-x="1593" d="M53 1319v76q159 -6 318 -6q160 0 319 6v-76l-76 -6q-26 -2 -39.5 -4.5t-26.5 -11.5t-18 -19.5t-9 -36t-4.5 -52.5t-0.5 -77v-508q0 -160 16.5 -242.5t57.5 -132.5q80 -96 287 -96q203 0 288 88q53 54 75 144.5t22 252.5v494q0 60 -2 90t-6 55t-17 34.5t-28 14t-46 7.5 l-76 6v76q117 -6 236 -6q116 0 233 6v-76l-75 -6q-31 -3 -46 -7.5t-28 -14t-17 -34.5t-6 -55t-2 -90v-598q0 -278 -143 -413.5t-438 -135.5q-264 0 -419 107t-155 290v750q0 50 -0.5 77t-4.5 52.5t-9 36t-18 19.5t-26.5 11.5t-39.5 4.5zM592 1737q0 33 26.5 53t69.5 20 q74 0 146 -61l284 -248h-123l-307 146q-55 25 -75.5 44t-20.5 46z" />
<glyph unicode="&#xda;" horiz-adv-x="1593" d="M53 1319v76q159 -6 318 -6q160 0 319 6v-76l-76 -6q-26 -2 -39.5 -4.5t-26.5 -11.5t-18 -19.5t-9 -36t-4.5 -52.5t-0.5 -77v-508q0 -160 16.5 -242.5t57.5 -132.5q80 -96 287 -96q203 0 288 88q53 54 75 144.5t22 252.5v494q0 60 -2 90t-6 55t-17 34.5t-28 14t-46 7.5 l-76 6v76q117 -6 236 -6q116 0 233 6v-76l-75 -6q-31 -3 -46 -7.5t-28 -14t-17 -34.5t-6 -55t-2 -90v-598q0 -278 -143 -413.5t-438 -135.5q-264 0 -419 107t-155 290v750q0 50 -0.5 77t-4.5 52.5t-9 36t-18 19.5t-26.5 11.5t-39.5 4.5zM659 1501l285 248q72 61 146 61 q43 0 69.5 -20t26.5 -53q0 -27 -20.5 -46t-75.5 -44l-308 -146h-123z" />
<glyph unicode="&#xdb;" horiz-adv-x="1593" d="M53 1319v76q159 -6 318 -6q160 0 319 6v-76l-76 -6q-26 -2 -39.5 -4.5t-26.5 -11.5t-18 -19.5t-9 -36t-4.5 -52.5t-0.5 -77v-508q0 -160 16.5 -242.5t57.5 -132.5q80 -96 287 -96q203 0 288 88q53 54 75 144.5t22 252.5v494q0 60 -2 90t-6 55t-17 34.5t-28 14t-46 7.5 l-76 6v76q117 -6 236 -6q116 0 233 6v-76l-75 -6q-31 -3 -46 -7.5t-28 -14t-17 -34.5t-6 -55t-2 -90v-598q0 -278 -143 -413.5t-438 -135.5q-264 0 -419 107t-155 290v750q0 50 -0.5 77t-4.5 52.5t-9 36t-18 19.5t-26.5 11.5t-39.5 4.5zM516 1511l268 293h207l271 -293h-127 l-248 166l-250 -166h-121z" />
<glyph unicode="&#xdc;" horiz-adv-x="1593" d="M53 1319v76q159 -6 318 -6q160 0 319 6v-76l-76 -6q-26 -2 -39.5 -4.5t-26.5 -11.5t-18 -19.5t-9 -36t-4.5 -52.5t-0.5 -77v-508q0 -160 16.5 -242.5t57.5 -132.5q80 -96 287 -96q203 0 288 88q53 54 75 144.5t22 252.5v494q0 60 -2 90t-6 55t-17 34.5t-28 14t-46 7.5 l-76 6v76q117 -6 236 -6q116 0 233 6v-76l-75 -6q-31 -3 -46 -7.5t-28 -14t-17 -34.5t-6 -55t-2 -90v-598q0 -278 -143 -413.5t-438 -135.5q-264 0 -419 107t-155 290v750q0 50 -0.5 77t-4.5 52.5t-9 36t-18 19.5t-26.5 11.5t-39.5 4.5zM532 1657q0 57 41 97t99 40 q55 0 95 -40.5t40 -96.5q0 -57 -40 -97t-97 -40t-97.5 40t-40.5 97zM973 1659q0 56 40.5 95.5t98.5 39.5q55 0 95 -40.5t40 -96.5q0 -57 -40 -97t-97 -40t-97 40.5t-40 98.5z" />
<glyph unicode="&#xdd;" horiz-adv-x="1366" d="M31 1274v76l325 73q71 -42 122 -102t112 -176l219 -416l385 660h158v-39l-361 -535q-50 -75 -108 -205v-334v-60.5t2 -45t3.5 -34t8 -22t11.5 -16t17.5 -8t23.5 -5.5t32 -3l76 -6v-82q-159 6 -320 6q-158 0 -317 -6v82l76 6q21 2 32 3t23.5 5.5t17.5 8t11.5 16t8 22 t3.5 34t2 45v60.5v285q-49 109 -90 174l-207 334q-80 130 -132 167.5t-134 37.5zM510 1501l285 248q72 61 145 61q43 0 69.5 -20t26.5 -53q0 -27 -20.5 -46t-75.5 -44l-307 -146h-123z" />
<glyph unicode="&#xde;" horiz-adv-x="1251" d="M80 -6v82l76 6q21 2 32 3t23.5 5.5t17.5 8t11.5 16t8 22t3.5 34t2 45v60.5v836q1 59 -1 90t-6 55.5t-16.5 34t-28 14t-46.5 7.5l-76 6v76q159 -6 317 -6q161 0 320 6v-76l-76 -6q-65 -5 -81.5 -29t-16.5 -113v-47q73 -6 147 -6q247 0 346 -51q140 -70 140 -256 q0 -181 -121 -307.5t-293 -126.5q-38 5 -64 8t-35 3.5t-15.5 1t-10.5 1.5v51v41q22 -14 88 -14q156 0 156 252q0 168 -58 242q-23 29 -54 41t-83 12q-94 0 -143 -19v-721v-62t2 -45.5t3.5 -34.5t8 -22.5t11 -15t18 -7t23.5 -5.5t32 -2l96 -6v-82q-169 6 -338 6 q-160 0 -319 -6z" />
<glyph unicode="&#xdf;" horiz-adv-x="1251" d="M61 -6v76l80 4q48 3 61 26t13 105v549h-145v47l141 92v149q0 57 33.5 112.5t111.5 125.5q116 104 209.5 149.5t194.5 45.5q140 0 223.5 -80t83.5 -213q0 -54 -9.5 -112.5t-39.5 -186.5l-12 -54l-27 -18q-51 39 -111 39q-46 0 -73 -21.5t-27 -58.5t24 -64.5t82 -58.5 q3 -2 11 -6l162 -94q60 -35 85 -81.5t25 -123.5q0 -66 -23.5 -114.5t-82.5 -104.5l-93 -86q-34 -32 -57 -41q-87 -31 -160 -31q-67 0 -149 43v-14q-123 6 -244 6q-143 0 -287 -6zM465 203q0 -72 12.5 -97.5t52.5 -29.5l60 -6l18 159l68 13l8 -111q73 -49 131 -49t97.5 35 t39.5 88q0 51 -33.5 87.5t-136.5 98.5q-116 71 -154 119.5t-38 124.5q0 153 188 283q30 21 57 28.5t68 7.5q15 100 15 136q0 109 -64.5 178t-165.5 69q-60 0 -111 -26t-77 -70q-35 -59 -35 -231v-807z" />
<glyph unicode="&#xe0;" horiz-adv-x="1024" d="M82 219q0 130 78 198.5t272 108.5l180 37q-4 126 -55 184t-154 58q-41 0 -77 -9t-41 -20l-45 -102l-62 14v141l109 66q116 70 245 70q155 0 241.5 -77t86.5 -212v-475q0 -72 11.5 -97t46.5 -28l61 -6v-76q-88 6 -180 6q-95 0 -187 -6l-10 16l10 127l-190 -147 q-31 -25 -100 -25q-117 0 -178.5 65t-61.5 189zM227 1325q0 41 25 65.5t65 24.5q67 0 134 -76l264 -303h-115l-285 176q-50 31 -69 55.5t-19 57.5zM332 272q0 -60 27.5 -94.5t76.5 -34.5q45 0 95 26.5t81 66.5v241l-92 -24q-109 -29 -148.5 -67.5t-39.5 -113.5z" />
<glyph unicode="&#xe1;" horiz-adv-x="1024" d="M82 219q0 130 78 198.5t272 108.5l180 37q-4 126 -55 184t-154 58q-41 0 -77 -9t-41 -20l-45 -102l-62 14v141l109 66q116 70 245 70q155 0 241.5 -77t86.5 -212v-475q0 -72 11.5 -97t46.5 -28l61 -6v-76q-88 6 -180 6q-95 0 -187 -6l-10 16l10 127l-190 -147 q-31 -25 -100 -25q-117 0 -178.5 65t-61.5 189zM332 272q0 -60 27.5 -94.5t76.5 -34.5q45 0 95 26.5t81 66.5v241l-92 -24q-109 -29 -148.5 -67.5t-39.5 -113.5zM350 1036l264 303q67 76 134 76q40 0 65 -24.5t25 -65.5q0 -33 -19 -57.5t-69 -55.5l-285 -176h-115z" />
<glyph unicode="&#xe2;" horiz-adv-x="1024" d="M82 219q0 130 78 198.5t272 108.5l180 37q-4 126 -55 184t-154 58q-41 0 -77 -9t-41 -20l-45 -102l-62 14v141l109 66q116 70 245 70q155 0 241.5 -77t86.5 -212v-475q0 -72 11.5 -97t46.5 -28l61 -6v-76q-88 6 -180 6q-95 0 -187 -6l-10 16l10 127l-190 -147 q-31 -25 -100 -25q-117 0 -178.5 65t-61.5 189zM186 1049l248 358h191l252 -358h-117l-230 200l-231 -200h-113zM332 272q0 -60 27.5 -94.5t76.5 -34.5q45 0 95 26.5t81 66.5v241l-92 -24q-109 -29 -148.5 -67.5t-39.5 -113.5z" />
<glyph unicode="&#xe3;" horiz-adv-x="1024" d="M82 219q0 130 78 198.5t272 108.5l180 37q-4 126 -55 184t-154 58q-41 0 -77 -9t-41 -20l-45 -102l-62 14v141l109 66q116 70 245 70q155 0 241.5 -77t86.5 -212v-475q0 -72 11.5 -97t46.5 -28l61 -6v-76q-88 6 -180 6q-95 0 -187 -6l-10 16l10 127l-190 -147 q-31 -25 -100 -25q-117 0 -178.5 65t-61.5 189zM158 1100q12 114 78 185t159 71q61 0 164 -49q105 -50 154 -50q36 0 56 19t48 80h88q-37 -134 -94.5 -196t-146.5 -62q-65 0 -172 51q-97 47 -158 47q-65 0 -94 -96h-82zM332 272q0 -60 27.5 -94.5t76.5 -34.5q45 0 95 26.5 t81 66.5v241l-92 -24q-109 -29 -148.5 -67.5t-39.5 -113.5z" />
<glyph unicode="&#xe4;" horiz-adv-x="1024" d="M82 219q0 130 78 198.5t272 108.5l180 37q-4 126 -55 184t-154 58q-41 0 -77 -9t-41 -20l-45 -102l-62 14v141l109 66q116 70 245 70q155 0 241.5 -77t86.5 -212v-475q0 -72 11.5 -97t46.5 -28l61 -6v-76q-88 6 -180 6q-95 0 -187 -6l-10 16l10 127l-190 -147 q-31 -25 -100 -25q-117 0 -178.5 65t-61.5 189zM174 1227q0 57 40.5 97t98.5 40q55 0 95.5 -40.5t40.5 -96.5q0 -57 -40.5 -97t-97.5 -40t-97 40t-40 97zM332 272q0 -60 27.5 -94.5t76.5 -34.5q45 0 95 26.5t81 66.5v241l-92 -24q-109 -29 -148.5 -67.5t-39.5 -113.5z M614 1229q0 56 41 95.5t99 39.5q55 0 95 -40.5t40 -96.5q0 -57 -40 -97t-97 -40t-97.5 40.5t-40.5 98.5z" />
<glyph unicode="&#xe5;" horiz-adv-x="1024" d="M82 219q0 130 78 198.5t272 108.5l180 37q-4 126 -55 184t-154 58q-41 0 -77 -9t-41 -20l-45 -102l-62 14v141l109 66q116 70 245 70q155 0 241.5 -77t86.5 -212v-475q0 -72 11.5 -97t46.5 -28l61 -6v-76q-88 6 -180 6q-95 0 -187 -6l-10 16l10 127l-190 -147 q-31 -25 -100 -25q-117 0 -178.5 65t-61.5 189zM328 1229q0 85 60.5 144t148.5 59q82 0 141 -61t59 -144q0 -85 -60 -145t-145 -60t-144.5 60.5t-59.5 146.5zM332 272q0 -60 27.5 -94.5t76.5 -34.5q45 0 95 26.5t81 66.5v241l-92 -24q-109 -29 -148.5 -67.5t-39.5 -113.5z M430 1227q0 -43 29.5 -73t72.5 -30t73 30t30 73q0 41 -29.5 71.5t-70.5 30.5q-44 0 -74.5 -29.5t-30.5 -72.5z" />
<glyph unicode="&#xe6;" horiz-adv-x="1593" d="M94 219q0 121 60 184q62 71 319 123l180 37q-3 68 -12.5 105t-32.5 71q-58 80 -174 80q-77 0 -147 -49l-33 -86l-66 8v137l109 66q116 70 250 70q94 0 154.5 -23t127.5 -84q69 57 137.5 82t153.5 25q169 0 273 -99.5t104 -261.5v-106q-163 -41 -323 -41h-269 q3 -72 13.5 -115t35.5 -86q38 -66 108 -105.5t148 -39.5q63 0 116.5 15.5t125.5 55.5l25 -30l-45 -99q-98 -51 -167.5 -69.5t-160.5 -18.5q-138 0 -233.5 46.5t-165.5 148.5l-234 -168q-14 -9 -55 -18t-74 -9q-107 0 -177.5 72t-70.5 182zM352 262q0 -57 31 -88t88 -31 q51 0 101 26t81 67v233l-112 -27q-97 -23 -143 -66.5t-46 -113.5zM893 565l65 -2l99 -4h8l172 6q-3 152 -42.5 218.5t-127.5 66.5q-89 0 -129 -66t-45 -219z" />
<glyph unicode="&#xe7;" horiz-adv-x="909" d="M76 469q0 133 55.5 220t192.5 169l106 64q73 43 184 43q56 0 98.5 -8t112.5 -33l15 -27q-27 -134 -41 -289h-74l-14 123q-5 36 -58 62t-123 26q-98 0 -149 -72t-51 -212q0 -197 86.5 -310.5t238.5 -113.5q80 0 174 39l19 -21l-43 -94q-128 -70 -277 -70l-49 -110 q49 12 94 12q71 0 113.5 -40.5t42.5 -109.5q0 -82 -73 -130t-199 -48q-86 0 -193 37l33 76q95 -19 137 -19q103 0 103 76q0 34 -20.5 53t-57.5 19q-19 0 -74 -8l-20 16l81 182q-183 25 -276.5 151.5t-93.5 346.5z" />
<glyph unicode="&#xe8;" horiz-adv-x="1024" d="M86 463q0 147 46.5 242t148.5 155l96 58q78 47 178 47q178 0 283.5 -98t105.5 -263v-106q-165 -41 -323 -41h-269q3 -74 14 -118t37 -87q38 -64 107.5 -102.5t146.5 -38.5q63 0 116.5 15.5t125.5 55.5l25 -30l-45 -99q-100 -51 -167.5 -69.5t-156.5 -18.5 q-230 0 -349.5 127t-119.5 371zM250 1325q0 41 25 65.5t65 24.5q66 0 133 -76l264 -303h-114l-285 176q-50 31 -69 55.5t-19 57.5zM340 565l66 -2q32 -1 52 -2t24.5 -1.5t8 -0.5h6h15.5l172 6q0 151 -40.5 218t-129.5 67q-90 0 -132 -67t-42 -218z" />
<glyph unicode="&#xe9;" horiz-adv-x="1024" d="M86 463q0 147 46.5 242t148.5 155l96 58q78 47 178 47q178 0 283.5 -98t105.5 -263v-106q-165 -41 -323 -41h-269q3 -74 14 -118t37 -87q38 -64 107.5 -102.5t146.5 -38.5q63 0 116.5 15.5t125.5 55.5l25 -30l-45 -99q-100 -51 -167.5 -69.5t-156.5 -18.5 q-230 0 -349.5 127t-119.5 371zM340 565l66 -2q32 -1 52 -2t24.5 -1.5t8 -0.5h6h15.5l172 6q0 151 -40.5 218t-129.5 67q-90 0 -132 -67t-42 -218zM373 1036l264 303q67 76 133 76q40 0 65 -24.5t25 -65.5q0 -33 -19 -57.5t-69 -55.5l-285 -176h-114z" />
<glyph unicode="&#xea;" horiz-adv-x="1024" d="M86 463q0 147 46.5 242t148.5 155l96 58q78 47 178 47q178 0 283.5 -98t105.5 -263v-106q-165 -41 -323 -41h-269q3 -74 14 -118t37 -87q38 -64 107.5 -102.5t146.5 -38.5q63 0 116.5 15.5t125.5 55.5l25 -30l-45 -99q-100 -51 -167.5 -69.5t-156.5 -18.5 q-230 0 -349.5 127t-119.5 371zM209 1049l248 358h190l252 -358h-117l-229 200l-231 -200h-113zM340 565l66 -2q32 -1 52 -2t24.5 -1.5t8 -0.5h6h15.5l172 6q0 151 -40.5 218t-129.5 67q-90 0 -132 -67t-42 -218z" />
<glyph unicode="&#xeb;" horiz-adv-x="1024" d="M86 463q0 147 46.5 242t148.5 155l96 58q78 47 178 47q178 0 283.5 -98t105.5 -263v-106q-165 -41 -323 -41h-269q3 -74 14 -118t37 -87q38 -64 107.5 -102.5t146.5 -38.5q63 0 116.5 15.5t125.5 55.5l25 -30l-45 -99q-100 -51 -167.5 -69.5t-156.5 -18.5 q-230 0 -349.5 127t-119.5 371zM197 1227q0 57 40.5 97t98.5 40q55 0 95 -40.5t40 -96.5q0 -57 -40 -97t-97 -40t-97 40t-40 97zM340 565l66 -2q32 -1 52 -2t24.5 -1.5t8 -0.5h6h15.5l172 6q0 151 -40.5 218t-129.5 67q-90 0 -132 -67t-42 -218zM637 1229q0 56 40.5 95.5 t98.5 39.5q55 0 95 -40.5t40 -96.5q0 -57 -40 -97t-97 -40t-97 40.5t-40 98.5z" />
<glyph unicode="&#xec;" d="M35 1325q0 41 25 65.5t65 24.5q66 0 133 -76l264 -303h-114l-285 176q-50 31 -69 55.5t-19 57.5zM70 -6v76l71 4q48 3 61 26t13 105v448q0 91 -9 116t-44 28l-92 6v74l30 4q107 15 201 39q25 6 61 17.5t59 19.5l23 8l21 -13v-747q0 -82 13 -105t61 -26l71 -4v-76 q-138 6 -276 6q-132 0 -264 -6z" />
<glyph unicode="&#xed;" d="M70 -6v76l71 4q48 3 61 26t13 105v448q0 91 -9 116t-44 28l-92 6v74l30 4q107 15 201 39q25 6 61 17.5t59 19.5l23 8l21 -13v-747q0 -82 13 -105t61 -26l71 -4v-76q-138 6 -276 6q-132 0 -264 -6zM158 1036l264 303q67 76 133 76q40 0 65 -24.5t25 -65.5q0 -33 -19 -57.5 t-69 -55.5l-285 -176h-114z" />
<glyph unicode="&#xee;" d="M-6 1049l248 358h190l252 -358h-117l-229 200l-232 -200h-112zM70 -6v76l71 4q48 3 61 26t13 105v448q0 91 -9 116t-44 28l-92 6v74l30 4q107 15 201 39q25 6 61 17.5t59 19.5l23 8l21 -13v-747q0 -82 13 -105t61 -26l71 -4v-76q-138 6 -276 6q-132 0 -264 -6z" />
<glyph unicode="&#xef;" d="M-18 1227q0 57 40.5 97t98.5 40q55 0 95 -40.5t40 -96.5q0 -57 -40 -97t-97 -40t-97 40t-40 97zM70 -6v76l71 4q48 3 61 26t13 105v448q0 91 -9 116t-44 28l-92 6v74l30 4q107 15 201 39q25 6 61 17.5t59 19.5l23 8l21 -13v-747q0 -82 13 -105t61 -26l71 -4v-76 q-138 6 -276 6q-132 0 -264 -6zM422 1229q0 56 40.5 95.5t98.5 39.5q55 0 95 -40.5t40 -96.5q0 -57 -40 -97t-97 -40t-97 40.5t-40 98.5z" />
<glyph unicode="&#xf0;" horiz-adv-x="1138" d="M82 459q0 237 128 371.5t353 134.5q55 0 113 -19q-25 99 -125 217l-272 -127l-37 78l247 115q-93 90 -194 139l82 107q104 -51 163 -85.5t119 -80.5l275 127l37 -78l-238 -111q116 -116 174 -200t99 -197q53 -148 53 -299q0 -272 -139.5 -429t-380.5 -157 q-217 0 -337 130t-120 364zM360 506q0 -218 55.5 -330.5t162.5 -112.5q104 0 153 97t49 301q0 206 -53.5 305.5t-165.5 99.5q-106 0 -153.5 -85t-47.5 -275z" />
<glyph unicode="&#xf1;" horiz-adv-x="1251" d="M49 -6v76l72 4q48 3 61 26t13 105v448q0 91 -9.5 116t-44.5 28l-92 6v74q86 5 156 20.5t227 67.5l12 -13v-153l164 127q48 39 144 39q154 0 237 -86q40 -43 56 -108.5t16 -184.5v-381q0 -82 13 -105t61 -26l67 -4v-76q-105 6 -207 6q-93 0 -184 -6v559q0 123 -46 179 t-147 56q-68 0 -121 -42.5t-53 -96.5v-444q0 -82 13 -105t61 -26l72 -4v-76q-138 6 -277 6q-132 0 -264 -6zM254 1100q12 114 78.5 185t159.5 71q60 0 163 -49q105 -50 154 -50q36 0 56 19t48 80h88q-37 -134 -94.5 -196t-146.5 -62q-65 0 -172 51q-97 47 -158 47 q-65 0 -94 -96h-82z" />
<glyph unicode="&#xf2;" horiz-adv-x="1138" d="M82 459q0 245 131 375.5t375 130.5q227 0 349 -124.5t122 -357.5q0 -249 -133 -383.5t-379 -134.5q-223 0 -344 129t-121 365zM262 1325q0 41 25 65.5t65 24.5q66 0 133 -76l265 -303h-115l-285 176q-50 31 -69 55.5t-19 57.5zM360 508q0 -445 224 -445q104 0 150 84.5 t46 272.5q0 226 -53.5 336t-163.5 110q-106 0 -154.5 -86t-48.5 -272z" />
<glyph unicode="&#xf3;" horiz-adv-x="1138" d="M82 459q0 245 131 375.5t375 130.5q227 0 349 -124.5t122 -357.5q0 -249 -133 -383.5t-379 -134.5q-223 0 -344 129t-121 365zM360 508q0 -445 224 -445q104 0 150 84.5t46 272.5q0 226 -53.5 336t-163.5 110q-106 0 -154.5 -86t-48.5 -272zM385 1036l264 303 q67 76 133 76q40 0 65 -24.5t25 -65.5q0 -33 -19 -57.5t-69 -55.5q-5 -3 -9 -5q-41 -27 -275 -171h-115z" />
<glyph unicode="&#xf4;" horiz-adv-x="1138" d="M82 459q0 245 131 375.5t375 130.5q227 0 349 -124.5t122 -357.5q0 -249 -133 -383.5t-379 -134.5q-223 0 -344 129t-121 365zM221 1049l248 358h190l252 -358h-116l-230 200l-231 -200h-113zM360 508q0 -445 224 -445q104 0 150 84.5t46 272.5q0 226 -53.5 336 t-163.5 110q-106 0 -154.5 -86t-48.5 -272z" />
<glyph unicode="&#xf5;" horiz-adv-x="1138" d="M82 459q0 245 131 375.5t375 130.5q227 0 349 -124.5t122 -357.5q0 -249 -133 -383.5t-379 -134.5q-223 0 -344 129t-121 365zM193 1100q12 114 78 185t159 71q61 0 164 -49q105 -50 154 -50q36 0 56 19t48 80h88q-37 -134 -95 -196t-147 -62q-65 0 -172 51 q-97 47 -157 47q-66 0 -95 -96h-81zM360 508q0 -445 224 -445q104 0 150 84.5t46 272.5q0 226 -53.5 336t-163.5 110q-106 0 -154.5 -86t-48.5 -272z" />
<glyph unicode="&#xf6;" horiz-adv-x="1138" d="M82 459q0 245 131 375.5t375 130.5q227 0 349 -124.5t122 -357.5q0 -249 -133 -383.5t-379 -134.5q-223 0 -344 129t-121 365zM209 1227q0 57 40.5 97t98.5 40q55 0 95 -40.5t40 -96.5q0 -57 -40 -97t-97 -40t-97 40t-40 97zM360 508q0 -445 224 -445q104 0 150 84.5 t46 272.5q0 226 -53.5 336t-163.5 110q-106 0 -154.5 -86t-48.5 -272zM649 1229q0 56 40.5 95.5t98.5 39.5q55 0 95.5 -40.5t40.5 -96.5q0 -57 -40.5 -97t-97.5 -40t-97 40.5t-40 98.5z" />
<glyph unicode="&#xf7;" horiz-adv-x="1241" d="M94 424v176h1053v-176h-1053zM461 164q0 66 47 113t113 47t112.5 -47t46.5 -113t-46.5 -113t-112.5 -47t-113 47t-47 113zM461 860q0 66 47 113t113 47t112.5 -47t46.5 -113t-46.5 -113t-112.5 -47t-113 47t-47 113z" />
<glyph unicode="&#xf8;" horiz-adv-x="1138" d="M47 10l129 121q-94 122 -94 328q0 244 130.5 375t373.5 131q114 0 195 -27.5t149 -89.5l114 110l50 -45l-123 -114q50 -72 69 -137.5t19 -163.5q0 -258 -131.5 -395.5t-380.5 -137.5q-98 0 -172 26.5t-156 90.5l-125 -119zM360 528q0 -82 17 -204l377 358 q-31 100 -74 142t-115 42q-205 0 -205 -338zM389 244q37 -97 82.5 -139t114.5 -42q103 0 148.5 85t45.5 276q0 107 -14 178z" />
<glyph unicode="&#xf9;" horiz-adv-x="1251" d="M51 803v74q148 18 232 43l143 45l20 -13v-534q0 -148 36 -208t124 -60q82 0 139.5 54t57.5 130v319q0 91 -9 116t-44 28l-93 6v74q150 19 232 43l143 45l21 -13v-747q0 -84 12 -106t61 -25l68 -4v-76q-105 6 -207 6q-95 0 -194 -6l10 170l-156 -152q-47 -47 -141 -47 q-149 0 -229 83.5t-80 238.5v366q0 91 -9.5 116t-44.5 28zM319 1325q0 41 25.5 65.5t65.5 24.5q66 0 133 -76l264 -303h-115q-234 144 -275 171q-4 2 -9 5q-50 31 -69.5 55.5t-19.5 57.5z" />
<glyph unicode="&#xfa;" horiz-adv-x="1251" d="M51 803v74q148 18 232 43l143 45l20 -13v-534q0 -148 36 -208t124 -60q82 0 139.5 54t57.5 130v319q0 91 -9 116t-44 28l-93 6v74q150 19 232 43l143 45l21 -13v-747q0 -84 12 -106t61 -25l68 -4v-76q-105 6 -207 6q-95 0 -194 -6l10 170l-156 -152q-47 -47 -141 -47 q-149 0 -229 83.5t-80 238.5v366q0 91 -9.5 116t-44.5 28zM442 1036l265 303q67 76 133 76q40 0 65 -24.5t25 -65.5q0 -33 -19 -57.5t-69 -55.5l-285 -176h-115z" />
<glyph unicode="&#xfb;" horiz-adv-x="1251" d="M51 803v74q148 18 232 43l143 45l20 -13v-534q0 -148 36 -208t124 -60q82 0 139.5 54t57.5 130v319q0 91 -9 116t-44 28l-93 6v74q150 19 232 43l143 45l21 -13v-747q0 -84 12 -106t61 -25l68 -4v-76q-105 6 -207 6q-95 0 -194 -6l10 170l-156 -152q-47 -47 -141 -47 q-149 0 -229 83.5t-80 238.5v366q0 91 -9.5 116t-44.5 28zM279 1049l247 358h191l252 -358h-117l-229 200l-232 -200h-112z" />
<glyph unicode="&#xfc;" horiz-adv-x="1251" d="M51 803v74q148 18 232 43l143 45l20 -13v-534q0 -148 36 -208t124 -60q82 0 139.5 54t57.5 130v319q0 91 -9 116t-44 28l-93 6v74q150 19 232 43l143 45l21 -13v-747q0 -84 12 -106t61 -25l68 -4v-76q-105 6 -207 6q-95 0 -194 -6l10 170l-156 -152q-47 -47 -141 -47 q-149 0 -229 83.5t-80 238.5v366q0 91 -9.5 116t-44.5 28zM266 1227q0 57 41 97t99 40q55 0 95 -40.5t40 -96.5q0 -57 -40.5 -97t-97.5 -40t-97 40t-40 97zM707 1229q0 56 40.5 95.5t98.5 39.5q55 0 95 -40.5t40 -96.5q0 -57 -40 -97t-97 -40t-97 40.5t-40 98.5z" />
<glyph unicode="&#xfd;" horiz-adv-x="1138" d="M20 862v78q135 -6 273 -6q135 0 270 6v-78l-71 -4q-24 -2 -39 -14.5t-15 -32.5q0 -16 5.5 -34t16 -42.5t13.5 -32.5l172 -446l207 516q8 20 8 45q0 17 -15 28t-40 13l-68 4v78q95 -6 191 -6q95 0 190 6v-78l-53 -10q-45 -9 -84 -96l-408 -949q-78 -181 -165.5 -266.5 t-194.5 -85.5q-73 0 -150 35l37 195l23 8q67 -76 143 -76q53 0 103.5 49.5t85.5 136.5l47 115l-324 827q-23 59 -43 85.5t-43 27.5zM397 1036l265 303q67 76 133 76q40 0 65 -24.5t25 -65.5q0 -33 -19 -57.5t-69 -55.5l-285 -176h-115z" />
<glyph unicode="&#xfe;" horiz-adv-x="1251" d="M35 1313v73q155 16 248 44l147 45l16 -13v-678l125 101q54 43 102.5 61.5t108.5 18.5q160 0 265.5 -108t105.5 -271q0 -139 -54 -255t-155 -192q-16 -13 -35 -26q-104 -83 -165.5 -115.5t-114.5 -32.5q-62 0 -183 35v-317q0 -83 13.5 -106.5t60.5 -25.5l92 -4v-75 q-147 6 -297 6q-132 0 -264 -6v75l72 4q48 3 61 26t13 106v1480q0 90 -10 116t-44 28zM446 217q80 -113 207 -113q112 0 177 94.5t65 254.5q0 154 -67 240.5t-185 86.5q-129 0 -197 -102v-461z" />
<glyph unicode="&#xff;" horiz-adv-x="1138" d="M20 862v78q135 -6 273 -6q135 0 270 6v-78l-71 -4q-24 -2 -39 -14.5t-15 -32.5q0 -16 5.5 -34t16 -42.5t13.5 -32.5l172 -446l207 516q8 20 8 45q0 17 -15 28t-40 13l-68 4v78q95 -6 191 -6q95 0 190 6v-78l-53 -10q-45 -9 -84 -96l-408 -949q-78 -181 -165.5 -266.5 t-194.5 -85.5q-73 0 -150 35l37 195l23 8q67 -76 143 -76q53 0 103.5 49.5t85.5 136.5l47 115l-324 827q-23 59 -43 85.5t-43 27.5zM221 1227q0 57 40.5 97t98.5 40q55 0 95.5 -40.5t40.5 -96.5q0 -57 -40.5 -97t-97.5 -40t-97 40t-40 97zM662 1229q0 56 40.5 95.5 t98.5 39.5q55 0 95 -40.5t40 -96.5q0 -57 -40 -97t-97 -40t-97 40.5t-40 98.5z" />
<glyph unicode="&#x100;" horiz-adv-x="1593" d="M49 -6v76l62 6q66 6 114 123l371 897l117 309h145l531 -1239q20 -44 44.5 -64t67.5 -26l49 -6v-76q-164 6 -323 6q-156 0 -312 -6v76l109 6q19 1 29 14t10.5 31.5t-2.5 35t-8 31.5l-92 234h-515l-86 -229q-7 -24 -8.5 -49.5t14 -45.5t44.5 -22l102 -6v-76q-117 6 -231 6 q-115 0 -232 -6zM449 1585v146h677v-146h-677zM496 537h417l-213 520z" />
<glyph unicode="&#x101;" horiz-adv-x="1024" d="M82 219q0 130 78 198.5t272 108.5l180 37q-4 126 -55 184t-154 58q-41 0 -77 -9t-41 -20l-45 -102l-62 14v141l109 66q116 70 245 70q155 0 241.5 -77t86.5 -212v-475q0 -72 11.5 -97t46.5 -28l61 -6v-76q-88 6 -180 6q-95 0 -187 -6l-10 16l10 127l-190 -147 q-31 -25 -100 -25q-117 0 -178.5 65t-61.5 189zM193 1155v145h677v-145h-677zM332 272q0 -60 27.5 -94.5t76.5 -34.5q45 0 95 26.5t81 66.5v241l-92 -24q-109 -29 -148.5 -67.5t-39.5 -113.5z" />
<glyph unicode="&#x102;" horiz-adv-x="1593" d="M49 -6v76l62 6q66 6 114 123l371 897l117 309h145l531 -1239q20 -44 44.5 -64t67.5 -26l49 -6v-76q-164 6 -323 6q-156 0 -312 -6v76l109 6q19 1 29 14t10.5 31.5t-2.5 35t-8 31.5l-92 234h-515l-86 -229q-7 -24 -8.5 -49.5t14 -45.5t44.5 -22l102 -6v-76q-117 6 -231 6 q-115 0 -232 -6zM451 1794h98q34 -143 229 -143q100 0 173 44.5t73 94.5v4h98q-33 -272 -336 -272q-154 0 -241 68.5t-94 203.5zM496 537h417l-213 520z" />
<glyph unicode="&#x103;" horiz-adv-x="1024" d="M82 219q0 130 78 198.5t272 108.5l180 37q-4 126 -55 184t-154 58q-41 0 -77 -9t-41 -20l-45 -102l-62 14v141l109 66q116 70 245 70q155 0 241.5 -77t86.5 -212v-475q0 -72 11.5 -97t46.5 -28l61 -6v-76q-88 6 -180 6q-95 0 -187 -6l-10 16l10 127l-190 -147 q-31 -25 -100 -25q-117 0 -178.5 65t-61.5 189zM221 1395h90q34 -178 213 -178q114 0 178 73q50 57 50 101v4h90q-6 -76 -17.5 -119.5t-36.5 -83.5q-81 -131 -256 -131q-193 0 -272 151q-34 66 -39 183zM332 272q0 -60 27.5 -94.5t76.5 -34.5q45 0 95 26.5t81 66.5v241 l-92 -24q-109 -29 -148.5 -67.5t-39.5 -113.5z" />
<glyph unicode="&#x104;" horiz-adv-x="1593" d="M49 -6v76l62 6q66 6 114 123l371 897l117 309h145l531 -1239q20 -44 44.5 -64t67.5 -26l49 -6v-76l-96 4q-79 0 -145 -96q-56 -80 -56 -156q0 -51 19.5 -87t66.5 -36q24 0 39.5 1t34.5 5.5t32 14.5t19 26l25 62l61 -15v-120l-108 -76q-22 -15 -54.5 -23t-55 -9t-62.5 -1 q-83 0 -129.5 61t-46.5 146q0 185 192 305h-59l-312 -6v76l109 6q19 1 29 14t10.5 31.5t-2.5 35t-8 31.5l-92 234h-515l-86 -229q-7 -24 -8.5 -49.5t14 -45.5t44.5 -22l102 -6v-76q-117 6 -231 6q-115 0 -232 -6zM496 537h417l-213 520z" />
<glyph unicode="&#x105;" horiz-adv-x="1024" d="M82 219q0 130 78 198.5t272 108.5l180 37q-4 126 -55 184t-154 58q-41 0 -77 -9t-41 -20l-45 -102l-62 14v141l109 66q116 70 245 70q155 0 241.5 -77t86.5 -212v-475q0 -72 11.5 -97t46.5 -28l61 -6v-76l-72 4q-51 1 -95 -25t-75 -71q-55 -78 -55 -156q0 -51 19.5 -87 t66.5 -36q24 0 39.5 1t34.5 5.5t32 14.5t19 26l25 62l61 -15v-120l-109 -76q-22 -15 -54.5 -23t-55 -9t-62.5 -1q-83 0 -129.5 61t-46.5 146q0 188 191 303l-101 -4l-10 16l10 127l-190 -147q-31 -25 -100 -25q-117 0 -178.5 65t-61.5 189zM332 272q0 -60 27.5 -94.5 t76.5 -34.5q45 0 95 26.5t81 66.5v241l-92 -24q-109 -29 -148.5 -67.5t-39.5 -113.5z" />
<glyph unicode="&#x106;" horiz-adv-x="1478" d="M90 711q0 329 227 520.5t615 191.5q135 0 238 -20.5t241 -75.5l12 -22q-21 -91 -47 -314h-80l-10 176q-84 77 -166 109.5t-198 32.5q-244 0 -384.5 -153t-140.5 -417q0 -290 163 -465.5t433 -175.5q201 0 400 105l24 -25l-45 -100q-114 -63 -216.5 -88t-244.5 -25 q-379 0 -600 201t-221 545zM625 1501l284 248q72 61 146 61q43 0 69.5 -20t26.5 -53q0 -27 -20.5 -46t-75.5 -44l-307 -146h-123z" />
<glyph unicode="&#x107;" horiz-adv-x="909" d="M76 469q0 133 55.5 220t192.5 169l106 64q73 43 184 43q56 0 98.5 -8t112.5 -33l15 -27q-27 -134 -41 -289h-74l-14 123q-5 36 -58 62t-123 26q-98 0 -149 -72t-51 -212q0 -197 86.5 -310.5t238.5 -113.5q80 0 174 39l19 -21l-43 -94q-132 -70 -275 -70 q-221 0 -337.5 129.5t-116.5 374.5zM348 1036l264 303q67 76 133 76q40 0 65.5 -24.5t25.5 -65.5q0 -33 -19 -57.5t-69 -55.5l-285 -176h-115z" />
<glyph unicode="&#x108;" horiz-adv-x="1478" d="M90 711q0 329 227 520.5t615 191.5q135 0 238 -20.5t241 -75.5l12 -22q-21 -91 -47 -314h-80l-10 176q-84 77 -166 109.5t-198 32.5q-244 0 -384.5 -153t-140.5 -417q0 -290 163 -465.5t433 -175.5q201 0 400 105l24 -25l-45 -100q-114 -63 -216.5 -88t-244.5 -25 q-379 0 -600 201t-221 545zM481 1511l269 293h206l271 -293h-127l-248 166l-250 -166h-121z" />
<glyph unicode="&#x109;" horiz-adv-x="909" d="M76 469q0 133 55.5 220t192.5 169l106 64q73 43 184 43q56 0 98.5 -8t112.5 -33l15 -27q-27 -134 -41 -289h-74l-14 123q-5 36 -58 62t-123 26q-98 0 -149 -72t-51 -212q0 -197 86.5 -310.5t238.5 -113.5q80 0 174 39l19 -21l-43 -94q-132 -70 -275 -70 q-221 0 -337.5 129.5t-116.5 374.5zM184 1049l248 358h191l251 -358h-116l-230 200l-231 -200h-113z" />
<glyph unicode="&#x10a;" horiz-adv-x="1478" d="M90 711q0 329 227 520.5t615 191.5q135 0 238 -20.5t241 -75.5l12 -22q-21 -91 -47 -314h-80l-10 176q-84 77 -166 109.5t-198 32.5q-244 0 -384.5 -153t-140.5 -417q0 -290 163 -465.5t433 -175.5q201 0 400 105l24 -25l-45 -100q-114 -63 -216.5 -88t-244.5 -25 q-379 0 -600 201t-221 545zM719 1659q0 56 40.5 95.5t98.5 39.5q55 0 95 -40.5t40 -96.5q0 -57 -40 -97t-97 -40t-97 40.5t-40 98.5z" />
<glyph unicode="&#x10b;" horiz-adv-x="909" d="M76 469q0 133 55.5 220t192.5 169l106 64q73 43 184 43q56 0 98.5 -8t112.5 -33l15 -27q-27 -134 -41 -289h-74l-14 123q-5 36 -58 62t-123 26q-98 0 -149 -72t-51 -212q0 -197 86.5 -310.5t238.5 -113.5q80 0 174 39l19 -21l-43 -94q-132 -70 -275 -70 q-221 0 -337.5 129.5t-116.5 374.5zM393 1229q0 56 40.5 95.5t98.5 39.5q55 0 95.5 -40.5t40.5 -96.5q0 -57 -40.5 -97t-97.5 -40t-97 40.5t-40 98.5z" />
<glyph unicode="&#x10c;" horiz-adv-x="1478" d="M90 711q0 329 227 520.5t615 191.5q135 0 238 -20.5t241 -75.5l12 -22q-21 -91 -47 -314h-80l-10 176q-84 77 -166 109.5t-198 32.5q-244 0 -384.5 -153t-140.5 -417q0 -290 163 -465.5t433 -175.5q201 0 400 105l24 -25l-45 -100q-114 -63 -216.5 -88t-244.5 -25 q-379 0 -600 201t-221 545zM481 1804h127l248 -166l250 166h121l-269 -293h-206z" />
<glyph unicode="&#x10d;" horiz-adv-x="909" d="M76 469q0 133 55.5 220t192.5 169l106 64q73 43 184 43q56 0 98.5 -8t112.5 -33l15 -27q-27 -134 -41 -289h-74l-14 123q-5 36 -58 62t-123 26q-98 0 -149 -72t-51 -212q0 -197 86.5 -310.5t238.5 -113.5q80 0 174 39l19 -21l-43 -94q-132 -70 -275 -70 q-221 0 -337.5 129.5t-116.5 374.5zM184 1407h113l231 -201l230 201h116l-251 -358h-191z" />
<glyph unicode="&#x10e;" horiz-adv-x="1705" d="M72 1319v76q166 -6 331 -6q82 0 245 3t245 3q206 0 337.5 -40t221.5 -130q158 -155 158 -455q0 -332 -213 -539q-115 -114 -276.5 -175.5t-344.5 -61.5q-53 0 -159.5 3t-159.5 3q-159 0 -318 -6v47l66 37q23 12 32 38.5t9 78.5v917q0 60 -2 90t-6 55t-17 34.5t-28 14 t-46 7.5zM403 1804h127l248 -166l250 166h121l-268 -293h-207zM535 117q70 -11 139 -11q172 0 287 35.5t192 110.5q150 150 150 461q0 299 -136 432q-150 147 -503 147q-64 0 -129 -8v-1167z" />
<glyph unicode="&#x10f;" horiz-adv-x="1251" d="M86 444q0 259 172 371l148 96q85 54 180 54q77 0 164 -35l41 -17v250q0 90 -10 116t-44 28l-108 6v73q155 16 248 44l147 45l16 -13v-1257q0 -82 13 -105t61 -26l68 -4v-76q-105 6 -207 6q-93 0 -184 -6l-11 16l11 154l-213 -174q-31 -25 -101 -25q-180 0 -285.5 129.5 t-105.5 349.5zM344 522q0 -166 64.5 -264t173.5 -98q85 0 147 49.5t62 118.5v377q-100 129 -230 129q-217 0 -217 -312zM1135 1108q27 61 43.5 116.5t21.5 84t17 110.5q126 16 219 56l22 -23q-8 -18 -15.5 -34t-17.5 -35t-15.5 -30.5t-19.5 -34.5t-19 -31.5t-23 -37 t-23 -35.5t-28 -43t-29 -45l-109 -45z" />
<glyph unicode="&#x110;" horiz-adv-x="1705" d="M20 692v86h226v334q0 60 -2 90t-6 55t-17 34.5t-28 14t-46 7.5l-75 6v76q166 -6 331 -6q82 0 245 3t245 3q206 0 337.5 -40t221.5 -130q158 -155 158 -455q0 -332 -213 -539q-115 -114 -276.5 -175.5t-344.5 -61.5q-53 0 -159.5 3t-159.5 3q-159 0 -318 -6v47l66 37 q23 12 32 38.5t9 78.5v497h-226zM535 117q70 -11 139 -11q172 0 287 35.5t192 110.5q150 150 150 461q0 299 -136 432q-150 147 -503 147q-64 0 -129 -8v-506h309v-86h-309v-575z" />
<glyph unicode="&#x111;" horiz-adv-x="1251" d="M86 444q0 132 42 222t130 149l148 96q82 54 178 54q79 0 166 -35l41 -17v189h-259v86h259q-1 75 -10.5 95.5t-43.5 23.5l-108 6v73q155 16 248 44l147 45l16 -13v-274h170v-86h-170v-897q0 -82 13 -105t61 -26l68 -4v-76q-43 2 -97 2l-110 4l-184 -6l-11 16l11 154 l-213 -174q-31 -25 -101 -25q-180 0 -285.5 129.5t-105.5 349.5zM344 522q0 -166 64.5 -264t173.5 -98q85 0 147 49.5t62 118.5v377q-100 129 -232 129q-215 0 -215 -312z" />
<glyph unicode="&#x112;" horiz-adv-x="1251" d="M80 1319v76q193 -6 389 -6q81 0 241.5 3t241.5 3t195 -6l12 -15l-29 -291h-73l-17 154q-1 17 -58 28t-142 11l-297 -6v-492q41 -4 137 -4h135q64 0 89 9t28 34l12 117h82q-6 -111 -6 -219q0 -110 6 -221h-82l-12 102q-5 40 -32 58t-85 18h-135q-52 0 -137 -6v-547l305 -6 q70 0 137 11t70 23l47 193h80l-23 -324l-10 -16q-117 -6 -287 -6q-77 0 -231.5 3t-231.5 3q-126 0 -252 -6v47l66 37q23 12 32 38t9 79v917q0 50 -0.5 77t-4.5 52.5t-9 36t-18 19.5t-26.5 11.5t-39.5 4.5zM311 1585v146h678v-146h-678z" />
<glyph unicode="&#x113;" horiz-adv-x="1024" d="M86 463q0 147 46.5 242t148.5 155l96 58q78 47 178 47q178 0 283.5 -98t105.5 -263v-106q-165 -41 -323 -41h-269q3 -74 14 -118t37 -87q38 -64 107.5 -102.5t146.5 -38.5q63 0 116.5 15.5t125.5 55.5l25 -30l-45 -99q-100 -51 -167.5 -69.5t-156.5 -18.5 q-230 0 -349.5 127t-119.5 371zM215 1155v145h678v-145h-678zM340 565l66 -2q32 -1 52 -2t24.5 -1.5t8 -0.5h6h15.5l172 6q0 151 -40.5 218t-129.5 67q-90 0 -132 -67t-42 -218z" />
<glyph unicode="&#x114;" horiz-adv-x="1251" d="M80 1319v76q193 -6 389 -6q81 0 241.5 3t241.5 3t195 -6l12 -15l-29 -291h-73l-17 154q-1 17 -58 28t-142 11l-297 -6v-492q41 -4 137 -4h135q64 0 89 9t28 34l12 117h82q-6 -111 -6 -219q0 -110 6 -221h-82l-12 102q-5 40 -32 58t-85 18h-135q-52 0 -137 -6v-547l305 -6 q70 0 137 11t70 23l47 193h80l-23 -324l-10 -16q-117 -6 -287 -6q-77 0 -231.5 3t-231.5 3q-126 0 -252 -6v47l66 37q23 12 32 38t9 79v917q0 50 -0.5 77t-4.5 52.5t-9 36t-18 19.5t-26.5 11.5t-39.5 4.5zM313 1794h99q34 -143 229 -143q100 0 173 44.5t73 94.5v4h98 q-33 -272 -336 -272q-154 0 -241.5 68.5t-94.5 203.5z" />
<glyph unicode="&#x115;" horiz-adv-x="1024" d="M86 463q0 147 46.5 242t148.5 155l96 58q78 47 178 47q178 0 283.5 -98t105.5 -263v-106q-165 -41 -323 -41h-269q3 -74 14 -118t37 -87q38 -64 107.5 -102.5t146.5 -38.5q63 0 116.5 15.5t125.5 55.5l25 -30l-45 -99q-100 -51 -167.5 -69.5t-156.5 -18.5 q-230 0 -349.5 127t-119.5 371zM244 1395h90q34 -178 213 -178q114 0 178 73q21 24 35 52.5t14 48.5v4h90q-6 -77 -17 -120t-36 -83q-81 -131 -256 -131q-193 0 -272 151q-34 66 -39 183zM340 565l66 -2q32 -1 52 -2t24.5 -1.5t8 -0.5h6h15.5l172 6q0 151 -40.5 218 t-129.5 67q-90 0 -132 -67t-42 -218z" />
<glyph unicode="&#x116;" horiz-adv-x="1251" d="M80 1319v76q193 -6 389 -6q81 0 241.5 3t241.5 3t195 -6l12 -15l-29 -291h-73l-17 154q-1 17 -58 28t-142 11l-297 -6v-492q41 -4 137 -4h135q64 0 89 9t28 34l12 117h82q-6 -111 -6 -219q0 -110 6 -221h-82l-12 102q-5 40 -32 58t-85 18h-135q-52 0 -137 -6v-547l305 -6 q70 0 137 11t70 23l47 193h80l-23 -324l-10 -16q-117 -6 -287 -6q-77 0 -231.5 3t-231.5 3q-126 0 -252 -6v47l66 37q23 12 32 38t9 79v917q0 50 -0.5 77t-4.5 52.5t-9 36t-18 19.5t-26.5 11.5t-39.5 4.5zM514 1659q0 56 40.5 95.5t98.5 39.5q55 0 95 -40.5t40 -96.5 q0 -57 -40 -97t-97 -40t-97 40.5t-40 98.5z" />
<glyph unicode="&#x117;" horiz-adv-x="1024" d="M86 463q0 147 46.5 242t148.5 155l96 58q78 47 178 47q178 0 283.5 -98t105.5 -263v-106q-165 -41 -323 -41h-269q3 -74 14 -118t37 -87q38 -64 107.5 -102.5t146.5 -38.5q63 0 116.5 15.5t125.5 55.5l25 -30l-45 -99q-100 -51 -167.5 -69.5t-156.5 -18.5 q-230 0 -349.5 127t-119.5 371zM340 565l66 -2q32 -1 52 -2t24.5 -1.5t8 -0.5h6h15.5l172 6q0 151 -40.5 218t-129.5 67q-90 0 -132 -67t-42 -218zM418 1229q0 56 40.5 95.5t98.5 39.5q55 0 95 -40.5t40 -96.5q0 -57 -40 -97t-97 -40t-97 40.5t-40 98.5z" />
<glyph unicode="&#x118;" horiz-adv-x="1251" d="M80 1319v76q193 -6 389 -6q81 0 241.5 3t241.5 3t195 -6l12 -15l-29 -291h-73l-17 154q-1 17 -58 28t-142 11l-297 -6v-492q41 -4 137 -4h135q64 0 89 9t28 34l12 117h82q-6 -111 -6 -219q0 -110 6 -221h-82l-12 102q-5 40 -32 58t-85 18h-135q-52 0 -137 -6v-547l305 -6 q70 0 137 11t70 23l47 193h80l-23 -324l-10 -16l-92 -4q-46 -1 -87.5 -27t-70.5 -67q-55 -78 -55 -156q0 -51 19.5 -87t66.5 -36q24 0 39.5 1t34.5 5.5t32 14.5t19 26l24 62l62 -15v-120l-109 -76q-22 -15 -54.5 -23t-55 -9t-62.5 -1q-83 0 -129.5 61t-46.5 146 q0 185 182 299h-4q-77 0 -231.5 3t-231.5 3q-126 0 -252 -6v47l66 37q23 12 32 38t9 79v917q0 50 -0.5 77t-4.5 52.5t-9 36t-18 19.5t-26.5 11.5t-39.5 4.5z" />
<glyph unicode="&#x119;" horiz-adv-x="1024" d="M86 463q0 147 46.5 242t148.5 155l96 58q78 47 178 47q178 0 283.5 -98t105.5 -263v-106q-165 -41 -323 -41h-269q3 -74 14 -118t37 -87q38 -64 107.5 -102.5t146.5 -38.5q63 0 116.5 15.5t125.5 55.5l25 -30l-45 -99q-63 -31 -91 -43q-68 -26 -126 -108 q-56 -80 -56 -156q0 -51 19.5 -87t66.5 -36q24 0 39.5 1t34.5 5.5t32 14.5t19 26l25 62l61 -15v-120l-108 -76q-22 -15 -54.5 -23t-55 -9t-62.5 -1q-83 0 -130 61t-47 146q0 163 142 270h-33q-230 0 -349.5 127t-119.5 371zM340 565l66 -2q32 -1 52 -2t24.5 -1.5t8 -0.5h6 h15.5l172 6q0 151 -40.5 218t-129.5 67q-90 0 -132 -67t-42 -218z" />
<glyph unicode="&#x11a;" horiz-adv-x="1251" d="M80 1319v76q193 -6 389 -6q81 0 241.5 3t241.5 3t195 -6l12 -15l-29 -291h-73l-17 154q-1 17 -58 28t-142 11l-297 -6v-492q41 -4 137 -4h135q64 0 89 9t28 34l12 117h82q-6 -111 -6 -219q0 -110 6 -221h-82l-12 102q-5 40 -32 58t-85 18h-135q-52 0 -137 -6v-547l305 -6 q70 0 137 11t70 23l47 193h80l-23 -324l-10 -16q-117 -6 -287 -6q-77 0 -231.5 3t-231.5 3q-126 0 -252 -6v47l66 37q23 12 32 38t9 79v917q0 50 -0.5 77t-4.5 52.5t-9 36t-18 19.5t-26.5 11.5t-39.5 4.5zM276 1804h127l248 -166l250 166h121l-268 -293h-207z" />
<glyph unicode="&#x11b;" horiz-adv-x="1024" d="M86 463q0 147 46.5 242t148.5 155l96 58q78 47 178 47q178 0 283.5 -98t105.5 -263v-106q-165 -41 -323 -41h-269q3 -74 14 -118t37 -87q38 -64 107.5 -102.5t146.5 -38.5q63 0 116.5 15.5t125.5 55.5l25 -30l-45 -99q-100 -51 -167.5 -69.5t-156.5 -18.5 q-230 0 -349.5 127t-119.5 371zM209 1407h113l231 -201l229 201h117l-252 -358h-190zM340 565l66 -2q32 -1 52 -2t24.5 -1.5t8 -0.5h6h15.5l172 6q0 151 -40.5 218t-129.5 67q-90 0 -132 -67t-42 -218z" />
<glyph unicode="&#x11c;" horiz-adv-x="1705" d="M96 709q0 331 227.5 522.5t620.5 191.5q151 0 273.5 -22t261.5 -74l12 -22q-21 -91 -47 -314h-80l-10 176q-149 142 -420 142q-250 0 -390.5 -153t-140.5 -423q0 -292 152 -472.5t399 -180.5q124 0 260 51v270q0 40 -25.5 56.5t-90.5 19.5l-109 4v84q147 -6 293 -6 q154 0 307 6v-69q-56 -12 -70 -24.5t-14 -49.5v-334q-184 -69 -318 -96t-290 -27q-364 0 -582.5 203t-218.5 541zM467 1511l268 293h207l270 -293h-127l-247 166l-250 -166h-121z" />
<glyph unicode="&#x11d;" horiz-adv-x="1138" d="M53 -254q0 41 15 77.5t38 49.5l166 98q-76 20 -107.5 51t-31.5 87q0 31 10 59.5t25 38.5l145 110q-54 19 -83 36t-58 48q-76 82 -76 197q0 161 124.5 264t320.5 103q190 0 311 -88q49 -3 74 -3q52 0 168 11l-11 -131l-157 8q10 -49 10 -96q0 -148 -90 -238 q-63 -63 -157 -97t-200 -34q-7 0 -81 4q-60 -37 -60 -80q0 -64 96 -61l299 8h50q155 0 229 -62.5t74 -191.5q0 -204 -166 -331.5t-434 -127.5q-203 0 -323 79t-120 212zM195 1049l247 358h191l252 -358h-117l-229 200l-232 -200h-112zM246 -229q0 -95 83.5 -154t219.5 -59 q137 0 228 70.5t91 176.5q0 67 -26.5 101.5t-91.5 48.5t-193 14q-162 0 -207 -22q-46 -22 -75 -70.5t-29 -105.5zM348 637q0 -115 46 -180.5t126 -65.5q164 0 164 221q0 122 -43 186t-125 64q-168 0 -168 -225z" />
<glyph unicode="&#x11e;" horiz-adv-x="1705" d="M96 709q0 331 227.5 522.5t620.5 191.5q151 0 273.5 -22t261.5 -74l12 -22q-21 -91 -47 -314h-80l-10 176q-149 142 -420 142q-250 0 -390.5 -153t-140.5 -423q0 -292 152 -472.5t399 -180.5q124 0 260 51v270q0 40 -25.5 56.5t-90.5 19.5l-109 4v84q147 -6 293 -6 q154 0 307 6v-69q-56 -12 -70 -24.5t-14 -49.5v-334q-184 -69 -318 -96t-290 -27q-364 0 -582.5 203t-218.5 541zM504 1794h98q34 -143 229 -143q100 0 173 44.5t73 94.5v4h99q-33 -272 -336 -272q-154 0 -241.5 68.5t-94.5 203.5z" />
<glyph unicode="&#x11f;" horiz-adv-x="1138" d="M53 -254q0 41 15 77.5t38 49.5l166 98q-76 20 -107.5 51t-31.5 87q0 31 10 59.5t25 38.5l145 110q-54 19 -83 36t-58 48q-76 82 -76 197q0 161 124.5 264t320.5 103q190 0 311 -88q49 -3 74 -3q52 0 168 11l-11 -131l-157 8q10 -49 10 -96q0 -148 -90 -238 q-63 -63 -157 -97t-200 -34q-7 0 -81 4q-60 -37 -60 -80q0 -64 96 -61l299 8h50q155 0 229 -62.5t74 -191.5q0 -204 -166 -331.5t-434 -127.5q-203 0 -323 79t-120 212zM229 1395h90q34 -178 213 -178q115 0 179 73q21 24 35 52.5t14 48.5v4h90q-6 -77 -17 -120t-36 -83 q-81 -131 -256 -131q-94 0 -164.5 39t-108.5 112q-34 66 -39 183zM246 -229q0 -95 83.5 -154t219.5 -59q137 0 228 70.5t91 176.5q0 67 -26.5 101.5t-91.5 48.5t-193 14q-162 0 -207 -22q-46 -22 -75 -70.5t-29 -105.5zM348 637q0 -115 46 -180.5t126 -65.5q164 0 164 221 q0 122 -43 186t-125 64q-168 0 -168 -225z" />
<glyph unicode="&#x120;" horiz-adv-x="1705" d="M96 709q0 331 227.5 522.5t620.5 191.5q151 0 273.5 -22t261.5 -74l12 -22q-21 -91 -47 -314h-80l-10 176q-149 142 -420 142q-250 0 -390.5 -153t-140.5 -423q0 -292 152 -472.5t399 -180.5q124 0 260 51v270q0 40 -25.5 56.5t-90.5 19.5l-109 4v84q147 -6 293 -6 q154 0 307 6v-69q-56 -12 -70 -24.5t-14 -49.5v-334q-184 -69 -318 -96t-290 -27q-364 0 -582.5 203t-218.5 541zM705 1659q0 56 40.5 95.5t98.5 39.5q55 0 95 -40.5t40 -96.5q0 -57 -40 -97t-97 -40t-97 40.5t-40 98.5z" />
<glyph unicode="&#x121;" horiz-adv-x="1138" d="M53 -254q0 41 15 77.5t38 49.5l166 98q-76 20 -107.5 51t-31.5 87q0 31 10 59.5t25 38.5l145 110q-54 19 -83 36t-58 48q-76 82 -76 197q0 161 124.5 264t320.5 103q190 0 311 -88q49 -3 74 -3q52 0 168 11l-11 -131l-157 8q10 -49 10 -96q0 -148 -90 -238 q-63 -63 -157 -97t-200 -34q-7 0 -81 4q-60 -37 -60 -80q0 -64 96 -61l299 8h50q155 0 229 -62.5t74 -191.5q0 -204 -166 -331.5t-434 -127.5q-203 0 -323 79t-120 212zM246 -229q0 -95 83.5 -154t219.5 -59q137 0 228 70.5t91 176.5q0 67 -26.5 101.5t-91.5 48.5t-193 14 q-162 0 -207 -22q-46 -22 -75 -70.5t-29 -105.5zM348 637q0 -115 46 -180.5t126 -65.5q164 0 164 221q0 122 -43 186t-125 64q-168 0 -168 -225zM403 1229q0 56 41 95.5t99 39.5q55 0 95 -40.5t40 -96.5q0 -57 -40 -97t-97 -40t-97.5 40.5t-40.5 98.5z" />
<glyph unicode="&#x122;" horiz-adv-x="1705" d="M96 709q0 331 227.5 522.5t620.5 191.5q151 0 273.5 -22t261.5 -74l12 -22q-21 -91 -47 -314h-80l-10 176q-149 142 -420 142q-250 0 -390.5 -153t-140.5 -423q0 -292 152 -472.5t399 -180.5q124 0 260 51v270q0 40 -25.5 56.5t-90.5 19.5l-109 4v84q147 -6 293 -6 q154 0 307 6v-69q-56 -12 -70 -24.5t-14 -49.5v-334q-184 -69 -318 -96t-290 -27q-364 0 -582.5 203t-218.5 541zM629 -502q36 82 50.5 140t28.5 150q0 3 0.5 5t1 5.5t1 6t0.5 5.5q129 17 219 55l22 -23q-9 -20 -18.5 -40t-17 -35.5t-21 -38t-20.5 -34.5t-25 -40t-25 -39 t-30.5 -47.5t-32.5 -50.5l-109 -45z" />
<glyph unicode="&#x123;" horiz-adv-x="1138" d="M53 -254q0 41 15 77.5t38 49.5l166 98q-76 20 -107.5 51t-31.5 87q0 31 10 59.5t25 38.5l145 110q-54 19 -83 36t-58 48q-76 82 -76 197q0 161 124.5 264t320.5 103q190 0 311 -88q49 -3 74 -3q52 0 168 11l-11 -131l-157 8q10 -49 10 -96q0 -148 -90 -238 q-63 -63 -157 -97t-200 -34q-7 0 -81 4q-60 -37 -60 -80q0 -64 96 -61l299 8h50q155 0 229 -62.5t74 -191.5q0 -204 -166 -331.5t-434 -127.5q-203 0 -323 79t-120 212zM246 -229q0 -95 83.5 -154t219.5 -59q137 0 228 70.5t91 176.5q0 67 -26.5 101.5t-91.5 48.5t-193 14 q-162 0 -207 -22q-46 -22 -75 -70.5t-29 -105.5zM348 637q0 -115 46 -180.5t126 -65.5q164 0 164 221q0 122 -43 186t-125 64q-168 0 -168 -225zM379 1100q9 20 18.5 40t17 35.5t21 38t20.5 34.5t25 40t25 39t30.5 47.5t32.5 50.5l109 45l24 -26q-9 -21 -17 -39.5t-14.5 -39 t-11 -32.5t-9 -33.5t-7 -29.5t-6.5 -33.5t-5 -30.5t-5.5 -36t-5.5 -37q-127 -16 -220 -56z" />
<glyph unicode="&#x124;" horiz-adv-x="1705" d="M74 -6v82l76 6q21 2 32 3t23.5 5.5t17.5 8t11.5 16t8 22t3.5 34t2 45v60.5v836v60.5t-2 45t-3.5 34.5t-7.5 22.5t-11.5 15.5t-18 8t-23.5 6t-32 3l-76 6v82q159 -6 317 -6q161 0 320 6v-82l-76 -6q-21 -2 -32 -3t-23.5 -6t-18 -8t-11.5 -15.5t-7.5 -22.5t-3.5 -34.5 t-2 -45v-60.5v-324q47 -4 165 -4h299q117 0 166 4v324v60.5t-2 45t-3.5 34.5t-7.5 22.5t-11.5 15.5t-18 8t-23.5 6t-32 3l-76 6v82q159 -6 318 -6q160 0 319 6v-82l-76 -6q-21 -2 -32 -3t-23.5 -6t-18 -8t-11.5 -15.5t-7.5 -22.5t-3.5 -34.5t-2 -45v-60.5v-836v-60.5t2 -45 t3.5 -34t8 -22t11.5 -16t17.5 -8t23.5 -5.5t32 -3l76 -6v-82q-159 6 -319 6q-159 0 -318 -6v82l76 6q21 2 32 3t23.5 5.5t17.5 8t11.5 16t8 22t3.5 34t2 45v60.5v390l-166 4h-299l-165 -4v-390v-60.5t2 -45t3.5 -34t8 -22t11.5 -16t17.5 -8t23.5 -5.5t32 -3l76 -6v-82 q-159 6 -320 6q-158 0 -317 -6zM479 1511l269 293h206l271 -293h-127l-248 166l-250 -166h-121z" />
<glyph unicode="&#x125;" horiz-adv-x="1251" d="M49 -6v76l72 4q48 3 61 26t13 105v958q0 91 -9.5 116t-44.5 28l-92 6v73q148 19 232 44l147 45l16 -13v-663l164 127q48 39 144 39q154 0 237 -86q40 -43 56 -108.5t16 -184.5v-381q0 -82 13 -105t61 -26l67 -4v-76q-105 6 -207 6q-93 0 -184 -6v557q0 124 -46 180.5 t-147 56.5q-68 0 -121 -42.5t-53 -96.5v-444q0 -82 13 -105t61 -26l72 -4v-76q-138 6 -277 6q-132 0 -264 -6zM254 1591l268 293h207l270 -293h-127l-247 166l-250 -166h-121z" />
<glyph unicode="&#x126;" horiz-adv-x="1705" d="M74 -6v82l76 6q21 2 32 3t23.5 5.5t17.5 8t11.5 16t8 22t3.5 34t2 45v60.5v713h-174v115h174v8v60.5t-2 45t-3.5 34.5t-7.5 22.5t-11.5 15.5t-18 8t-23.5 6t-32 3l-76 6v82q159 -6 317 -6q161 0 320 6v-82l-76 -6q-21 -2 -32 -3t-23.5 -6t-18 -8t-11.5 -15.5t-7.5 -22.5 t-3.5 -34.5t-2 -45v-60.5v-8h630v8v60.5t-2 45t-3.5 34.5t-7.5 22.5t-11.5 15.5t-18 8t-23.5 6t-32 3l-76 6v82q159 -6 318 -6q160 0 319 6v-82l-76 -6q-21 -2 -32 -3t-23.5 -6t-18 -8t-11.5 -15.5t-7.5 -22.5t-3.5 -34.5t-2 -45v-60.5v-8h174v-115h-174v-713v-60.5t2 -45 t3.5 -34t8 -22t11.5 -16t17.5 -8t23.5 -5.5t32 -3l76 -6v-82q-159 6 -319 6q-159 0 -318 -6v82l76 6q21 2 32 3t23.5 5.5t17.5 8t11.5 16t8 22t3.5 34t2 45v60.5v390l-166 4h-299l-165 -4v-390v-60.5t2 -45t3.5 -34t8 -22t11.5 -16t17.5 -8t23.5 -5.5t32 -3l76 -6v-82 q-159 6 -320 6q-158 0 -317 -6zM537 788q47 -4 165 -4h299q117 0 166 4v201h-630v-201z" />
<glyph unicode="&#x127;" horiz-adv-x="1341" d="M94 -6v76l72 4q48 3 61 26t13 105v852h-146v145h146q-1 63 -11.5 82.5t-42.5 22.5l-92 6v73q148 19 232 44l147 45l16 -13v-262l283 2v-145h-283v-258l164 127q48 39 144 39q154 0 237 -86q40 -43 56 -108.5t16 -184.5v-381q0 -82 13 -105t61 -26l67 -4v-76 q-105 6 -207 6q-92 0 -184 -6v557q0 125 -45.5 181t-146.5 56q-68 0 -121.5 -42.5t-53.5 -96.5v-444q0 -82 13 -105t61 -26l72 -4v-76q-138 6 -277 6q-132 0 -264 -6z" />
<glyph unicode="&#x128;" horiz-adv-x="796" d="M27 1530q12 114 78 185t159 71q61 0 164 -49t154 -49q37 0 56.5 19t47.5 79h88q-37 -134 -95 -196t-147 -62q-65 0 -172 51q-97 47 -157 47q-65 0 -94 -96h-82zM80 -6v82l76 6q21 2 32 3t23.5 5.5t17.5 8t11.5 16t8 22t3.5 34t2 45v60.5v836v60.5t-2 45t-3.5 34.5 t-7.5 22.5t-11.5 15.5t-18 8t-23.5 6t-32 3l-76 6v82q159 -6 317 -6q161 0 320 6v-82l-76 -6q-21 -2 -32 -3t-23.5 -6t-18 -8t-11.5 -15.5t-7.5 -22.5t-3.5 -34.5t-2 -45v-60.5v-836v-60.5t2 -45t3.5 -34t8 -22t11.5 -16t17.5 -8t23.5 -5.5t32 -3l76 -6v-82q-159 6 -320 6 q-158 0 -317 -6z" />
<glyph unicode="&#x129;" d="M-35 1100q12 114 78.5 185t159.5 71q61 0 164 -49q105 -50 153 -50q37 0 57 19.5t48 79.5h88q-37 -134 -95 -196t-147 -62q-65 0 -172 51q-97 47 -158 47q-65 0 -94 -96h-82zM70 -6v76l71 4q48 3 61 26t13 105v448q0 91 -9 116t-44 28l-92 6v74l30 4q107 15 201 39 q25 6 61 17.5t59 19.5l23 8l21 -13v-747q0 -82 13 -105t61 -26l71 -4v-76q-138 6 -276 6q-132 0 -264 -6z" />
<glyph unicode="&#x12a;" horiz-adv-x="796" d="M61 1585v146h678v-146h-678zM80 -6v82l76 6q21 2 32 3t23.5 5.5t17.5 8t11.5 16t8 22t3.5 34t2 45v60.5v836v60.5t-2 45t-3.5 34.5t-7.5 22.5t-11.5 15.5t-18 8t-23.5 6t-32 3l-76 6v82q159 -6 317 -6q161 0 320 6v-82l-76 -6q-21 -2 -32 -3t-23.5 -6t-18 -8t-11.5 -15.5 t-7.5 -22.5t-3.5 -34.5t-2 -45v-60.5v-836v-60.5t2 -45t3.5 -34t8 -22t11.5 -16t17.5 -8t23.5 -5.5t32 -3l76 -6v-82q-159 6 -320 6q-158 0 -317 -6z" />
<glyph unicode="&#x12b;" d="M0 1155v145h678v-145h-678zM70 -6v76l71 4q48 3 61 26t13 105v448q0 91 -9 116t-44 28l-92 6v74l30 4q107 15 201 39q25 6 61 17.5t59 19.5l23 8l21 -13v-747q0 -82 13 -105t61 -26l71 -4v-76q-138 6 -276 6q-132 0 -264 -6z" />
<glyph unicode="&#x12c;" horiz-adv-x="796" d="M63 1794h99q34 -143 229 -143q100 0 173 44.5t73 94.5v4h98q-33 -272 -336 -272q-154 0 -241.5 68.5t-94.5 203.5zM80 -6v82l76 6q21 2 32 3t23.5 5.5t17.5 8t11.5 16t8 22t3.5 34t2 45v60.5v836v60.5t-2 45t-3.5 34.5t-7.5 22.5t-11.5 15.5t-18 8t-23.5 6t-32 3l-76 6 v82q159 -6 317 -6q161 0 320 6v-82l-76 -6q-21 -2 -32 -3t-23.5 -6t-18 -8t-11.5 -15.5t-7.5 -22.5t-3.5 -34.5t-2 -45v-60.5v-836v-60.5t2 -45t3.5 -34t8 -22t11.5 -16t17.5 -8t23.5 -5.5t32 -3l76 -6v-82q-159 6 -320 6q-158 0 -317 -6z" />
<glyph unicode="&#x12d;" d="M29 1395h90q34 -178 213 -178q114 0 178 73q21 24 35 52.5t14 48.5v4h90q-6 -77 -17 -120t-36 -83q-81 -131 -256 -131q-193 0 -272 151q-34 66 -39 183zM70 -6v76l71 4q48 3 61 26t13 105v448q0 91 -9 116t-44 28l-92 6v74l30 4q107 15 201 39q25 6 61 17.5t59 19.5 l23 8l21 -13v-747q0 -82 13 -105t61 -26l71 -4v-76q-138 6 -276 6q-132 0 -264 -6z" />
<glyph unicode="&#x12e;" horiz-adv-x="796" d="M80 -6v82l76 6q21 2 32 3t23.5 5.5t17.5 8t11.5 16t8 22t3.5 34t2 45v60.5v836v60.5t-2 45t-3.5 34.5t-7.5 22.5t-11.5 15.5t-18 8t-23.5 6t-32 3l-76 6v82q159 -6 317 -6q161 0 320 6v-82l-76 -6q-21 -2 -32 -3t-23.5 -6t-18 -8t-11.5 -15.5t-7.5 -22.5t-3.5 -34.5 t-2 -45v-60.5v-836v-60.5t2 -45t3.5 -34t8 -22t11.5 -16t17.5 -8t23.5 -5.5t32 -3l76 -6v-82l-127 4q-40 1 -71 -24.5t-64 -71.5q-56 -80 -56 -156q0 -51 19.5 -87t66.5 -36q24 0 39.5 1t34.5 5.5t32 14.5t19 26l25 62l61 -15v-120l-108 -76q-22 -15 -54.5 -23t-55 -9 t-62.5 -1q-83 0 -129.5 61t-46.5 146q0 189 192 305h-35z" />
<glyph unicode="&#x12f;" d="M70 -6v76l71 4q48 3 61 26t13 105v448q0 91 -9 116t-44 28l-92 6v74l30 4q107 15 201 39q25 6 61 17.5t59 19.5l23 8l21 -13v-747q0 -82 13 -105t61 -26l71 -4v-76l-110 4q-83 3 -152 -96q-55 -78 -55 -156q0 -51 19.5 -87t66.5 -36q24 0 39.5 1t34.5 5.5t32 14.5t19 26 l24 62l62 -15v-120l-109 -76q-22 -15 -54.5 -23t-55 -9t-62.5 -1q-83 0 -129.5 61t-46.5 146q0 189 193 305zM205 1229q0 56 40.5 95.5t98.5 39.5q55 0 95 -40.5t40 -96.5q0 -57 -40 -97t-97 -40t-97 40.5t-40 98.5z" />
<glyph unicode="&#x130;" horiz-adv-x="796" d="M80 -6v82l76 6q21 2 32 3t23.5 5.5t17.5 8t11.5 16t8 22t3.5 34t2 45v60.5v836v60.5t-2 45t-3.5 34.5t-7.5 22.5t-11.5 15.5t-18 8t-23.5 6t-32 3l-76 6v82q159 -6 317 -6q161 0 320 6v-82l-76 -6q-21 -2 -32 -3t-23.5 -6t-18 -8t-11.5 -15.5t-7.5 -22.5t-3.5 -34.5 t-2 -45v-60.5v-836v-60.5t2 -45t3.5 -34t8 -22t11.5 -16t17.5 -8t23.5 -5.5t32 -3l76 -6v-82q-159 6 -320 6q-158 0 -317 -6zM264 1659q0 56 40.5 95.5t98.5 39.5q55 0 95.5 -40.5t40.5 -96.5q0 -57 -40.5 -97t-97.5 -40t-97 40.5t-40 98.5z" />
<glyph unicode="&#x131;" d="M70 -6v76l71 4q48 3 61 26t13 105v448q0 91 -9 116t-44 28l-92 6v74l30 4q107 15 201 39q25 6 61 17.5t59 19.5l23 8l21 -13v-747q0 -82 13 -105t61 -26l71 -4v-76q-138 6 -276 6q-132 0 -264 -6z" />
<glyph unicode="&#x134;" horiz-adv-x="796" d="M-23 -244l23 13q1 -1 8.5 -6t14.5 -11q71 -55 118 -55q62 0 87.5 60t25.5 206v1149v60.5t-2 45t-3.5 34.5t-7.5 22.5t-11.5 15.5t-18 8t-23.5 6t-32 3l-76 6v82q159 -6 317 -6q161 0 320 6v-82l-76 -6q-21 -2 -32 -3t-23.5 -6t-18 -8t-11.5 -15.5t-7.5 -22.5t-3.5 -34.5 t-2 -45v-60.5v-831q0 -160 -12 -240t-46 -154q-65 -137 -193.5 -230t-252.5 -93q-28 0 -62 10v182zM27 1511l268 293h207l270 -293h-127l-248 166l-250 -166h-120z" />
<glyph unicode="&#x135;" d="M-6 1049l248 358h190l252 -358h-117l-229 200l-232 -200h-112zM6 -469l8 12h47q83 0 118.5 88t35.5 291v731q0 91 -9 116t-44 28l-92 6v74l36 4q100 10 195 39l143 45l21 -13v-751q0 -236 -23.5 -360.5t-85.5 -215.5q-55 -82 -124.5 -126t-141.5 -44q-35 0 -63 4z" />
<glyph unicode="&#x136;" horiz-adv-x="1593" d="M80 -6v82l76 6q21 2 32 3t23.5 5.5t17.5 8t11.5 16t8 22t3.5 34t2 45v60.5v836v60.5t-2 45t-3.5 34.5t-7.5 22.5t-11.5 15.5t-18 8t-23.5 6t-32 3l-76 6v82q159 -6 317 -6q161 0 320 6v-82l-76 -6q-21 -2 -32 -3t-23.5 -6t-18 -8t-11.5 -15.5t-7.5 -22.5t-3.5 -34.5 t-2 -45v-60.5v-410l403 396q193 193 193 245v52q92 -6 186 -6q95 0 186 6v-80q-96 -7 -142 -21.5t-83 -48.5l-455 -424l545 -641q47 -55 88.5 -77.5t98.5 -24.5v-84q-105 6 -207 6q-104 0 -209 -6l-426 510q-82 100 -109 125.5t-69 50.5v-404v-60.5t2 -45t3.5 -34t8 -22 t11.5 -16t17.5 -8t23.5 -5.5t32 -3l76 -6v-82q-159 6 -320 6q-158 0 -317 -6zM610 -502q36 82 50.5 140t28.5 150q0 3 0.5 5t1 5.5t1 6t0.5 5.5q129 17 219 55l23 -23q-12 -27 -25.5 -54t-22.5 -44.5t-31 -52.5t-30 -47.5t-40 -61.5t-42 -65l-108 -45z" />
<glyph unicode="&#x137;" horiz-adv-x="1251" d="M43 1313v73q155 16 248 44l147 45l17 -13v-952q143 122 217 199l219 231h266v-78h-63q-50 0 -99 -37q-57 -42 -128.5 -101.5t-114.5 -98.5l-43 -39l401 -451q54 -59 113 -65v-70h-353q-21 26 -55 67.5t-43 52t-31.5 38.5t-26.5 32.5t-23.5 27.5t-26 30t-30 34t-40 45.5 t-51.5 58t-68 77.5h-20v-258q0 -83 12.5 -105.5t60.5 -25.5l72 -4v-76q-138 6 -276 6q-133 0 -265 -6v76l72 4q48 3 61 26t13 105v958q0 91 -9.5 116.5t-43.5 27.5zM430 -502q36 82 50.5 140t28.5 150q2 14 3 22q129 17 219 55l23 -23q-12 -27 -25.5 -54t-22.5 -44.5 t-31 -52.5t-30 -47.5t-40 -61.5t-42 -65l-108 -45z" />
<glyph unicode="&#x139;" horiz-adv-x="1251" d="M80 1313v82q159 -6 317 -6q161 0 320 6v-82l-76 -6q-21 -2 -32 -3t-23.5 -6t-18 -8t-11.5 -15.5t-7.5 -22.5t-3.5 -34.5t-2 -45v-60.5v-993l313 -6q66 0 131 11t68 23l47 209h80l-23 -340l-10 -16q-117 -6 -287 -6q-77 0 -231.5 3t-231.5 3q-126 0 -252 -6v47l66 37 q23 12 32 38t9 79v917v60.5t-2 45t-3.5 34.5t-7.5 22.5t-11.5 15.5t-18 8t-23.5 6t-32 3zM170 1501l285 248q72 61 145 61q43 0 69.5 -20t26.5 -53q0 -27 -20.5 -46t-75.5 -44l-307 -146h-123z" />
<glyph unicode="&#x13a;" d="M49 1313v73q155 16 248 44l147 45l17 -13v-1257q0 -82 13 -105t61 -26l71 -4v-76q-138 6 -276 6q-132 0 -264 -6v76l71 4q48 3 61 26t13 105v958q0 91 -9.5 116.5t-43.5 27.5zM94 1581l285 248q72 61 145 61q43 0 70 -20t27 -53q0 -27 -21 -46.5t-76 -44.5l-307 -145 h-123z" />
<glyph unicode="&#x13b;" horiz-adv-x="1251" d="M80 1313v82q159 -6 317 -6q161 0 320 6v-82l-76 -6q-21 -2 -32 -3t-23.5 -6t-18 -8t-11.5 -15.5t-7.5 -22.5t-3.5 -34.5t-2 -45v-60.5v-993l313 -6q66 0 131 11t68 23l47 209h80l-23 -340l-10 -16q-117 -6 -287 -6q-77 0 -231.5 3t-231.5 3q-126 0 -252 -6v47l66 37 q23 12 32 38t9 79v917v60.5t-2 45t-3.5 34.5t-7.5 22.5t-11.5 15.5t-18 8t-23.5 6t-32 3zM414 -502q36 82 50.5 140t28.5 150q2 14 3 22q129 17 219 55l22 -23q-9 -20 -18.5 -40t-17 -35.5t-21 -38t-20.5 -34.5t-25 -40t-25 -39t-30.5 -47.5t-32.5 -50.5l-109 -45z" />
<glyph unicode="&#x13c;" d="M49 1313v73q155 16 248 44l147 45l17 -13v-1257q0 -82 13 -105t61 -26l71 -4v-76q-138 6 -276 6q-132 0 -264 -6v76l71 4q48 3 61 26t13 105v958q0 91 -9.5 116.5t-43.5 27.5zM125 -502q36 82 50.5 140t28.5 150q2 14 3 22q129 17 219 55l23 -23q-12 -27 -25.5 -54 t-22.5 -44.5t-31 -52.5t-30 -47.5t-40 -61.5t-42 -65l-108 -45z" />
<glyph unicode="&#x13d;" horiz-adv-x="1251" d="M80 1313v82q159 -6 317 -6q161 0 320 6v-82l-76 -6q-21 -2 -32 -3t-23.5 -6t-18 -8t-11.5 -15.5t-7.5 -22.5t-3.5 -34.5t-2 -45v-60.5v-993l313 -6q66 0 131 11t68 23l47 209h80l-23 -340l-10 -16q-117 -6 -287 -6q-77 0 -231.5 3t-231.5 3q-126 0 -252 -6v47l66 37 q23 12 32 38t9 79v917v60.5t-2 45t-3.5 34.5t-7.5 22.5t-11.5 15.5t-18 8t-23.5 6t-32 3zM811 1028q27 61 43.5 116.5t21.5 84t17 110.5q126 16 219 56l23 -23q-12 -27 -25.5 -54t-22.5 -44.5t-31 -52.5t-30 -47.5t-40 -61.5t-42 -65l-108 -46z" />
<glyph unicode="&#x13e;" d="M49 1313v73q155 16 248 44l147 45l17 -13v-1257q0 -82 13 -105t61 -26l71 -4v-76q-138 6 -276 6q-132 0 -264 -6v76l71 4q48 3 61 26t13 105v958q0 91 -9.5 116.5t-43.5 27.5zM555 1108q27 61 43.5 116.5t21.5 84t17 110.5q126 16 219 56l23 -23q-10 -23 -19.5 -43.5 t-23.5 -45t-21.5 -38.5t-27.5 -45.5t-27.5 -43t-35 -54t-36.5 -56.5l-108 -45z" />
<glyph unicode="&#x13f;" horiz-adv-x="1251" d="M80 1313v82q159 -6 317 -6q161 0 320 6v-82l-76 -6q-21 -2 -32 -3t-23.5 -6t-18 -8t-11.5 -15.5t-7.5 -22.5t-3.5 -34.5t-2 -45v-60.5v-993l313 -6q66 0 131 11t68 23l47 209h80l-23 -340l-10 -16q-117 -6 -287 -6q-77 0 -231.5 3t-231.5 3q-126 0 -252 -6v47l66 37 q23 12 32 38t9 79v917v60.5t-2 45t-3.5 34.5t-7.5 22.5t-11.5 15.5t-18 8t-23.5 6t-32 3zM887 774q0 56 40.5 95.5t98.5 39.5q55 0 95 -40.5t40 -96.5q0 -57 -40 -97t-97 -40t-97 40.5t-40 98.5z" />
<glyph unicode="&#x140;" horiz-adv-x="718" d="M49 1313v73q155 16 248 44l147 45l17 -13v-1257q0 -82 13 -105t61 -26l71 -4v-76q-138 6 -276 6q-132 0 -264 -6v76l71 4q48 3 61 26t13 105v958q0 91 -9.5 116.5t-43.5 27.5zM559 774q0 56 40.5 95.5t98.5 39.5q55 0 95.5 -40.5t40.5 -96.5q0 -57 -40.5 -97t-97.5 -40 t-97 40.5t-40 98.5z" />
<glyph unicode="&#x141;" horiz-adv-x="1251" d="M80 1313v82q159 -6 317 -6q161 0 320 6v-82l-76 -6q-21 -2 -32 -3t-23.5 -6t-18 -8t-11.5 -15.5t-7.5 -22.5t-3.5 -34.5t-2 -45v-60.5v-215l227 193l37 -64l-264 -225v-682l313 -6q66 0 131 11t68 23l47 209h80l-23 -340l-10 -16q-117 -6 -287 -6q-77 0 -231.5 3 t-231.5 3q-126 0 -252 -6v47l66 37q23 12 32 38t9 79v383l-135 -115l-37 63l172 146v440v60.5t-2 45t-3.5 34.5t-7.5 22.5t-11.5 15.5t-18 8t-23.5 6t-32 3z" />
<glyph unicode="&#x142;" d="M33 633l178 153v377q0 91 -9.5 116.5t-43.5 27.5l-109 6v73q155 16 248 44l147 45l17 -13v-479l170 147l37 -63l-207 -180v-682q0 -82 13 -105t61 -26l71 -4v-76q-138 6 -276 6q-132 0 -264 -6v76l71 4q48 3 61 26t13 105v485l-141 -121z" />
<glyph unicode="&#x143;" horiz-adv-x="1705" d="M72 -6v76l75 6q26 2 39.5 4.5t26.5 11.5t18 19t9.5 35t5 52.5t0.5 77.5v836q0 60 -2 90t-6 55t-17 34.5t-28 14t-46 7.5l-75 6v76q123 -6 245 -6q86 0 172 6q173 -229 211 -273l639 -745v735q0 50 -0.5 77t-4.5 52.5t-9 36t-18 19.5t-26.5 11.5t-39.5 4.5l-76 6v76 q117 -6 236 -6q116 0 233 6v-76l-75 -6q-31 -3 -46 -7.5t-28 -14t-17 -34.5t-6 -55t-2 -90v-930l6 -207l-14 -8l-168 27l-250 285l-667 802v-805q0 -51 0.5 -78t4.5 -52.5t9 -35.5t18 -18.5t26.5 -11t39.5 -4.5l76 -6v-76q-117 6 -234 6q-118 0 -235 -6zM625 1501l284 248 q72 61 146 61q43 0 69.5 -20t26.5 -53q0 -27 -20.5 -46t-75.5 -44l-307 -146h-123z" />
<glyph unicode="&#x144;" horiz-adv-x="1251" d="M49 -6v76l72 4q48 3 61 26t13 105v448q0 91 -9.5 116t-44.5 28l-92 6v74q86 5 156 20.5t227 67.5l12 -13v-153l164 127q48 39 144 39q154 0 237 -86q40 -43 56 -108.5t16 -184.5v-381q0 -82 13 -105t61 -26l67 -4v-76q-105 6 -207 6q-93 0 -184 -6v559q0 123 -46 179 t-147 56q-68 0 -121 -42.5t-53 -96.5v-444q0 -82 13 -105t61 -26l72 -4v-76q-138 6 -277 6q-132 0 -264 -6zM446 1036l265 303q67 76 133 76q40 0 65 -24.5t25 -65.5q0 -33 -19 -57.5t-69 -55.5l-285 -176h-115z" />
<glyph unicode="&#x145;" horiz-adv-x="1705" d="M72 -6v76l75 6q26 2 39.5 4.5t26.5 11.5t18 19t9.5 35t5 52.5t0.5 77.5v836q0 60 -2 90t-6 55t-17 34.5t-28 14t-46 7.5l-75 6v76q123 -6 245 -6q86 0 172 6q173 -229 211 -273l639 -745v735q0 50 -0.5 77t-4.5 52.5t-9 36t-18 19.5t-26.5 11.5t-39.5 4.5l-76 6v76 q117 -6 236 -6q116 0 233 6v-76l-75 -6q-31 -3 -46 -7.5t-28 -14t-17 -34.5t-6 -55t-2 -90v-930l6 -207l-14 -8l-168 27l-250 285l-667 802v-805q0 -51 0.5 -78t4.5 -52.5t9 -35.5t18 -18.5t26.5 -11t39.5 -4.5l76 -6v-76q-117 6 -234 6q-118 0 -235 -6zM643 -502 q36 82 50.5 140t28.5 150q0 3 0.5 5t1 5.5t1 6t0.5 5.5q129 17 219 55l23 -23q-12 -27 -25.5 -54t-22.5 -44.5t-31 -52.5t-30 -47.5t-40 -61.5t-42 -65l-108 -45z" />
<glyph unicode="&#x146;" horiz-adv-x="1251" d="M49 -6v76l72 4q48 3 61 26t13 105v448q0 91 -9.5 116t-44.5 28l-92 6v74q86 5 156 20.5t227 67.5l12 -13v-153l164 127q48 39 144 39q154 0 237 -86q40 -43 56 -108.5t16 -184.5v-381q0 -82 13 -105t61 -26l67 -4v-76q-105 6 -207 6q-93 0 -184 -6v559q0 123 -46 179 t-147 56q-68 0 -121 -42.5t-53 -96.5v-444q0 -82 13 -105t61 -26l72 -4v-76q-138 6 -277 6q-132 0 -264 -6zM418 -502q36 82 50.5 140t28.5 150q2 14 3 22q129 17 219 55l22 -23q-9 -20 -18.5 -40t-17 -35.5t-21 -38t-20.5 -34.5t-25 -40t-25 -39t-30.5 -47.5t-32.5 -50.5 l-109 -45z" />
<glyph unicode="&#x147;" horiz-adv-x="1705" d="M72 -6v76l75 6q26 2 39.5 4.5t26.5 11.5t18 19t9.5 35t5 52.5t0.5 77.5v836q0 60 -2 90t-6 55t-17 34.5t-28 14t-46 7.5l-75 6v76q123 -6 245 -6q86 0 172 6q173 -229 211 -273l639 -745v735q0 50 -0.5 77t-4.5 52.5t-9 36t-18 19.5t-26.5 11.5t-39.5 4.5l-76 6v76 q117 -6 236 -6q116 0 233 6v-76l-75 -6q-31 -3 -46 -7.5t-28 -14t-17 -34.5t-6 -55t-2 -90v-930l6 -207l-14 -8l-168 27l-250 285l-667 802v-805q0 -51 0.5 -78t4.5 -52.5t9 -35.5t18 -18.5t26.5 -11t39.5 -4.5l76 -6v-76q-117 6 -234 6q-118 0 -235 -6zM481 1804h127 l248 -166l250 166h121l-269 -293h-206z" />
<glyph unicode="&#x148;" horiz-adv-x="1251" d="M49 -6v76l72 4q48 3 61 26t13 105v448q0 91 -9.5 116t-44.5 28l-92 6v74q86 5 156 20.5t227 67.5l12 -13v-153l164 127q48 39 144 39q154 0 237 -86q40 -43 56 -108.5t16 -184.5v-381q0 -82 13 -105t61 -26l67 -4v-76q-105 6 -207 6q-93 0 -184 -6v559q0 123 -46 179 t-147 56q-68 0 -121 -42.5t-53 -96.5v-444q0 -82 13 -105t61 -26l72 -4v-76q-138 6 -277 6q-132 0 -264 -6zM283 1407h112l232 -201l229 201h117l-252 -358h-191z" />
<glyph unicode="&#x14a;" horiz-adv-x="1705" d="M72 -6v76l75 6q26 2 39.5 4.5t26.5 11.5t18 19t9.5 35t5 52.5t0.5 77.5v836q0 60 -2 90t-6 55t-17 34.5t-28 14t-46 7.5l-75 6v76q123 -6 245 -6q86 0 172 6q173 -229 211 -273l639 -745v735q0 50 -0.5 77t-4.5 52.5t-9 36t-18 19.5t-26.5 11.5t-39.5 4.5l-76 6v76 q117 -6 236 -6q116 0 233 6v-76l-75 -6q-31 -3 -46 -7.5t-28 -14t-17 -34.5t-6 -55t-2 -90v-930l6 -207q0 -147 -95 -252.5t-234 -105.5q-208 0 -369 127l115 115q44 -60 111.5 -93.5t142.5 -33.5q40 0 69.5 22.5t46 61.5t24 83t7.5 95l-250 285l-667 802v-805 q0 -51 0.5 -78t4.5 -52.5t9 -35.5t18 -18.5t26.5 -11t39.5 -4.5l76 -6v-76q-117 6 -234 6q-118 0 -235 -6z" />
<glyph unicode="&#x14b;" horiz-adv-x="1251" d="M49 -6v76l72 4q48 3 61 26t13 105v448q0 91 -9.5 116t-44.5 28l-92 6v74q86 5 156 20.5t227 67.5l12 -13v-153l164 127q48 39 144 39q154 0 237 -86q40 -43 56 -108.5t16 -184.5v-381q0 -143 -53 -267t-153.5 -202t-227.5 -78v98q129 0 166 153q20 84 18 291v74v279 q0 123 -46 179t-147 56q-68 0 -121 -42.5t-53 -96.5v-444q0 -82 13 -105t61 -26l72 -4v-76q-138 6 -277 6q-132 0 -264 -6z" />
<glyph unicode="&#x14c;" horiz-adv-x="1705" d="M96 680q0 352 206.5 547.5t578.5 195.5q347 0 539 -188t192 -526q0 -350 -205.5 -547t-572.5 -197q-352 0 -545 187t-193 528zM403 727q0 -177 46 -318t129 -223q106 -106 270 -106q224 0 340.5 149t116.5 437q0 174 -46 314.5t-131 223.5q-108 105 -266 105 q-195 0 -315 -117q-69 -69 -106.5 -189t-37.5 -276zM520 1585v146h678v-146h-678z" />
<glyph unicode="&#x14d;" horiz-adv-x="1138" d="M82 459q0 245 131 375.5t375 130.5q227 0 349 -124.5t122 -357.5q0 -249 -133 -383.5t-379 -134.5q-223 0 -344 129t-121 365zM227 1155v145h678v-145h-678zM360 508q0 -445 224 -445q104 0 150 84.5t46 272.5q0 226 -53.5 336t-163.5 110q-106 0 -154.5 -86t-48.5 -272z " />
<glyph unicode="&#x14e;" horiz-adv-x="1705" d="M96 680q0 352 206.5 547.5t578.5 195.5q347 0 539 -188t192 -526q0 -350 -205.5 -547t-572.5 -197q-352 0 -545 187t-193 528zM403 727q0 -177 46 -318t129 -223q106 -106 270 -106q224 0 340.5 149t116.5 437q0 174 -46 314.5t-131 223.5q-108 105 -266 105 q-195 0 -315 -117q-69 -69 -106.5 -189t-37.5 -276zM522 1794h99q34 -143 229 -143q100 0 173 44.5t73 94.5v4h98q-33 -272 -336 -272q-154 0 -241.5 68.5t-94.5 203.5z" />
<glyph unicode="&#x14f;" horiz-adv-x="1138" d="M82 459q0 245 131 375.5t375 130.5q227 0 349 -124.5t122 -357.5q0 -249 -133 -383.5t-379 -134.5q-223 0 -344 129t-121 365zM256 1395h90q34 -178 213 -178q114 0 178 73q21 24 35 52.5t14 48.5v4h91q-6 -76 -17.5 -119.5t-36.5 -83.5q-81 -131 -256 -131 q-193 0 -272 151q-34 66 -39 183zM360 508q0 -445 224 -445q104 0 150 84.5t46 272.5q0 226 -53.5 336t-163.5 110q-106 0 -154.5 -86t-48.5 -272z" />
<glyph unicode="&#x150;" horiz-adv-x="1705" d="M96 680q0 352 206.5 547.5t578.5 195.5q347 0 539 -188t192 -526q0 -350 -205.5 -547t-572.5 -197q-352 0 -545 187t-193 528zM403 727q0 -177 46 -318t129 -223q106 -106 270 -106q224 0 340.5 149t116.5 437q0 174 -46 314.5t-131 223.5q-108 105 -266 105 q-195 0 -315 -117q-69 -69 -106.5 -189t-37.5 -276zM592 1501l285 248q72 61 145 61q43 0 69.5 -20t26.5 -53q0 -27 -20.5 -46t-75.5 -44l-307 -146h-123zM969 1501l284 248q72 61 146 61q43 0 69.5 -20t26.5 -53q0 -27 -20.5 -46t-75.5 -44l-307 -146h-123z" />
<glyph unicode="&#x151;" horiz-adv-x="1138" d="M82 459q0 245 131 375.5t375 130.5q227 0 349 -124.5t122 -357.5q0 -249 -133 -383.5t-379 -134.5q-223 0 -344 129t-121 365zM295 1038l262 303q38 44 65 60t64 16q43 0 69.5 -26.5t26.5 -67.5q0 -55 -39 -78l-337 -207h-111zM360 508q0 -445 224 -445q104 0 150 84.5 t46 272.5q0 226 -53.5 336t-163.5 110q-106 0 -154.5 -86t-48.5 -272zM680 1038l262 303q38 44 65 60t64 16q43 0 69.5 -26.5t26.5 -69.5q0 -53 -39 -76l-337 -207h-111z" />
<glyph unicode="&#x152;" horiz-adv-x="2048" d="M88 705q0 344 182 526q192 192 568 192q71 0 219 -18q132 -18 237 -16l383 6q20 0 58.5 1t54.5 1q91 0 192 -8l13 -15l-29 -291h-74l-16 154q-2 17 -60 29t-141 12q-144 0 -297 -8v-492q41 -4 138 -4h135q64 0 88.5 9t27.5 34l13 117h82q-7 -130 -7 -219q0 -91 7 -221 h-82l-13 102q-5 40 -31.5 58t-84.5 18h-135q-52 0 -138 -6v-547l269 -6q149 0 237 28l6 6l47 193h80l-22 -324l-10 -16q-159 -8 -289 -8l-330 6l-135 2q-106 2 -246 -18q-111 -17 -178 -17q-337 0 -528 197t-191 543zM395 731q0 -310 119 -480.5t334 -170.5q73 0 126 16.5 t116 57.5v1063q-77 53 -133.5 72.5t-131.5 19.5q-214 0 -322 -145.5t-108 -432.5z" />
<glyph unicode="&#x153;" horiz-adv-x="1705" d="M98 461q0 244 131 374t377 130q110 0 187 -26.5t153 -90.5q86 63 158.5 90t157.5 27q167 0 270.5 -100t103.5 -261v-106q-163 -41 -323 -41h-269q3 -71 14 -114.5t36 -86.5q38 -66 108 -105.5t148 -39.5q63 0 116 15.5t125 55.5l25 -30l-45 -99q-96 -50 -165 -69 t-155 -19q-110 0 -188.5 31t-144.5 100q-76 -70 -160.5 -100.5t-200.5 -30.5q-218 0 -338.5 130t-120.5 366zM377 508q0 -445 223 -445q104 0 150.5 84.5t46.5 272.5q0 226 -53.5 336t-163.5 110q-106 0 -154.5 -86t-48.5 -272zM1032 565l66 -2l98 -4h8l172 6 q-3 152 -42.5 218.5t-127.5 66.5q-89 0 -129 -66t-45 -219z" />
<glyph unicode="&#x154;" horiz-adv-x="1478" d="M80 -6v82l76 6q21 2 32 3t23.5 5.5t17.5 8t11.5 16t8 22t3.5 34t2 45v60.5v836q0 50 -0.5 77t-4.5 52.5t-9 36t-18 19.5t-26.5 11.5t-39.5 4.5l-76 6v76q182 -6 364 -6q68 0 204 3t204 3q389 0 389 -301q0 -124 -88 -226q-43 -46 -88 -75.5t-129 -63.5l371 -561 q32 -49 58.5 -65t84.5 -27v-82q-99 6 -199 6q-93 0 -184 -6l-430 700v47q114 0 178 39q63 37 99 103t36 147q0 125 -75 193.5t-211 68.5q-78 0 -121 -18v-998v-60.5t2 -45t3.5 -34t8 -22t11.5 -16t17.5 -8t23.5 -5.5t32 -3l76 -6v-82q-159 6 -320 6q-158 0 -317 -6z M487 1501l285 248q72 61 146 61q43 0 69.5 -20t26.5 -53q0 -27 -20.5 -46t-75.5 -44l-308 -146h-123z" />
<glyph unicode="&#x155;" horiz-adv-x="796" d="M61 -6v76l72 4q48 3 61 26t13 105v448q0 91 -9 116t-44 28l-93 6v74q153 19 232 43l143 45l21 -13v-194l90 98q59 63 95 86t79 23t76 -13l-11 -264l-49 -20q-43 73 -116 73q-60 0 -112 -42t-52 -89v-405q0 -86 16 -107t82 -24l80 -4v-76q-153 6 -309 6q-133 0 -265 -6z M274 1036l265 303q67 76 133 76q40 0 65 -24.5t25 -65.5q0 -33 -19 -57.5t-69 -55.5l-285 -176h-115z" />
<glyph unicode="&#x156;" horiz-adv-x="1478" d="M80 -6v82l76 6q21 2 32 3t23.5 5.5t17.5 8t11.5 16t8 22t3.5 34t2 45v60.5v836q0 50 -0.5 77t-4.5 52.5t-9 36t-18 19.5t-26.5 11.5t-39.5 4.5l-76 6v76q182 -6 364 -6q68 0 204 3t204 3q389 0 389 -301q0 -124 -88 -226q-43 -46 -88 -75.5t-129 -63.5l371 -561 q32 -49 58.5 -65t84.5 -27v-82q-99 6 -199 6q-93 0 -184 -6l-430 700v47q114 0 178 39q63 37 99 103t36 147q0 125 -75 193.5t-211 68.5q-78 0 -121 -18v-998v-60.5t2 -45t3.5 -34t8 -22t11.5 -16t17.5 -8t23.5 -5.5t32 -3l76 -6v-82q-159 6 -320 6q-158 0 -317 -6z M506 -502q36 82 50.5 140t28.5 150q0 3 0.5 5t1 5.5t1 6t0.5 5.5q129 17 219 55l22 -23q-9 -20 -18.5 -40t-17 -35.5t-21 -38t-20.5 -34.5t-25 -40t-25 -39t-30.5 -47.5t-32.5 -50.5l-109 -45z" />
<glyph unicode="&#x157;" horiz-adv-x="796" d="M61 -6v76l72 4q48 3 61 26t13 105v448q0 91 -9 116t-44 28l-93 6v74q153 19 232 43l143 45l21 -13v-194l90 98q59 63 95 86t79 23t76 -13l-11 -264l-49 -20q-43 73 -116 73q-60 0 -112 -42t-52 -89v-405q0 -86 16 -107t82 -24l80 -4v-76q-153 6 -309 6q-133 0 -265 -6z M137 -502q36 82 50.5 140t28.5 150q2 14 3 22q129 17 219 55l23 -23q-12 -27 -25.5 -54t-22.5 -44.5t-31 -52.5t-30 -47.5t-40 -61.5t-42 -65l-108 -45z" />
<glyph unicode="&#x158;" horiz-adv-x="1478" d="M80 -6v82l76 6q21 2 32 3t23.5 5.5t17.5 8t11.5 16t8 22t3.5 34t2 45v60.5v836q0 50 -0.5 77t-4.5 52.5t-9 36t-18 19.5t-26.5 11.5t-39.5 4.5l-76 6v76q182 -6 364 -6q68 0 204 3t204 3q389 0 389 -301q0 -124 -88 -226q-43 -46 -88 -75.5t-129 -63.5l371 -561 q32 -49 58.5 -65t84.5 -27v-82q-99 6 -199 6q-93 0 -184 -6l-430 700v47q114 0 178 39q63 37 99 103t36 147q0 125 -75 193.5t-211 68.5q-78 0 -121 -18v-998v-60.5t2 -45t3.5 -34t8 -22t11.5 -16t17.5 -8t23.5 -5.5t32 -3l76 -6v-82q-159 6 -320 6q-158 0 -317 -6z M344 1804h127l248 -166l250 166h121l-269 -293h-207z" />
<glyph unicode="&#x159;" horiz-adv-x="796" d="M61 -6v76l72 4q48 3 61 26t13 105v448q0 91 -9 116t-44 28l-93 6v74q153 19 232 43l143 45l21 -13v-194l90 98q59 63 95 86t79 23t76 -13l-11 -264l-49 -20q-43 73 -116 73q-60 0 -112 -42t-52 -89v-405q0 -86 16 -107t82 -24l80 -4v-76q-153 6 -309 6q-133 0 -265 -6z M111 1407h112l232 -201l229 201h117l-252 -358h-191z" />
<glyph unicode="&#x15a;" horiz-adv-x="1251" d="M117 59q30 153 30 355h82l15 -181q49 -72 140.5 -114.5t195.5 -42.5q132 0 219.5 75t87.5 189q0 145 -170 197l-287 86q-145 43 -222 136t-77 224q0 207 143.5 323.5t399.5 116.5q194 0 379 -69l10 -25q-29 -95 -29 -291h-84l-12 168q-116 113 -279 113 q-123 0 -198.5 -66.5t-75.5 -173.5q0 -78 51.5 -127t165.5 -80l234 -61q309 -81 309 -360q0 -223 -163.5 -354.5t-438.5 -131.5q-117 0 -214.5 21.5t-211.5 72.5zM379 1501l285 248q72 61 145 61q43 0 69.5 -20t26.5 -53q0 -27 -20.5 -46t-75.5 -44l-307 -146h-123z" />
<glyph unicode="&#x15b;" horiz-adv-x="909" d="M80 23l14 288h80l10 -141q89 -107 230 -107q87 0 137.5 43t50.5 115q0 54 -29 83t-100 46l-176 43q-217 53 -217 256q0 154 109.5 235t316.5 81q81 0 136.5 -10.5t115.5 -36.5l-17 -250h-73l-21 118q-4 31 -59.5 55.5t-118.5 24.5q-84 0 -132 -35.5t-48 -97.5 q0 -49 26 -75t86 -40l168 -36q138 -31 199 -93t61 -172q0 -158 -119 -255t-313 -97q-149 0 -317 58zM270 1036l265 303q67 76 133 76q40 0 65 -24.5t25 -65.5q0 -33 -19 -57.5t-69 -55.5l-285 -176h-115z" />
<glyph unicode="&#x15c;" horiz-adv-x="1251" d="M117 59q30 153 30 355h82l15 -181q49 -72 140.5 -114.5t195.5 -42.5q132 0 219.5 75t87.5 189q0 145 -170 197l-287 86q-145 43 -222 136t-77 224q0 207 143.5 323.5t399.5 116.5q194 0 379 -69l10 -25q-29 -95 -29 -291h-84l-12 168q-116 113 -279 113 q-123 0 -198.5 -66.5t-75.5 -173.5q0 -78 51.5 -127t165.5 -80l234 -61q309 -81 309 -360q0 -223 -163.5 -354.5t-438.5 -131.5q-117 0 -214.5 21.5t-211.5 72.5zM236 1511l268 293h207l270 -293h-127l-248 166l-250 -166h-120z" />
<glyph unicode="&#x15d;" horiz-adv-x="909" d="M80 23l14 288h80l10 -141q89 -107 230 -107q87 0 137.5 43t50.5 115q0 54 -29 83t-100 46l-176 43q-217 53 -217 256q0 154 109.5 235t316.5 81q81 0 136.5 -10.5t115.5 -36.5l-17 -250h-73l-21 118q-4 31 -59.5 55.5t-118.5 24.5q-84 0 -132 -35.5t-48 -97.5 q0 -49 26 -75t86 -40l168 -36q138 -31 199 -93t61 -172q0 -158 -119 -255t-313 -97q-149 0 -317 58zM106 1049l248 358h191l252 -358h-117l-229 200l-232 -200h-113z" />
<glyph unicode="&#x15e;" horiz-adv-x="1251" d="M117 59q30 153 30 355h82l15 -181q49 -72 140.5 -114.5t195.5 -42.5q132 0 219.5 75t87.5 189q0 145 -170 197l-287 86q-145 43 -222 136t-77 224q0 207 143.5 323.5t399.5 116.5q194 0 379 -69l10 -25q-29 -95 -29 -291h-84l-12 168q-116 113 -279 113 q-123 0 -198.5 -66.5t-75.5 -173.5q0 -78 51.5 -127t165.5 -80l234 -61q309 -81 309 -360q0 -202 -135.5 -330.5t-368.5 -151.5l-51 -114q49 12 94 12q71 0 113.5 -40.5t42.5 -109.5q0 -82 -73.5 -130t-199.5 -48q-85 0 -192 37l33 76q95 -19 137 -19q102 0 102 76 q0 34 -20.5 53t-55.5 19q-15 0 -75 -8l-21 16l80 176h-12q-117 0 -214.5 21.5t-211.5 72.5z" />
<glyph unicode="&#x15f;" horiz-adv-x="909" d="M80 23l14 288h80l10 -141q89 -107 230 -107q87 0 137.5 43t50.5 115q0 54 -29 83t-100 46l-176 43q-217 53 -217 256q0 154 109.5 235t316.5 81q81 0 136.5 -10.5t115.5 -36.5l-17 -250h-73l-21 118q-4 31 -59.5 55.5t-118.5 24.5q-84 0 -132 -35.5t-48 -97.5 q0 -49 26 -75t86 -40l168 -36q138 -31 199 -93t61 -172q0 -136 -89 -227.5t-242 -116.5l-52 -118q49 12 95 12q71 0 113 -40.5t42 -109.5q0 -82 -73 -130t-199 -48q-86 0 -193 37l33 76q95 -19 137 -19q103 0 103 76q0 34 -20.5 53t-55.5 19q-16 0 -76 -8l-20 16l78 176h-13 q-149 0 -317 58z" />
<glyph unicode="&#x160;" horiz-adv-x="1251" d="M117 59q30 153 30 355h82l15 -181q49 -72 140.5 -114.5t195.5 -42.5q132 0 219.5 75t87.5 189q0 145 -170 197l-287 86q-145 43 -222 136t-77 224q0 207 143.5 323.5t399.5 116.5q194 0 379 -69l10 -25q-29 -95 -29 -291h-84l-12 168q-116 113 -279 113 q-123 0 -198.5 -66.5t-75.5 -173.5q0 -78 51.5 -127t165.5 -80l234 -61q309 -81 309 -360q0 -223 -163.5 -354.5t-438.5 -131.5q-117 0 -214.5 21.5t-211.5 72.5zM236 1804h126l248 -166l250 166h121l-268 -293h-207z" />
<glyph unicode="&#x161;" horiz-adv-x="909" d="M80 23l14 288h80l10 -141q89 -107 230 -107q87 0 137.5 43t50.5 115q0 54 -29 83t-100 46l-176 43q-217 53 -217 256q0 154 109.5 235t316.5 81q81 0 136.5 -10.5t115.5 -36.5l-17 -250h-73l-21 118q-4 31 -59.5 55.5t-118.5 24.5q-84 0 -132 -35.5t-48 -97.5 q0 -49 26 -75t86 -40l168 -36q138 -31 199 -93t61 -172q0 -158 -119 -255t-313 -97q-149 0 -317 58zM106 1407h113l232 -201l229 201h117l-252 -358h-191z" />
<glyph unicode="&#x162;" horiz-adv-x="1366" d="M35 1384l12 11l637 -6l635 6l12 -11q-21 -128 -26 -325h-82l-11 141l-18 49q-24 19 -127 19h-240v-992v-78t4.5 -51t8.5 -34t18 -17t27 -10.5t41 -3.5l75 -6v-82l-266 6l-63 -145q49 12 94 12q71 0 113.5 -40.5t42.5 -109.5q0 -82 -73.5 -130t-199.5 -48q-85 0 -192 37 l32 76q95 -19 138 -19q102 0 102 76q0 34 -20.5 53t-55.5 19q-15 0 -75 -8l-21 16l94 211l-286 -6v82l75 6q28 2 41 3.5t27 10.5t18 17t8.5 34t4.5 51v78v992h-240q-116 0 -129 -21q-16 -27 -16 -47l-11 -141h-82q-8 217 -26 325z" />
<glyph unicode="&#x163;" d="M45 748v45l135 88v123q0 43 -8 188q168 63 250 102l29 -20q-25 -142 -25 -279v-118l233 12l-16 -133h-217v-488q0 -75 27.5 -104t99.5 -29q36 0 94 27l17 -39l-101 -121q-24 -30 -108 -37l-49 -110q49 12 94 12q71 0 113 -40.5t42 -109.5q0 -82 -73 -130t-199 -48 q-86 0 -193 37l33 76q95 -19 137 -19q103 0 103 76q0 34 -20.5 53t-55.5 19q-16 0 -76 -8l-20 16l80 180q-101 12 -148 74t-47 182v531z" />
<glyph unicode="&#x164;" horiz-adv-x="1366" d="M35 1384l12 11q320 -6 637 -6q318 0 635 6l12 -11q-21 -128 -26 -325h-82l-11 141q-6 16 -11.5 26.5t-10 18.5t-12 12.5l-12.5 7.5t-17.5 3.5t-20.5 0.5t-27.5 -0.5t-33.5 -0.5h-240v-992v-78t4.5 -51t8.5 -34t18 -17t27 -10.5t41 -3.5l75 -6v-82q-159 6 -319 6 q-158 0 -317 -6v82l75 6q28 2 41 3.5t27 10.5t18 17t8.5 34t4.5 51v78v992h-240q-6 0 -31.5 0.5t-34 0t-27.5 -4t-27 -10.5t-16 -20.5t-9 -33.5l-11 -141h-82q-8 217 -26 325zM311 1804h127l248 -166l250 166h121l-269 -293h-206z" />
<glyph unicode="&#x165;" d="M45 748v45l135 88v123q0 43 -8 188q168 63 250 102l29 -20q-25 -142 -25 -279v-118q116 0 233 12l-16 -133h-217v-488q0 -75 27.5 -104t99.5 -29q36 0 94 27l17 -39l-101 -121q-29 -37 -133 -37q-133 0 -193.5 61.5t-60.5 198.5v531zM498 1004q27 61 43.5 116.5t21.5 84 t17 110.5q129 17 219 55l22 -22q-8 -18 -15.5 -34t-17.5 -35t-15.5 -30.5t-19.5 -34.5t-19 -31.5t-23 -37t-23 -35.5t-28 -43t-29 -45l-109 -45z" />
<glyph unicode="&#x168;" horiz-adv-x="1593" d="M53 1319v76q159 -6 318 -6q160 0 319 6v-76l-76 -6q-26 -2 -39.5 -4.5t-26.5 -11.5t-18 -19.5t-9 -36t-4.5 -52.5t-0.5 -77v-508q0 -160 16.5 -242.5t57.5 -132.5q80 -96 287 -96q203 0 288 88q53 54 75 144.5t22 252.5v494q0 60 -2 90t-6 55t-17 34.5t-28 14t-46 7.5 l-76 6v76q117 -6 236 -6q116 0 233 6v-76l-75 -6q-31 -3 -46 -7.5t-28 -14t-17 -34.5t-6 -55t-2 -90v-598q0 -278 -143 -413.5t-438 -135.5q-264 0 -419 107t-155 290v750q0 50 -0.5 77t-4.5 52.5t-9 36t-18 19.5t-26.5 11.5t-39.5 4.5zM516 1530q12 114 78.5 185t159.5 71 q61 0 164 -49t153 -49q37 0 57 19t48 79h88q-37 -134 -95 -196t-147 -62q-65 0 -172 51q-97 47 -158 47q-65 0 -94 -96h-82z" />
<glyph unicode="&#x169;" horiz-adv-x="1251" d="M51 803v74q148 18 232 43l143 45l20 -13v-534q0 -148 36 -208t124 -60q82 0 139.5 54t57.5 130v319q0 91 -9 116t-44 28l-93 6v74q150 19 232 43l143 45l21 -13v-747q0 -84 12 -106t61 -25l68 -4v-76q-105 6 -207 6q-95 0 -194 -6l10 170l-156 -152q-47 -47 -141 -47 q-149 0 -229 83.5t-80 238.5v366q0 91 -9.5 116t-44.5 28zM250 1100q12 114 78 185t159 71q61 0 164 -49q105 -50 154 -50q36 0 56 19t48 80h88q-37 -134 -94.5 -196t-146.5 -62q-65 0 -172 51q-97 47 -158 47q-65 0 -94 -96h-82z" />
<glyph unicode="&#x16a;" horiz-adv-x="1593" d="M53 1319v76q159 -6 318 -6q160 0 319 6v-76l-76 -6q-26 -2 -39.5 -4.5t-26.5 -11.5t-18 -19.5t-9 -36t-4.5 -52.5t-0.5 -77v-508q0 -160 16.5 -242.5t57.5 -132.5q80 -96 287 -96q203 0 288 88q53 54 75 144.5t22 252.5v494q0 60 -2 90t-6 55t-17 34.5t-28 14t-46 7.5 l-76 6v76q117 -6 236 -6q116 0 233 6v-76l-75 -6q-31 -3 -46 -7.5t-28 -14t-17 -34.5t-6 -55t-2 -90v-598q0 -278 -143 -413.5t-438 -135.5q-264 0 -419 107t-155 290v750q0 50 -0.5 77t-4.5 52.5t-9 36t-18 19.5t-26.5 11.5t-39.5 4.5zM551 1585v146h678v-146h-678z" />
<glyph unicode="&#x16b;" horiz-adv-x="1251" d="M51 803v74q148 18 232 43l143 45l20 -13v-534q0 -148 36 -208t124 -60q82 0 139.5 54t57.5 130v319q0 91 -9 116t-44 28l-93 6v74q150 19 232 43l143 45l21 -13v-747q0 -84 12 -106t61 -25l68 -4v-76q-105 6 -207 6q-95 0 -194 -6l10 170l-156 -152q-47 -47 -141 -47 q-149 0 -229 83.5t-80 238.5v366q0 91 -9.5 116t-44.5 28zM285 1155v145h678v-145h-678z" />
<glyph unicode="&#x16c;" horiz-adv-x="1593" d="M53 1319v76q159 -6 318 -6q160 0 319 6v-76l-76 -6q-26 -2 -39.5 -4.5t-26.5 -11.5t-18 -19.5t-9 -36t-4.5 -52.5t-0.5 -77v-508q0 -160 16.5 -242.5t57.5 -132.5q80 -96 287 -96q203 0 288 88q53 54 75 144.5t22 252.5v494q0 60 -2 90t-6 55t-17 34.5t-28 14t-46 7.5 l-76 6v76q117 -6 236 -6q116 0 233 6v-76l-75 -6q-31 -3 -46 -7.5t-28 -14t-17 -34.5t-6 -55t-2 -90v-598q0 -278 -143 -413.5t-438 -135.5q-264 0 -419 107t-155 290v750q0 50 -0.5 77t-4.5 52.5t-9 36t-18 19.5t-26.5 11.5t-39.5 4.5zM553 1794h98q34 -143 230 -143 q100 0 172.5 44.5t72.5 94.5v4h99q-33 -272 -336 -272q-154 0 -241.5 68.5t-94.5 203.5z" />
<glyph unicode="&#x16d;" horiz-adv-x="1251" d="M51 803v74q148 18 232 43l143 45l20 -13v-534q0 -148 36 -208t124 -60q82 0 139.5 54t57.5 130v319q0 91 -9 116t-44 28l-93 6v74q150 19 232 43l143 45l21 -13v-747q0 -84 12 -106t61 -25l68 -4v-76q-105 6 -207 6q-95 0 -194 -6l10 170l-156 -152q-47 -47 -141 -47 q-149 0 -229 83.5t-80 238.5v366q0 91 -9.5 116t-44.5 28zM313 1395h90q34 -178 213 -178q115 0 179 73q21 24 35 52.5t14 48.5v4h90q-6 -77 -17 -120t-36 -83q-81 -131 -256 -131q-94 0 -164.5 39t-108.5 112q-34 66 -39 183z" />
<glyph unicode="&#x16e;" horiz-adv-x="1593" d="M53 1319v76q159 -6 318 -6q160 0 319 6v-76l-76 -6q-26 -2 -39.5 -4.5t-26.5 -11.5t-18 -19.5t-9 -36t-4.5 -52.5t-0.5 -77v-508q0 -160 16.5 -242.5t57.5 -132.5q80 -96 287 -96q203 0 288 88q53 54 75 144.5t22 252.5v494q0 60 -2 90t-6 55t-17 34.5t-28 14t-46 7.5 l-76 6v76q117 -6 236 -6q116 0 233 6v-76l-75 -6q-31 -3 -46 -7.5t-28 -14t-17 -34.5t-6 -55t-2 -90v-598q0 -278 -143 -413.5t-438 -135.5q-264 0 -419 107t-155 290v750q0 50 -0.5 77t-4.5 52.5t-9 36t-18 19.5t-26.5 11.5t-39.5 4.5zM686 1694q0 85 60.5 143.5 t148.5 58.5q82 0 141.5 -60.5t59.5 -143.5q0 -85 -60 -145t-145 -60t-145 60.5t-60 146.5zM788 1692q0 -43 30 -73t73 -30t72.5 30t29.5 73q0 41 -29.5 71.5t-70.5 30.5q-44 0 -74.5 -29.5t-30.5 -72.5z" />
<glyph unicode="&#x16f;" horiz-adv-x="1251" d="M51 803v74q148 18 232 43l143 45l20 -13v-534q0 -148 36 -208t124 -60q82 0 139.5 54t57.5 130v319q0 91 -9 116t-44 28l-93 6v74q150 19 232 43l143 45l21 -13v-747q0 -84 12 -106t61 -25l68 -4v-76q-105 6 -207 6q-95 0 -194 -6l10 170l-156 -152q-47 -47 -141 -47 q-149 0 -229 83.5t-80 238.5v366q0 91 -9.5 116t-44.5 28zM420 1229q0 85 60.5 144t148.5 59q82 0 141 -61t59 -144q0 -85 -59.5 -145t-144.5 -60t-145 60.5t-60 146.5zM522 1227q0 -43 30 -73t73 -30t72.5 30t29.5 73q0 41 -29.5 71.5t-70.5 30.5q-44 0 -74.5 -29.5 t-30.5 -72.5z" />
<glyph unicode="&#x170;" horiz-adv-x="1593" d="M53 1319v76q159 -6 318 -6q160 0 319 6v-76l-76 -6q-26 -2 -39.5 -4.5t-26.5 -11.5t-18 -19.5t-9 -36t-4.5 -52.5t-0.5 -77v-508q0 -160 16.5 -242.5t57.5 -132.5q80 -96 287 -96q203 0 288 88q53 54 75 144.5t22 252.5v494q0 60 -2 90t-6 55t-17 34.5t-28 14t-46 7.5 l-76 6v76q117 -6 236 -6q116 0 233 6v-76l-75 -6q-31 -3 -46 -7.5t-28 -14t-17 -34.5t-6 -55t-2 -90v-598q0 -278 -143 -413.5t-438 -135.5q-264 0 -419 107t-155 290v750q0 50 -0.5 77t-4.5 52.5t-9 36t-18 19.5t-26.5 11.5t-39.5 4.5zM623 1501l284 248q72 61 146 61 q43 0 69.5 -20t26.5 -53q0 -27 -20.5 -46t-75.5 -44l-308 -146h-122zM999 1501l285 248q72 61 146 61q43 0 69.5 -20t26.5 -53q0 -27 -20.5 -46t-75.5 -44l-308 -146h-123z" />
<glyph unicode="&#x171;" horiz-adv-x="1251" d="M51 803v74q148 18 232 43l143 45l20 -13v-534q0 -148 36 -208t124 -60q82 0 139.5 54t57.5 130v319q0 91 -9 116t-44 28l-93 6v74q150 19 232 43l143 45l21 -13v-747q0 -84 12 -106t61 -25l68 -4v-76q-105 6 -207 6q-95 0 -194 -6l10 170l-156 -152q-47 -47 -141 -47 q-149 0 -229 83.5t-80 238.5v366q0 91 -9.5 116t-44.5 28zM352 1038l262 303q38 44 65 60t64 16q43 0 70 -26.5t27 -67.5q0 -55 -39 -78l-338 -207h-111zM737 1038l262 303q38 44 65 60t64 16q43 0 70 -26.5t27 -69.5q0 -53 -39 -76l-338 -207h-111z" />
<glyph unicode="&#x172;" horiz-adv-x="1593" d="M53 1319v76q159 -6 318 -6q160 0 319 6v-76l-76 -6q-26 -2 -39.5 -4.5t-26.5 -11.5t-18 -19.5t-9 -36t-4.5 -52.5t-0.5 -77v-508q0 -160 16.5 -242.5t57.5 -132.5q80 -96 287 -96q203 0 288 88q53 54 75 144.5t22 252.5v494q0 60 -2 90t-6 55t-17 34.5t-28 14t-46 7.5 l-76 6v76q117 -6 236 -6q116 0 233 6v-76l-75 -6q-31 -3 -46 -7.5t-28 -14t-17 -34.5t-6 -55t-2 -90v-598q0 -223 -91.5 -353.5t-278.5 -174.5q-153 -31 -191 -84q-55 -78 -55 -156q0 -51 19.5 -87t66.5 -36q24 0 39.5 1t34.5 5.5t32 14.5t19 26l24 62l62 -15v-120l-109 -76 q-22 -15 -54.5 -23t-55 -9t-62.5 -1q-83 0 -129.5 61t-46.5 146q0 159 144 272q-242 11 -382.5 116.5t-140.5 278.5v750q0 50 -0.5 77t-4.5 52.5t-9 36t-18 19.5t-26.5 11.5t-39.5 4.5z" />
<glyph unicode="&#x173;" horiz-adv-x="1251" d="M51 803v74q148 18 232 43l143 45l20 -13v-534q0 -148 36 -208t124 -60q82 0 139.5 54t57.5 130v319q0 91 -9 116t-44 28l-93 6v74q150 19 232 43l143 45l21 -13v-747q0 -84 12 -106t61 -25l68 -4v-76l-82 4q-90 3 -160 -96q-55 -78 -55 -156q0 -51 19.5 -87t66.5 -36 q24 0 39.5 1t34.5 5.5t32 14.5t19 26l25 62l61 -15v-120l-109 -76q-22 -15 -54.5 -23t-55 -9t-62.5 -1q-83 0 -129.5 61t-46.5 146q0 185 193 305l-137 -6l10 170l-156 -152q-47 -47 -141 -47q-149 0 -229 83.5t-80 238.5v366q0 91 -9.5 116t-44.5 28z" />
<glyph unicode="&#x174;" horiz-adv-x="2048" d="M35 1319v76q159 -6 319 -6q137 0 275 6v-76l-86 -6q-25 -1 -43.5 -16.5t-18.5 -34.5q0 -27 6 -54l168 -784l308 727q32 76 45.5 109t26 64.5t32.5 80.5h92q62 -178 101 -272l280 -703l199 774q8 31 8 62q0 44 -72 47l-94 6v76q108 -6 217 -6q111 0 225 6v-76l-67 -6 q-26 -3 -47 -37t-41 -105l-250 -884l-68 -293h-149q-10 26 -36 100t-42 115l-305 768l-318 -727l-96 -256h-143l-285 1233q-17 80 -76 86zM645 1511l268 293h207l271 -293h-127l-248 166l-250 -166h-121z" />
<glyph unicode="&#x175;" horiz-adv-x="1705" d="M27 862v78q138 -6 278 -6q139 0 277 6v-78l-97 -4q-17 0 -28 -12.5t-11 -32.5q0 -19 5 -39l120 -465l117 256l178 400h103l282 -650q51 136 80 230l74 231q6 24 6 39q0 18 -16 29.5t-43 13.5l-86 4v78q105 -6 207 -6q101 0 206 6v-78l-69 -4q-22 -1 -38.5 -23t-35.5 -73 l-188 -533q-25 -73 -43 -131.5t-23 -81.5l-6 -22h-166l-270 629q-118 -233 -161.5 -330t-119.5 -299h-162l-219 786q-12 42 -30.5 59.5t-53.5 18.5zM494 1049l247 358h191l252 -358h-117l-229 200l-232 -200h-112z" />
<glyph unicode="&#x176;" horiz-adv-x="1366" d="M31 1274v76l325 73q71 -42 122 -102t112 -176l219 -416l385 660h158v-39l-361 -535q-50 -75 -108 -205v-334v-60.5t2 -45t3.5 -34t8 -22t11.5 -16t17.5 -8t23.5 -5.5t32 -3l76 -6v-82q-159 6 -320 6q-158 0 -317 -6v82l76 6q21 2 32 3t23.5 5.5t17.5 8t11.5 16t8 22 t3.5 34t2 45v60.5v285q-49 109 -90 174l-207 334q-80 130 -132 167.5t-134 37.5zM367 1511l268 293h207l270 -293h-127l-248 166l-250 -166h-120z" />
<glyph unicode="&#x177;" horiz-adv-x="1138" d="M20 862v78q135 -6 273 -6q135 0 270 6v-78l-71 -4q-24 -2 -39 -14.5t-15 -32.5q0 -16 5.5 -34t16 -42.5t13.5 -32.5l172 -446l207 516q8 20 8 45q0 17 -15 28t-40 13l-68 4v78q95 -6 191 -6q95 0 190 6v-78l-53 -10q-45 -9 -84 -96l-408 -949q-78 -181 -165.5 -266.5 t-194.5 -85.5q-73 0 -150 35l37 195l23 8q67 -76 143 -76q53 0 103.5 49.5t85.5 136.5l47 115l-324 827q-23 59 -43 85.5t-43 27.5zM233 1049l248 358h191l252 -358h-117l-229 200l-232 -200h-113z" />
<glyph unicode="&#x178;" horiz-adv-x="1366" d="M31 1274v76l325 73q71 -42 122 -102t112 -176l219 -416l385 660h158v-39l-361 -535q-50 -75 -108 -205v-334v-60.5t2 -45t3.5 -34t8 -22t11.5 -16t17.5 -8t23.5 -5.5t32 -3l76 -6v-82q-159 6 -320 6q-158 0 -317 -6v82l76 6q21 2 32 3t23.5 5.5t17.5 8t11.5 16t8 22 t3.5 34t2 45v60.5v285q-49 109 -90 174l-207 334q-80 130 -132 167.5t-134 37.5zM383 1657q0 57 40.5 97t98.5 40q55 0 95 -40.5t40 -96.5q0 -57 -40 -97t-97 -40t-97 40t-40 97zM823 1659q0 56 41 95.5t99 39.5q55 0 95 -40.5t40 -96.5q0 -57 -40 -97t-97 -40t-97.5 40.5 t-40.5 98.5z" />
<glyph unicode="&#x179;" horiz-adv-x="1366" d="M49 -6v78q133 169 213 284l627 914h-455q-109 0 -139 -15.5t-39 -78.5l-16 -113h-76v332q279 -6 557 -6q279 0 555 6v-72q-102 -124 -170 -225l-666 -981h566q78 0 117.5 19.5t47.5 60.5l31 159h82q-30 -170 -33 -362q-292 6 -581 6q-310 0 -621 -6zM422 1501l285 248 q72 61 145 61q43 0 69.5 -20t26.5 -53q0 -27 -20.5 -46t-75.5 -44l-307 -146h-123z" />
<glyph unicode="&#x17a;" horiz-adv-x="1024" d="M33 -6v67l213 279l348 487h-242q-86 0 -116 -23t-39 -97l-7 -52h-77l6 275q1 1 2 1.5t5 3t5 2.5t2 -1q243 -6 483 -6q158 0 314 6v-1v-1v-1v-1v-1v-1v-1v-1v-1v-1v-1v-1v-1v-1v-2v-1v-1v-1v-1v-2v-1v-1v-2v-1v-1v-2v-1v-2v-1v-2v-1v-2v-1v-2v-2v-1v-2v-1v-2v-2v-2v-1v-2 v-2v-9l-549 -755h334q74 0 102 27t41 114l10 63h82q-24 -168 -24 -313l-11 -10q-279 6 -559 6q-160 0 -323 -6zM297 1036l264 303q67 76 133 76q40 0 65 -24.5t25 -65.5q0 -33 -19 -57.5t-69 -55.5q-5 -3 -9 -5q-41 -27 -275 -171h-115z" />
<glyph unicode="&#x17b;" horiz-adv-x="1366" d="M49 -6v78q133 169 213 284l627 914h-455q-109 0 -139 -15.5t-39 -78.5l-16 -113h-76v332q279 -6 557 -6q279 0 555 6v-72q-102 -124 -170 -225l-666 -981h566q78 0 117.5 19.5t47.5 60.5l31 159h82q-30 -170 -33 -362q-292 6 -581 6q-310 0 -621 -6zM516 1659 q0 56 40.5 95.5t98.5 39.5q55 0 95.5 -40.5t40.5 -96.5q0 -57 -40.5 -97t-97.5 -40t-97 40.5t-40 98.5z" />
<glyph unicode="&#x17c;" horiz-adv-x="1024" d="M33 -6v67l213 279l348 487h-242q-86 0 -116 -23t-39 -97l-7 -52h-77l6 275q1 1 2 1.5t5 3t5 2.5t2 -1q243 -6 483 -6q158 0 314 6v-1v-1v-1v-1v-1v-1v-1v-1v-1v-1v-1v-1v-1v-1v-2v-1v-1v-1v-1v-2v-1v-1v-2v-1v-1v-2v-1v-2v-1v-2v-1v-2v-1v-2v-2v-1v-2v-1v-2v-2v-2v-1v-2 v-2v-9l-549 -755h334q74 0 102 27t41 114l10 63h82q-24 -168 -24 -313l-11 -10q-279 6 -559 6q-160 0 -323 -6zM342 1229q0 56 40.5 95.5t98.5 39.5q55 0 95 -40.5t40 -96.5q0 -57 -40 -97t-97 -40t-97 40.5t-40 98.5z" />
<glyph unicode="&#x17d;" horiz-adv-x="1366" d="M49 -6v78q133 169 213 284l627 914h-455q-109 0 -139 -15.5t-39 -78.5l-16 -113h-76v332q279 -6 557 -6q279 0 555 6v-72q-102 -124 -170 -225l-666 -981h566q78 0 117.5 19.5t47.5 60.5l31 159h82q-30 -170 -33 -362q-292 6 -581 6q-310 0 -621 -6zM279 1804h127 l247 -166l250 166h121l-268 -293h-207z" />
<glyph unicode="&#x17e;" horiz-adv-x="1024" d="M33 -6v67l213 279l348 487h-242q-86 0 -116 -23t-39 -97l-7 -52h-77l6 275q1 1 2 1.5t5 3t5 2.5t2 -1q243 -6 483 -6q158 0 314 6v-1v-1v-1v-1v-1v-1v-1v-1v-1v-1v-1v-1v-1v-1v-2v-1v-1v-1v-1v-2v-1v-1v-2v-1v-1v-2v-1v-2v-1v-2v-1v-2v-1v-2v-2v-1v-2v-1v-2v-2v-2v-1v-2 v-2v-9l-549 -755h334q74 0 102 27t41 114l10 63h82q-24 -168 -24 -313l-11 -10q-279 6 -559 6q-160 0 -323 -6zM133 1407h113l231 -201l230 201h116l-252 -358h-190z" />
<glyph unicode="&#x17f;" horiz-adv-x="796" d="M70 -6v76l84 4q57 3 71.5 25t14.5 106v557l-162 -10v49q99 48 162 92v88q0 123 19 171t93 110l152 127q58 49 99 67.5t91 18.5q29 0 86 -13v-198l-32 -15q-46 29 -75.5 39t-62.5 10q-70 0 -95.5 -39.5t-25.5 -148.5v-905q0 -63 7 -94q5 -15 31 -25.5t65 -11.5l92 -4v-76 q-164 6 -328 6q-142 0 -286 -6z" />
<glyph unicode="&#x18e;" horiz-adv-x="1251" d="M80 340h80l47 -193q3 -12 70 -23t137 -11l305 6v547q-86 6 -137 6h-136q-58 0 -84.5 -18t-31.5 -58l-13 -102h-81q6 111 6 221q0 108 -6 219h81l13 -117q3 -25 27.5 -34t88.5 -9h136q96 0 137 4v492l-297 6q-85 0 -142.5 -11t-58.5 -28l-16 -154h-74l-29 291l13 15 q114 6 194 6q81 0 242 -3t242 -3q195 0 389 6v-76l-76 -6q-26 -2 -39.5 -4.5t-26.5 -11.5t-18 -19.5t-9 -36t-4.5 -52.5t-0.5 -77v-917q0 -53 9 -79t32 -38l65 -37v-47q-126 6 -252 6q-77 0 -231.5 -3t-231.5 -3q-169 0 -286 6l-11 16z" />
<glyph unicode="&#x192;" horiz-adv-x="1024" d="M23 -496q13 77 16 181l29 16q13 -23 41 -37t59 -14q37 0 68 34t38 83l150 987h-229l26 90h215q25 110 66.5 208t89.5 160q83 108 189.5 166.5t222.5 61.5l-15 -170h-20q-57 41 -101 41q-104 0 -125 -144l-51 -323h234l-27 -90h-225l-107 -635q-44 -266 -194.5 -435 t-349.5 -180z" />
<glyph unicode="&#x1a0;" horiz-adv-x="1705" d="M96 680q0 352 206.5 547.5t578.5 195.5q323 0 512 -163q42 30 58.5 76.5t16.5 123.5v33q163 28 240 45l25 -18q-17 -49 -48.5 -106t-90 -124.5t-124.5 -109.5q142 -184 142 -471q0 -350 -205.5 -547t-572.5 -197q-352 0 -545 187t-193 528zM403 727q0 -177 46 -318 t129 -223q106 -106 270 -106q224 0 340.5 149t116.5 437q0 174 -46 314.5t-131 223.5q-108 105 -266 105q-195 0 -315 -117q-69 -69 -106.5 -189t-37.5 -276z" />
<glyph unicode="&#x1a1;" horiz-adv-x="1224" d="M82 459q0 245 131 375.5t375 130.5q232 0 354 -131q39 32 54.5 77t15.5 119v33q158 27 239 45l25 -18q-12 -36 -34 -79t-55 -92.5t-80.5 -96.5t-100.5 -79q53 -106 53 -260q0 -249 -133 -383.5t-379 -134.5q-223 0 -344 129t-121 365zM360 508q0 -445 224 -445 q104 0 150 84.5t46 272.5q0 226 -53.5 336t-163.5 110q-106 0 -154.5 -86t-48.5 -272z" />
<glyph unicode="&#x1af;" horiz-adv-x="1677" d="M53 1319v76q159 -6 318 -6q160 0 319 6v-76l-76 -6q-26 -2 -39.5 -4.5t-26.5 -11.5t-18 -19.5t-9 -36t-4.5 -52.5t-0.5 -77v-508q0 -156 16 -238.5t56 -132.5q81 -100 289 -100q203 0 288 88q53 54 75 144.5t22 252.5v494q0 60 -2 90t-6 55t-17 34.5t-28 14t-46 7.5 l-76 6v76q117 -6 236 -6q29 0 59 6v-142q46 31 64 79t18 128v33q163 28 240 45l25 -18q-14 -42 -42 -93t-70.5 -108t-104.5 -107t-130 -75v-623q0 -278 -143.5 -413.5t-437.5 -135.5q-264 0 -419 107t-155 290v750q0 50 -0.5 77t-4.5 52.5t-9 36t-18 19.5t-26.5 11.5 t-39.5 4.5z" />
<glyph unicode="&#x1b0;" horiz-adv-x="1329" d="M51 803v74q148 18 232 43l143 45l20 -13v-534q0 -148 36 -208t124 -60q81 0 139 54.5t58 129.5v319q0 91 -9 116t-44 28l-93 6v74q150 19 232 43l143 45l21 -13v-121q40 30 55.5 76t15.5 123v33q163 28 240 45l25 -18q-14 -41 -41.5 -91t-68.5 -106t-100.5 -105.5 t-125.5 -76.5v-506q0 -83 12.5 -105.5t60.5 -25.5l68 -4v-76q-43 2 -96 2q-57 4 -113 4l-192 -6l10 170l-156 -152q-47 -47 -143 -47q-148 0 -227.5 83.5t-79.5 238.5v366q0 91 -9.5 116t-44.5 28z" />
<glyph unicode="&#x1cd;" horiz-adv-x="1593" d="M49 -6v76l62 6q66 6 114 123l371 897l117 309h145l531 -1239q20 -44 44.5 -64t67.5 -26l49 -6v-76q-164 6 -323 6q-156 0 -312 -6v76l109 6q19 1 29 14t10.5 31.5t-2.5 35t-8 31.5l-92 234h-515l-86 -229q-7 -24 -8.5 -49.5t14 -45.5t44.5 -22l102 -6v-76q-117 6 -231 6 q-115 0 -232 -6zM414 1804h127l247 -166l250 166h121l-268 -293h-207zM496 537h417l-213 520z" />
<glyph unicode="&#x1ce;" horiz-adv-x="1024" d="M82 219q0 130 78 198.5t272 108.5l180 37q-4 126 -55 184t-154 58q-41 0 -77 -9t-41 -20l-45 -102l-62 14v141l109 66q116 70 245 70q155 0 241.5 -77t86.5 -212v-475q0 -72 11.5 -97t46.5 -28l61 -6v-76q-88 6 -180 6q-95 0 -187 -6l-10 16l10 127l-190 -147 q-31 -25 -100 -25q-117 0 -178.5 65t-61.5 189zM186 1407h113l231 -201l230 201h117l-252 -358h-191zM332 272q0 -60 27.5 -94.5t76.5 -34.5q45 0 95 26.5t81 66.5v241l-92 -24q-109 -29 -148.5 -67.5t-39.5 -113.5z" />
<glyph unicode="&#x1cf;" horiz-adv-x="796" d="M27 1804h127l247 -166l250 166h121l-268 -293h-207zM80 -6v82l76 6q21 2 32 3t23.5 5.5t17.5 8t11.5 16t8 22t3.5 34t2 45v60.5v836v60.5t-2 45t-3.5 34.5t-7.5 22.5t-11.5 15.5t-18 8t-23.5 6t-32 3l-76 6v82q159 -6 317 -6q161 0 320 6v-82l-76 -6q-21 -2 -32 -3 t-23.5 -6t-18 -8t-11.5 -15.5t-7.5 -22.5t-3.5 -34.5t-2 -45v-60.5v-836v-60.5t2 -45t3.5 -34t8 -22t11.5 -16t17.5 -8t23.5 -5.5t32 -3l76 -6v-82q-159 6 -320 6q-158 0 -317 -6z" />
<glyph unicode="&#x1d0;" d="M-6 1407h112l232 -201l229 201h117l-252 -358h-190zM70 -6v76l71 4q48 3 61 26t13 105v448q0 91 -9 116t-44 28l-92 6v74l30 4q107 15 201 39q25 6 61 17.5t59 19.5l23 8l21 -13v-747q0 -82 13 -105t61 -26l71 -4v-76q-138 6 -276 6q-132 0 -264 -6z" />
<glyph unicode="&#x1d1;" horiz-adv-x="1705" d="M96 680q0 352 206.5 547.5t578.5 195.5q347 0 539 -188t192 -526q0 -350 -205.5 -547t-572.5 -197q-352 0 -545 187t-193 528zM403 727q0 -177 46 -318t129 -223q106 -106 270 -106q224 0 340.5 149t116.5 437q0 174 -46 314.5t-131 223.5q-108 105 -266 105 q-195 0 -315 -117q-69 -69 -106.5 -189t-37.5 -276zM485 1804h127l248 -166l250 166h121l-268 -293h-207z" />
<glyph unicode="&#x1d2;" horiz-adv-x="1138" d="M82 459q0 245 131 375.5t375 130.5q227 0 349 -124.5t122 -357.5q0 -249 -133 -383.5t-379 -134.5q-223 0 -344 129t-121 365zM221 1407h113l231 -201l230 201h116l-252 -358h-190zM360 508q0 -445 224 -445q104 0 150 84.5t46 272.5q0 226 -53.5 336t-163.5 110 q-106 0 -154.5 -86t-48.5 -272z" />
<glyph unicode="&#x1d3;" horiz-adv-x="1593" d="M53 1319v76q159 -6 318 -6q160 0 319 6v-76l-76 -6q-26 -2 -39.5 -4.5t-26.5 -11.5t-18 -19.5t-9 -36t-4.5 -52.5t-0.5 -77v-508q0 -160 16.5 -242.5t57.5 -132.5q80 -96 287 -96q203 0 288 88q53 54 75 144.5t22 252.5v494q0 60 -2 90t-6 55t-17 34.5t-28 14t-46 7.5 l-76 6v76q117 -6 236 -6q116 0 233 6v-76l-75 -6q-31 -3 -46 -7.5t-28 -14t-17 -34.5t-6 -55t-2 -90v-598q0 -278 -143 -413.5t-438 -135.5q-264 0 -419 107t-155 290v750q0 50 -0.5 77t-4.5 52.5t-9 36t-18 19.5t-26.5 11.5t-39.5 4.5zM516 1804h127l248 -166l250 166h121 l-269 -293h-207z" />
<glyph unicode="&#x1d4;" horiz-adv-x="1251" d="M51 803v74q148 18 232 43l143 45l20 -13v-534q0 -148 36 -208t124 -60q82 0 139.5 54t57.5 130v319q0 91 -9 116t-44 28l-93 6v74q150 19 232 43l143 45l21 -13v-747q0 -84 12 -106t61 -25l68 -4v-76q-105 6 -207 6q-95 0 -194 -6l10 170l-156 -152q-47 -47 -141 -47 q-149 0 -229 83.5t-80 238.5v366q0 91 -9.5 116t-44.5 28zM279 1407h112l232 -201l229 201h117l-252 -358h-191z" />
<glyph unicode="&#x1d7;" horiz-adv-x="1593" d="M53 1319v76q159 -6 318 -6q160 0 319 6v-76l-76 -6q-26 -2 -39.5 -4.5t-26.5 -11.5t-18 -19.5t-9 -36t-4.5 -52.5t-0.5 -77v-508q0 -160 16.5 -242.5t57.5 -132.5q80 -96 287 -96q203 0 288 88q53 54 75 144.5t22 252.5v494q0 60 -2 90t-6 55t-17 34.5t-28 14t-46 7.5 l-76 6v76q117 -6 236 -6q116 0 233 6v-76l-75 -6q-31 -3 -46 -7.5t-28 -14t-17 -34.5t-6 -55t-2 -90v-598q0 -278 -143 -413.5t-438 -135.5q-264 0 -419 107t-155 290v750q0 50 -0.5 77t-4.5 52.5t-9 36t-18 19.5t-26.5 11.5t-39.5 4.5zM530 1657q0 57 41 97t99 40 q55 0 95 -40.5t40 -96.5q0 -57 -40 -97t-97 -40t-97.5 40t-40.5 97zM659 1901l285 247q74 62 146 62q43 0 69.5 -20t26.5 -54q0 -27 -20.5 -46t-75.5 -44l-308 -145h-123zM971 1659q0 56 40.5 95.5t98.5 39.5q55 0 95 -40.5t40 -96.5q0 -57 -40 -97t-97 -40t-97 40.5 t-40 98.5z" />
<glyph unicode="&#x1d8;" horiz-adv-x="1251" d="M51 803v74q148 18 232 43l143 45l20 -13v-534q0 -148 36 -208t124 -60q82 0 139.5 54t57.5 130v319q0 91 -9 116t-44 28l-93 6v74q150 19 232 43l143 45l21 -13v-747q0 -84 12 -106t61 -25l68 -4v-76q-105 6 -207 6q-95 0 -194 -6l10 170l-156 -152q-47 -47 -141 -47 q-149 0 -229 83.5t-80 238.5v366q0 91 -9.5 116t-44.5 28zM266 1227q0 57 41 97t99 40q55 0 95 -40.5t40 -96.5q0 -57 -40.5 -97t-97.5 -40t-97 40t-40 97zM395 1481l285 248q72 61 145 61q43 0 70 -20.5t27 -53.5q0 -27 -21 -46t-76 -44l-307 -145h-123zM707 1229 q0 56 40.5 95.5t98.5 39.5q55 0 95 -40.5t40 -96.5q0 -57 -40 -97t-97 -40t-97 40.5t-40 98.5z" />
<glyph unicode="&#x1d9;" horiz-adv-x="1593" d="M53 1319v76q159 -6 318 -6q160 0 319 6v-76l-76 -6q-26 -2 -39.5 -4.5t-26.5 -11.5t-18 -19.5t-9 -36t-4.5 -52.5t-0.5 -77v-508q0 -160 16.5 -242.5t57.5 -132.5q80 -96 287 -96q203 0 288 88q53 54 75 144.5t22 252.5v494q0 60 -2 90t-6 55t-17 34.5t-28 14t-46 7.5 l-76 6v76q117 -6 236 -6q116 0 233 6v-76l-75 -6q-31 -3 -46 -7.5t-28 -14t-17 -34.5t-6 -55t-2 -90v-598q0 -278 -143 -413.5t-438 -135.5q-264 0 -419 107t-155 290v750q0 50 -0.5 77t-4.5 52.5t-9 36t-18 19.5t-26.5 11.5t-39.5 4.5zM514 2204h127l248 -166l250 166h121 l-269 -293h-207zM530 1657q0 57 41 97t99 40q55 0 95 -40.5t40 -96.5q0 -57 -40 -97t-97 -40t-97.5 40t-40.5 97zM971 1659q0 56 40.5 95.5t98.5 39.5q55 0 95 -40.5t40 -96.5q0 -57 -40 -97t-97 -40t-97 40.5t-40 98.5z" />
<glyph unicode="&#x1da;" horiz-adv-x="1251" d="M51 803v74q148 18 232 43l143 45l20 -13v-534q0 -148 36 -208t124 -60q82 0 139.5 54t57.5 130v319q0 91 -9 116t-44 28l-93 6v74q150 19 232 43l143 45l21 -13v-747q0 -84 12 -106t61 -25l68 -4v-76q-105 6 -207 6q-95 0 -194 -6l10 170l-156 -152q-47 -47 -141 -47 q-149 0 -229 83.5t-80 238.5v366q0 91 -9.5 116t-44.5 28zM252 1784h127l248 -166l250 166h120l-268 -293h-207zM266 1227q0 57 41 97t99 40q55 0 95 -40.5t40 -96.5q0 -57 -40.5 -97t-97.5 -40t-97 40t-40 97zM707 1229q0 56 40.5 95.5t98.5 39.5q55 0 95 -40.5t40 -96.5 q0 -57 -40 -97t-97 -40t-97 40.5t-40 98.5z" />
<glyph unicode="&#x1db;" horiz-adv-x="1593" d="M53 1319v76q159 -6 318 -6q160 0 319 6v-76l-76 -6q-26 -2 -39.5 -4.5t-26.5 -11.5t-18 -19.5t-9 -36t-4.5 -52.5t-0.5 -77v-508q0 -160 16.5 -242.5t57.5 -132.5q80 -96 287 -96q203 0 288 88q53 54 75 144.5t22 252.5v494q0 60 -2 90t-6 55t-17 34.5t-28 14t-46 7.5 l-76 6v76q117 -6 236 -6q116 0 233 6v-76l-75 -6q-31 -3 -46 -7.5t-28 -14t-17 -34.5t-6 -55t-2 -90v-598q0 -278 -143 -413.5t-438 -135.5q-264 0 -419 107t-155 290v750q0 50 -0.5 77t-4.5 52.5t-9 36t-18 19.5t-26.5 11.5t-39.5 4.5zM530 1657q0 57 41 97t99 40 q55 0 95 -40.5t40 -96.5q0 -57 -40 -97t-97 -40t-97.5 40t-40.5 97zM590 2136q0 34 26.5 54t69.5 20q71 0 145 -62l285 -247h-123l-307 145q-55 25 -75.5 44t-20.5 46zM971 1659q0 56 40.5 95.5t98.5 39.5q55 0 95 -40.5t40 -96.5q0 -57 -40 -97t-97 -40t-97 40.5t-40 98.5z " />
<glyph unicode="&#x1dc;" horiz-adv-x="1251" d="M51 803v74q148 18 232 43l143 45l20 -13v-534q0 -148 36 -208t124 -60q82 0 139.5 54t57.5 130v319q0 91 -9 116t-44 28l-93 6v74q150 19 232 43l143 45l21 -13v-747q0 -84 12 -106t61 -25l68 -4v-76q-105 6 -207 6q-95 0 -194 -6l10 170l-156 -152q-47 -47 -141 -47 q-149 0 -229 83.5t-80 238.5v366q0 91 -9.5 116t-44.5 28zM266 1227q0 57 41 97t99 40q55 0 95 -40.5t40 -96.5q0 -57 -40.5 -97t-97.5 -40t-97 40t-40 97zM328 1716q0 34 26.5 54t69.5 20q73 0 145 -61l285 -248h-123l-307 145q-55 25 -75.5 44t-20.5 46zM707 1229 q0 56 40.5 95.5t98.5 39.5q55 0 95 -40.5t40 -96.5q0 -57 -40 -97t-97 -40t-97 40.5t-40 98.5z" />
<glyph unicode="&#x1dd;" horiz-adv-x="1024" d="M86 326v106q165 41 324 41h268q-3 74 -14 118t-37 87q-38 64 -107.5 102.5t-146.5 38.5q-63 0 -116.5 -15.5t-125.5 -55.5l-25 30l46 99q100 51 167 69.5t156 18.5q230 0 349.5 -127t119.5 -371q0 -148 -46.5 -242.5t-147.5 -154.5l-97 -58q-78 -47 -178 -47 q-178 0 -283.5 98t-105.5 263zM346 365q0 -151 40.5 -218t129.5 -67q90 0 132 67t42 218l-65 2q-32 1 -52 2t-24.5 1.5t-8.5 0.5h-6.5h-15.5z" />
<glyph unicode="&#x1e6;" horiz-adv-x="1705" d="M96 709q0 331 227.5 522.5t620.5 191.5q151 0 273.5 -22t261.5 -74l12 -22q-21 -91 -47 -314h-80l-10 176q-149 142 -420 142q-250 0 -390.5 -153t-140.5 -423q0 -292 152 -472.5t399 -180.5q124 0 260 51v270q0 40 -25.5 56.5t-90.5 19.5l-109 4v84q147 -6 293 -6 q154 0 307 6v-69q-56 -12 -70 -24.5t-14 -49.5v-334q-184 -69 -318 -96t-290 -27q-364 0 -582.5 203t-218.5 541zM467 1804h127l248 -166l250 166h120l-268 -293h-207z" />
<glyph unicode="&#x1e7;" horiz-adv-x="1138" d="M53 -254q0 41 15 77.5t38 49.5l166 98q-76 20 -107.5 51t-31.5 87q0 31 10 59.5t25 38.5l145 110q-54 19 -83 36t-58 48q-76 82 -76 197q0 161 124.5 264t320.5 103q190 0 311 -88q49 -3 74 -3q52 0 168 11l-11 -131l-157 8q10 -49 10 -96q0 -148 -90 -238 q-63 -63 -157 -97t-200 -34q-7 0 -81 4q-60 -37 -60 -80q0 -64 96 -61l299 8h50q155 0 229 -62.5t74 -191.5q0 -204 -166 -331.5t-434 -127.5q-203 0 -323 79t-120 212zM195 1407h112l232 -201l229 201h117l-252 -358h-191zM246 -229q0 -95 83.5 -154t219.5 -59 q137 0 228 70.5t91 176.5q0 67 -26.5 101.5t-91.5 48.5t-193 14q-162 0 -207 -22q-46 -22 -75 -70.5t-29 -105.5zM348 637q0 -115 46 -180.5t126 -65.5q164 0 164 221q0 122 -43 186t-125 64q-168 0 -168 -225z" />
<glyph unicode="&#x1ea;" horiz-adv-x="1705" d="M96 680q0 352 206.5 547.5t578.5 195.5q347 0 539 -188t192 -526q0 -296 -149.5 -484t-422.5 -241q-142 -24 -184 -82q-55 -78 -55 -156q0 -51 19.5 -87t66.5 -36q24 0 39.5 1t35 5.5t32 14.5t18.5 26l24 62l62 -15v-120l-109 -76q-22 -15 -54.5 -23t-55 -9t-62.5 -1 q-83 0 -129.5 61t-46.5 146q0 162 143 270q-329 14 -508.5 200.5t-179.5 514.5zM403 727q0 -177 46 -318t129 -223q106 -106 270 -106q224 0 340.5 149t116.5 437q0 174 -46 314.5t-131 223.5q-108 105 -266 105q-195 0 -315 -117q-69 -69 -106.5 -189t-37.5 -276z" />
<glyph unicode="&#x1eb;" horiz-adv-x="1138" d="M82 459q0 245 131 375.5t375 130.5q227 0 349 -124.5t122 -357.5q0 -199 -86 -325.5t-248 -169.5q-38 -10 -61 -18t-52 -26t-45 -42q-55 -78 -55 -156q0 -51 19.5 -87t66.5 -36q23 0 38.5 1t35 5.5t32.5 14.5t19 26l25 62l61 -15v-120l-109 -76q-22 -15 -54.5 -23t-55 -9 t-62.5 -1q-83 0 -129.5 61t-46.5 146q0 163 144 272q-198 14 -306 141.5t-108 350.5zM360 508q0 -445 224 -445q104 0 150 84.5t46 272.5q0 226 -53.5 336t-163.5 110q-106 0 -154.5 -86t-48.5 -272z" />
<glyph unicode="&#x1f0;" d="M-6 1407h112l232 -201l229 201h117l-252 -358h-190zM6 -469l8 12h47q83 0 118.5 88t35.5 291v731q0 91 -9 116t-44 28l-92 6v74l36 4q100 10 195 39l143 45l21 -13v-751q0 -236 -23.5 -360.5t-85.5 -215.5q-55 -82 -124.5 -126t-141.5 -44q-35 0 -63 4z" />
<glyph unicode="&#x1f4;" horiz-adv-x="1705" d="M96 709q0 331 227.5 522.5t620.5 191.5q151 0 273.5 -22t261.5 -74l12 -22q-21 -91 -47 -314h-80l-10 176q-149 142 -420 142q-250 0 -390.5 -153t-140.5 -423q0 -292 152 -472.5t399 -180.5q124 0 260 51v270q0 40 -25.5 56.5t-90.5 19.5l-109 4v84q147 -6 293 -6 q154 0 307 6v-69q-56 -12 -70 -24.5t-14 -49.5v-334q-184 -69 -318 -96t-290 -27q-364 0 -582.5 203t-218.5 541zM610 1501l285 248q72 61 145 61q43 0 70 -20t27 -53q0 -27 -21 -46t-76 -44l-307 -146h-123z" />
<glyph unicode="&#x1f5;" horiz-adv-x="1138" d="M53 -254q0 41 15 77.5t38 49.5l166 98q-76 20 -107.5 51t-31.5 87q0 31 10 59.5t25 38.5l145 110q-54 19 -83 36t-58 48q-76 82 -76 197q0 161 124.5 264t320.5 103q190 0 311 -88q49 -3 74 -3q52 0 168 11l-11 -131l-157 8q10 -49 10 -96q0 -148 -90 -238 q-63 -63 -157 -97t-200 -34q-7 0 -81 4q-60 -37 -60 -80q0 -64 96 -61l299 8h50q155 0 229 -62.5t74 -191.5q0 -204 -166 -331.5t-434 -127.5q-203 0 -323 79t-120 212zM246 -229q0 -95 83.5 -154t219.5 -59q137 0 228 70.5t91 176.5q0 67 -26.5 101.5t-91.5 48.5t-193 14 q-162 0 -207 -22q-46 -22 -75 -70.5t-29 -105.5zM348 637q0 -115 46 -180.5t126 -65.5q164 0 164 221q0 122 -43 186t-125 64q-168 0 -168 -225zM358 1036l265 303q67 76 133 76q40 0 65 -24.5t25 -65.5q0 -33 -19 -57.5t-69 -55.5l-285 -176h-115z" />
<glyph unicode="&#x1fa;" horiz-adv-x="1593" d="M49 -6v76l62 6q66 6 114 123l371 897l117 309h145l531 -1239q20 -44 44.5 -64t67.5 -26l49 -6v-76q-164 6 -323 6q-156 0 -312 -6v76l109 6q19 1 29 14t10.5 31.5t-2.5 35t-8 31.5l-92 234h-515l-86 -229q-7 -24 -8.5 -49.5t14 -45.5t44.5 -22l102 -6v-76q-117 6 -231 6 q-115 0 -232 -6zM496 537h417l-213 520zM557 1937l285 248q74 62 145 62q43 0 69.5 -20t26.5 -54q0 -27 -20.5 -46t-75.5 -44l-307 -146h-123zM584 1694q0 85 60.5 143.5t148.5 58.5q82 0 141 -60.5t59 -143.5q0 -85 -60 -145t-145 -60t-144.5 60.5t-59.5 146.5zM686 1692 q0 -43 29.5 -73t72.5 -30t73 30t30 73q0 41 -29.5 71.5t-70.5 30.5q-44 0 -74.5 -29.5t-30.5 -72.5z" />
<glyph unicode="&#x1fb;" horiz-adv-x="1024" d="M82 219q0 130 78 198.5t272 108.5l180 37q-4 126 -55 184t-154 58q-41 0 -77 -9t-41 -20l-45 -102l-62 14v141l109 66q116 70 245 70q155 0 241.5 -77t86.5 -212v-475q0 -72 11.5 -97t46.5 -28l61 -6v-76q-88 6 -180 6q-95 0 -187 -6l-10 16l10 127l-190 -147 q-31 -25 -100 -25q-117 0 -178.5 65t-61.5 189zM303 1473l285 247q74 62 145 62q43 0 69.5 -20t26.5 -54q0 -27 -20.5 -46t-75.5 -44l-307 -145h-123zM330 1229q0 85 60.5 144t148.5 59q82 0 141 -61t59 -144q0 -85 -59.5 -145t-144.5 -60t-145 60.5t-60 146.5zM332 272 q0 -60 27.5 -94.5t76.5 -34.5q45 0 95 26.5t81 66.5v241l-92 -24q-109 -29 -148.5 -67.5t-39.5 -113.5zM432 1227q0 -43 30 -73t73 -30t72.5 30t29.5 73q0 41 -29.5 71.5t-70.5 30.5q-44 0 -74.5 -29.5t-30.5 -72.5z" />
<glyph unicode="&#x1fc;" horiz-adv-x="2048" d="M25 -6v76l77 6q24 2 49.5 28.5t61.5 88.5l594 1003q35 57 35 82q0 12 -25.5 23t-62.5 12l-107 6v76l537 -6l291 4q165 4 170 4h79q91 0 195 -8l12 -15l-28 -291h-74l-17 154q-2 17 -59.5 29t-140.5 12q-144 0 -297 -8v-492q41 -4 137 -4h135q64 0 89 9t28 34l12 117h82 q-6 -111 -6 -219q0 -110 6 -221h-82l-12 102q-5 40 -32 58t-85 18h-135q-52 0 -137 -6v-547l268 -6q142 -2 238 28l6 6l47 193h80l-23 -324l-10 -16q-194 -10 -289 -8l-329 6l-134 2l-249 -6v47l65 37q23 12 32 38.5t9 78.5v243h-532l-127 -219q-23 -40 -31 -62.5t-8 -50.5 q20 -30 49 -30l110 -6v-76l-241 6zM555 547h471v694l-14 35h-15zM942 1501l285 248q72 61 145 61q43 0 69.5 -20t26.5 -53q0 -27 -20.5 -46t-75.5 -44l-307 -146h-123z" />
<glyph unicode="&#x1fd;" horiz-adv-x="1593" d="M94 219q0 121 60 184q62 71 319 123l180 37q-3 68 -12.5 105t-32.5 71q-58 80 -174 80q-77 0 -147 -49l-33 -86l-66 8v137l109 66q116 70 250 70q94 0 154.5 -23t127.5 -84q69 57 137.5 82t153.5 25q169 0 273 -99.5t104 -261.5v-106q-163 -41 -323 -41h-269 q3 -72 13.5 -115t35.5 -86q38 -66 108 -105.5t148 -39.5q63 0 116.5 15.5t125.5 55.5l25 -30l-45 -99q-98 -51 -167.5 -69.5t-160.5 -18.5q-138 0 -233.5 46.5t-165.5 148.5l-234 -168q-14 -9 -55 -18t-74 -9q-107 0 -177.5 72t-70.5 182zM352 262q0 -57 31 -88t88 -31 q51 0 101 26t81 67v233l-112 -27q-97 -23 -143 -66.5t-46 -113.5zM614 1036l265 303q67 76 133 76q40 0 65 -24.5t25 -65.5q0 -33 -19 -57.5t-69 -55.5l-285 -176h-115zM893 565l65 -2l99 -4h8l172 6q-3 152 -42.5 218.5t-127.5 66.5q-89 0 -129 -66t-45 -219z" />
<glyph unicode="&#x1fe;" horiz-adv-x="1705" d="M66 41l186 170q-86 101 -121 203.5t-35 253.5q0 360 204.5 557.5t576.5 197.5q148 0 278 -37q77 -22 126 -46.5t116 -75.5l182 166l76 -80l-182 -168q78 -113 108.5 -213t30.5 -246q0 -362 -204 -560t-579 -198q-160 0 -299 43q-68 21 -107.5 45t-94.5 74l-185 -168z M403 715q0 -197 52 -322l757 701q-67 118 -145 166.5t-199 48.5q-465 0 -465 -594zM496 283q78 -112 154.5 -157.5t189.5 -45.5q235 0 350 149t115 453q0 193 -45 303zM625 1501l284 248q72 61 146 61q43 0 69.5 -20t26.5 -53q0 -27 -20.5 -46t-75.5 -44l-307 -146h-123z " />
<glyph unicode="&#x1ff;" horiz-adv-x="1138" d="M47 10l129 121q-94 122 -94 328q0 244 130.5 375t373.5 131q114 0 195 -27.5t149 -89.5l114 110l50 -45l-123 -114q50 -72 69 -137.5t19 -163.5q0 -258 -131.5 -395.5t-380.5 -137.5q-98 0 -172 26.5t-156 90.5l-125 -119zM360 528q0 -82 17 -204l377 358 q-31 100 -74 142t-115 42q-205 0 -205 -338zM387 1036l264 303q67 76 133 76q40 0 65 -24.5t25 -65.5q0 -33 -19 -57.5t-69 -55.5q-5 -3 -9 -5q-41 -27 -275 -171h-115zM389 244q37 -97 82.5 -139t114.5 -42q103 0 148.5 85t45.5 276q0 107 -14 178z" />
<glyph unicode="&#x200;" horiz-adv-x="1593" d="M49 -6v76l62 6q66 6 114 123l371 897l117 309h145l531 -1239q20 -44 44.5 -64t67.5 -26l49 -6v-76q-164 6 -323 6q-156 0 -312 -6v76l109 6q19 1 29 14t10.5 31.5t-2.5 35t-8 31.5l-92 234h-515l-86 -229q-7 -24 -8.5 -49.5t14 -45.5t44.5 -22l102 -6v-76q-117 6 -231 6 q-115 0 -232 -6zM152 1737q0 33 26.5 53t69.5 20q73 0 145 -61l285 -248h-123l-307 146q-55 25 -75.5 44t-20.5 46zM496 537h417l-213 520zM528 1737q0 33 27 53t70 20q73 0 145 -61l285 -248h-123l-307 146q-55 25 -76 44t-21 46z" />
<glyph unicode="&#x201;" horiz-adv-x="1024" d="M-68 1321q0 43 27 69.5t70 26.5q37 0 64 -16t65 -60l262 -303h-111l-338 207q-39 23 -39 76zM82 219q0 130 78 198.5t272 108.5l180 37q-4 126 -55 184t-154 58q-41 0 -77 -9t-41 -20l-45 -102l-62 14v141l109 66q116 70 245 70q155 0 241.5 -77t86.5 -212v-475 q0 -72 11.5 -97t46.5 -28l61 -6v-76q-88 6 -180 6q-95 0 -187 -6l-10 16l10 127l-190 -147q-31 -25 -100 -25q-117 0 -178.5 65t-61.5 189zM317 1323q0 41 27 67.5t70 26.5q37 0 64 -16t65 -60l262 -303h-111l-338 207q-39 23 -39 78zM332 272q0 -60 27.5 -94.5t76.5 -34.5 q45 0 95 26.5t81 66.5v241l-92 -24q-109 -29 -148.5 -67.5t-39.5 -113.5z" />
<glyph unicode="&#x204;" horiz-adv-x="1251" d="M14 1737q0 33 27 53t70 20q73 0 145 -61l285 -248h-123l-307 146q-55 25 -76 44t-21 46zM80 1319v76q193 -6 389 -6q81 0 241.5 3t241.5 3t195 -6l12 -15l-29 -291h-73l-17 154q-1 17 -58 28t-142 11l-297 -6v-492q41 -4 137 -4h135q64 0 89 9t28 34l12 117h82 q-6 -111 -6 -219q0 -110 6 -221h-82l-12 102q-5 40 -32 58t-85 18h-135q-52 0 -137 -6v-547l305 -6q70 0 137 11t70 23l47 193h80l-23 -324l-10 -16q-117 -6 -287 -6q-77 0 -231.5 3t-231.5 3q-126 0 -252 -6v47l66 37q23 12 32 38t9 79v917q0 50 -0.5 77t-4.5 52.5t-9 36 t-18 19.5t-26.5 11.5t-39.5 4.5zM391 1737q0 33 26.5 53t69.5 20q74 0 146 -61l285 -248h-123l-308 146q-55 25 -75.5 44t-20.5 46z" />
<glyph unicode="&#x205;" horiz-adv-x="1024" d="M-45 1321q0 43 26.5 69.5t69.5 26.5q37 0 64 -16t65 -60l262 -303h-110l-338 207q-39 23 -39 76zM86 463q0 147 46.5 242t148.5 155l96 58q78 47 178 47q178 0 283.5 -98t105.5 -263v-106q-165 -41 -323 -41h-269q3 -74 14 -118t37 -87q38 -64 107.5 -102.5t146.5 -38.5 q63 0 116.5 15.5t125.5 55.5l25 -30l-45 -99q-100 -51 -167.5 -69.5t-156.5 -18.5q-230 0 -349.5 127t-119.5 371zM340 565l66 -2q32 -1 52 -2t24.5 -1.5t8 -0.5h6h15.5l172 6q0 151 -40.5 218t-129.5 67q-90 0 -132 -67t-42 -218zM340 1323q0 41 26.5 67.5t69.5 26.5 q37 0 64 -16t65 -60l262 -303h-110l-338 207q-39 23 -39 78z" />
<glyph unicode="&#x208;" horiz-adv-x="796" d="M-236 1737q0 33 27 53t70 20q73 0 145 -61l285 -248h-123l-307 146q-55 25 -76 44t-21 46zM80 -6v82l76 6q21 2 32 3t23.5 5.5t17.5 8t11.5 16t8 22t3.5 34t2 45v60.5v836v60.5t-2 45t-3.5 34.5t-7.5 22.5t-11.5 15.5t-18 8t-23.5 6t-32 3l-76 6v82q159 -6 317 -6 q161 0 320 6v-82l-76 -6q-21 -2 -32 -3t-23.5 -6t-18 -8t-11.5 -15.5t-7.5 -22.5t-3.5 -34.5t-2 -45v-60.5v-836v-60.5t2 -45t3.5 -34t8 -22t11.5 -16t17.5 -8t23.5 -5.5t32 -3l76 -6v-82q-159 6 -320 6q-158 0 -317 -6zM141 1737q0 33 27 53t70 20q73 0 145 -61l285 -248 h-123l-307 146q-55 25 -76 44t-21 46z" />
<glyph unicode="&#x209;" d="M-260 1321q0 43 26.5 69.5t69.5 26.5q37 0 64 -16t65 -60l262 -303h-110l-338 207q-39 23 -39 76zM70 -6v76l71 4q48 3 61 26t13 105v448q0 91 -9 116t-44 28l-92 6v74l30 4q107 15 201 39q25 6 61 17.5t59 19.5l23 8l21 -13v-747q0 -82 13 -105t61 -26l71 -4v-76 q-138 6 -276 6q-132 0 -264 -6zM125 1323q0 41 26.5 67.5t69.5 26.5q37 0 64 -16t65 -60l262 -303h-110l-338 207q-39 23 -39 78z" />
<glyph unicode="&#x20c;" horiz-adv-x="1705" d="M96 680q0 352 206.5 547.5t578.5 195.5q347 0 539 -188t192 -526q0 -350 -205.5 -547t-572.5 -197q-352 0 -545 187t-193 528zM223 1737q0 33 26.5 53t69.5 20q74 0 146 -61l285 -248h-123l-308 146q-55 25 -75.5 44t-20.5 46zM403 727q0 -177 46 -318t129 -223 q106 -106 270 -106q224 0 340.5 149t116.5 437q0 174 -46 314.5t-131 223.5q-108 105 -266 105q-195 0 -315 -117q-69 -69 -106.5 -189t-37.5 -276zM600 1737q0 33 26.5 53t69.5 20q74 0 146 -61l284 -248h-122l-308 146q-55 25 -75.5 44t-20.5 46z" />
<glyph unicode="&#x20d;" horiz-adv-x="1138" d="M-33 1321q0 43 26.5 69.5t69.5 26.5q37 0 64.5 -16t65.5 -60l262 -303h-111l-338 207q-39 23 -39 76zM82 459q0 245 131 375.5t375 130.5q227 0 349 -124.5t122 -357.5q0 -249 -133 -383.5t-379 -134.5q-223 0 -344 129t-121 365zM352 1323q0 41 27 67.5t70 26.5 q37 0 64 -16t65 -60l262 -303h-111l-338 207q-39 23 -39 78zM360 508q0 -445 224 -445q104 0 150 84.5t46 272.5q0 226 -53.5 336t-163.5 110q-106 0 -154.5 -86t-48.5 -272z" />
<glyph unicode="&#x210;" horiz-adv-x="1478" d="M80 -6v82l76 6q21 2 32 3t23.5 5.5t17.5 8t11.5 16t8 22t3.5 34t2 45v60.5v836q0 50 -0.5 77t-4.5 52.5t-9 36t-18 19.5t-26.5 11.5t-39.5 4.5l-76 6v76q182 -6 364 -6q68 0 204 3t204 3q389 0 389 -301q0 -124 -88 -226q-43 -46 -88 -75.5t-129 -63.5l371 -561 q32 -49 58.5 -65t84.5 -27v-82q-99 6 -199 6q-93 0 -184 -6l-430 700v47q114 0 178 39q63 37 99 103t36 147q0 125 -75 193.5t-211 68.5q-78 0 -121 -18v-998v-60.5t2 -45t3.5 -34t8 -22t11.5 -16t17.5 -8t23.5 -5.5t32 -3l76 -6v-82q-159 6 -320 6q-158 0 -317 -6zM82 1737 q0 33 26.5 53t69.5 20q74 0 146 -61l284 -248h-123l-307 146q-55 25 -75.5 44t-20.5 46zM459 1737q0 33 26.5 53t69.5 20q73 0 145 -61l285 -248h-123l-307 146q-55 25 -75.5 44t-20.5 46z" />
<glyph unicode="&#x211;" horiz-adv-x="796" d="M-143 1321q0 43 26.5 69.5t69.5 26.5q37 0 64 -16t65 -60l262 -303h-111l-337 207q-39 23 -39 76zM61 -6v76l72 4q48 3 61 26t13 105v448q0 91 -9 116t-44 28l-93 6v74q153 19 232 43l143 45l21 -13v-194l90 98q59 63 95 86t79 23t76 -13l-11 -264l-49 -20 q-43 73 -116 73q-60 0 -112 -42t-52 -89v-405q0 -86 16 -107t82 -24l80 -4v-76q-153 6 -309 6q-133 0 -265 -6zM242 1323q0 41 26.5 67.5t69.5 26.5q37 0 64 -16t65 -60l262 -303h-111l-337 207q-39 23 -39 78z" />
<glyph unicode="&#x214;" horiz-adv-x="1593" d="M53 1319v76q159 -6 318 -6q160 0 319 6v-76l-76 -6q-26 -2 -39.5 -4.5t-26.5 -11.5t-18 -19.5t-9 -36t-4.5 -52.5t-0.5 -77v-508q0 -160 16.5 -242.5t57.5 -132.5q80 -96 287 -96q203 0 288 88q53 54 75 144.5t22 252.5v494q0 60 -2 90t-6 55t-17 34.5t-28 14t-46 7.5 l-76 6v76q117 -6 236 -6q116 0 233 6v-76l-75 -6q-31 -3 -46 -7.5t-28 -14t-17 -34.5t-6 -55t-2 -90v-598q0 -278 -143 -413.5t-438 -135.5q-264 0 -419 107t-155 290v750q0 50 -0.5 77t-4.5 52.5t-9 36t-18 19.5t-26.5 11.5t-39.5 4.5zM254 1737q0 33 26.5 53t69.5 20 q74 0 146 -61l284 -248h-123l-307 146q-55 25 -75.5 44t-20.5 46zM631 1737q0 33 26.5 53t69.5 20q73 0 145 -61l285 -248h-123l-307 146q-55 25 -75.5 44t-20.5 46z" />
<glyph unicode="&#x215;" horiz-adv-x="1251" d="M25 1321q0 43 26.5 69.5t69.5 26.5q37 0 64 -16t65 -60l262 -303h-111l-338 207q-38 23 -38 76zM51 803v74q148 18 232 43l143 45l20 -13v-534q0 -148 36 -208t124 -60q82 0 139.5 54t57.5 130v319q0 91 -9 116t-44 28l-93 6v74q150 19 232 43l143 45l21 -13v-747 q0 -84 12 -106t61 -25l68 -4v-76q-105 6 -207 6q-95 0 -194 -6l10 170l-156 -152q-47 -47 -141 -47q-149 0 -229 83.5t-80 238.5v366q0 91 -9.5 116t-44.5 28zM410 1323q0 41 26.5 67.5t69.5 26.5q37 0 64 -16t65 -60l262 -303h-111l-337 207q-39 23 -39 78z" />
<glyph unicode="&#x218;" horiz-adv-x="1251" d="M117 59q30 153 30 355h82l15 -181q49 -72 140.5 -114.5t195.5 -42.5q132 0 219.5 75t87.5 189q0 145 -170 197l-287 86q-145 43 -222 136t-77 224q0 207 143.5 323.5t399.5 116.5q194 0 379 -69l10 -25q-29 -95 -29 -291h-84l-12 168q-116 113 -279 113 q-123 0 -198.5 -66.5t-75.5 -173.5q0 -78 51.5 -127t165.5 -80l234 -61q309 -81 309 -360q0 -223 -163.5 -354.5t-438.5 -131.5q-117 0 -214.5 21.5t-211.5 72.5zM397 -502q36 82 50.5 140t28.5 150q2 14 3 22q129 17 219 55l23 -23q-12 -27 -25.5 -54t-22.5 -44.5 t-31 -52.5t-30 -47.5t-40 -61.5t-42 -65l-108 -45z" />
<glyph unicode="&#x219;" horiz-adv-x="909" d="M80 23l14 288h80l10 -141q89 -107 230 -107q87 0 137.5 43t50.5 115q0 54 -29 83t-100 46l-176 43q-217 53 -217 256q0 154 109.5 235t316.5 81q81 0 136.5 -10.5t115.5 -36.5l-17 -250h-73l-21 118q-4 31 -59.5 55.5t-118.5 24.5q-84 0 -132 -35.5t-48 -97.5 q0 -49 26 -75t86 -40l168 -36q138 -31 199 -93t61 -172q0 -158 -119 -255t-313 -97q-149 0 -317 58zM242 -502q36 82 50.5 140t28.5 150q2 14 3 22q129 17 219 55l22 -23q-9 -20 -18.5 -40t-17 -35.5t-21 -38t-20.5 -34.5t-25 -40t-25 -39t-30.5 -47.5t-32.5 -50.5l-109 -45 z" />
<glyph unicode="&#x21a;" horiz-adv-x="1366" d="M35 1384l12 11q320 -6 637 -6q318 0 635 6l12 -11q-21 -128 -26 -325h-82l-11 141q-6 16 -11.5 26.5t-10 18.5t-12 12.5l-12.5 7.5t-17.5 3.5t-20.5 0.5t-27.5 -0.5t-33.5 -0.5h-240v-992v-78t4.5 -51t8.5 -34t18 -17t27 -10.5t41 -3.5l75 -6v-82q-159 6 -319 6 q-158 0 -317 -6v82l75 6q28 2 41 3.5t27 10.5t18 17t8.5 34t4.5 51v78v992h-240q-6 0 -31.5 0.5t-34 0t-27.5 -4t-27 -10.5t-16 -20.5t-9 -33.5l-11 -141h-82q-8 217 -26 325zM473 -502q36 82 50.5 140t28.5 150q0 3 0.5 5t1 5.5t1 6t0.5 5.5q129 17 219 55l23 -23 q-12 -27 -25.5 -54t-22.5 -44.5t-31 -52.5t-30 -47.5t-40 -61.5t-42 -65l-108 -45z" />
<glyph unicode="&#x21b;" d="M45 748v45l135 88v123q0 43 -8 188q168 63 250 102l29 -20q-25 -142 -25 -279v-118q116 0 233 12l-16 -133h-217v-488q0 -75 27.5 -104t99.5 -29q36 0 94 27l17 -39l-101 -121q-29 -37 -133 -37q-133 0 -193.5 61.5t-60.5 198.5v531zM129 -502q36 82 50.5 140t28.5 150 q2 14 3 22q129 17 219 55l23 -23q-12 -27 -25.5 -54t-22.5 -44.5t-31 -52.5t-30 -47.5t-40 -61.5t-42 -65l-108 -45z" />
<glyph unicode="&#x237;" d="M6 -469l8 12h47q83 0 118.5 88t35.5 291v731q0 91 -9 116t-44 28l-92 6v74l36 4q100 10 195 39l143 45l21 -13v-751q0 -236 -23.5 -360.5t-85.5 -215.5q-55 -82 -124.5 -126t-141.5 -44q-35 0 -63 4z" />
<glyph unicode="&#x258;" horiz-adv-x="1024" d="M86 498v106q0 165 105.5 263t283.5 98q100 0 178 -47l97 -58q101 -60 147.5 -154.5t46.5 -242.5q0 -244 -119.5 -371t-349.5 -127q-89 0 -156 18.5t-167 69.5l-46 99l25 30q72 -40 125.5 -55.5t116.5 -15.5q77 0 146.5 38.5t107.5 102.5q26 43 37 87t14 118h-268 q-159 0 -324 41zM346 565q104 -6 172 -6h15.5h6.5t8.5 0.5t24.5 1.5t52 2l65 2q0 151 -42 218t-132 67q-89 0 -129.5 -67t-40.5 -218z" />
<glyph unicode="&#x259;" horiz-adv-x="1024" d="M86 326v106q165 41 324 41h268q-3 74 -14 118t-37 87q-38 64 -107.5 102.5t-146.5 38.5q-63 0 -116.5 -15.5t-125.5 -55.5l-25 30l46 99q100 51 167 69.5t156 18.5q230 0 349.5 -127t119.5 -371q0 -148 -46.5 -242.5t-147.5 -154.5l-97 -58q-78 -47 -178 -47 q-178 0 -283.5 98t-105.5 263zM346 365q0 -151 40.5 -218t129.5 -67q90 0 132 67t42 218l-65 2q-32 1 -52 2t-24.5 1.5t-8.5 0.5h-6.5h-15.5z" />
<glyph unicode="&#x2be;" horiz-adv-x="735" d="M94 1239v6l29 64q3 5 8 8q91 47 191 47q155 0 237 -90t82 -262q0 -94 -39 -155t-135 -118l-70 -43q-53 -30 -131 -30q-67 0 -147 28q-4 0 -8 8l-11 17q0 1 -1 4t-1 4v4q21 103 29 191q0 6 5 10t11 4h50q13 0 16 -14l8 -82q3 -20 33.5 -32.5t71.5 -12.5q116 0 116 174 q0 124 -52.5 195t-147.5 71q-49 0 -109 -25q-1 0 -3 -1t-3 -1q-9 0 -12 6l-13 15q-4 2 -4 10z" />
<glyph unicode="&#x2bf;" horiz-adv-x="735" d="M94 1018q0 94 38.5 154.5t135.5 117.5l70 43q54 31 131 31q64 0 147 -29q5 0 9 -8l10 -16q0 -1 1 -4t1 -4v-5q-21 -104 -29 -190q0 -6 -5 -10t-11 -4h-49q-13 0 -17 14l-8 82q-3 20 -33 32.5t-71 12.5q-117 0 -117 -174q0 -124 53 -195t148 -71q51 0 108 24q1 0 3 1t3 1 q10 0 13 -6l12 -14q4 -2 4 -10v-7l-29 -63q-3 -5 -8 -8q-91 -47 -190 -47q-155 0 -237.5 90t-82.5 262z" />
<glyph unicode="&#x2c6;" d="M-4 1049l248 358h190l252 -358h-117l-229 200l-231 -200h-113z" />
<glyph unicode="&#x2c7;" d="M-4 1407h113l231 -201l229 201h117l-252 -358h-190z" />
<glyph unicode="&#x2d8;" d="M31 1395h90q34 -178 213 -178q114 0 178 73q21 24 35 52.5t14 48.5v4h90q-6 -77 -17 -120t-36 -83q-81 -131 -256 -131q-193 0 -272 151q-34 66 -39 183z" />
<glyph unicode="&#x2d9;" d="M205 1229q0 56 40.5 95.5t98.5 39.5q55 0 95 -40.5t40 -96.5q0 -57 -40 -97t-97 -40t-97 40.5t-40 98.5z" />
<glyph unicode="&#x2da;" d="M137 1229q0 85 60.5 144t148.5 59q82 0 141.5 -61t59.5 -144q0 -85 -60 -145t-145 -60t-145 60.5t-60 146.5zM240 1227q0 -43 29.5 -73t72.5 -30t72.5 30t29.5 73q0 41 -29.5 71.5t-70.5 30.5q-44 0 -74 -29.5t-30 -72.5z" />
<glyph unicode="&#x2db;" d="M113 -305q0 64 21 118.5t58.5 95t76 68t87.5 52.5h90q-174 -149 -174 -283q0 -51 19.5 -87t66.5 -36q24 0 39.5 1t34.5 5.5t32 14.5t19 26l25 62l61 -15v-120l-108 -76q-22 -15 -54.5 -23t-55 -9t-62.5 -1q-83 0 -129.5 61t-46.5 146z" />
<glyph unicode="&#x2dc;" d="M-33 1100q12 114 78.5 185t159.5 71q61 0 164 -49q105 -50 153 -50q37 0 57 19.5t48 79.5h88q-37 -134 -95 -196t-147 -62q-65 0 -172 51q-97 47 -158 47q-65 0 -94 -96h-82z" />
<glyph unicode="&#x2dd;" d="M70 1038l262 303q38 44 65 60t64 16q43 0 69.5 -26.5t26.5 -67.5q0 -55 -39 -78l-338 -207h-110zM455 1038l262 303q38 44 65 60t64 16q43 0 69.5 -26.5t26.5 -69.5q0 -53 -39 -76l-338 -207h-110z" />
<glyph unicode="&#x300;" horiz-adv-x="0" d="M-817 1325q0 41 25 65.5t65 24.5q66 0 133 -76l264 -303h-114l-285 176q-50 31 -69 55.5t-19 57.5z" />
<glyph unicode="&#x301;" horiz-adv-x="0" d="M-692 1036l264 303q67 76 133 76q40 0 65 -24.5t25 -65.5q0 -33 -19 -57.5t-69 -55.5l-285 -176h-114z" />
<glyph unicode="&#x302;" horiz-adv-x="0" d="M-856 1049l248 358h190l252 -358h-117l-229 200l-231 -200h-113z" />
<glyph unicode="&#x303;" horiz-adv-x="0" d="M-885 1100q12 114 78.5 185t159.5 71q61 0 164 -49q105 -50 153 -50q37 0 57 19.5t48 79.5h88q-37 -134 -95 -196t-147 -62q-65 0 -172 51q-97 47 -158 47q-65 0 -94 -96h-82z" />
<glyph unicode="&#x304;" horiz-adv-x="0" d="M-850 1155v145h678v-145h-678z" />
<glyph unicode="&#x306;" horiz-adv-x="0" d="M-821 1395h90q34 -178 213 -178q114 0 178 73q21 24 35 52.5t14 48.5v4h90q-6 -77 -17 -120t-36 -83q-81 -131 -256 -131q-193 0 -272 151q-34 66 -39 183z" />
<glyph unicode="&#x307;" horiz-adv-x="0" d="M-647 1229q0 56 40.5 95.5t98.5 39.5q55 0 95 -40.5t40 -96.5q0 -57 -40 -97t-97 -40t-97 40.5t-40 98.5z" />
<glyph unicode="&#x308;" horiz-adv-x="0" d="M-868 1227q0 57 40.5 97t98.5 40q55 0 95 -40.5t40 -96.5q0 -57 -40 -97t-97 -40t-97 40t-40 97zM-428 1229q0 56 40.5 95.5t98.5 39.5q55 0 95 -40.5t40 -96.5q0 -57 -40 -97t-97 -40t-97 40.5t-40 98.5z" />
<glyph unicode="&#x309;" horiz-adv-x="0" d="M-690 1311l33 114q73 37 147 37q82 0 130 -34.5t48 -92.5q0 -63 -67 -108l-70 -45q-51 -36 -51 -56q0 -15 14 -36l-49 -15q-33 40 -33 68q0 19 56.5 90t56.5 88q0 22 -21 35.5t-55 13.5q-45 0 -55 -10l-31 -60z" />
<glyph unicode="&#x30a;" horiz-adv-x="0" d="M-715 1229q0 85 60.5 144t148.5 59q82 0 141.5 -61t59.5 -144q0 -85 -60 -145t-145 -60t-145 60.5t-60 146.5zM-612 1227q0 -43 29.5 -73t72.5 -30t72.5 30t29.5 73q0 41 -29.5 71.5t-70.5 30.5q-44 0 -74 -29.5t-30 -72.5z" />
<glyph unicode="&#x30b;" horiz-adv-x="0" d="M-782 1038l262 303q38 44 65 60t64 16q43 0 69.5 -26.5t26.5 -67.5q0 -55 -39 -78l-338 -207h-110zM-397 1038l262 303q38 44 65 60t64 16q43 0 69.5 -26.5t26.5 -69.5q0 -53 -39 -76l-338 -207h-110z" />
<glyph unicode="&#x30c;" horiz-adv-x="0" d="M-856 1407h113l231 -201l229 201h117l-252 -358h-190z" />
<glyph unicode="&#x30f;" horiz-adv-x="0" d="M-1112 1321q0 43 26.5 69.5t69.5 26.5q37 0 64 -16t65 -60l262 -303h-110l-338 207q-39 23 -39 76zM-727 1323q0 41 26.5 67.5t69.5 26.5q37 0 64 -16t65 -60l262 -303h-110l-338 207q-39 23 -39 78z" />
<glyph unicode="&#x311;" horiz-adv-x="0" d="M-821 1061q6 77 17 120t36 83q81 131 256 131q94 0 164 -39t108 -113q20 -39 28 -77t11 -105h-90q-34 178 -213 178q-113 0 -178 -74q-49 -56 -49 -100v-4h-90z" />
<glyph unicode="&#x323;" horiz-adv-x="0" d="M-410 -295q0 56 41 95.5t99 39.5q55 0 95 -40.5t40 -96.5q0 -57 -40 -97t-97 -40t-97.5 40.5t-40.5 98.5z" />
<glyph unicode="&#x326;" horiz-adv-x="0" d="M-723 -502q36 82 50.5 140t28.5 150q0 3 0.5 5t1 5.5t1 6t0.5 5.5q129 17 219 55l23 -23q-12 -27 -25.5 -54t-22.5 -44.5t-31 -52.5t-30 -47.5t-40 -61.5t-42 -65l-108 -45z" />
<glyph unicode="&#x32e;" horiz-adv-x="0" d="M-846 -160h98q34 -143 230 -143q100 0 173 44.5t73 94.5v4h98q-33 -272 -336 -272q-154 0 -241.5 68.5t-94.5 203.5z" />
<glyph unicode="&#x32f;" horiz-adv-x="0" d="M-846 -432q33 272 336 272q154 0 241.5 -68.5t94.5 -203.5h-98q-34 143 -230 143q-100 0 -173 -44.5t-73 -94.5v-4h-98z" />
<glyph unicode="&#x330;" horiz-adv-x="0" d="M-885 -424q12 114 78.5 185t159.5 71q61 0 164 -49t153 -49q37 0 57 19t48 79h88q-37 -134 -95 -196t-147 -62q-65 0 -172 51q-97 47 -158 47q-65 0 -94 -96h-82z" />
<glyph unicode="&#x331;" horiz-adv-x="0" d="M-850 -223h678v-146h-678v146z" />
<glyph unicode="&#x332;" horiz-adv-x="0" d="M-850 -223h678v-146h-678v146z" />
<glyph unicode="&#x391;" horiz-adv-x="1593" d="M49 -6v76l62 6q66 6 114 123l371 897l117 309h145l531 -1239q20 -44 44.5 -64t67.5 -26l49 -6v-76q-164 6 -323 6q-156 0 -312 -6v76l109 6q19 1 29 14t10.5 31.5t-2.5 35t-8 31.5l-92 234h-515l-86 -229q-7 -24 -8.5 -49.5t14 -45.5t44.5 -22l102 -6v-76q-117 6 -231 6 q-115 0 -232 -6zM496 537h417l-213 520z" />
<glyph unicode="&#x392;" horiz-adv-x="1366" d="M80 1319v76q173 -6 344 -6q65 0 196.5 3t196.5 3q387 0 387 -277q0 -124 -78 -196q-47 -44 -106 -74t-189 -76q122 -7 187 -24t121 -56q54 -38 83 -103t29 -147q0 -96 -49.5 -181t-128.5 -142.5t-178 -91t-199 -33.5q-144 6 -290 6q-130 0 -259 -6v47l66 37q23 12 32 38 t9 79v917q0 50 -0.5 77t-4.5 52.5t-9 36t-18 19.5t-26.5 11.5t-39.5 4.5zM543 115q53 -9 88 -9q163 0 238 74t75 234q0 157 -81 228t-259 71h-61v-598zM543 819h61q155 0 226 60.5t71 193.5q0 114 -57.5 166.5t-181.5 52.5q-54 0 -119 -8v-465z" />
<glyph unicode="&#x393;" horiz-adv-x="1138" d="M57 -6v82l76 6q21 2 32 3t23.5 5.5t17.5 8t11.5 16t8 22t3.5 34t2 45v60.5v836q0 50 -0.5 77t-4.5 52.5t-9 36t-18 19.5t-26.5 11.5t-39.5 4.5l-76 6v76q182 -6 365 -6q79 0 237.5 3t237.5 3q117 0 195 -6l12 -15l-29 -291h-74l-16 154q-3 39 -227 39l-238 -6v-994 q0 -51 0.5 -77t4.5 -51.5t8.5 -34.5t17.5 -17.5t26.5 -10t40.5 -3.5l97 -6v-82q-169 6 -340 6q-159 0 -318 -6z" />
<glyph unicode="&#x394;" horiz-adv-x="1349" d="M6 0l651 1497h48l641 -1497h-1340zM193 250h765l-380 899z" />
<glyph unicode="&#x395;" horiz-adv-x="1251" d="M80 1319v76q193 -6 389 -6q81 0 241.5 3t241.5 3t195 -6l12 -15l-29 -291h-73l-17 154q-1 17 -58 28t-142 11l-297 -6v-492q41 -4 137 -4h135q64 0 89 9t28 34l12 117h82q-6 -111 -6 -219q0 -110 6 -221h-82l-12 102q-5 40 -32 58t-85 18h-135q-52 0 -137 -6v-547l305 -6 q70 0 137 11t70 23l47 193h80l-23 -324l-10 -16q-117 -6 -287 -6q-77 0 -231.5 3t-231.5 3q-126 0 -252 -6v47l66 37q23 12 32 38t9 79v917q0 50 -0.5 77t-4.5 52.5t-9 36t-18 19.5t-26.5 11.5t-39.5 4.5z" />
<glyph unicode="&#x396;" horiz-adv-x="1366" d="M49 -6v78q133 169 213 284l627 914h-455q-109 0 -139 -15.5t-39 -78.5l-16 -113h-76v332q279 -6 557 -6q279 0 555 6v-72q-102 -124 -170 -225l-666 -981h566q78 0 117.5 19.5t47.5 60.5l31 159h82q-30 -170 -33 -362q-292 6 -581 6q-310 0 -621 -6z" />
<glyph unicode="&#x397;" horiz-adv-x="1705" d="M74 -6v82l76 6q21 2 32 3t23.5 5.5t17.5 8t11.5 16t8 22t3.5 34t2 45v60.5v836v60.5t-2 45t-3.5 34.5t-7.5 22.5t-11.5 15.5t-18 8t-23.5 6t-32 3l-76 6v82q159 -6 317 -6q161 0 320 6v-82l-76 -6q-21 -2 -32 -3t-23.5 -6t-18 -8t-11.5 -15.5t-7.5 -22.5t-3.5 -34.5 t-2 -45v-60.5v-324q47 -4 165 -4h299q117 0 166 4v324v60.5t-2 45t-3.5 34.5t-7.5 22.5t-11.5 15.5t-18 8t-23.5 6t-32 3l-76 6v82q159 -6 318 -6q160 0 319 6v-82l-76 -6q-21 -2 -32 -3t-23.5 -6t-18 -8t-11.5 -15.5t-7.5 -22.5t-3.5 -34.5t-2 -45v-60.5v-836v-60.5t2 -45 t3.5 -34t8 -22t11.5 -16t17.5 -8t23.5 -5.5t32 -3l76 -6v-82q-159 6 -319 6q-159 0 -318 -6v82l76 6q21 2 32 3t23.5 5.5t17.5 8t11.5 16t8 22t3.5 34t2 45v60.5v390l-166 4h-299l-165 -4v-390v-60.5t2 -45t3.5 -34t8 -22t11.5 -16t17.5 -8t23.5 -5.5t32 -3l76 -6v-82 q-159 6 -320 6q-158 0 -317 -6z" />
<glyph unicode="&#x398;" horiz-adv-x="1705" d="M96 680q0 352 206.5 547.5t578.5 195.5q347 0 539 -188t192 -526q0 -350 -205.5 -547t-572.5 -197q-352 0 -545 187t-193 528zM403 727q0 -177 46 -318t129 -223q106 -106 270 -106q224 0 340.5 149t116.5 437q0 174 -46 314.5t-131 223.5q-108 105 -266 105 q-195 0 -315 -117q-69 -69 -106.5 -189t-37.5 -276zM584 971h67q2 -44 11 -74q13 -44 31.5 -58t82.5 -14h162q79 0 94 45q10 26 19 101h67l-2 -234l4 -258h-67q-2 44 -11 74q-13 44 -31.5 58t-82.5 14h-162q-79 0 -94 -45q-10 -26 -19 -101h-67l4 250q0 56 -2.5 133 t-3.5 109z" />
<glyph unicode="&#x399;" horiz-adv-x="796" d="M80 -6v82l76 6q21 2 32 3t23.5 5.5t17.5 8t11.5 16t8 22t3.5 34t2 45v60.5v836v60.5t-2 45t-3.5 34.5t-7.5 22.5t-11.5 15.5t-18 8t-23.5 6t-32 3l-76 6v82q159 -6 317 -6q161 0 320 6v-82l-76 -6q-21 -2 -32 -3t-23.5 -6t-18 -8t-11.5 -15.5t-7.5 -22.5t-3.5 -34.5 t-2 -45v-60.5v-836v-60.5t2 -45t3.5 -34t8 -22t11.5 -16t17.5 -8t23.5 -5.5t32 -3l76 -6v-82q-159 6 -320 6q-158 0 -317 -6z" />
<glyph unicode="&#x39a;" horiz-adv-x="1593" d="M80 -6v82l76 6q21 2 32 3t23.5 5.5t17.5 8t11.5 16t8 22t3.5 34t2 45v60.5v836v60.5t-2 45t-3.5 34.5t-7.5 22.5t-11.5 15.5t-18 8t-23.5 6t-32 3l-76 6v82q159 -6 317 -6q161 0 320 6v-82l-76 -6q-21 -2 -32 -3t-23.5 -6t-18 -8t-11.5 -15.5t-7.5 -22.5t-3.5 -34.5 t-2 -45v-60.5v-410l403 396q193 193 193 245v52q92 -6 186 -6q95 0 186 6v-80q-96 -7 -142 -21.5t-83 -48.5l-455 -424l545 -641q47 -55 88.5 -77.5t98.5 -24.5v-84q-105 6 -207 6q-104 0 -209 -6l-426 510q-82 100 -109 125.5t-69 50.5v-404v-60.5t2 -45t3.5 -34t8 -22 t11.5 -16t17.5 -8t23.5 -5.5t32 -3l76 -6v-82q-159 6 -320 6q-158 0 -317 -6z" />
<glyph unicode="&#x39b;" horiz-adv-x="1593" d="M49 -6v76l62 6q66 6 114 123l371 897l117 309h145l531 -1239q20 -44 44.5 -64t67.5 -26l49 -6v-76q-164 6 -323 6q-156 0 -312 -6v76l109 6q19 1 29 14t10.5 31.5t-2.5 35t-8 31.5l-353 869l-340 -864q-7 -24 -8.5 -49.5t14 -45.5t44.5 -22l102 -6v-76q-117 6 -231 6 q-115 0 -232 -6z" />
<glyph unicode="&#x39c;" horiz-adv-x="2048" d="M66 -6v76l75 6q26 2 39.5 4.5t26.5 11.5t18 19t9.5 35t5 52.5t0.5 77.5v836q0 60 -2 90t-6 55t-17 34.5t-28 14t-46 7.5l-75 6v76q123 -6 245 -6q123 0 246 6l154 -330l323 -676l375 774l100 232q117 -6 236 -6q117 0 237 6v-76l-75 -6q-31 -3 -46 -7.5t-28 -14 t-17 -34.5t-6 -55t-2 -90v-836v-78t4.5 -51t8.5 -34t18 -17t27 -10.5t41 -3.5l75 -6v-82q-159 6 -319 6q-158 0 -317 -6v82l75 6q28 2 41 3.5t27 10.5t18 17t8.5 34t4.5 51v78v852l-422 -878q-74 -152 -123 -270h-70q-28 68 -74 170l-471 980v-854q0 -50 0.5 -78t5 -53 t9.5 -35t18 -18.5t26.5 -11t39.5 -4.5l76 -6v-76q-117 6 -234 6q-118 0 -235 -6z" />
<glyph unicode="&#x39d;" horiz-adv-x="1705" d="M72 -6v76l75 6q26 2 39.5 4.5t26.5 11.5t18 19t9.5 35t5 52.5t0.5 77.5v836q0 60 -2 90t-6 55t-17 34.5t-28 14t-46 7.5l-75 6v76q123 -6 245 -6q86 0 172 6q173 -229 211 -273l639 -745v735q0 50 -0.5 77t-4.5 52.5t-9 36t-18 19.5t-26.5 11.5t-39.5 4.5l-76 6v76 q117 -6 236 -6q116 0 233 6v-76l-75 -6q-31 -3 -46 -7.5t-28 -14t-17 -34.5t-6 -55t-2 -90v-930l6 -207l-14 -8l-168 27l-250 285l-667 802v-805q0 -51 0.5 -78t4.5 -52.5t9 -35.5t18 -18.5t26.5 -11t39.5 -4.5l76 -6v-76q-117 6 -234 6q-118 0 -235 -6z" />
<glyph unicode="&#x39e;" horiz-adv-x="1413" d="M70 473h75q44 -164 86 -192q33 -23 181 -23h538q135 0 164 4q64 6 98 76q21 44 48 135h75l-39 -473l-14 -6q-175 6 -553 6q-356 0 -608 -6l-15 6l-14 213zM164 1012q6 80 6 174l-4 217l10 8q321 -4 526 -4q267 0 525 4l12 -8q-6 -141 -6 -211q0 -86 6 -180h-76 q-9 50 -18 86q-15 52 -55 61q-35 6 -140 6h-493q-112 0 -142 -6q-31 -9 -45 -29q-9 -14 -30 -118h-76zM438 971h68q2 -48 10 -74q13 -44 32 -58t83 -14h162q79 0 94 45q8 22 18 101h68l-2 -234l4 -258h-68q-2 48 -10 74q-13 44 -32 58t-83 14h-161q-80 0 -95 -45 q-8 -22 -18 -101h-68l4 250q0 56 -2.5 133t-3.5 109z" />
<glyph unicode="&#x39f;" horiz-adv-x="1705" d="M96 680q0 352 206.5 547.5t578.5 195.5q347 0 539 -188t192 -526q0 -350 -205.5 -547t-572.5 -197q-352 0 -545 187t-193 528zM403 727q0 -177 46 -318t129 -223q106 -106 270 -106q224 0 340.5 149t116.5 437q0 174 -46 314.5t-131 223.5q-108 105 -266 105 q-195 0 -315 -117q-69 -69 -106.5 -189t-37.5 -276z" />
<glyph unicode="&#x3a0;" horiz-adv-x="1501" d="M74 -6v82l76 6q21 2 32 3t23.5 5.5t17.5 8t11.5 16t8 22t3.5 34t2 45v60.5v836v60.5t-2 45t-3.5 34.5t-7.5 22.5t-11.5 15.5t-18 8t-23.5 6t-32 3l-76 6v82h1433v-82l-75 -6q-28 -2 -41 -3.5t-27 -10.5t-18 -17.5t-8 -34.5t-4.5 -51t-0.5 -78v-836v-78t4.5 -51t8.5 -34 t18 -17t27 -10.5t41 -3.5l75 -6v-82q-159 6 -319 6q-159 0 -318 -6v82l76 6q21 2 32 3t23.5 5.5t17.5 8t11.5 16t8 22t3.5 34t2 45v60.5v979h-507v-979v-60.5t2 -45t3.5 -34t8 -22t11.5 -16t17.5 -8t23.5 -5.5t32 -3l76 -6v-82q-159 6 -320 6q-158 0 -317 -6z" />
<glyph unicode="&#x3a1;" horiz-adv-x="1251" d="M80 -6v82l76 6q21 2 32 3t23.5 5.5t17.5 8t11.5 16t8 22t3.5 34t2 45v60.5v836q0 50 -0.5 77t-4.5 52.5t-9 36t-18 19.5t-26.5 11.5t-39.5 4.5l-76 6v76q178 -6 354 -6q66 0 198 3t197 3q67 0 134.5 -20t124.5 -56.5t93 -97t36 -134.5q0 -186 -131.5 -310t-329.5 -124 q-22 0 -119 15v80h37h37q97 0 154 73.5t57 196.5q0 274 -256 274q-76 0 -123 -18v-998q0 -51 0.5 -77t4.5 -51.5t8.5 -34.5t17.5 -17.5t26.5 -10t40.5 -3.5l96 -6v-82q-169 6 -338 6q-160 0 -319 -6z" />
<glyph unicode="&#x3a3;" horiz-adv-x="1351" d="M14 0v57l686 592l-686 762v62h904q21 0 31 0.5t25.5 3.5t22.5 10.5t7 19.5q0 4 -17 92h76l147 -456h-84q-1 2 -9 25.5t-9.5 28.5t-9 25.5t-11 27.5t-11 24t-12.5 25.5t-12.5 21.5t-15.5 22t-16 17q-17 16 -46 24.5t-50 9.5t-58 1h-483l549 -615v-37l-574 -489h689 q88 0 100 16q10 16 72 203h86l-187 -614h-82q4 14 12 43.5t13.5 50t5.5 24.5q0 10 -8 16.5t-19 6.5h-1026z" />
<glyph unicode="&#x3a4;" horiz-adv-x="1366" d="M35 1384l12 11q320 -6 637 -6q318 0 635 6l12 -11q-21 -128 -26 -325h-82l-11 141q-6 16 -11.5 26.5t-10 18.5t-12 12.5l-12.5 7.5t-17.5 3.5t-20.5 0.5t-27.5 -0.5t-33.5 -0.5h-240v-992v-78t4.5 -51t8.5 -34t18 -17t27 -10.5t41 -3.5l75 -6v-82q-159 6 -319 6 q-158 0 -317 -6v82l75 6q28 2 41 3.5t27 10.5t18 17t8.5 34t4.5 51v78v992h-240q-6 0 -31.5 0.5t-34 0t-27.5 -4t-27 -10.5t-16 -20.5t-9 -33.5l-11 -141h-82q-8 217 -26 325z" />
<glyph unicode="&#x3a5;" horiz-adv-x="1601" d="M31 1059q36 157 110 248q94 116 238 116q149 0 255 -127.5t138 -353.5q20 -172 25 -274h18l29 235q46 251 175 386.5t302 135.5q155 0 217 -139q27 -68 27 -156q0 -30 -9 -83l-30 -15l-19 6q-30 144 -170 144q-131 0 -247 -141t-146 -355q-14 -123 -14 -248 q0 -75 12 -309q6 -29 35 -39q8 -2 117 -8v-88q-150 6 -314 6q-128 0 -291 -6v88q109 6 117 8q29 10 35 39q12 81 12 309q0 137 -16 244q-23 135 -82 252.5t-139 188.5t-160 71q-123 0 -182 -160l-13 -4z" />
<glyph unicode="&#x3a6;" horiz-adv-x="1466" d="M94 694q0 69 26.5 128t72 102t108.5 76t134.5 53t152.5 30v29q0 53 -0.5 78t-4.5 51t-8 34.5t-18 17.5t-27 10.5t-41 3.5l-75 6v82q159 -6 317 -6q161 0 320 6v-82l-76 -6q-21 -2 -32 -3t-23.5 -6t-18 -8t-11.5 -15.5t-7.5 -22.5t-3.5 -34.5t-2 -45v-60.5v-29 q81 -10 152 -30t134.5 -53t108.5 -76t71.5 -102t26.5 -128t-26.5 -128t-71.5 -102t-108.5 -76t-134.5 -53t-152 -30v-29v-60.5t2 -45t3.5 -34t8 -22t11.5 -16t17.5 -8t23.5 -5.5t32 -3l76 -6v-82q-159 6 -320 6q-158 0 -317 -6v82l75 6q28 2 41 3.5t27 10.5t18 17t8.5 34 t4.5 51v78v29q-81 10 -152.5 30t-134.5 53t-108.5 76t-72 102t-26.5 128zM373 694q0 -95 59.5 -168t155.5 -106v549q-96 -33 -155.5 -106.5t-59.5 -168.5zM877 420q96 33 155.5 106t59.5 168t-59.5 168.5t-155.5 106.5v-549z" />
<glyph unicode="&#x3a7;" horiz-adv-x="1366" d="M35 0v70l63 6q18 1 37.5 12t30.5 25l407 534l-192 340q-38 68 -89.5 141t-86.5 111q-37 37 -84 37q-26 0 -66 -12l-10 84l375 75q44 -34 75 -72.5t74 -113.5l195 -346l338 498h227v-70l-57 -6q-30 -3 -47.5 -16.5t-50.5 -57.5l-349 -459q179 -310 300 -519l30 -51l-2 1 q44 -76 69 -103.5t58 -31.5l51 -6v-76q-99 6 -194 6q-98 0 -197 -6l-305 545l-287 -412q-25 -38 -74 -127h-239z" />
<glyph unicode="&#x3a8;" horiz-adv-x="1802" d="M96 1067v98q130 0 242.5 -40t186 -123t73.5 -193q0 -115 42.5 -214.5t117.5 -152.5v670q0 53 -0.5 78t-4.5 51t-8 34.5t-18 17.5t-27 10.5t-41 3.5l-75 6v82q159 -6 317 -6q161 0 320 6v-82l-76 -6q-21 -2 -32 -3t-23.5 -6t-18 -8t-11.5 -15.5t-7.5 -22.5t-3.5 -34.5 t-2 -45v-60.5v-670q75 53 117 152.5t42 214.5q0 110 73.5 193t186.5 123t244 40v-98q-96 0 -160.5 -76.5t-64.5 -181.5q0 -182 -124 -317t-314 -177v-39v-60.5t2 -45t3.5 -34t8 -22t11.5 -16t17.5 -8t23.5 -5.5t32 -3l76 -6v-82q-159 6 -320 6q-158 0 -317 -6v82l75 6 q28 2 41 3.5t27 10.5t18 17t8.5 34t4.5 51v78v39q-190 42 -314.5 177.5t-124.5 316.5q0 105 -64 181.5t-159 76.5z" />
<glyph unicode="&#x3a9;" horiz-adv-x="1568" d="M27 389h67l53 -168h302v23q-149 113 -235.5 273.5t-86.5 340.5q0 130 46.5 248.5t135.5 204.5q94 91 218.5 138.5t258.5 47.5t258 -47.5t218 -138.5q89 -86 136.5 -204.5t47.5 -248.5q0 -179 -87 -338.5t-237 -275.5v-23h301l54 168h67l-117 -389h-516q96 198 140 334 q84 253 84 532q0 127 -18 228t-70 184q-40 66 -110.5 102.5t-150.5 36.5q-97 0 -168 -43q-67 -42 -112 -131q-70 -146 -70 -385q0 -196 62 -436q42 -157 164 -422h-519z" />
<glyph unicode="&#x3b1;" horiz-adv-x="1480" d="M94 459q0 137 67.5 253.5t184 184.5t254.5 68q127 0 235.5 -66t174.5 -176q78 208 116 246l140 -99l37 -77q-10 -10 -54.5 -55t-64.5 -66.5t-52 -57t-53 -63.5q10 -44 15 -82q22 -235 47 -317q28 -89 73 -89q36 0 55 35.5t19 83.5h98q0 -88 -48 -152.5t-124 -64.5 q-102 0 -179.5 61.5t-125.5 166.5q-124 -228 -309 -228q-136 0 -252.5 65.5t-185 179.5t-68.5 249zM373 459q0 -77 12.5 -145t38 -125.5t71 -91.5t105.5 -34q92 0 154 68.5t112 187.5q-16 68 -22 127q-6 67 -15 121.5t-27.5 112.5t-44 97t-66 64t-91.5 25q-62 0 -107.5 -35 t-71 -95.5t-37 -129t-11.5 -147.5z" />
<glyph unicode="&#x3b2;" horiz-adv-x="1314" d="M18 -463q76 243 76 463v930q0 138 74 253.5t197.5 181t267.5 65.5q124 0 231.5 -42.5t176.5 -126.5t69 -192q0 -103 -74 -183.5t-186 -119.5q164 -42 274.5 -141t110.5 -238q0 -99 -51 -180.5t-136.5 -133t-192.5 -80t-222 -28.5q-151 0 -289 66v-31q0 -253 -63 -463 l-177 -31zM344 141q132 -78 289 -78q133 0 228 95t95 229q0 103 -72 178.5t-180.5 110.5t-234.5 35v98q94 0 175.5 29.5t134 90t52.5 140.5q0 106 -54.5 184t-143.5 78q-88 0 -155.5 -58t-100.5 -148t-33 -195v-789z" />
<glyph unicode="&#x3b3;" horiz-adv-x="1331" d="M94 512q0 87 18 166t52.5 144t91.5 104t129 39q89 0 161 -31.5t122 -85.5t87.5 -133.5t59 -166.5t35.5 -194q137 228 137 576l168 31l82 -31q0 -68 -13.5 -134t-44 -132.5t-59 -118t-80.5 -120t-84 -108t-92 -110.5q10 -185 10 -334q0 -101 -25.5 -186t-82.5 -142 t-137 -57q-61 0 -107 37.5t-66 95.5t-13.5 132t42.5 143q6 10 17.5 27t30.5 40.5t37 46t45.5 55t46 54.5t49.5 58.5t45 53.5q-64 484 -371 484q-81 0 -136.5 -59.5t-55.5 -143.5h-99zM535 -273.5q-5 -61.5 20.5 -101t73.5 -39.5q42 0 72 24.5t45.5 67.5t22.5 90.5t7 104.5 q0 122 -8 223q-176 -209 -195 -248q-33 -60 -38 -121.5z" />
<glyph unicode="&#x3b4;" horiz-adv-x="1185" d="M94 418q0 82 38 146.5t105 107t149.5 68.5t182.5 38q-207 169 -207 346q0 125 75 215.5t188 90.5q92 0 171.5 -20t145.5 -70.5t92 -125.5l-149 -84l-88 3q-15 43 -28 72t-33.5 61t-48.5 48.5t-62 16.5q-62 0 -93.5 -61t-31.5 -146q0 -38 15 -75.5t33.5 -63.5t56 -59 t59.5 -50t67 -49q47 -33 71.5 -51t69 -52t70 -57.5t58 -58t50 -62.5t30 -62t12.5 -66q0 -126 -69 -231t-183 -163.5t-246 -58.5q-133 0 -247.5 58.5t-183.5 163.5t-69 231zM373 418q0 -68 13 -129.5t38.5 -113t69.5 -82t100 -30.5q73 0 124.5 54t73 131.5t21.5 169.5 q0 76 -33.5 146t-91.5 122q-133 -13 -224 -84.5t-91 -183.5z" />
<glyph unicode="&#x3b5;" horiz-adv-x="1124" d="M94 297q0 164 178 229q-79 66 -79 168q0 82 57.5 142.5t144 88t187.5 27.5q199 0 356 -123l-59 -77q-133 102 -297 102q-60 0 -100 -47.5t-40 -112.5q0 -72 72 -121q111 9 229 9l21 -107l-21 -51q-158 0 -280 25q-119 -45 -119 -152q0 -67 44.5 -118t113.5 -76t149 -25 q88 0 167.5 39.5t133.5 109.5l78 -57q-67 -91 -166.5 -140.5t-212.5 -49.5q-108 0 -203 17t-176.5 52.5t-129.5 99t-48 148.5z" />
<glyph unicode="&#x3b6;" horiz-adv-x="1081" d="M94 348q0 179 44.5 344t133.5 298.5t211 205.5q-72 85 -63 199l119 20l59 -20q-9 -75 29 -142q70 17 133 17q198 0 198 -101q0 -98 -198 -98q-98 0 -180 45q-63 -46 -106 -128.5t-64 -191.5t-29 -214t-8 -234q0 -104 71 -186t179 -115l202 -63q90 -27 149.5 -93.5 t59.5 -152.5q0 -103 -42 -176.5t-120 -73.5q-92 0 -151 72l76 61q27 -35 75 -35q22 0 35.5 12.5t19.5 37.5t7.5 46.5t1.5 55.5q0 54 -39.5 93.5t-101.5 59.5l-201 62q-54 17 -90 29t-87 31t-85.5 37t-75.5 41.5t-67 50t-49.5 57.5t-34.5 69t-11 80z" />
<glyph unicode="&#x3b7;" horiz-adv-x="1251" d="M49 803v74q86 5 156 20.5t227 67.5l12 -13v-153l164 127q48 39 144 39q154 0 237 -86q40 -43 56 -108.5t16 -184.5v-996h-250v963q0 123 -46 179t-147 56q-68 0 -121 -42.5t-53 -96.5v-649h-249v653q0 91 -9.5 116t-44.5 28z" />
<glyph unicode="&#x3b8;" horiz-adv-x="1036" d="M94 690q0 142 23 268.5t71 235t132.5 172.5t197.5 64t197.5 -64t132.5 -172.5t71 -235t23 -268.5q0 -139 -23.5 -263.5t-72 -230.5t-133 -168.5t-195.5 -62.5t-195.5 62.5t-133 168.5t-72 230.5t-23.5 263.5zM373 641q0 -80 1.5 -136.5t5.5 -130t14 -123.5t25.5 -96 t40.5 -69t58 -23t58 23t40.5 69t25.5 96t14.5 123t6 130.5t1.5 136.5h-291zM373 739h291q0 81 -1.5 139.5t-6 133.5t-14.5 126.5t-25.5 98.5t-40.5 70.5t-58 23.5t-58 -23.5t-40.5 -71t-25.5 -98.5t-14 -126t-5.5 -133t-1.5 -140z" />
<glyph unicode="&#x3b9;" horiz-adv-x="931" d="M188 233v697h250v-697q0 -70 46.5 -120t113.5 -50q61 0 101 50t40 120h99q0 -109 -69.5 -188.5t-170.5 -79.5q-107 0 -197.5 28t-151.5 90.5t-61 149.5z" />
<glyph unicode="&#x3ba;" horiz-adv-x="1251" d="M94 0v930h250v-324q43 34 125 137q36 47 68.5 82.5t74 69.5t88.5 52t97 18q81 0 145.5 -49t87.5 -128l-94 -26q-13 46 -52.5 75t-86.5 29q-40 0 -75 -14.5t-69 -46.5t-53 -54.5t-53 -66.5q-58 -78 -117 -129q74 -6 137.5 -21.5t119 -44t88 -74.5t32.5 -106 q0 -38 0.5 -58.5t2.5 -54.5t8 -53t15 -40t25 -30.5t37 -9.5q69 0 116.5 49.5t47.5 120.5h98q0 -110 -76.5 -189t-185.5 -79q-140 0 -239 101t-99 243q0 129 -213 148v-457h-250z" />
<glyph unicode="&#x3bb;" horiz-adv-x="1226" d="M94 49l445 879l-37 121q-12 37 -17.5 54.5t-19 49t-24.5 47t-28.5 28.5t-37.5 13q-33 0 -49.5 -32.5t-16.5 -78.5h-98q0 75 15 137t53.5 106t95.5 44q24 0 46.5 -12t39.5 -28t35.5 -47t29.5 -54t26.5 -66t22.5 -65t21 -68l225 -731q13 -44 22.5 -69t26.5 -58t40 -49 t51 -16q35 0 54 32.5t19 77.5h99q0 -75 -16.5 -137.5t-57 -106t-98.5 -43.5q-27 0 -51.5 11.5t-43 28t-37 46.5t-31 54.5t-27.5 65.5t-23 66t-21 68l-82 269l-272 -537l-189 -33z" />
<glyph unicode="&#x3bc;" horiz-adv-x="1492" d="M188 -512q35 347 35 745v697h250v-697q0 -72 56 -121t133 -49q119 0 198 99q-10 38 -10 71v697h250v-697q0 -71 24.5 -120.5t75.5 -49.5q50 0 75 49.5t25 120.5h99q0 -108 -54.5 -188t-144.5 -80q-85 0 -160.5 28.5t-126.5 80.5q-101 -109 -251 -109q-184 0 -304 66 q23 -270 115 -543l-190 -35z" />
<glyph unicode="&#x3bd;" horiz-adv-x="1261" d="M94 639q0 85 23 157.5t74 120.5t120 48q130 0 233.5 -74t129.5 -195l110 -512l95 54q90 53 140 146.5t50 201.5q0 31 -13.5 59.5t-30 48t-50 43.5t-53 35.5t-60.5 34.5l56 160l65 57q184 -98 184 -438q0 -135 -63 -251t-176 -183l-340 -195l-135 625q-9 42 -14.5 65.5 t-16 62.5t-21 62t-24 47t-30.5 35.5t-36 11.5q-44 0 -72 -35.5t-37 -83t-9 -108.5h-99z" />
<glyph unicode="&#x3be;" horiz-adv-x="1206" d="M94 233q0 226 246 336q-168 64 -168 209q0 155 101 267.5t268 171.5q-64 84 -70 178l119 20l57 -20q6 -81 49 -138q83 13 160 13q44 0 69 -0.5t65.5 -3.5t64 -9.5t48.5 -17t36.5 -28.5t11.5 -42q0 -18 -6.5 -32.5t-21.5 -24.5t-29.5 -17t-40.5 -11.5t-44.5 -7t-51 -4 t-50 -1.5h-51.5q-108 0 -201 49q-93 -52 -148.5 -143t-55.5 -199q0 -101 129 -139q161 27 374 27l19 -105l-19 -53q-229 0 -338 8q-112 -39 -177.5 -110t-65.5 -173q0 -133 245 -184l302 -63q101 -21 170 -88.5t69 -159.5q0 -101 -47.5 -175.5t-128.5 -74.5q-96 0 -164 68 l72 69q39 -39 92 -39q42 0 60 43.5t18 108.5q0 57 -47 96.5t-115 54.5l-301 62q-49 10 -77.5 16.5t-77 18t-78 20.5t-70.5 24t-66.5 29t-53.5 33t-44 39.5t-26.5 46.5t-10.5 55z" />
<glyph unicode="&#x3bf;" horiz-adv-x="1138" d="M82 459q0 245 131 375.5t375 130.5q227 0 349 -124.5t122 -357.5q0 -249 -133 -383.5t-379 -134.5q-223 0 -344 129t-121 365zM360 508q0 -445 224 -445q104 0 150 84.5t46 272.5q0 226 -53.5 336t-163.5 110q-106 0 -154.5 -86t-48.5 -272z" />
<glyph unicode="&#x3c0;" horiz-adv-x="1484" d="M94 698q0 119 65.5 207t168.5 88q110 0 331 -36t334 -35q162 3 307 61l89 -145l2 -86q-136 -55 -271 -70v-508q0 -32 18 -54.5t49.5 -34.5t66 -17t75.5 -5v-98q-61 0 -110 2.5t-104.5 10t-97 22.5t-76 37t-53 57t-18.5 80v504q-57 5 -309 45v-289q0 -130 -52.5 -242.5 t-149.5 -181.5t-216 -69v176q132 0 226 92.5t94 224.5v301q-90 8 -135 8q-29 0 -48 -1t-41.5 -5t-34 -14t-11.5 -25h-99z" />
<glyph unicode="&#x3c1;" horiz-adv-x="1155" d="M94 459q0 135 64 251.5t176 185.5t244 69t243.5 -69t175.5 -185.5t64 -251.5q0 -134 -64.5 -247.5t-175.5 -180t-243 -66.5q-84 0 -158 27q8 -106 8 -162q0 -167 -88 -309l-158 63l-55 68q51 82 51 178q0 105 -42 313.5t-42 315.5zM373 459q0 -42 3.5 -93t7 -81.5t12 -96 t10.5 -84.5q80 -41 172 -41q59 0 100.5 34t63 94t31 125t9.5 143q0 407 -204 407q-205 0 -205 -407z" />
<glyph unicode="&#x3c2;" horiz-adv-x="1015" d="M94 549q0 122 75.5 218.5t195 147t256.5 50.5q102 0 173.5 -13.5t125.5 -60.5l-62 -105l-53 -28q-40 34 -62 52t-58.5 37t-63.5 19q-119 0 -198 -94t-79 -223q0 -69 2 -108t18 -90.5t48 -76.5q49 -37 166.5 -92.5t169.5 -97.5q114 -92 114 -211q0 -73 -41 -125.5 t-104 -52.5q-167 0 -283 110l66 74q92 -86 217 -86q23 0 35 23.5t12 56.5q0 72 -78 135q-51 41 -172 88.5t-172 85.5q-54 41 -92.5 77t-77 82.5t-58.5 99t-20 108.5z" />
<glyph unicode="&#x3c3;" horiz-adv-x="1236" d="M94 459q0 245 131 375.5t375 130.5q24 0 70 -4q177 29 391 178l69 -72l13 -51q-116 -81 -275 -113q203 -116 203 -420q0 -249 -133 -383.5t-379 -134.5q-223 0 -344 129t-121 365zM373 508q0 -445 223 -445q104 0 150.5 84.5t46.5 272.5q0 226 -54 336t-164 110 q-106 0 -154 -86t-48 -272z" />
<glyph unicode="&#x3c4;" horiz-adv-x="1255" d="M94 698q0 119 65.5 207t168.5 88q42 0 301 -75q101 -28 205.5 -13t195.5 70l113 -129l18 -86q-193 -114 -409 -111v-416q0 -70 47 -120t114 -50q60 0 100 50.5t40 119.5h98q0 -109 -68.5 -188.5t-169.5 -79.5q-107 0 -198 28t-152 90.5t-61 149.5v463q-116 47 -174 47 q-29 0 -48 -1t-41.5 -5t-34 -14t-11.5 -25h-99z" />
<glyph unicode="&#x3c5;" horiz-adv-x="1310" d="M94 698q0 109 46 188t130 79q128 0 222 -76.5t94 -190.5q0 -66 -10.5 -195t-10.5 -194q0 -99 54 -172.5t139 -73.5q105 0 188.5 64t127.5 166t44 219q0 50 -21 94.5t-60 80.5t-80.5 63t-94.5 53l47 164l64 61q128 -65 186 -204t58 -312q0 -144 -57.5 -268.5t-164 -201.5 t-237.5 -77q-122 0 -228 39.5t-174.5 120t-68.5 184.5q0 65 24.5 194t24.5 195q0 40 -1 61t-7 50.5t-20.5 43t-37.5 13.5q-25 0 -41.5 -14t-23.5 -41t-9.5 -52t-2.5 -61h-99z" />
<glyph unicode="&#x3c6;" horiz-adv-x="1355" d="M94 465q0 60 19.5 118.5t49 106t75.5 97.5t89 87t99 80l59 -77q-40 -31 -64.5 -75.5t-34 -109.5t-11.5 -106.5t-2 -120.5q0 -128 55.5 -234.5t149.5 -146.5q-3 36 -8 104.5t-8.5 111.5t-6 102.5t-2.5 109.5q0 88 24.5 169.5t68.5 144.5t110.5 101t144.5 38q110 0 194 -73 t125.5 -185t41.5 -242q0 -177 -121 -307.5t-307 -173.5l4 -154q0 -95 -37.5 -182.5t-106.5 -151.5l-137 101l-35 79q66 66 66 154l-4 141q-135 19 -245.5 85t-177.5 174t-67 235zM803 512q0 -108 22 -401q74 52 116 148t42 206v68t-1 67.5t-3.5 69t-6 60.5t-9.5 55.5 t-14.5 41t-20.5 30t-27 9.5q-18 0 -32.5 -8t-24.5 -26t-17 -35.5t-11.5 -49t-7 -53.5t-4 -60.5t-1.5 -60v-61.5z" />
</font>
</defs>
</svg>
