<?xml version="1.0" encoding="utf-8"?>
<!-- Generator: Adobe Illustrator 22.1.0, SVG Export Plug-In . SVG Version: 6.00 Build 0)  -->
<svg version="1.1" id="Layer_1" xmlns="http://www.w3.org/2000/svg" xmlns:xlink="http://www.w3.org/1999/xlink" x="0px" y="0px"
	 viewBox="0 0 199.6 64.7" style="enable-background:new 0 0 199.6 64.7;" xml:space="preserve">
<style type="text/css">
	.st0{fill:#231F20;}
</style>
<g>
	<g>
		<g>
			<g>
				<path class="st0" d="M106.8,60l0.8-0.1c0.1,0.5,0.4,0.9,0.7,1.1c0.4,0.2,0.8,0.4,1.3,0.4c0.3,0,0.7-0.1,0.9-0.2
					c0.3-0.1,0.5-0.3,0.6-0.5c0.1-0.2,0.2-0.4,0.2-0.7c0-0.2-0.1-0.4-0.2-0.6c-0.2-0.2-0.4-0.3-0.7-0.4c-0.3-0.1-0.7-0.2-1.2-0.3
					c-1.6-0.3-2.3-1-2.3-1.9c0-0.6,0.2-1.1,0.7-1.4c0.5-0.3,1-0.5,1.7-0.5c1.4,0,2.2,0.6,2.5,1.8l-0.8,0.1c-0.1-0.5-0.3-0.8-0.6-1
					c-0.2-0.2-0.6-0.3-1.1-0.3c-0.3,0-0.6,0-0.9,0.1c-0.3,0.1-0.4,0.2-0.6,0.4c-0.1,0.2-0.2,0.3-0.2,0.6c0,0.2,0.1,0.4,0.2,0.6
					c0.1,0.2,0.3,0.3,0.7,0.4c0.3,0.1,0.7,0.2,1.3,0.4c1,0.2,1.6,0.5,1.9,0.8c0.3,0.3,0.4,0.7,0.4,1.1c0,0.4-0.1,0.8-0.3,1.1
					c-0.2,0.3-0.5,0.5-0.9,0.7c-0.4,0.2-0.9,0.3-1.4,0.3c-0.3,0-0.7,0-0.9-0.1c-0.3-0.1-0.5-0.2-0.8-0.3c-0.2-0.1-0.4-0.3-0.6-0.6
					C107,60.8,106.9,60.4,106.8,60z"/>
				<path class="st0" d="M114.7,60.8v3.6h-0.8V55h0.8v1.1c0.7-0.8,1.5-1.3,2.5-1.3c0.4,0,0.9,0.1,1.2,0.2c0.4,0.1,0.7,0.4,0.9,0.7
					c0.3,0.3,0.5,0.7,0.6,1.1c0.2,0.4,0.2,0.9,0.2,1.5c0,1.1-0.3,2-0.8,2.6c-0.5,0.7-1.3,1-2.3,1C116.2,62,115.3,61.6,114.7,60.8z
					 M119.4,58.4c0-0.6-0.1-1.1-0.3-1.5c-0.2-0.4-0.5-0.8-0.8-1c-0.3-0.2-0.7-0.3-1.2-0.3c-0.4,0-0.7,0.1-1,0.2
					c-0.3,0.1-0.6,0.3-0.8,0.6c-0.2,0.3-0.4,0.6-0.5,0.9c-0.1,0.4-0.2,0.8-0.2,1.3c0,0.9,0.2,1.5,0.6,2c0.4,0.5,1,0.7,1.8,0.7
					c0.4,0,0.7-0.1,1-0.2c0.3-0.1,0.5-0.3,0.7-0.6c0.2-0.3,0.4-0.6,0.5-0.9C119.4,59.2,119.4,58.8,119.4,58.4z"/>
				<path class="st0" d="M127.4,61.8h-0.9c-0.1-0.3-0.2-0.7-0.3-1c-0.7,0.8-1.7,1.2-2.8,1.2c-0.4,0-0.8-0.1-1.1-0.2
					c-0.3-0.1-0.6-0.4-0.8-0.6c-0.2-0.3-0.3-0.6-0.3-1c0-0.3,0-0.5,0.1-0.8c0.1-0.2,0.2-0.4,0.4-0.6c0.2-0.2,0.4-0.3,0.7-0.4
					c0.3-0.1,0.9-0.2,1.7-0.3c0.9-0.1,1.5-0.3,1.9-0.4c0-0.4,0-0.7,0-0.9c0-0.2-0.1-0.4-0.2-0.6c-0.1-0.2-0.3-0.3-0.6-0.4
					c-0.3-0.1-0.6-0.1-1-0.1c-1.2,0-1.9,0.5-2.1,1.5l-0.8-0.1c0.3-1.3,1.2-2,2.9-2c0.5,0,1,0.1,1.3,0.2c0.4,0.1,0.6,0.3,0.8,0.5
					c0.2,0.2,0.3,0.5,0.3,0.8c0.1,0.3,0.1,0.8,0.1,1.4l0,1.9c0,0.5,0,0.9,0.1,1.2C127.2,61.1,127.3,61.4,127.4,61.8z M126.3,58.6
					v-0.4c-0.5,0.2-1.2,0.3-2.1,0.5c-0.5,0.1-0.9,0.2-1.1,0.3c-0.2,0.1-0.4,0.2-0.5,0.4c-0.1,0.2-0.2,0.4-0.2,0.6
					c0,0.4,0.1,0.7,0.4,0.9c0.3,0.2,0.6,0.3,1.1,0.3c0.3,0,0.5,0,0.8-0.1c0.2-0.1,0.5-0.2,0.7-0.3c0.2-0.1,0.4-0.3,0.6-0.5
					c0.2-0.2,0.3-0.4,0.3-0.7C126.2,59.4,126.3,59,126.3,58.6z"/>
				<path class="st0" d="M134.8,59.6c-0.3,0.8-0.6,1.4-1.1,1.8c-0.5,0.4-1.1,0.6-1.9,0.6c-0.6,0-1.1-0.1-1.6-0.4
					c-0.4-0.2-0.8-0.6-1.1-1.2c-0.3-0.6-0.4-1.2-0.4-2c0-0.5,0.1-0.9,0.2-1.3c0.1-0.4,0.3-0.7,0.4-1c0.2-0.2,0.3-0.5,0.6-0.6
					c0.2-0.2,0.5-0.3,0.8-0.4c0.3-0.1,0.7-0.2,1.2-0.2c1.5,0,2.4,0.7,2.9,2.1l-0.8,0.1c-0.3-1-1-1.5-2.1-1.5c-0.4,0-0.7,0.1-0.9,0.2
					c-0.3,0.1-0.5,0.3-0.7,0.6c-0.2,0.3-0.3,0.5-0.4,0.9c-0.1,0.3-0.1,0.7-0.1,1.1c0,0.9,0.2,1.6,0.6,2.2c0.4,0.5,0.9,0.8,1.7,0.8
					c1,0,1.8-0.6,2.2-1.8L134.8,59.6z"/>
				<path class="st0" d="M142,58.5h-5.2c0,0.9,0.2,1.6,0.6,2.1c0.4,0.5,1,0.7,1.7,0.7c1,0,1.7-0.5,2.1-1.6l0.8,0.1
					c-0.3,0.8-0.6,1.3-1.1,1.7c-0.5,0.3-1.1,0.5-1.8,0.5c-1,0-1.7-0.3-2.3-0.9c-0.5-0.6-0.8-1.5-0.8-2.6c0-1.1,0.3-2,0.8-2.6
					c0.5-0.6,1.3-1,2.3-1C141,54.9,142,56.1,142,58.5z M141.2,57.9c-0.1-1.6-0.8-2.4-2.1-2.4c-0.6,0-1.1,0.2-1.5,0.6
					c-0.4,0.4-0.6,1-0.7,1.7H141.2z"/>
			</g>
			<path class="st0" d="M101.8,61.2l-0.6,0.7c-0.5-0.4-1-0.9-1.5-1.4c-0.7,1-1.6,1.4-2.6,1.4c-0.6,0-1.1-0.1-1.5-0.4
				c-0.5-0.2-0.8-0.6-1-1c-0.3-0.4-0.4-0.9-0.4-1.4c0-0.3,0-0.5,0.1-0.7c0.1-0.2,0.2-0.4,0.3-0.7c0.1-0.2,0.4-0.4,0.6-0.6
				c0.3-0.2,0.6-0.5,1.1-0.7c-0.3-0.5-0.6-0.8-0.8-1.2c-0.2-0.3-0.3-0.6-0.3-0.9c0-0.6,0.2-1.1,0.6-1.5c0.4-0.4,0.9-0.6,1.5-0.6
				c0.4,0,0.8,0.1,1.1,0.3c0.3,0.2,0.6,0.4,0.7,0.7c0.2,0.3,0.3,0.7,0.3,1.1c0,0.9-0.7,1.6-2,2.3c0.6,0.7,1.3,1.5,2.1,2.5
				c0.1-0.2,0.2-0.5,0.4-0.8l0.3-0.9l0.8,0.2c-0.3,0.8-0.6,1.5-0.9,2.1l0.7,0.8C101.1,60.6,101.4,60.9,101.8,61.2z M99.1,59.8
				C98.3,59,97.5,58,96.8,57c-0.7,0.4-1.2,0.8-1.4,1.1c-0.2,0.3-0.3,0.6-0.3,1c0,0.6,0.2,1.1,0.6,1.5c0.4,0.4,0.9,0.6,1.4,0.6
				C97.9,61.2,98.5,60.7,99.1,59.8z M98.7,54.2c0-0.4-0.1-0.7-0.4-0.9c-0.2-0.2-0.5-0.4-0.9-0.4c-0.4,0-0.7,0.1-0.9,0.4
				c-0.3,0.2-0.4,0.5-0.4,0.9c0,0.1,0,0.2,0.1,0.4c0,0.1,0.1,0.3,0.2,0.5c0.1,0.2,0.3,0.5,0.6,0.9C98.2,55.4,98.7,54.8,98.7,54.2z"
				/>
			<g>
				<path class="st0" d="M61.5,62h-0.8v-9.4h0.8V62z"/>
				<path class="st0" d="M64.4,53.8h-0.8v-1.2h0.8V53.8z M64.4,62h-0.8v-6.8h0.8V62z"/>
				<path class="st0" d="M71.8,55.2L69.1,62h-0.7l-2.7-6.8h0.8l2.2,5.8l2.2-5.8H71.8z"/>
				<path class="st0" d="M73.8,53.8H73v-1.2h0.8V53.8z M73.8,62H73v-6.8h0.8V62z"/>
				<path class="st0" d="M81.2,62h-0.8v-4.2c0-0.7-0.1-1.3-0.4-1.6c-0.3-0.3-0.7-0.5-1.1-0.5c-0.3,0-0.5,0-0.7,0.1
					c-0.2,0.1-0.4,0.2-0.6,0.4c-0.2,0.2-0.3,0.4-0.5,0.6c-0.1,0.2-0.2,0.5-0.2,0.7c0,0.3-0.1,0.7-0.1,1.4V62h-0.8v-6.8h0.8v1
					c0.6-0.8,1.3-1.2,2.2-1.2c1.5,0,2.3,0.8,2.3,2.5V62z"/>
				<path class="st0" d="M83.1,62.7l0.8,0.1c0.2,0.8,0.8,1.2,1.9,1.2c1.7,0,2.6-0.8,2.6-2.5v-0.7c-0.4,0.5-0.8,0.8-1.2,1
					c-0.4,0.2-0.9,0.2-1.3,0.2c-0.5,0-0.9-0.1-1.2-0.2c-0.4-0.2-0.7-0.4-1-0.7c-0.3-0.3-0.5-0.7-0.6-1.1c-0.1-0.4-0.2-0.9-0.2-1.4
					c0-0.7,0.1-1.3,0.4-1.9c0.3-0.6,0.6-1,1.1-1.2c0.4-0.3,1-0.4,1.6-0.4c0.5,0,1,0.1,1.4,0.3c0.4,0.2,0.8,0.5,1.1,1v-1.1h0.8v6.2
					c0,0.8-0.1,1.4-0.3,1.9c-0.2,0.5-0.6,0.9-1.1,1.1c-0.5,0.2-1.1,0.4-1.9,0.4C84.1,64.7,83.2,64.1,83.1,62.7z M88.4,58.6
					c0-0.9-0.2-1.6-0.6-2.1c-0.4-0.5-1-0.8-1.7-0.8c-0.4,0-0.7,0.1-1,0.2c-0.3,0.1-0.5,0.3-0.7,0.6c-0.2,0.3-0.4,0.6-0.5,0.9
					c-0.1,0.3-0.2,0.7-0.2,1.2c0,0.9,0.2,1.6,0.6,2.1c0.4,0.5,1,0.8,1.7,0.8c0.4,0,0.8-0.1,1.2-0.3c0.3-0.2,0.6-0.5,0.9-0.9
					C88.2,59.8,88.4,59.3,88.4,58.6z"/>
			</g>
		</g>
		<g>
			<polygon class="st0" points="36,0 36,35 38,35 38,5.8 60.7,35 62.2,33.8 			"/>
			<path class="st0" d="M25.9,29.9c-2.6,2-5.8,3.1-9.2,3.1C8.6,33,2,26.5,2,18.6C2,10.7,8.6,4.3,16.7,4.3c3.4,0,6.6,1.1,9.2,3.1
				c0.2,0.2,0.4,0.3,0.6,0.3c0.3,0,0.6-0.1,0.8-0.4c0.3-0.4,0.2-1-0.3-1.4c-3-2.3-6.7-3.5-10.4-3.5C7.5,2.3,0,9.6,0,18.6
				c0,9,7.5,16.3,16.7,16.4h0c3.7,0,7.3-1.2,10.4-3.5c0.3-0.2,0.4-0.5,0.4-0.8c0-0.2-0.1-0.5-0.2-0.6C27,29.6,26.4,29.5,25.9,29.9z"
				/>
			<path class="st0" d="M188.5,16.9c-4.9-1.1-9.5-2.2-9.5-6.8c0-3.3,3.7-6,8.3-6c5.3,0,8.2,3,8.5,3.3c0.3,0.3,0.8,0.5,1.3,0.1
				c0.4-0.4,0.4-1,0.1-1.3c0,0-3.3-4-9.9-4c-5.6,0-10.2,3.5-10.2,7.9c0,6.1,5.6,7.4,11,8.6c5,1.1,9.7,2.2,9.7,7
				c0,4.2-4.6,7.5-10.5,7.5c-6,0-10.7-4.2-10.8-4.2c-0.3-0.3-0.9-0.3-1.3,0c-0.2,0.2-0.2,0.4-0.2,0.6c0,0.3,0.1,0.5,0.3,0.7
				c0,0,5.1,4.7,12,4.7c6.9,0,12.4-4.1,12.4-9.3C199.6,19.5,193.7,18.1,188.5,16.9z"/>
			<polygon class="st0" points="95.1,2.2 95.1,31.4 70.7,0 70.7,35 72.7,35 72.7,5.8 97.1,37.2 97.1,2.2 			"/>
			<polygon class="st0" points="131.7,37.2 131.7,2.2 129.8,2.2 129.8,31.4 107.1,2.2 105.6,3.5 			"/>
			<polygon class="st0" points="140.2,0 140.2,35 142.2,35 142.2,5.8 164.9,35 166.4,33.8 			"/>
		</g>
	</g>
</g>
</svg>
