<?xml version="1.0" encoding="utf-8"?>
<!-- Generator: Adobe Illustrator 22.1.0, SVG Export Plug-In . SVG Version: 6.00 Build 0)  -->
<svg version="1.1" id="Layer_1" xmlns="http://www.w3.org/2000/svg" xmlns:xlink="http://www.w3.org/1999/xlink" x="0px" y="0px"
	 viewBox="0 0 89 37.3" style="enable-background:new 0 0 89 37.3;" xml:space="preserve">
<style type="text/css">
	.st0{fill:#124370;}
</style>
<g>
	<path class="st0" d="M23.6,37.1c0,0,0,0.1,0,0.2c-0.1,0.1-0.2,0.1-0.2,0.1h-2.9c-0.1,0-0.2-0.1-0.2-0.1L11,20.2L3.2,32.5v4.6v0.1
		c-0.1,0.1-0.1,0.1-0.2,0.1H0.2c0,0,0,0-0.1,0c0,0,0,0,0-0.1c-0.1,0-0.1,0-0.1,0s0,0,0-0.1v-37c0,0,0-0.1,0.1-0.1C0.1,0,0.2,0,0.2,0
		h2.9c0.1,0,0.1,0,0.2,0.1v0.1v31.3l7.6-12.2l0.8-1.3L23,0.1C23,0,23.2,0,23.5,0c0.1,0,0.1,0.1,0.1,0.2L12.8,17.5L23.6,37.1z"/>
	<path class="st0" d="M57,18.6c0,0.4,0,0.6,0,0.9c0,0.1,0,0.2,0,0.3c0,0.2,0,0.4-0.1,0.6c0,0.2,0,0.3,0,0.4c0,0.2-0.1,0.4-0.1,0.6
		c0,0.1,0,0.3,0,0.3c-0.1,0.2-0.1,0.4-0.1,0.5c-0.1,0.2-0.1,0.3-0.1,0.4c-0.1,0.2-0.1,0.3-0.2,0.5c0,0.1,0,0.3,0,0.3
		c-0.1,0.3-0.1,0.6-0.2,0.8c0,0.1-0.1,0.2-0.1,0.3c-0.1,0.2-0.1,0.4-0.1,0.5c-0.1,0.2-0.1,0.3-0.2,0.4c0,0.1-0.1,0.3-0.1,0.4
		c-0.1,0.2-0.2,0.3-0.2,0.5c-0.1,0.1-0.1,0.3-0.1,0.3c-0.1,0.2-0.2,0.3-0.2,0.5c-0.1,0.1-0.1,0.2-0.1,0.3c-0.1,0.2-0.2,0.3-0.2,0.5
		c0,0.1-0.1,0.1-0.1,0.2c-0.3,0.6-0.6,1.1-0.9,1.7v0.1c-0.1,0.2-0.2,0.4-0.4,0.6c0,0,0,0,0,0.1c-0.1,0.2-0.3,0.3-0.3,0.5l-0.1,0.1
		c-2.7,4-6.6,6.5-11.1,6.5c-4.5,0-8.5-2.5-11.2-6.5c-0.1-0.2-0.3-0.4-0.4-0.6c0,0,0,0,0-0.1c-0.2-0.2-0.2-0.4-0.4-0.5
		c0-0.1,0-0.1,0-0.1c-0.3-0.6-0.6-1.1-0.9-1.8c0-0.1-0.1-0.1-0.1-0.1c-0.1-0.2-0.2-0.3-0.2-0.5c0-0.1-0.1-0.2-0.1-0.3
		c-0.1-0.2-0.2-0.3-0.2-0.5c0-0.1-0.1-0.2-0.1-0.3c-0.1-0.2-0.2-0.3-0.2-0.5c-0.1-0.1-0.1-0.3-0.1-0.4c-0.1-0.2-0.1-0.3-0.2-0.4
		c0-0.1-0.1-0.3-0.1-0.5c-0.1-0.1-0.1-0.3-0.1-0.3c-0.1-0.3-0.1-0.6-0.2-0.8c-0.1-0.1-0.1-0.2-0.1-0.3C28,22.9,28,22.7,28,22.6
		c-0.1-0.2-0.1-0.3-0.1-0.4c-0.1-0.1-0.1-0.3-0.1-0.5c0-0.1-0.1-0.2-0.1-0.3c0-0.2,0-0.4-0.1-0.5c0-0.2,0-0.3,0-0.4
		c0-0.2,0-0.4-0.1-0.6c0-0.1,0-0.2,0-0.3c0-0.3,0-0.6,0-0.9c0-0.3,0-0.6,0-0.9c0-0.2,0-0.2,0-0.3c0.1-0.2,0.1-0.4,0.1-0.6
		c0-0.1,0-0.3,0-0.3c0.1-0.2,0.1-0.4,0.1-0.6c0-0.2,0.1-0.2,0.1-0.3c0-0.2,0-0.4,0.1-0.5c0-0.2,0-0.3,0.1-0.4c0-0.2,0-0.3,0.1-0.5
		c0-0.1,0-0.2,0.1-0.3c0.1-0.3,0.1-0.5,0.2-0.8c0.1-0.2,0.1-0.3,0.1-0.4c0-0.1,0.1-0.3,0.1-0.4c0.1-0.2,0.1-0.3,0.2-0.4
		c0.1-0.1,0.1-0.3,0.1-0.4c0-0.2,0.1-0.4,0.2-0.5c0-0.2,0.1-0.3,0.1-0.3c0.1-0.2,0.2-0.4,0.2-0.5c0-0.2,0.1-0.2,0.1-0.3
		c0.1-0.2,0.2-0.4,0.2-0.5c0.1-0.1,0.1-0.2,0.1-0.2c0.4-0.8,0.8-1.6,1.3-2.3c0,0,0.1,0,0.1-0.1c2.6-4.3,6.8-7,11.5-7
		c4.5,0,8.4,2.5,11.1,6.4c0.1,0.2,0.3,0.4,0.4,0.6c0,0.1,0,0.1,0,0.1c0.5,0.8,0.9,1.5,1.3,2.3c0,0.1,0.1,0.2,0.1,0.2
		c0.1,0.1,0.2,0.3,0.2,0.5c0,0.1,0.1,0.2,0.1,0.3c0,0.1,0.1,0.3,0.2,0.5c0,0.1,0.1,0.2,0.1,0.3c0,0.1,0.1,0.3,0.2,0.5
		c0,0.1,0.1,0.3,0.1,0.4c0.1,0.2,0.1,0.3,0.2,0.4c0.1,0.1,0.1,0.3,0.1,0.4c0,0.2,0.1,0.3,0.1,0.4c0.1,0.3,0.2,0.6,0.2,0.8
		c0,0.1,0,0.2,0,0.3c0.1,0.2,0.1,0.3,0.2,0.5c0,0.2,0,0.3,0.1,0.4c0,0.1,0,0.3,0.1,0.5c0,0.1,0,0.2,0,0.3c0,0.2,0.1,0.4,0.1,0.6
		c0,0.1,0,0.2,0,0.3c0.1,0.2,0.1,0.4,0.1,0.7c0,0.1,0,0.1,0,0.3C57,18.1,57,18.3,57,18.6z M53.8,12.2c0-0.1,0-0.1,0-0.1
		c0-5.2-3.4-9.2-8.1-10.6c-1.1-0.3-2.2-0.5-3.3-0.5c-1.2,0-2.3,0.2-3.4,0.5c-4.7,1.5-8.1,5.4-8.1,10.6c0,0,0,0,0,0.1v13.1
		c0,5.3,3.4,9.2,8,10.7h0.1c1.1,0.4,2.2,0.5,3.4,0.5c1.1,0,2.2-0.2,3.3-0.5c0.1,0,0.1,0,0.1,0c4.6-1.5,8-5.4,8-10.7V12.2z"/>
	<path class="st0" d="M81.5,0c0.1,0,0.1,0.1,0.1,0.2c0,0.2,0,0.3-0.1,0.3H73v36.6v0.1c-0.1,0.1-0.1,0.1-0.1,0.1h-3
		c0,0-0.1,0-0.1-0.1c-0.1,0-0.1-0.1-0.1-0.1l0-36.6h-8.7C61,0.5,61,0.3,61,0.2C61,0.1,61.1,0,61.2,0h8.7h3H81.5z"/>
	<path class="st0" d="M89,0.1v37v0.1c-0.1,0.1-0.1,0.1-0.2,0.1h-2.9c0,0-0.1,0-0.1-0.1c-0.1,0-0.1-0.1-0.1-0.1v-37
		c0,0,0-0.1,0.1-0.1C85.8,0,85.9,0,85.9,0h2.9C88.9,0,88.9,0,89,0.1L89,0.1z"/>
</g>
</svg>
