<?xml version="1.0" encoding="utf-8"?>
<!-- Generator: Adobe Illustrator 23.0.2, SVG Export Plug-In . SVG Version: 6.00 Build 0)  -->
<svg version="1.1" id="Layer_1" xmlns="http://www.w3.org/2000/svg" xmlns:xlink="http://www.w3.org/1999/xlink" x="0px" y="0px"
	 viewBox="0 0 19.34 15.07" style="enable-background:new 0 0 19.34 15.07;" xml:space="preserve">
<style type="text/css">
	.st0{fill:#C9964A;}
</style>
<path class="st0" d="M9.28,14.83c0.76-0.51,9.03-6.08,9.61-6.47c0.58-0.39,0.67-1.15-0.2-1.74C17.82,6.04,9.73,0.58,9.17,0.2
	c-0.66-0.44-1.8-0.15-1.8,0.92c0,0.47,0,2.8,0,5.34H0.88C0.4,6.45,0,6.85,0,7.34v0.4c0,0.49,0.4,0.88,0.88,0.88h6.48
	c0,2.53,0,4.8,0,5.16C7.36,15.17,8.6,15.3,9.28,14.83z"/>
</svg>
